G04 #@! TF.GenerationSoftware,KiCad,Pcbnew,9.0.6*
G04 #@! TF.CreationDate,2026-04-18T18:03:36+05:30*
G04 #@! TF.ProjectId,Embedded Systems,456d6265-6464-4656-9420-53797374656d,1.0*
G04 #@! TF.SameCoordinates,Original*
G04 #@! TF.FileFunction,AssemblyDrawing,Bot*
%FSLAX46Y46*%
G04 Gerber Fmt 4.6, Leading zero omitted, Abs format (unit mm)*
G04 Created by KiCad (PCBNEW 9.0.6) date 2026-04-18 18:03:36*
%MOMM*%
%LPD*%
G01*
G04 APERTURE LIST*
%ADD10C,0.150000*%
%ADD11C,0.100000*%
G04 APERTURE END LIST*
D10*
X143352708Y-101494301D02*
X142876518Y-101494301D01*
X143447946Y-101780016D02*
X143114613Y-100780016D01*
X143114613Y-100780016D02*
X142781280Y-101780016D01*
X142447946Y-101113349D02*
X142447946Y-101780016D01*
X142447946Y-101208587D02*
X142400327Y-101160968D01*
X142400327Y-101160968D02*
X142305089Y-101113349D01*
X142305089Y-101113349D02*
X142162232Y-101113349D01*
X142162232Y-101113349D02*
X142066994Y-101160968D01*
X142066994Y-101160968D02*
X142019375Y-101256206D01*
X142019375Y-101256206D02*
X142019375Y-101780016D01*
X141114613Y-101780016D02*
X141114613Y-101256206D01*
X141114613Y-101256206D02*
X141162232Y-101160968D01*
X141162232Y-101160968D02*
X141257470Y-101113349D01*
X141257470Y-101113349D02*
X141447946Y-101113349D01*
X141447946Y-101113349D02*
X141543184Y-101160968D01*
X141114613Y-101732397D02*
X141209851Y-101780016D01*
X141209851Y-101780016D02*
X141447946Y-101780016D01*
X141447946Y-101780016D02*
X141543184Y-101732397D01*
X141543184Y-101732397D02*
X141590803Y-101637158D01*
X141590803Y-101637158D02*
X141590803Y-101541920D01*
X141590803Y-101541920D02*
X141543184Y-101446682D01*
X141543184Y-101446682D02*
X141447946Y-101399063D01*
X141447946Y-101399063D02*
X141209851Y-101399063D01*
X141209851Y-101399063D02*
X141114613Y-101351444D01*
X140495565Y-101780016D02*
X140590803Y-101732397D01*
X140590803Y-101732397D02*
X140638422Y-101637158D01*
X140638422Y-101637158D02*
X140638422Y-100780016D01*
X139971755Y-101780016D02*
X140066993Y-101732397D01*
X140066993Y-101732397D02*
X140114612Y-101684777D01*
X140114612Y-101684777D02*
X140162231Y-101589539D01*
X140162231Y-101589539D02*
X140162231Y-101303825D01*
X140162231Y-101303825D02*
X140114612Y-101208587D01*
X140114612Y-101208587D02*
X140066993Y-101160968D01*
X140066993Y-101160968D02*
X139971755Y-101113349D01*
X139971755Y-101113349D02*
X139828898Y-101113349D01*
X139828898Y-101113349D02*
X139733660Y-101160968D01*
X139733660Y-101160968D02*
X139686041Y-101208587D01*
X139686041Y-101208587D02*
X139638422Y-101303825D01*
X139638422Y-101303825D02*
X139638422Y-101589539D01*
X139638422Y-101589539D02*
X139686041Y-101684777D01*
X139686041Y-101684777D02*
X139733660Y-101732397D01*
X139733660Y-101732397D02*
X139828898Y-101780016D01*
X139828898Y-101780016D02*
X139971755Y-101780016D01*
X138781279Y-101113349D02*
X138781279Y-101922873D01*
X138781279Y-101922873D02*
X138828898Y-102018111D01*
X138828898Y-102018111D02*
X138876517Y-102065730D01*
X138876517Y-102065730D02*
X138971755Y-102113349D01*
X138971755Y-102113349D02*
X139114612Y-102113349D01*
X139114612Y-102113349D02*
X139209850Y-102065730D01*
X138781279Y-101732397D02*
X138876517Y-101780016D01*
X138876517Y-101780016D02*
X139066993Y-101780016D01*
X139066993Y-101780016D02*
X139162231Y-101732397D01*
X139162231Y-101732397D02*
X139209850Y-101684777D01*
X139209850Y-101684777D02*
X139257469Y-101589539D01*
X139257469Y-101589539D02*
X139257469Y-101303825D01*
X139257469Y-101303825D02*
X139209850Y-101208587D01*
X139209850Y-101208587D02*
X139162231Y-101160968D01*
X139162231Y-101160968D02*
X139066993Y-101113349D01*
X139066993Y-101113349D02*
X138876517Y-101113349D01*
X138876517Y-101113349D02*
X138781279Y-101160968D01*
X135096518Y-100760016D02*
X135096518Y-101474301D01*
X135096518Y-101474301D02*
X135144137Y-101617158D01*
X135144137Y-101617158D02*
X135239375Y-101712397D01*
X135239375Y-101712397D02*
X135382232Y-101760016D01*
X135382232Y-101760016D02*
X135477470Y-101760016D01*
X134715565Y-100760016D02*
X134096518Y-100760016D01*
X134096518Y-100760016D02*
X134429851Y-101140968D01*
X134429851Y-101140968D02*
X134286994Y-101140968D01*
X134286994Y-101140968D02*
X134191756Y-101188587D01*
X134191756Y-101188587D02*
X134144137Y-101236206D01*
X134144137Y-101236206D02*
X134096518Y-101331444D01*
X134096518Y-101331444D02*
X134096518Y-101569539D01*
X134096518Y-101569539D02*
X134144137Y-101664777D01*
X134144137Y-101664777D02*
X134191756Y-101712397D01*
X134191756Y-101712397D02*
X134286994Y-101760016D01*
X134286994Y-101760016D02*
X134572708Y-101760016D01*
X134572708Y-101760016D02*
X134667946Y-101712397D01*
X134667946Y-101712397D02*
X134715565Y-101664777D01*
X122979375Y-101720016D02*
X122979375Y-100720016D01*
X122979375Y-100720016D02*
X122598423Y-100720016D01*
X122598423Y-100720016D02*
X122503185Y-100767635D01*
X122503185Y-100767635D02*
X122455566Y-100815254D01*
X122455566Y-100815254D02*
X122407947Y-100910492D01*
X122407947Y-100910492D02*
X122407947Y-101053349D01*
X122407947Y-101053349D02*
X122455566Y-101148587D01*
X122455566Y-101148587D02*
X122503185Y-101196206D01*
X122503185Y-101196206D02*
X122598423Y-101243825D01*
X122598423Y-101243825D02*
X122979375Y-101243825D01*
X121836518Y-101720016D02*
X121931756Y-101672397D01*
X121931756Y-101672397D02*
X121979375Y-101624777D01*
X121979375Y-101624777D02*
X122026994Y-101529539D01*
X122026994Y-101529539D02*
X122026994Y-101243825D01*
X122026994Y-101243825D02*
X121979375Y-101148587D01*
X121979375Y-101148587D02*
X121931756Y-101100968D01*
X121931756Y-101100968D02*
X121836518Y-101053349D01*
X121836518Y-101053349D02*
X121693661Y-101053349D01*
X121693661Y-101053349D02*
X121598423Y-101100968D01*
X121598423Y-101100968D02*
X121550804Y-101148587D01*
X121550804Y-101148587D02*
X121503185Y-101243825D01*
X121503185Y-101243825D02*
X121503185Y-101529539D01*
X121503185Y-101529539D02*
X121550804Y-101624777D01*
X121550804Y-101624777D02*
X121598423Y-101672397D01*
X121598423Y-101672397D02*
X121693661Y-101720016D01*
X121693661Y-101720016D02*
X121836518Y-101720016D01*
X121169851Y-101053349D02*
X120979375Y-101720016D01*
X120979375Y-101720016D02*
X120788899Y-101243825D01*
X120788899Y-101243825D02*
X120598423Y-101720016D01*
X120598423Y-101720016D02*
X120407947Y-101053349D01*
X119646042Y-101672397D02*
X119741280Y-101720016D01*
X119741280Y-101720016D02*
X119931756Y-101720016D01*
X119931756Y-101720016D02*
X120026994Y-101672397D01*
X120026994Y-101672397D02*
X120074613Y-101577158D01*
X120074613Y-101577158D02*
X120074613Y-101196206D01*
X120074613Y-101196206D02*
X120026994Y-101100968D01*
X120026994Y-101100968D02*
X119931756Y-101053349D01*
X119931756Y-101053349D02*
X119741280Y-101053349D01*
X119741280Y-101053349D02*
X119646042Y-101100968D01*
X119646042Y-101100968D02*
X119598423Y-101196206D01*
X119598423Y-101196206D02*
X119598423Y-101291444D01*
X119598423Y-101291444D02*
X120074613Y-101386682D01*
X119169851Y-101720016D02*
X119169851Y-101053349D01*
X119169851Y-101243825D02*
X119122232Y-101148587D01*
X119122232Y-101148587D02*
X119074613Y-101100968D01*
X119074613Y-101100968D02*
X118979375Y-101053349D01*
X118979375Y-101053349D02*
X118884137Y-101053349D01*
X112316518Y-100760016D02*
X112316518Y-101474301D01*
X112316518Y-101474301D02*
X112364137Y-101617158D01*
X112364137Y-101617158D02*
X112459375Y-101712397D01*
X112459375Y-101712397D02*
X112602232Y-101760016D01*
X112602232Y-101760016D02*
X112697470Y-101760016D01*
X111316518Y-101760016D02*
X111887946Y-101760016D01*
X111602232Y-101760016D02*
X111602232Y-100760016D01*
X111602232Y-100760016D02*
X111697470Y-100902873D01*
X111697470Y-100902873D02*
X111792708Y-100998111D01*
X111792708Y-100998111D02*
X111887946Y-101045730D01*
X118730327Y-45880016D02*
X118730327Y-44880016D01*
X118730327Y-44880016D02*
X118492232Y-44880016D01*
X118492232Y-44880016D02*
X118349375Y-44927635D01*
X118349375Y-44927635D02*
X118254137Y-45022873D01*
X118254137Y-45022873D02*
X118206518Y-45118111D01*
X118206518Y-45118111D02*
X118158899Y-45308587D01*
X118158899Y-45308587D02*
X118158899Y-45451444D01*
X118158899Y-45451444D02*
X118206518Y-45641920D01*
X118206518Y-45641920D02*
X118254137Y-45737158D01*
X118254137Y-45737158D02*
X118349375Y-45832397D01*
X118349375Y-45832397D02*
X118492232Y-45880016D01*
X118492232Y-45880016D02*
X118730327Y-45880016D01*
X117730327Y-45880016D02*
X117730327Y-45213349D01*
X117730327Y-44880016D02*
X117777946Y-44927635D01*
X117777946Y-44927635D02*
X117730327Y-44975254D01*
X117730327Y-44975254D02*
X117682708Y-44927635D01*
X117682708Y-44927635D02*
X117730327Y-44880016D01*
X117730327Y-44880016D02*
X117730327Y-44975254D01*
X116825566Y-45213349D02*
X116825566Y-46022873D01*
X116825566Y-46022873D02*
X116873185Y-46118111D01*
X116873185Y-46118111D02*
X116920804Y-46165730D01*
X116920804Y-46165730D02*
X117016042Y-46213349D01*
X117016042Y-46213349D02*
X117158899Y-46213349D01*
X117158899Y-46213349D02*
X117254137Y-46165730D01*
X116825566Y-45832397D02*
X116920804Y-45880016D01*
X116920804Y-45880016D02*
X117111280Y-45880016D01*
X117111280Y-45880016D02*
X117206518Y-45832397D01*
X117206518Y-45832397D02*
X117254137Y-45784777D01*
X117254137Y-45784777D02*
X117301756Y-45689539D01*
X117301756Y-45689539D02*
X117301756Y-45403825D01*
X117301756Y-45403825D02*
X117254137Y-45308587D01*
X117254137Y-45308587D02*
X117206518Y-45260968D01*
X117206518Y-45260968D02*
X117111280Y-45213349D01*
X117111280Y-45213349D02*
X116920804Y-45213349D01*
X116920804Y-45213349D02*
X116825566Y-45260968D01*
X116349375Y-45880016D02*
X116349375Y-45213349D01*
X116349375Y-44880016D02*
X116396994Y-44927635D01*
X116396994Y-44927635D02*
X116349375Y-44975254D01*
X116349375Y-44975254D02*
X116301756Y-44927635D01*
X116301756Y-44927635D02*
X116349375Y-44880016D01*
X116349375Y-44880016D02*
X116349375Y-44975254D01*
X116016042Y-45213349D02*
X115635090Y-45213349D01*
X115873185Y-44880016D02*
X115873185Y-45737158D01*
X115873185Y-45737158D02*
X115825566Y-45832397D01*
X115825566Y-45832397D02*
X115730328Y-45880016D01*
X115730328Y-45880016D02*
X115635090Y-45880016D01*
X114873185Y-45880016D02*
X114873185Y-45356206D01*
X114873185Y-45356206D02*
X114920804Y-45260968D01*
X114920804Y-45260968D02*
X115016042Y-45213349D01*
X115016042Y-45213349D02*
X115206518Y-45213349D01*
X115206518Y-45213349D02*
X115301756Y-45260968D01*
X114873185Y-45832397D02*
X114968423Y-45880016D01*
X114968423Y-45880016D02*
X115206518Y-45880016D01*
X115206518Y-45880016D02*
X115301756Y-45832397D01*
X115301756Y-45832397D02*
X115349375Y-45737158D01*
X115349375Y-45737158D02*
X115349375Y-45641920D01*
X115349375Y-45641920D02*
X115301756Y-45546682D01*
X115301756Y-45546682D02*
X115206518Y-45499063D01*
X115206518Y-45499063D02*
X114968423Y-45499063D01*
X114968423Y-45499063D02*
X114873185Y-45451444D01*
X114254137Y-45880016D02*
X114349375Y-45832397D01*
X114349375Y-45832397D02*
X114396994Y-45737158D01*
X114396994Y-45737158D02*
X114396994Y-44880016D01*
X113158899Y-44832397D02*
X114016041Y-46118111D01*
X112825565Y-45880016D02*
X112825565Y-44880016D01*
X112825565Y-44880016D02*
X112444613Y-44880016D01*
X112444613Y-44880016D02*
X112349375Y-44927635D01*
X112349375Y-44927635D02*
X112301756Y-44975254D01*
X112301756Y-44975254D02*
X112254137Y-45070492D01*
X112254137Y-45070492D02*
X112254137Y-45213349D01*
X112254137Y-45213349D02*
X112301756Y-45308587D01*
X112301756Y-45308587D02*
X112349375Y-45356206D01*
X112349375Y-45356206D02*
X112444613Y-45403825D01*
X112444613Y-45403825D02*
X112825565Y-45403825D01*
X111920803Y-44880016D02*
X111682708Y-45880016D01*
X111682708Y-45880016D02*
X111492232Y-45165730D01*
X111492232Y-45165730D02*
X111301756Y-45880016D01*
X111301756Y-45880016D02*
X111063661Y-44880016D01*
X110682708Y-45880016D02*
X110682708Y-44880016D01*
X110682708Y-44880016D02*
X110349375Y-45594301D01*
X110349375Y-45594301D02*
X110016042Y-44880016D01*
X110016042Y-44880016D02*
X110016042Y-45880016D01*
X103186518Y-44880016D02*
X103186518Y-45594301D01*
X103186518Y-45594301D02*
X103234137Y-45737158D01*
X103234137Y-45737158D02*
X103329375Y-45832397D01*
X103329375Y-45832397D02*
X103472232Y-45880016D01*
X103472232Y-45880016D02*
X103567470Y-45880016D01*
X102757946Y-44975254D02*
X102710327Y-44927635D01*
X102710327Y-44927635D02*
X102615089Y-44880016D01*
X102615089Y-44880016D02*
X102376994Y-44880016D01*
X102376994Y-44880016D02*
X102281756Y-44927635D01*
X102281756Y-44927635D02*
X102234137Y-44975254D01*
X102234137Y-44975254D02*
X102186518Y-45070492D01*
X102186518Y-45070492D02*
X102186518Y-45165730D01*
X102186518Y-45165730D02*
X102234137Y-45308587D01*
X102234137Y-45308587D02*
X102805565Y-45880016D01*
X102805565Y-45880016D02*
X102186518Y-45880016D01*
X142970327Y-45900016D02*
X142970327Y-44900016D01*
X142970327Y-44900016D02*
X142732232Y-44900016D01*
X142732232Y-44900016D02*
X142589375Y-44947635D01*
X142589375Y-44947635D02*
X142494137Y-45042873D01*
X142494137Y-45042873D02*
X142446518Y-45138111D01*
X142446518Y-45138111D02*
X142398899Y-45328587D01*
X142398899Y-45328587D02*
X142398899Y-45471444D01*
X142398899Y-45471444D02*
X142446518Y-45661920D01*
X142446518Y-45661920D02*
X142494137Y-45757158D01*
X142494137Y-45757158D02*
X142589375Y-45852397D01*
X142589375Y-45852397D02*
X142732232Y-45900016D01*
X142732232Y-45900016D02*
X142970327Y-45900016D01*
X141970327Y-45900016D02*
X141970327Y-45233349D01*
X141970327Y-44900016D02*
X142017946Y-44947635D01*
X142017946Y-44947635D02*
X141970327Y-44995254D01*
X141970327Y-44995254D02*
X141922708Y-44947635D01*
X141922708Y-44947635D02*
X141970327Y-44900016D01*
X141970327Y-44900016D02*
X141970327Y-44995254D01*
X141065566Y-45233349D02*
X141065566Y-46042873D01*
X141065566Y-46042873D02*
X141113185Y-46138111D01*
X141113185Y-46138111D02*
X141160804Y-46185730D01*
X141160804Y-46185730D02*
X141256042Y-46233349D01*
X141256042Y-46233349D02*
X141398899Y-46233349D01*
X141398899Y-46233349D02*
X141494137Y-46185730D01*
X141065566Y-45852397D02*
X141160804Y-45900016D01*
X141160804Y-45900016D02*
X141351280Y-45900016D01*
X141351280Y-45900016D02*
X141446518Y-45852397D01*
X141446518Y-45852397D02*
X141494137Y-45804777D01*
X141494137Y-45804777D02*
X141541756Y-45709539D01*
X141541756Y-45709539D02*
X141541756Y-45423825D01*
X141541756Y-45423825D02*
X141494137Y-45328587D01*
X141494137Y-45328587D02*
X141446518Y-45280968D01*
X141446518Y-45280968D02*
X141351280Y-45233349D01*
X141351280Y-45233349D02*
X141160804Y-45233349D01*
X141160804Y-45233349D02*
X141065566Y-45280968D01*
X140589375Y-45900016D02*
X140589375Y-45233349D01*
X140589375Y-44900016D02*
X140636994Y-44947635D01*
X140636994Y-44947635D02*
X140589375Y-44995254D01*
X140589375Y-44995254D02*
X140541756Y-44947635D01*
X140541756Y-44947635D02*
X140589375Y-44900016D01*
X140589375Y-44900016D02*
X140589375Y-44995254D01*
X140256042Y-45233349D02*
X139875090Y-45233349D01*
X140113185Y-44900016D02*
X140113185Y-45757158D01*
X140113185Y-45757158D02*
X140065566Y-45852397D01*
X140065566Y-45852397D02*
X139970328Y-45900016D01*
X139970328Y-45900016D02*
X139875090Y-45900016D01*
X139113185Y-45900016D02*
X139113185Y-45376206D01*
X139113185Y-45376206D02*
X139160804Y-45280968D01*
X139160804Y-45280968D02*
X139256042Y-45233349D01*
X139256042Y-45233349D02*
X139446518Y-45233349D01*
X139446518Y-45233349D02*
X139541756Y-45280968D01*
X139113185Y-45852397D02*
X139208423Y-45900016D01*
X139208423Y-45900016D02*
X139446518Y-45900016D01*
X139446518Y-45900016D02*
X139541756Y-45852397D01*
X139541756Y-45852397D02*
X139589375Y-45757158D01*
X139589375Y-45757158D02*
X139589375Y-45661920D01*
X139589375Y-45661920D02*
X139541756Y-45566682D01*
X139541756Y-45566682D02*
X139446518Y-45519063D01*
X139446518Y-45519063D02*
X139208423Y-45519063D01*
X139208423Y-45519063D02*
X139113185Y-45471444D01*
X138494137Y-45900016D02*
X138589375Y-45852397D01*
X138589375Y-45852397D02*
X138636994Y-45757158D01*
X138636994Y-45757158D02*
X138636994Y-44900016D01*
X137398899Y-44852397D02*
X138256041Y-46138111D01*
X137065565Y-45900016D02*
X137065565Y-44900016D01*
X137065565Y-44900016D02*
X136684613Y-44900016D01*
X136684613Y-44900016D02*
X136589375Y-44947635D01*
X136589375Y-44947635D02*
X136541756Y-44995254D01*
X136541756Y-44995254D02*
X136494137Y-45090492D01*
X136494137Y-45090492D02*
X136494137Y-45233349D01*
X136494137Y-45233349D02*
X136541756Y-45328587D01*
X136541756Y-45328587D02*
X136589375Y-45376206D01*
X136589375Y-45376206D02*
X136684613Y-45423825D01*
X136684613Y-45423825D02*
X137065565Y-45423825D01*
X136160803Y-44900016D02*
X135922708Y-45900016D01*
X135922708Y-45900016D02*
X135732232Y-45185730D01*
X135732232Y-45185730D02*
X135541756Y-45900016D01*
X135541756Y-45900016D02*
X135303661Y-44900016D01*
X134922708Y-45900016D02*
X134922708Y-44900016D01*
X134922708Y-44900016D02*
X134589375Y-45614301D01*
X134589375Y-45614301D02*
X134256042Y-44900016D01*
X134256042Y-44900016D02*
X134256042Y-45900016D01*
X130096518Y-44840016D02*
X130096518Y-45554301D01*
X130096518Y-45554301D02*
X130144137Y-45697158D01*
X130144137Y-45697158D02*
X130239375Y-45792397D01*
X130239375Y-45792397D02*
X130382232Y-45840016D01*
X130382232Y-45840016D02*
X130477470Y-45840016D01*
X129191756Y-45173349D02*
X129191756Y-45840016D01*
X129429851Y-44792397D02*
X129667946Y-45506682D01*
X129667946Y-45506682D02*
X129048899Y-45506682D01*
D11*
X133453185Y-97040197D02*
X133453185Y-98945197D01*
X133453185Y-98945197D02*
X148693185Y-98945197D01*
X134088185Y-96405197D02*
X133453185Y-97040197D01*
X148693185Y-96405197D02*
X134088185Y-96405197D01*
X148693185Y-98945197D02*
X148693185Y-96405197D01*
X110703185Y-97030197D02*
X110703185Y-98935197D01*
X110703185Y-98935197D02*
X131023185Y-98935197D01*
X111338185Y-96395197D02*
X110703185Y-97030197D01*
X131023185Y-96395197D02*
X111338185Y-96395197D01*
X131023185Y-98935197D02*
X131023185Y-96395197D01*
X101573185Y-48770197D02*
X101573185Y-50675197D01*
X101573185Y-50675197D02*
X126973185Y-50675197D01*
X102208185Y-48135197D02*
X101573185Y-48770197D01*
X126973185Y-48135197D02*
X102208185Y-48135197D01*
X126973185Y-50675197D02*
X126973185Y-48135197D01*
X128493185Y-48810197D02*
X128493185Y-50715197D01*
X128493185Y-50715197D02*
X148813185Y-50715197D01*
X129128185Y-48175197D02*
X128493185Y-48810197D01*
X148813185Y-48175197D02*
X129128185Y-48175197D01*
X148813185Y-50715197D02*
X148813185Y-48175197D01*
M02*
