M48
; DRILL file {KiCad 9.0.6} date 2026-04-18T18:03:18+0530
; FORMAT={-:-/ absolute / metric / decimal}
; #@! TF.CreationDate,2026-04-18T18:03:18+05:30
; #@! TF.GenerationSoftware,Kicad,Pcbnew,9.0.6
; #@! TF.FileFunction,Plated,1,2,PTH
FMAT,2
METRIC
; #@! TA.AperFunction,Plated,PTH,ComponentDrill
T1C0.750
; #@! TA.AperFunction,Plated,PTH,ComponentDrill
T2C0.800
; #@! TA.AperFunction,Plated,PTH,ComponentDrill
T3C0.900
; #@! TA.AperFunction,Plated,PTH,ComponentDrill
T4C1.000
%
G90
G05
T1
X119.31Y-55.255
X119.31Y-56.525
X119.31Y-57.795
X119.31Y-87.385
X119.31Y-88.655
X119.31Y-89.925
T2
X113.41Y-63.025
X113.43Y-67.795
X121.03Y-63.025
X121.05Y-67.795
X142.71Y-65.855
X142.71Y-73.475
X146.09Y-65.855
X146.09Y-73.475
X149.45Y-65.845
X149.45Y-73.465
X149.513Y-82.855
X149.513Y-84.855
T3
X126.54Y-61.585
X126.54Y-69.205
X131.96Y-55.832
X131.96Y-58.372
X139.1Y-55.842
X139.1Y-58.382
X146.11Y-55.845
X146.11Y-58.385
T4
X102.843Y-49.405
X105.383Y-49.405
X107.923Y-49.405
X110.463Y-49.405
X111.973Y-97.665
X113.003Y-49.405
X114.513Y-97.665
X115.543Y-49.405
X117.053Y-97.665
X118.083Y-49.405
X119.593Y-97.665
X120.623Y-49.405
X122.133Y-97.665
X123.163Y-49.405
X124.673Y-97.665
X125.703Y-49.405
X127.213Y-97.665
X129.753Y-97.665
X129.763Y-49.445
X132.303Y-49.445
X134.723Y-97.675
X134.843Y-49.445
X137.263Y-97.675
X137.383Y-49.445
X139.803Y-97.675
X139.923Y-49.445
X142.343Y-97.675
X142.463Y-49.445
X144.883Y-97.675
X145.003Y-49.445
X147.423Y-97.675
X147.543Y-49.445
M30
