G04 #@! TF.GenerationSoftware,KiCad,Pcbnew,9.0.6*
G04 #@! TF.CreationDate,2026-04-18T18:03:36+05:30*
G04 #@! TF.ProjectId,Embedded Systems,456d6265-6464-4656-9420-53797374656d,1.0*
G04 #@! TF.SameCoordinates,Original*
G04 #@! TF.FileFunction,AssemblyDrawing,Top*
%FSLAX46Y46*%
G04 Gerber Fmt 4.6, Leading zero omitted, Abs format (unit mm)*
G04 Created by KiCad (PCBNEW 9.0.6) date 2026-04-18 18:03:36*
%MOMM*%
%LPD*%
G01*
G04 APERTURE LIST*
%ADD10C,0.150000*%
%ADD11C,0.120000*%
%ADD12C,0.135000*%
%ADD13C,0.100000*%
G04 APERTURE END LIST*
D10*
X139890057Y-71474720D02*
X139842438Y-71427101D01*
X139842438Y-71427101D02*
X139794819Y-71331863D01*
X139794819Y-71331863D02*
X139794819Y-71093768D01*
X139794819Y-71093768D02*
X139842438Y-70998530D01*
X139842438Y-70998530D02*
X139890057Y-70950911D01*
X139890057Y-70950911D02*
X139985295Y-70903292D01*
X139985295Y-70903292D02*
X140080533Y-70903292D01*
X140080533Y-70903292D02*
X140223390Y-70950911D01*
X140223390Y-70950911D02*
X140794819Y-71522339D01*
X140794819Y-71522339D02*
X140794819Y-70903292D01*
X139890057Y-70522339D02*
X139842438Y-70474720D01*
X139842438Y-70474720D02*
X139794819Y-70379482D01*
X139794819Y-70379482D02*
X139794819Y-70141387D01*
X139794819Y-70141387D02*
X139842438Y-70046149D01*
X139842438Y-70046149D02*
X139890057Y-69998530D01*
X139890057Y-69998530D02*
X139985295Y-69950911D01*
X139985295Y-69950911D02*
X140080533Y-69950911D01*
X140080533Y-69950911D02*
X140223390Y-69998530D01*
X140223390Y-69998530D02*
X140794819Y-70569958D01*
X140794819Y-70569958D02*
X140794819Y-69950911D01*
X139794819Y-69331863D02*
X139794819Y-69236625D01*
X139794819Y-69236625D02*
X139842438Y-69141387D01*
X139842438Y-69141387D02*
X139890057Y-69093768D01*
X139890057Y-69093768D02*
X139985295Y-69046149D01*
X139985295Y-69046149D02*
X140175771Y-68998530D01*
X140175771Y-68998530D02*
X140413866Y-68998530D01*
X140413866Y-68998530D02*
X140604342Y-69046149D01*
X140604342Y-69046149D02*
X140699580Y-69093768D01*
X140699580Y-69093768D02*
X140747200Y-69141387D01*
X140747200Y-69141387D02*
X140794819Y-69236625D01*
X140794819Y-69236625D02*
X140794819Y-69331863D01*
X140794819Y-69331863D02*
X140747200Y-69427101D01*
X140747200Y-69427101D02*
X140699580Y-69474720D01*
X140699580Y-69474720D02*
X140604342Y-69522339D01*
X140604342Y-69522339D02*
X140413866Y-69569958D01*
X140413866Y-69569958D02*
X140175771Y-69569958D01*
X140175771Y-69569958D02*
X139985295Y-69522339D01*
X139985295Y-69522339D02*
X139890057Y-69474720D01*
X139890057Y-69474720D02*
X139842438Y-69427101D01*
X139842438Y-69427101D02*
X139794819Y-69331863D01*
X140794819Y-68617577D02*
X140794819Y-68379482D01*
X140794819Y-68379482D02*
X140604342Y-68379482D01*
X140604342Y-68379482D02*
X140556723Y-68474720D01*
X140556723Y-68474720D02*
X140461485Y-68569958D01*
X140461485Y-68569958D02*
X140318628Y-68617577D01*
X140318628Y-68617577D02*
X140080533Y-68617577D01*
X140080533Y-68617577D02*
X139937676Y-68569958D01*
X139937676Y-68569958D02*
X139842438Y-68474720D01*
X139842438Y-68474720D02*
X139794819Y-68331863D01*
X139794819Y-68331863D02*
X139794819Y-68141387D01*
X139794819Y-68141387D02*
X139842438Y-67998530D01*
X139842438Y-67998530D02*
X139937676Y-67903292D01*
X139937676Y-67903292D02*
X140080533Y-67855673D01*
X140080533Y-67855673D02*
X140318628Y-67855673D01*
X140318628Y-67855673D02*
X140461485Y-67903292D01*
X140461485Y-67903292D02*
X140556723Y-67998530D01*
X140556723Y-67998530D02*
X140604342Y-68093768D01*
X140604342Y-68093768D02*
X140794819Y-68093768D01*
X140794819Y-68093768D02*
X140794819Y-67855673D01*
X143164819Y-69831863D02*
X142688628Y-70165196D01*
X143164819Y-70403291D02*
X142164819Y-70403291D01*
X142164819Y-70403291D02*
X142164819Y-70022339D01*
X142164819Y-70022339D02*
X142212438Y-69927101D01*
X142212438Y-69927101D02*
X142260057Y-69879482D01*
X142260057Y-69879482D02*
X142355295Y-69831863D01*
X142355295Y-69831863D02*
X142498152Y-69831863D01*
X142498152Y-69831863D02*
X142593390Y-69879482D01*
X142593390Y-69879482D02*
X142641009Y-69927101D01*
X142641009Y-69927101D02*
X142688628Y-70022339D01*
X142688628Y-70022339D02*
X142688628Y-70403291D01*
X142164819Y-69498529D02*
X142164819Y-68879482D01*
X142164819Y-68879482D02*
X142545771Y-69212815D01*
X142545771Y-69212815D02*
X142545771Y-69069958D01*
X142545771Y-69069958D02*
X142593390Y-68974720D01*
X142593390Y-68974720D02*
X142641009Y-68927101D01*
X142641009Y-68927101D02*
X142736247Y-68879482D01*
X142736247Y-68879482D02*
X142974342Y-68879482D01*
X142974342Y-68879482D02*
X143069580Y-68927101D01*
X143069580Y-68927101D02*
X143117200Y-68974720D01*
X143117200Y-68974720D02*
X143164819Y-69069958D01*
X143164819Y-69069958D02*
X143164819Y-69355672D01*
X143164819Y-69355672D02*
X143117200Y-69450910D01*
X143117200Y-69450910D02*
X143069580Y-69498529D01*
X136118628Y-59469154D02*
X136594819Y-59469154D01*
X135594819Y-59802487D02*
X136118628Y-59469154D01*
X136118628Y-59469154D02*
X135594819Y-59135821D01*
X136071009Y-58802487D02*
X136071009Y-58469154D01*
X136594819Y-58326297D02*
X136594819Y-58802487D01*
X136594819Y-58802487D02*
X135594819Y-58802487D01*
X135594819Y-58802487D02*
X135594819Y-58326297D01*
X136594819Y-57421535D02*
X136594819Y-57897725D01*
X136594819Y-57897725D02*
X135594819Y-57897725D01*
X136594819Y-56612011D02*
X136594819Y-57088201D01*
X136594819Y-57088201D02*
X135594819Y-57088201D01*
X135594819Y-56088201D02*
X135594819Y-55897725D01*
X135594819Y-55897725D02*
X135642438Y-55802487D01*
X135642438Y-55802487D02*
X135737676Y-55707249D01*
X135737676Y-55707249D02*
X135928152Y-55659630D01*
X135928152Y-55659630D02*
X136261485Y-55659630D01*
X136261485Y-55659630D02*
X136451961Y-55707249D01*
X136451961Y-55707249D02*
X136547200Y-55802487D01*
X136547200Y-55802487D02*
X136594819Y-55897725D01*
X136594819Y-55897725D02*
X136594819Y-56088201D01*
X136594819Y-56088201D02*
X136547200Y-56183439D01*
X136547200Y-56183439D02*
X136451961Y-56278677D01*
X136451961Y-56278677D02*
X136261485Y-56326296D01*
X136261485Y-56326296D02*
X135928152Y-56326296D01*
X135928152Y-56326296D02*
X135737676Y-56278677D01*
X135737676Y-56278677D02*
X135642438Y-56183439D01*
X135642438Y-56183439D02*
X135594819Y-56088201D01*
X135594819Y-55326296D02*
X136594819Y-55088201D01*
X136594819Y-55088201D02*
X135880533Y-54897725D01*
X135880533Y-54897725D02*
X136594819Y-54707249D01*
X136594819Y-54707249D02*
X135594819Y-54469154D01*
D11*
X139463855Y-57702487D02*
X138663855Y-57702487D01*
X138663855Y-57702487D02*
X138663855Y-57512011D01*
X138663855Y-57512011D02*
X138701950Y-57397725D01*
X138701950Y-57397725D02*
X138778140Y-57321535D01*
X138778140Y-57321535D02*
X138854331Y-57283440D01*
X138854331Y-57283440D02*
X139006712Y-57245344D01*
X139006712Y-57245344D02*
X139120998Y-57245344D01*
X139120998Y-57245344D02*
X139273379Y-57283440D01*
X139273379Y-57283440D02*
X139349569Y-57321535D01*
X139349569Y-57321535D02*
X139425760Y-57397725D01*
X139425760Y-57397725D02*
X139463855Y-57512011D01*
X139463855Y-57512011D02*
X139463855Y-57702487D01*
X138740045Y-56940583D02*
X138701950Y-56902487D01*
X138701950Y-56902487D02*
X138663855Y-56826297D01*
X138663855Y-56826297D02*
X138663855Y-56635821D01*
X138663855Y-56635821D02*
X138701950Y-56559630D01*
X138701950Y-56559630D02*
X138740045Y-56521535D01*
X138740045Y-56521535D02*
X138816236Y-56483440D01*
X138816236Y-56483440D02*
X138892426Y-56483440D01*
X138892426Y-56483440D02*
X139006712Y-56521535D01*
X139006712Y-56521535D02*
X139463855Y-56978678D01*
X139463855Y-56978678D02*
X139463855Y-56483440D01*
D10*
X146630057Y-71464720D02*
X146582438Y-71417101D01*
X146582438Y-71417101D02*
X146534819Y-71321863D01*
X146534819Y-71321863D02*
X146534819Y-71083768D01*
X146534819Y-71083768D02*
X146582438Y-70988530D01*
X146582438Y-70988530D02*
X146630057Y-70940911D01*
X146630057Y-70940911D02*
X146725295Y-70893292D01*
X146725295Y-70893292D02*
X146820533Y-70893292D01*
X146820533Y-70893292D02*
X146963390Y-70940911D01*
X146963390Y-70940911D02*
X147534819Y-71512339D01*
X147534819Y-71512339D02*
X147534819Y-70893292D01*
X146630057Y-70512339D02*
X146582438Y-70464720D01*
X146582438Y-70464720D02*
X146534819Y-70369482D01*
X146534819Y-70369482D02*
X146534819Y-70131387D01*
X146534819Y-70131387D02*
X146582438Y-70036149D01*
X146582438Y-70036149D02*
X146630057Y-69988530D01*
X146630057Y-69988530D02*
X146725295Y-69940911D01*
X146725295Y-69940911D02*
X146820533Y-69940911D01*
X146820533Y-69940911D02*
X146963390Y-69988530D01*
X146963390Y-69988530D02*
X147534819Y-70559958D01*
X147534819Y-70559958D02*
X147534819Y-69940911D01*
X146534819Y-69321863D02*
X146534819Y-69226625D01*
X146534819Y-69226625D02*
X146582438Y-69131387D01*
X146582438Y-69131387D02*
X146630057Y-69083768D01*
X146630057Y-69083768D02*
X146725295Y-69036149D01*
X146725295Y-69036149D02*
X146915771Y-68988530D01*
X146915771Y-68988530D02*
X147153866Y-68988530D01*
X147153866Y-68988530D02*
X147344342Y-69036149D01*
X147344342Y-69036149D02*
X147439580Y-69083768D01*
X147439580Y-69083768D02*
X147487200Y-69131387D01*
X147487200Y-69131387D02*
X147534819Y-69226625D01*
X147534819Y-69226625D02*
X147534819Y-69321863D01*
X147534819Y-69321863D02*
X147487200Y-69417101D01*
X147487200Y-69417101D02*
X147439580Y-69464720D01*
X147439580Y-69464720D02*
X147344342Y-69512339D01*
X147344342Y-69512339D02*
X147153866Y-69559958D01*
X147153866Y-69559958D02*
X146915771Y-69559958D01*
X146915771Y-69559958D02*
X146725295Y-69512339D01*
X146725295Y-69512339D02*
X146630057Y-69464720D01*
X146630057Y-69464720D02*
X146582438Y-69417101D01*
X146582438Y-69417101D02*
X146534819Y-69321863D01*
X147534819Y-68607577D02*
X147534819Y-68369482D01*
X147534819Y-68369482D02*
X147344342Y-68369482D01*
X147344342Y-68369482D02*
X147296723Y-68464720D01*
X147296723Y-68464720D02*
X147201485Y-68559958D01*
X147201485Y-68559958D02*
X147058628Y-68607577D01*
X147058628Y-68607577D02*
X146820533Y-68607577D01*
X146820533Y-68607577D02*
X146677676Y-68559958D01*
X146677676Y-68559958D02*
X146582438Y-68464720D01*
X146582438Y-68464720D02*
X146534819Y-68321863D01*
X146534819Y-68321863D02*
X146534819Y-68131387D01*
X146534819Y-68131387D02*
X146582438Y-67988530D01*
X146582438Y-67988530D02*
X146677676Y-67893292D01*
X146677676Y-67893292D02*
X146820533Y-67845673D01*
X146820533Y-67845673D02*
X147058628Y-67845673D01*
X147058628Y-67845673D02*
X147201485Y-67893292D01*
X147201485Y-67893292D02*
X147296723Y-67988530D01*
X147296723Y-67988530D02*
X147344342Y-68083768D01*
X147344342Y-68083768D02*
X147534819Y-68083768D01*
X147534819Y-68083768D02*
X147534819Y-67845673D01*
X149904819Y-69821863D02*
X149428628Y-70155196D01*
X149904819Y-70393291D02*
X148904819Y-70393291D01*
X148904819Y-70393291D02*
X148904819Y-70012339D01*
X148904819Y-70012339D02*
X148952438Y-69917101D01*
X148952438Y-69917101D02*
X149000057Y-69869482D01*
X149000057Y-69869482D02*
X149095295Y-69821863D01*
X149095295Y-69821863D02*
X149238152Y-69821863D01*
X149238152Y-69821863D02*
X149333390Y-69869482D01*
X149333390Y-69869482D02*
X149381009Y-69917101D01*
X149381009Y-69917101D02*
X149428628Y-70012339D01*
X149428628Y-70012339D02*
X149428628Y-70393291D01*
X149904819Y-68869482D02*
X149904819Y-69440910D01*
X149904819Y-69155196D02*
X148904819Y-69155196D01*
X148904819Y-69155196D02*
X149047676Y-69250434D01*
X149047676Y-69250434D02*
X149142914Y-69345672D01*
X149142914Y-69345672D02*
X149190533Y-69440910D01*
X124524819Y-65657101D02*
X123524819Y-65657101D01*
X123524819Y-65657101D02*
X123524819Y-65419006D01*
X123524819Y-65419006D02*
X123572438Y-65276149D01*
X123572438Y-65276149D02*
X123667676Y-65180911D01*
X123667676Y-65180911D02*
X123762914Y-65133292D01*
X123762914Y-65133292D02*
X123953390Y-65085673D01*
X123953390Y-65085673D02*
X124096247Y-65085673D01*
X124096247Y-65085673D02*
X124286723Y-65133292D01*
X124286723Y-65133292D02*
X124381961Y-65180911D01*
X124381961Y-65180911D02*
X124477200Y-65276149D01*
X124477200Y-65276149D02*
X124524819Y-65419006D01*
X124524819Y-65419006D02*
X124524819Y-65657101D01*
X126994819Y-66523291D02*
X125994819Y-66523291D01*
X125994819Y-66523291D02*
X125994819Y-66285196D01*
X125994819Y-66285196D02*
X126042438Y-66142339D01*
X126042438Y-66142339D02*
X126137676Y-66047101D01*
X126137676Y-66047101D02*
X126232914Y-65999482D01*
X126232914Y-65999482D02*
X126423390Y-65951863D01*
X126423390Y-65951863D02*
X126566247Y-65951863D01*
X126566247Y-65951863D02*
X126756723Y-65999482D01*
X126756723Y-65999482D02*
X126851961Y-66047101D01*
X126851961Y-66047101D02*
X126947200Y-66142339D01*
X126947200Y-66142339D02*
X126994819Y-66285196D01*
X126994819Y-66285196D02*
X126994819Y-66523291D01*
X126328152Y-65094720D02*
X126994819Y-65094720D01*
X125947200Y-65332815D02*
X126661485Y-65570910D01*
X126661485Y-65570910D02*
X126661485Y-64951863D01*
X143604819Y-57758054D02*
X143128628Y-58091387D01*
X143604819Y-58329482D02*
X142604819Y-58329482D01*
X142604819Y-58329482D02*
X142604819Y-57948530D01*
X142604819Y-57948530D02*
X142652438Y-57853292D01*
X142652438Y-57853292D02*
X142700057Y-57805673D01*
X142700057Y-57805673D02*
X142795295Y-57758054D01*
X142795295Y-57758054D02*
X142938152Y-57758054D01*
X142938152Y-57758054D02*
X143033390Y-57805673D01*
X143033390Y-57805673D02*
X143081009Y-57853292D01*
X143081009Y-57853292D02*
X143128628Y-57948530D01*
X143128628Y-57948530D02*
X143128628Y-58329482D01*
X143081009Y-57329482D02*
X143081009Y-56996149D01*
X143604819Y-56853292D02*
X143604819Y-57329482D01*
X143604819Y-57329482D02*
X142604819Y-57329482D01*
X142604819Y-57329482D02*
X142604819Y-56853292D01*
X143604819Y-56424720D02*
X142604819Y-56424720D01*
X142604819Y-56424720D02*
X142604819Y-56186625D01*
X142604819Y-56186625D02*
X142652438Y-56043768D01*
X142652438Y-56043768D02*
X142747676Y-55948530D01*
X142747676Y-55948530D02*
X142842914Y-55900911D01*
X142842914Y-55900911D02*
X143033390Y-55853292D01*
X143033390Y-55853292D02*
X143176247Y-55853292D01*
X143176247Y-55853292D02*
X143366723Y-55900911D01*
X143366723Y-55900911D02*
X143461961Y-55948530D01*
X143461961Y-55948530D02*
X143557200Y-56043768D01*
X143557200Y-56043768D02*
X143604819Y-56186625D01*
X143604819Y-56186625D02*
X143604819Y-56424720D01*
D11*
X146473855Y-57705672D02*
X145673855Y-57705672D01*
X145673855Y-57705672D02*
X145673855Y-57515196D01*
X145673855Y-57515196D02*
X145711950Y-57400910D01*
X145711950Y-57400910D02*
X145788140Y-57324720D01*
X145788140Y-57324720D02*
X145864331Y-57286625D01*
X145864331Y-57286625D02*
X146016712Y-57248529D01*
X146016712Y-57248529D02*
X146130998Y-57248529D01*
X146130998Y-57248529D02*
X146283379Y-57286625D01*
X146283379Y-57286625D02*
X146359569Y-57324720D01*
X146359569Y-57324720D02*
X146435760Y-57400910D01*
X146435760Y-57400910D02*
X146473855Y-57515196D01*
X146473855Y-57515196D02*
X146473855Y-57705672D01*
X146473855Y-56486625D02*
X146473855Y-56943768D01*
X146473855Y-56715196D02*
X145673855Y-56715196D01*
X145673855Y-56715196D02*
X145788140Y-56791387D01*
X145788140Y-56791387D02*
X145864331Y-56867577D01*
X145864331Y-56867577D02*
X145902426Y-56943768D01*
D10*
X128502438Y-58768678D02*
X128454819Y-58863916D01*
X128454819Y-58863916D02*
X128454819Y-59006773D01*
X128454819Y-59006773D02*
X128502438Y-59149630D01*
X128502438Y-59149630D02*
X128597676Y-59244868D01*
X128597676Y-59244868D02*
X128692914Y-59292487D01*
X128692914Y-59292487D02*
X128883390Y-59340106D01*
X128883390Y-59340106D02*
X129026247Y-59340106D01*
X129026247Y-59340106D02*
X129216723Y-59292487D01*
X129216723Y-59292487D02*
X129311961Y-59244868D01*
X129311961Y-59244868D02*
X129407200Y-59149630D01*
X129407200Y-59149630D02*
X129454819Y-59006773D01*
X129454819Y-59006773D02*
X129454819Y-58911535D01*
X129454819Y-58911535D02*
X129407200Y-58768678D01*
X129407200Y-58768678D02*
X129359580Y-58721059D01*
X129359580Y-58721059D02*
X129026247Y-58721059D01*
X129026247Y-58721059D02*
X129026247Y-58911535D01*
X129454819Y-57721059D02*
X128978628Y-58054392D01*
X129454819Y-58292487D02*
X128454819Y-58292487D01*
X128454819Y-58292487D02*
X128454819Y-57911535D01*
X128454819Y-57911535D02*
X128502438Y-57816297D01*
X128502438Y-57816297D02*
X128550057Y-57768678D01*
X128550057Y-57768678D02*
X128645295Y-57721059D01*
X128645295Y-57721059D02*
X128788152Y-57721059D01*
X128788152Y-57721059D02*
X128883390Y-57768678D01*
X128883390Y-57768678D02*
X128931009Y-57816297D01*
X128931009Y-57816297D02*
X128978628Y-57911535D01*
X128978628Y-57911535D02*
X128978628Y-58292487D01*
X128931009Y-57292487D02*
X128931009Y-56959154D01*
X129454819Y-56816297D02*
X129454819Y-57292487D01*
X129454819Y-57292487D02*
X128454819Y-57292487D01*
X128454819Y-57292487D02*
X128454819Y-56816297D01*
X128931009Y-56387725D02*
X128931009Y-56054392D01*
X129454819Y-55911535D02*
X129454819Y-56387725D01*
X129454819Y-56387725D02*
X128454819Y-56387725D01*
X128454819Y-56387725D02*
X128454819Y-55911535D01*
X129454819Y-55482963D02*
X128454819Y-55482963D01*
X128454819Y-55482963D02*
X129454819Y-54911535D01*
X129454819Y-54911535D02*
X128454819Y-54911535D01*
D11*
X132323855Y-57692487D02*
X131523855Y-57692487D01*
X131523855Y-57692487D02*
X131523855Y-57502011D01*
X131523855Y-57502011D02*
X131561950Y-57387725D01*
X131561950Y-57387725D02*
X131638140Y-57311535D01*
X131638140Y-57311535D02*
X131714331Y-57273440D01*
X131714331Y-57273440D02*
X131866712Y-57235344D01*
X131866712Y-57235344D02*
X131980998Y-57235344D01*
X131980998Y-57235344D02*
X132133379Y-57273440D01*
X132133379Y-57273440D02*
X132209569Y-57311535D01*
X132209569Y-57311535D02*
X132285760Y-57387725D01*
X132285760Y-57387725D02*
X132323855Y-57502011D01*
X132323855Y-57502011D02*
X132323855Y-57692487D01*
X131523855Y-56968678D02*
X131523855Y-56473440D01*
X131523855Y-56473440D02*
X131828617Y-56740106D01*
X131828617Y-56740106D02*
X131828617Y-56625821D01*
X131828617Y-56625821D02*
X131866712Y-56549630D01*
X131866712Y-56549630D02*
X131904807Y-56511535D01*
X131904807Y-56511535D02*
X131980998Y-56473440D01*
X131980998Y-56473440D02*
X132171474Y-56473440D01*
X132171474Y-56473440D02*
X132247664Y-56511535D01*
X132247664Y-56511535D02*
X132285760Y-56549630D01*
X132285760Y-56549630D02*
X132323855Y-56625821D01*
X132323855Y-56625821D02*
X132323855Y-56854392D01*
X132323855Y-56854392D02*
X132285760Y-56930583D01*
X132285760Y-56930583D02*
X132247664Y-56968678D01*
D10*
X149398899Y-87310016D02*
X149398899Y-86310016D01*
X149398899Y-86310016D02*
X149732232Y-87024301D01*
X149732232Y-87024301D02*
X150065565Y-86310016D01*
X150065565Y-86310016D02*
X150065565Y-87310016D01*
X150684613Y-87310016D02*
X150589375Y-87262397D01*
X150589375Y-87262397D02*
X150541756Y-87214777D01*
X150541756Y-87214777D02*
X150494137Y-87119539D01*
X150494137Y-87119539D02*
X150494137Y-86833825D01*
X150494137Y-86833825D02*
X150541756Y-86738587D01*
X150541756Y-86738587D02*
X150589375Y-86690968D01*
X150589375Y-86690968D02*
X150684613Y-86643349D01*
X150684613Y-86643349D02*
X150827470Y-86643349D01*
X150827470Y-86643349D02*
X150922708Y-86690968D01*
X150922708Y-86690968D02*
X150970327Y-86738587D01*
X150970327Y-86738587D02*
X151017946Y-86833825D01*
X151017946Y-86833825D02*
X151017946Y-87119539D01*
X151017946Y-87119539D02*
X150970327Y-87214777D01*
X150970327Y-87214777D02*
X150922708Y-87262397D01*
X150922708Y-87262397D02*
X150827470Y-87310016D01*
X150827470Y-87310016D02*
X150684613Y-87310016D01*
X151303661Y-86643349D02*
X151684613Y-86643349D01*
X151446518Y-86310016D02*
X151446518Y-87167158D01*
X151446518Y-87167158D02*
X151494137Y-87262397D01*
X151494137Y-87262397D02*
X151589375Y-87310016D01*
X151589375Y-87310016D02*
X151684613Y-87310016D01*
X152160804Y-87310016D02*
X152065566Y-87262397D01*
X152065566Y-87262397D02*
X152017947Y-87214777D01*
X152017947Y-87214777D02*
X151970328Y-87119539D01*
X151970328Y-87119539D02*
X151970328Y-86833825D01*
X151970328Y-86833825D02*
X152017947Y-86738587D01*
X152017947Y-86738587D02*
X152065566Y-86690968D01*
X152065566Y-86690968D02*
X152160804Y-86643349D01*
X152160804Y-86643349D02*
X152303661Y-86643349D01*
X152303661Y-86643349D02*
X152398899Y-86690968D01*
X152398899Y-86690968D02*
X152446518Y-86738587D01*
X152446518Y-86738587D02*
X152494137Y-86833825D01*
X152494137Y-86833825D02*
X152494137Y-87119539D01*
X152494137Y-87119539D02*
X152446518Y-87214777D01*
X152446518Y-87214777D02*
X152398899Y-87262397D01*
X152398899Y-87262397D02*
X152303661Y-87310016D01*
X152303661Y-87310016D02*
X152160804Y-87310016D01*
X152922709Y-87310016D02*
X152922709Y-86643349D01*
X152922709Y-86833825D02*
X152970328Y-86738587D01*
X152970328Y-86738587D02*
X153017947Y-86690968D01*
X153017947Y-86690968D02*
X153113185Y-86643349D01*
X153113185Y-86643349D02*
X153208423Y-86643349D01*
X153303662Y-87405254D02*
X154065566Y-87405254D01*
X154303662Y-87310016D02*
X154303662Y-86310016D01*
X154303662Y-86310016D02*
X154541757Y-86310016D01*
X154541757Y-86310016D02*
X154684614Y-86357635D01*
X154684614Y-86357635D02*
X154779852Y-86452873D01*
X154779852Y-86452873D02*
X154827471Y-86548111D01*
X154827471Y-86548111D02*
X154875090Y-86738587D01*
X154875090Y-86738587D02*
X154875090Y-86881444D01*
X154875090Y-86881444D02*
X154827471Y-87071920D01*
X154827471Y-87071920D02*
X154779852Y-87167158D01*
X154779852Y-87167158D02*
X154684614Y-87262397D01*
X154684614Y-87262397D02*
X154541757Y-87310016D01*
X154541757Y-87310016D02*
X154303662Y-87310016D01*
X155875090Y-87214777D02*
X155827471Y-87262397D01*
X155827471Y-87262397D02*
X155684614Y-87310016D01*
X155684614Y-87310016D02*
X155589376Y-87310016D01*
X155589376Y-87310016D02*
X155446519Y-87262397D01*
X155446519Y-87262397D02*
X155351281Y-87167158D01*
X155351281Y-87167158D02*
X155303662Y-87071920D01*
X155303662Y-87071920D02*
X155256043Y-86881444D01*
X155256043Y-86881444D02*
X155256043Y-86738587D01*
X155256043Y-86738587D02*
X155303662Y-86548111D01*
X155303662Y-86548111D02*
X155351281Y-86452873D01*
X155351281Y-86452873D02*
X155446519Y-86357635D01*
X155446519Y-86357635D02*
X155589376Y-86310016D01*
X155589376Y-86310016D02*
X155684614Y-86310016D01*
X155684614Y-86310016D02*
X155827471Y-86357635D01*
X155827471Y-86357635D02*
X155875090Y-86405254D01*
D12*
X152172522Y-86919482D02*
X151272522Y-86919482D01*
X151272522Y-86919482D02*
X151915379Y-86619482D01*
X151915379Y-86619482D02*
X151272522Y-86319482D01*
X151272522Y-86319482D02*
X152172522Y-86319482D01*
X152172522Y-85762339D02*
X152129665Y-85848054D01*
X152129665Y-85848054D02*
X152086807Y-85890911D01*
X152086807Y-85890911D02*
X152001093Y-85933768D01*
X152001093Y-85933768D02*
X151743950Y-85933768D01*
X151743950Y-85933768D02*
X151658236Y-85890911D01*
X151658236Y-85890911D02*
X151615379Y-85848054D01*
X151615379Y-85848054D02*
X151572522Y-85762339D01*
X151572522Y-85762339D02*
X151572522Y-85633768D01*
X151572522Y-85633768D02*
X151615379Y-85548054D01*
X151615379Y-85548054D02*
X151658236Y-85505197D01*
X151658236Y-85505197D02*
X151743950Y-85462339D01*
X151743950Y-85462339D02*
X152001093Y-85462339D01*
X152001093Y-85462339D02*
X152086807Y-85505197D01*
X152086807Y-85505197D02*
X152129665Y-85548054D01*
X152129665Y-85548054D02*
X152172522Y-85633768D01*
X152172522Y-85633768D02*
X152172522Y-85762339D01*
X151572522Y-85205196D02*
X151572522Y-84862339D01*
X151272522Y-85076625D02*
X152043950Y-85076625D01*
X152043950Y-85076625D02*
X152129665Y-85033768D01*
X152129665Y-85033768D02*
X152172522Y-84948053D01*
X152172522Y-84948053D02*
X152172522Y-84862339D01*
X152172522Y-84433767D02*
X152129665Y-84519482D01*
X152129665Y-84519482D02*
X152086807Y-84562339D01*
X152086807Y-84562339D02*
X152001093Y-84605196D01*
X152001093Y-84605196D02*
X151743950Y-84605196D01*
X151743950Y-84605196D02*
X151658236Y-84562339D01*
X151658236Y-84562339D02*
X151615379Y-84519482D01*
X151615379Y-84519482D02*
X151572522Y-84433767D01*
X151572522Y-84433767D02*
X151572522Y-84305196D01*
X151572522Y-84305196D02*
X151615379Y-84219482D01*
X151615379Y-84219482D02*
X151658236Y-84176625D01*
X151658236Y-84176625D02*
X151743950Y-84133767D01*
X151743950Y-84133767D02*
X152001093Y-84133767D01*
X152001093Y-84133767D02*
X152086807Y-84176625D01*
X152086807Y-84176625D02*
X152129665Y-84219482D01*
X152129665Y-84219482D02*
X152172522Y-84305196D01*
X152172522Y-84305196D02*
X152172522Y-84433767D01*
X152172522Y-83748053D02*
X151572522Y-83748053D01*
X151743950Y-83748053D02*
X151658236Y-83705196D01*
X151658236Y-83705196D02*
X151615379Y-83662339D01*
X151615379Y-83662339D02*
X151572522Y-83576624D01*
X151572522Y-83576624D02*
X151572522Y-83490910D01*
X152172522Y-82505196D02*
X151272522Y-82505196D01*
X151272522Y-82505196D02*
X151272522Y-82162339D01*
X151272522Y-82162339D02*
X151315379Y-82076624D01*
X151315379Y-82076624D02*
X151358236Y-82033767D01*
X151358236Y-82033767D02*
X151443950Y-81990910D01*
X151443950Y-81990910D02*
X151572522Y-81990910D01*
X151572522Y-81990910D02*
X151658236Y-82033767D01*
X151658236Y-82033767D02*
X151701093Y-82076624D01*
X151701093Y-82076624D02*
X151743950Y-82162339D01*
X151743950Y-82162339D02*
X151743950Y-82505196D01*
X152172522Y-81605196D02*
X151572522Y-81605196D01*
X151272522Y-81605196D02*
X151315379Y-81648053D01*
X151315379Y-81648053D02*
X151358236Y-81605196D01*
X151358236Y-81605196D02*
X151315379Y-81562339D01*
X151315379Y-81562339D02*
X151272522Y-81605196D01*
X151272522Y-81605196D02*
X151358236Y-81605196D01*
X151572522Y-81176625D02*
X152172522Y-81176625D01*
X151658236Y-81176625D02*
X151615379Y-81133768D01*
X151615379Y-81133768D02*
X151572522Y-81048053D01*
X151572522Y-81048053D02*
X151572522Y-80919482D01*
X151572522Y-80919482D02*
X151615379Y-80833768D01*
X151615379Y-80833768D02*
X151701093Y-80790911D01*
X151701093Y-80790911D02*
X152172522Y-80790911D01*
D10*
X109830057Y-58620435D02*
X109782438Y-58715673D01*
X109782438Y-58715673D02*
X109687200Y-58810911D01*
X109687200Y-58810911D02*
X109544342Y-58953768D01*
X109544342Y-58953768D02*
X109496723Y-59049006D01*
X109496723Y-59049006D02*
X109496723Y-59144244D01*
X109734819Y-59096625D02*
X109687200Y-59191863D01*
X109687200Y-59191863D02*
X109591961Y-59287101D01*
X109591961Y-59287101D02*
X109401485Y-59334720D01*
X109401485Y-59334720D02*
X109068152Y-59334720D01*
X109068152Y-59334720D02*
X108877676Y-59287101D01*
X108877676Y-59287101D02*
X108782438Y-59191863D01*
X108782438Y-59191863D02*
X108734819Y-59096625D01*
X108734819Y-59096625D02*
X108734819Y-58906149D01*
X108734819Y-58906149D02*
X108782438Y-58810911D01*
X108782438Y-58810911D02*
X108877676Y-58715673D01*
X108877676Y-58715673D02*
X109068152Y-58668054D01*
X109068152Y-58668054D02*
X109401485Y-58668054D01*
X109401485Y-58668054D02*
X109591961Y-58715673D01*
X109591961Y-58715673D02*
X109687200Y-58810911D01*
X109687200Y-58810911D02*
X109734819Y-58906149D01*
X109734819Y-58906149D02*
X109734819Y-59096625D01*
X109830057Y-58477578D02*
X109830057Y-57715673D01*
X109734819Y-57477577D02*
X108734819Y-57477577D01*
X108734819Y-57477577D02*
X109734819Y-56906149D01*
X109734819Y-56906149D02*
X108734819Y-56906149D01*
X109734819Y-56429958D02*
X108734819Y-56429958D01*
X108734819Y-56429958D02*
X109449104Y-56096625D01*
X109449104Y-56096625D02*
X108734819Y-55763292D01*
X108734819Y-55763292D02*
X109734819Y-55763292D01*
X108734819Y-55096625D02*
X108734819Y-54906149D01*
X108734819Y-54906149D02*
X108782438Y-54810911D01*
X108782438Y-54810911D02*
X108877676Y-54715673D01*
X108877676Y-54715673D02*
X109068152Y-54668054D01*
X109068152Y-54668054D02*
X109401485Y-54668054D01*
X109401485Y-54668054D02*
X109591961Y-54715673D01*
X109591961Y-54715673D02*
X109687200Y-54810911D01*
X109687200Y-54810911D02*
X109734819Y-54906149D01*
X109734819Y-54906149D02*
X109734819Y-55096625D01*
X109734819Y-55096625D02*
X109687200Y-55191863D01*
X109687200Y-55191863D02*
X109591961Y-55287101D01*
X109591961Y-55287101D02*
X109401485Y-55334720D01*
X109401485Y-55334720D02*
X109068152Y-55334720D01*
X109068152Y-55334720D02*
X108877676Y-55287101D01*
X108877676Y-55287101D02*
X108782438Y-55191863D01*
X108782438Y-55191863D02*
X108734819Y-55096625D01*
X109687200Y-54287101D02*
X109734819Y-54144244D01*
X109734819Y-54144244D02*
X109734819Y-53906149D01*
X109734819Y-53906149D02*
X109687200Y-53810911D01*
X109687200Y-53810911D02*
X109639580Y-53763292D01*
X109639580Y-53763292D02*
X109544342Y-53715673D01*
X109544342Y-53715673D02*
X109449104Y-53715673D01*
X109449104Y-53715673D02*
X109353866Y-53763292D01*
X109353866Y-53763292D02*
X109306247Y-53810911D01*
X109306247Y-53810911D02*
X109258628Y-53906149D01*
X109258628Y-53906149D02*
X109211009Y-54096625D01*
X109211009Y-54096625D02*
X109163390Y-54191863D01*
X109163390Y-54191863D02*
X109115771Y-54239482D01*
X109115771Y-54239482D02*
X109020533Y-54287101D01*
X109020533Y-54287101D02*
X108925295Y-54287101D01*
X108925295Y-54287101D02*
X108830057Y-54239482D01*
X108830057Y-54239482D02*
X108782438Y-54191863D01*
X108782438Y-54191863D02*
X108734819Y-54096625D01*
X108734819Y-54096625D02*
X108734819Y-53858530D01*
X108734819Y-53858530D02*
X108782438Y-53715673D01*
X113364819Y-58382339D02*
X112364819Y-58382339D01*
X112364819Y-58382339D02*
X113364819Y-57810911D01*
X113364819Y-57810911D02*
X112364819Y-57810911D01*
X113364819Y-57334720D02*
X112364819Y-57334720D01*
X112364819Y-57334720D02*
X113079104Y-57001387D01*
X113079104Y-57001387D02*
X112364819Y-56668054D01*
X112364819Y-56668054D02*
X113364819Y-56668054D01*
X112364819Y-56001387D02*
X112364819Y-55810911D01*
X112364819Y-55810911D02*
X112412438Y-55715673D01*
X112412438Y-55715673D02*
X112507676Y-55620435D01*
X112507676Y-55620435D02*
X112698152Y-55572816D01*
X112698152Y-55572816D02*
X113031485Y-55572816D01*
X113031485Y-55572816D02*
X113221961Y-55620435D01*
X113221961Y-55620435D02*
X113317200Y-55715673D01*
X113317200Y-55715673D02*
X113364819Y-55810911D01*
X113364819Y-55810911D02*
X113364819Y-56001387D01*
X113364819Y-56001387D02*
X113317200Y-56096625D01*
X113317200Y-56096625D02*
X113221961Y-56191863D01*
X113221961Y-56191863D02*
X113031485Y-56239482D01*
X113031485Y-56239482D02*
X112698152Y-56239482D01*
X112698152Y-56239482D02*
X112507676Y-56191863D01*
X112507676Y-56191863D02*
X112412438Y-56096625D01*
X112412438Y-56096625D02*
X112364819Y-56001387D01*
X113317200Y-55191863D02*
X113364819Y-55049006D01*
X113364819Y-55049006D02*
X113364819Y-54810911D01*
X113364819Y-54810911D02*
X113317200Y-54715673D01*
X113317200Y-54715673D02*
X113269580Y-54668054D01*
X113269580Y-54668054D02*
X113174342Y-54620435D01*
X113174342Y-54620435D02*
X113079104Y-54620435D01*
X113079104Y-54620435D02*
X112983866Y-54668054D01*
X112983866Y-54668054D02*
X112936247Y-54715673D01*
X112936247Y-54715673D02*
X112888628Y-54810911D01*
X112888628Y-54810911D02*
X112841009Y-55001387D01*
X112841009Y-55001387D02*
X112793390Y-55096625D01*
X112793390Y-55096625D02*
X112745771Y-55144244D01*
X112745771Y-55144244D02*
X112650533Y-55191863D01*
X112650533Y-55191863D02*
X112555295Y-55191863D01*
X112555295Y-55191863D02*
X112460057Y-55144244D01*
X112460057Y-55144244D02*
X112412438Y-55096625D01*
X112412438Y-55096625D02*
X112364819Y-55001387D01*
X112364819Y-55001387D02*
X112364819Y-54763292D01*
X112364819Y-54763292D02*
X112412438Y-54620435D01*
X116644761Y-70620016D02*
X116073333Y-70620016D01*
X116359047Y-70620016D02*
X116359047Y-69620016D01*
X116359047Y-69620016D02*
X116263809Y-69762873D01*
X116263809Y-69762873D02*
X116168571Y-69858111D01*
X116168571Y-69858111D02*
X116073333Y-69905730D01*
X117263809Y-69620016D02*
X117359047Y-69620016D01*
X117359047Y-69620016D02*
X117454285Y-69667635D01*
X117454285Y-69667635D02*
X117501904Y-69715254D01*
X117501904Y-69715254D02*
X117549523Y-69810492D01*
X117549523Y-69810492D02*
X117597142Y-70000968D01*
X117597142Y-70000968D02*
X117597142Y-70239063D01*
X117597142Y-70239063D02*
X117549523Y-70429539D01*
X117549523Y-70429539D02*
X117501904Y-70524777D01*
X117501904Y-70524777D02*
X117454285Y-70572397D01*
X117454285Y-70572397D02*
X117359047Y-70620016D01*
X117359047Y-70620016D02*
X117263809Y-70620016D01*
X117263809Y-70620016D02*
X117168571Y-70572397D01*
X117168571Y-70572397D02*
X117120952Y-70524777D01*
X117120952Y-70524777D02*
X117073333Y-70429539D01*
X117073333Y-70429539D02*
X117025714Y-70239063D01*
X117025714Y-70239063D02*
X117025714Y-70000968D01*
X117025714Y-70000968D02*
X117073333Y-69810492D01*
X117073333Y-69810492D02*
X117120952Y-69715254D01*
X117120952Y-69715254D02*
X117168571Y-69667635D01*
X117168571Y-69667635D02*
X117263809Y-69620016D01*
X118025714Y-70620016D02*
X118025714Y-69620016D01*
X118120952Y-70239063D02*
X118406666Y-70620016D01*
X118406666Y-69953349D02*
X118025714Y-70334301D01*
X117073333Y-68250016D02*
X116740000Y-67773825D01*
X116501905Y-68250016D02*
X116501905Y-67250016D01*
X116501905Y-67250016D02*
X116882857Y-67250016D01*
X116882857Y-67250016D02*
X116978095Y-67297635D01*
X116978095Y-67297635D02*
X117025714Y-67345254D01*
X117025714Y-67345254D02*
X117073333Y-67440492D01*
X117073333Y-67440492D02*
X117073333Y-67583349D01*
X117073333Y-67583349D02*
X117025714Y-67678587D01*
X117025714Y-67678587D02*
X116978095Y-67726206D01*
X116978095Y-67726206D02*
X116882857Y-67773825D01*
X116882857Y-67773825D02*
X116501905Y-67773825D01*
X117930476Y-67583349D02*
X117930476Y-68250016D01*
X117692381Y-67202397D02*
X117454286Y-67916682D01*
X117454286Y-67916682D02*
X118073333Y-67916682D01*
X143270057Y-71474720D02*
X143222438Y-71427101D01*
X143222438Y-71427101D02*
X143174819Y-71331863D01*
X143174819Y-71331863D02*
X143174819Y-71093768D01*
X143174819Y-71093768D02*
X143222438Y-70998530D01*
X143222438Y-70998530D02*
X143270057Y-70950911D01*
X143270057Y-70950911D02*
X143365295Y-70903292D01*
X143365295Y-70903292D02*
X143460533Y-70903292D01*
X143460533Y-70903292D02*
X143603390Y-70950911D01*
X143603390Y-70950911D02*
X144174819Y-71522339D01*
X144174819Y-71522339D02*
X144174819Y-70903292D01*
X143270057Y-70522339D02*
X143222438Y-70474720D01*
X143222438Y-70474720D02*
X143174819Y-70379482D01*
X143174819Y-70379482D02*
X143174819Y-70141387D01*
X143174819Y-70141387D02*
X143222438Y-70046149D01*
X143222438Y-70046149D02*
X143270057Y-69998530D01*
X143270057Y-69998530D02*
X143365295Y-69950911D01*
X143365295Y-69950911D02*
X143460533Y-69950911D01*
X143460533Y-69950911D02*
X143603390Y-69998530D01*
X143603390Y-69998530D02*
X144174819Y-70569958D01*
X144174819Y-70569958D02*
X144174819Y-69950911D01*
X143174819Y-69331863D02*
X143174819Y-69236625D01*
X143174819Y-69236625D02*
X143222438Y-69141387D01*
X143222438Y-69141387D02*
X143270057Y-69093768D01*
X143270057Y-69093768D02*
X143365295Y-69046149D01*
X143365295Y-69046149D02*
X143555771Y-68998530D01*
X143555771Y-68998530D02*
X143793866Y-68998530D01*
X143793866Y-68998530D02*
X143984342Y-69046149D01*
X143984342Y-69046149D02*
X144079580Y-69093768D01*
X144079580Y-69093768D02*
X144127200Y-69141387D01*
X144127200Y-69141387D02*
X144174819Y-69236625D01*
X144174819Y-69236625D02*
X144174819Y-69331863D01*
X144174819Y-69331863D02*
X144127200Y-69427101D01*
X144127200Y-69427101D02*
X144079580Y-69474720D01*
X144079580Y-69474720D02*
X143984342Y-69522339D01*
X143984342Y-69522339D02*
X143793866Y-69569958D01*
X143793866Y-69569958D02*
X143555771Y-69569958D01*
X143555771Y-69569958D02*
X143365295Y-69522339D01*
X143365295Y-69522339D02*
X143270057Y-69474720D01*
X143270057Y-69474720D02*
X143222438Y-69427101D01*
X143222438Y-69427101D02*
X143174819Y-69331863D01*
X144174819Y-68617577D02*
X144174819Y-68379482D01*
X144174819Y-68379482D02*
X143984342Y-68379482D01*
X143984342Y-68379482D02*
X143936723Y-68474720D01*
X143936723Y-68474720D02*
X143841485Y-68569958D01*
X143841485Y-68569958D02*
X143698628Y-68617577D01*
X143698628Y-68617577D02*
X143460533Y-68617577D01*
X143460533Y-68617577D02*
X143317676Y-68569958D01*
X143317676Y-68569958D02*
X143222438Y-68474720D01*
X143222438Y-68474720D02*
X143174819Y-68331863D01*
X143174819Y-68331863D02*
X143174819Y-68141387D01*
X143174819Y-68141387D02*
X143222438Y-67998530D01*
X143222438Y-67998530D02*
X143317676Y-67903292D01*
X143317676Y-67903292D02*
X143460533Y-67855673D01*
X143460533Y-67855673D02*
X143698628Y-67855673D01*
X143698628Y-67855673D02*
X143841485Y-67903292D01*
X143841485Y-67903292D02*
X143936723Y-67998530D01*
X143936723Y-67998530D02*
X143984342Y-68093768D01*
X143984342Y-68093768D02*
X144174819Y-68093768D01*
X144174819Y-68093768D02*
X144174819Y-67855673D01*
X146544819Y-69831863D02*
X146068628Y-70165196D01*
X146544819Y-70403291D02*
X145544819Y-70403291D01*
X145544819Y-70403291D02*
X145544819Y-70022339D01*
X145544819Y-70022339D02*
X145592438Y-69927101D01*
X145592438Y-69927101D02*
X145640057Y-69879482D01*
X145640057Y-69879482D02*
X145735295Y-69831863D01*
X145735295Y-69831863D02*
X145878152Y-69831863D01*
X145878152Y-69831863D02*
X145973390Y-69879482D01*
X145973390Y-69879482D02*
X146021009Y-69927101D01*
X146021009Y-69927101D02*
X146068628Y-70022339D01*
X146068628Y-70022339D02*
X146068628Y-70403291D01*
X145640057Y-69450910D02*
X145592438Y-69403291D01*
X145592438Y-69403291D02*
X145544819Y-69308053D01*
X145544819Y-69308053D02*
X145544819Y-69069958D01*
X145544819Y-69069958D02*
X145592438Y-68974720D01*
X145592438Y-68974720D02*
X145640057Y-68927101D01*
X145640057Y-68927101D02*
X145735295Y-68879482D01*
X145735295Y-68879482D02*
X145830533Y-68879482D01*
X145830533Y-68879482D02*
X145973390Y-68927101D01*
X145973390Y-68927101D02*
X146544819Y-69498529D01*
X146544819Y-69498529D02*
X146544819Y-68879482D01*
X117100952Y-61110016D02*
X116529524Y-61110016D01*
X116815238Y-61110016D02*
X116815238Y-60110016D01*
X116815238Y-60110016D02*
X116720000Y-60252873D01*
X116720000Y-60252873D02*
X116624762Y-60348111D01*
X116624762Y-60348111D02*
X116529524Y-60395730D01*
X117529524Y-61110016D02*
X117529524Y-60110016D01*
X117624762Y-60729063D02*
X117910476Y-61110016D01*
X117910476Y-60443349D02*
X117529524Y-60824301D01*
X117053333Y-63480016D02*
X116720000Y-63003825D01*
X116481905Y-63480016D02*
X116481905Y-62480016D01*
X116481905Y-62480016D02*
X116862857Y-62480016D01*
X116862857Y-62480016D02*
X116958095Y-62527635D01*
X116958095Y-62527635D02*
X117005714Y-62575254D01*
X117005714Y-62575254D02*
X117053333Y-62670492D01*
X117053333Y-62670492D02*
X117053333Y-62813349D01*
X117053333Y-62813349D02*
X117005714Y-62908587D01*
X117005714Y-62908587D02*
X116958095Y-62956206D01*
X116958095Y-62956206D02*
X116862857Y-63003825D01*
X116862857Y-63003825D02*
X116481905Y-63003825D01*
X117958095Y-62480016D02*
X117481905Y-62480016D01*
X117481905Y-62480016D02*
X117434286Y-62956206D01*
X117434286Y-62956206D02*
X117481905Y-62908587D01*
X117481905Y-62908587D02*
X117577143Y-62860968D01*
X117577143Y-62860968D02*
X117815238Y-62860968D01*
X117815238Y-62860968D02*
X117910476Y-62908587D01*
X117910476Y-62908587D02*
X117958095Y-62956206D01*
X117958095Y-62956206D02*
X118005714Y-63051444D01*
X118005714Y-63051444D02*
X118005714Y-63289539D01*
X118005714Y-63289539D02*
X117958095Y-63384777D01*
X117958095Y-63384777D02*
X117910476Y-63432397D01*
X117910476Y-63432397D02*
X117815238Y-63480016D01*
X117815238Y-63480016D02*
X117577143Y-63480016D01*
X117577143Y-63480016D02*
X117481905Y-63432397D01*
X117481905Y-63432397D02*
X117434286Y-63384777D01*
X109734819Y-91393292D02*
X109734819Y-91869482D01*
X109734819Y-91869482D02*
X108734819Y-91869482D01*
X109734819Y-91059958D02*
X108734819Y-91059958D01*
X108734819Y-91059958D02*
X109449104Y-90726625D01*
X109449104Y-90726625D02*
X108734819Y-90393292D01*
X108734819Y-90393292D02*
X109734819Y-90393292D01*
X108734819Y-90012339D02*
X108734819Y-89393292D01*
X108734819Y-89393292D02*
X109115771Y-89726625D01*
X109115771Y-89726625D02*
X109115771Y-89583768D01*
X109115771Y-89583768D02*
X109163390Y-89488530D01*
X109163390Y-89488530D02*
X109211009Y-89440911D01*
X109211009Y-89440911D02*
X109306247Y-89393292D01*
X109306247Y-89393292D02*
X109544342Y-89393292D01*
X109544342Y-89393292D02*
X109639580Y-89440911D01*
X109639580Y-89440911D02*
X109687200Y-89488530D01*
X109687200Y-89488530D02*
X109734819Y-89583768D01*
X109734819Y-89583768D02*
X109734819Y-89869482D01*
X109734819Y-89869482D02*
X109687200Y-89964720D01*
X109687200Y-89964720D02*
X109639580Y-90012339D01*
X108734819Y-88488530D02*
X108734819Y-88964720D01*
X108734819Y-88964720D02*
X109211009Y-89012339D01*
X109211009Y-89012339D02*
X109163390Y-88964720D01*
X109163390Y-88964720D02*
X109115771Y-88869482D01*
X109115771Y-88869482D02*
X109115771Y-88631387D01*
X109115771Y-88631387D02*
X109163390Y-88536149D01*
X109163390Y-88536149D02*
X109211009Y-88488530D01*
X109211009Y-88488530D02*
X109306247Y-88440911D01*
X109306247Y-88440911D02*
X109544342Y-88440911D01*
X109544342Y-88440911D02*
X109639580Y-88488530D01*
X109639580Y-88488530D02*
X109687200Y-88536149D01*
X109687200Y-88536149D02*
X109734819Y-88631387D01*
X109734819Y-88631387D02*
X109734819Y-88869482D01*
X109734819Y-88869482D02*
X109687200Y-88964720D01*
X109687200Y-88964720D02*
X109639580Y-89012339D01*
X109353866Y-88012339D02*
X109353866Y-87250435D01*
X109734819Y-86298054D02*
X109734819Y-86774244D01*
X109734819Y-86774244D02*
X108734819Y-86774244D01*
X109734819Y-85964720D02*
X108734819Y-85964720D01*
X108734819Y-85964720D02*
X108734819Y-85583768D01*
X108734819Y-85583768D02*
X108782438Y-85488530D01*
X108782438Y-85488530D02*
X108830057Y-85440911D01*
X108830057Y-85440911D02*
X108925295Y-85393292D01*
X108925295Y-85393292D02*
X109068152Y-85393292D01*
X109068152Y-85393292D02*
X109163390Y-85440911D01*
X109163390Y-85440911D02*
X109211009Y-85488530D01*
X109211009Y-85488530D02*
X109258628Y-85583768D01*
X109258628Y-85583768D02*
X109258628Y-85964720D01*
X112364819Y-90488529D02*
X112364819Y-89917101D01*
X113364819Y-90202815D02*
X112364819Y-90202815D01*
X113317200Y-89202815D02*
X113364819Y-89298053D01*
X113364819Y-89298053D02*
X113364819Y-89488529D01*
X113364819Y-89488529D02*
X113317200Y-89583767D01*
X113317200Y-89583767D02*
X113221961Y-89631386D01*
X113221961Y-89631386D02*
X112841009Y-89631386D01*
X112841009Y-89631386D02*
X112745771Y-89583767D01*
X112745771Y-89583767D02*
X112698152Y-89488529D01*
X112698152Y-89488529D02*
X112698152Y-89298053D01*
X112698152Y-89298053D02*
X112745771Y-89202815D01*
X112745771Y-89202815D02*
X112841009Y-89155196D01*
X112841009Y-89155196D02*
X112936247Y-89155196D01*
X112936247Y-89155196D02*
X113031485Y-89631386D01*
X113364819Y-88726624D02*
X112698152Y-88726624D01*
X112793390Y-88726624D02*
X112745771Y-88679005D01*
X112745771Y-88679005D02*
X112698152Y-88583767D01*
X112698152Y-88583767D02*
X112698152Y-88440910D01*
X112698152Y-88440910D02*
X112745771Y-88345672D01*
X112745771Y-88345672D02*
X112841009Y-88298053D01*
X112841009Y-88298053D02*
X113364819Y-88298053D01*
X112841009Y-88298053D02*
X112745771Y-88250434D01*
X112745771Y-88250434D02*
X112698152Y-88155196D01*
X112698152Y-88155196D02*
X112698152Y-88012339D01*
X112698152Y-88012339D02*
X112745771Y-87917100D01*
X112745771Y-87917100D02*
X112841009Y-87869481D01*
X112841009Y-87869481D02*
X113364819Y-87869481D01*
X112698152Y-87393291D02*
X113698152Y-87393291D01*
X112745771Y-87393291D02*
X112698152Y-87298053D01*
X112698152Y-87298053D02*
X112698152Y-87107577D01*
X112698152Y-87107577D02*
X112745771Y-87012339D01*
X112745771Y-87012339D02*
X112793390Y-86964720D01*
X112793390Y-86964720D02*
X112888628Y-86917101D01*
X112888628Y-86917101D02*
X113174342Y-86917101D01*
X113174342Y-86917101D02*
X113269580Y-86964720D01*
X113269580Y-86964720D02*
X113317200Y-87012339D01*
X113317200Y-87012339D02*
X113364819Y-87107577D01*
X113364819Y-87107577D02*
X113364819Y-87298053D01*
X113364819Y-87298053D02*
X113317200Y-87393291D01*
D13*
X142710000Y-65855197D02*
X142710000Y-66515197D01*
X142710000Y-73475197D02*
X142710000Y-72815197D01*
X143960000Y-66515197D02*
X141460000Y-66515197D01*
X141460000Y-72815197D01*
X143960000Y-72815197D01*
X143960000Y-66515197D01*
X140266190Y-55612012D02*
X137933810Y-55612012D01*
X140266190Y-55612012D02*
G75*
G02*
X137933810Y-55612012I-1166190J-1500000D01*
G01*
X140600000Y-57112012D02*
G75*
G02*
X137600000Y-57112012I-1500000J0D01*
G01*
X137600000Y-57112012D02*
G75*
G02*
X140600000Y-57112012I1500000J0D01*
G01*
X149450000Y-65845197D02*
X149450000Y-66505197D01*
X149450000Y-73465197D02*
X149450000Y-72805197D01*
X150700000Y-66505197D02*
X148200000Y-66505197D01*
X148200000Y-72805197D01*
X150700000Y-72805197D01*
X150700000Y-66505197D01*
X126540000Y-61585197D02*
X126540000Y-62795197D01*
X126540000Y-69205197D02*
X126540000Y-67995197D01*
X127890000Y-63475197D02*
X125190000Y-63475197D01*
X127890000Y-63575197D02*
X125190000Y-63575197D01*
X127890000Y-63675197D02*
X125190000Y-63675197D01*
X127890000Y-62795197D02*
X125190000Y-62795197D01*
X125190000Y-67995197D01*
X127890000Y-67995197D01*
X127890000Y-62795197D01*
X147276190Y-55615197D02*
X144943810Y-55615197D01*
X147276190Y-55615197D02*
G75*
G02*
X144943810Y-55615197I-1166190J-1500000D01*
G01*
X147610000Y-57115197D02*
G75*
G02*
X144610000Y-57115197I-1500000J0D01*
G01*
X144610000Y-57115197D02*
G75*
G02*
X147610000Y-57115197I1500000J0D01*
G01*
X133126190Y-55602012D02*
X130793810Y-55602012D01*
X133126190Y-55602012D02*
G75*
G02*
X130793810Y-55602012I-1166190J-1500000D01*
G01*
X133460000Y-57102012D02*
G75*
G02*
X130460000Y-57102012I-1500000J0D01*
G01*
X130460000Y-57102012D02*
G75*
G02*
X133460000Y-57102012I1500000J0D01*
G01*
X149263185Y-82605197D02*
X149263185Y-83105197D01*
X149263185Y-82605197D02*
X151013185Y-82605197D01*
X149263185Y-83105197D02*
X151013185Y-83105197D01*
X149263185Y-84605197D02*
X149263185Y-85105197D01*
X149263185Y-84605197D02*
X151013185Y-84605197D01*
X149263185Y-85105197D02*
X151013185Y-85105197D01*
X151013185Y-82230197D02*
X151388185Y-81855197D01*
X151013185Y-85855197D02*
X151013185Y-82230197D01*
X151388185Y-81855197D02*
X152513185Y-81855197D01*
X152513185Y-81855197D02*
X152513185Y-85855197D01*
X152513185Y-82605197D02*
X156713185Y-82605197D01*
X152513185Y-83105197D02*
X156713185Y-83105197D01*
X152513185Y-84605197D02*
X156713185Y-84605197D01*
X152513185Y-85105197D02*
X156713185Y-85105197D01*
X152513185Y-85855197D02*
X151013185Y-85855197D01*
X156713185Y-82605197D02*
X156713185Y-83105197D01*
X156713185Y-84605197D02*
X156713185Y-85105197D01*
X110420000Y-54235197D02*
X115370000Y-54235197D01*
X110420000Y-58815197D02*
X110420000Y-54235197D01*
X115370000Y-54235197D02*
X115370000Y-58815197D01*
X115370000Y-55255197D02*
X118290000Y-55255197D01*
X115370000Y-56525197D02*
X118290000Y-56525197D01*
X115370000Y-57795197D02*
X118290000Y-57795197D01*
X115370000Y-58815197D02*
X110420000Y-58815197D01*
X113430000Y-67795197D02*
X114090000Y-67795197D01*
X121050000Y-67795197D02*
X120390000Y-67795197D01*
X114090000Y-66545197D02*
X120390000Y-66545197D01*
X120390000Y-69045197D01*
X114090000Y-69045197D01*
X114090000Y-66545197D01*
X146090000Y-65855197D02*
X146090000Y-66515197D01*
X146090000Y-73475197D02*
X146090000Y-72815197D01*
X147340000Y-66515197D02*
X144840000Y-66515197D01*
X144840000Y-72815197D01*
X147340000Y-72815197D01*
X147340000Y-66515197D01*
X113410000Y-63025197D02*
X114070000Y-63025197D01*
X121030000Y-63025197D02*
X120370000Y-63025197D01*
X120370000Y-64275197D02*
X114070000Y-64275197D01*
X114070000Y-61775197D01*
X120370000Y-61775197D01*
X120370000Y-64275197D01*
X110420000Y-86365197D02*
X115370000Y-86365197D01*
X110420000Y-90945197D02*
X110420000Y-86365197D01*
X115370000Y-86365197D02*
X115370000Y-90945197D01*
X115370000Y-87385197D02*
X118290000Y-87385197D01*
X115370000Y-88655197D02*
X118290000Y-88655197D01*
X115370000Y-89925197D02*
X118290000Y-89925197D01*
X115370000Y-90945197D02*
X110420000Y-90945197D01*
M02*
