G04 #@! TF.GenerationSoftware,KiCad,Pcbnew,9.0.6*
G04 #@! TF.CreationDate,2026-04-18T18:03:36+05:30*
G04 #@! TF.ProjectId,Embedded Systems,456d6265-6464-4656-9420-53797374656d,1.0*
G04 #@! TF.SameCoordinates,Original*
G04 #@! TF.FileFunction,Copper,L1,Top*
G04 #@! TF.FilePolarity,Positive*
%FSLAX46Y46*%
G04 Gerber Fmt 4.6, Leading zero omitted, Abs format (unit mm)*
G04 Created by KiCad (PCBNEW 9.0.6) date 2026-04-18 18:03:36*
%MOMM*%
%LPD*%
G01*
G04 APERTURE LIST*
G04 Aperture macros list*
%AMRoundRect*
0 Rectangle with rounded corners*
0 $1 Rounding radius*
0 $2 $3 $4 $5 $6 $7 $8 $9 X,Y pos of 4 corners*
0 Add a 4 corners polygon primitive as box body*
4,1,4,$2,$3,$4,$5,$6,$7,$8,$9,$2,$3,0*
0 Add four circle primitives for the rounded corners*
1,1,$1+$1,$2,$3*
1,1,$1+$1,$4,$5*
1,1,$1+$1,$6,$7*
1,1,$1+$1,$8,$9*
0 Add four rect primitives between the rounded corners*
20,1,$1+$1,$2,$3,$4,$5,0*
20,1,$1+$1,$4,$5,$6,$7,0*
20,1,$1+$1,$6,$7,$8,$9,0*
20,1,$1+$1,$8,$9,$2,$3,0*%
G04 Aperture macros list end*
G04 #@! TA.AperFunction,ComponentPad*
%ADD10C,1.600000*%
G04 #@! TD*
G04 #@! TA.AperFunction,ComponentPad*
%ADD11R,1.800000X1.800000*%
G04 #@! TD*
G04 #@! TA.AperFunction,ComponentPad*
%ADD12C,1.800000*%
G04 #@! TD*
G04 #@! TA.AperFunction,ComponentPad*
%ADD13RoundRect,0.250000X-0.650000X0.650000X-0.650000X-0.650000X0.650000X-0.650000X0.650000X0.650000X0*%
G04 #@! TD*
G04 #@! TA.AperFunction,ComponentPad*
%ADD14R,1.350000X1.350000*%
G04 #@! TD*
G04 #@! TA.AperFunction,ComponentPad*
%ADD15C,1.350000*%
G04 #@! TD*
G04 #@! TA.AperFunction,ComponentPad*
%ADD16R,1.500000X1.050000*%
G04 #@! TD*
G04 #@! TA.AperFunction,ComponentPad*
%ADD17O,1.500000X1.050000*%
G04 #@! TD*
G04 #@! TA.AperFunction,ComponentPad*
%ADD18R,1.700000X1.700000*%
G04 #@! TD*
G04 #@! TA.AperFunction,ComponentPad*
%ADD19C,1.700000*%
G04 #@! TD*
G04 #@! TA.AperFunction,Conductor*
%ADD20C,0.500000*%
G04 #@! TD*
G04 #@! TA.AperFunction,Conductor*
%ADD21C,0.200000*%
G04 #@! TD*
G04 APERTURE END LIST*
D10*
X142710000Y-65855197D03*
X142710000Y-73475197D03*
D11*
X139100000Y-55842012D03*
D12*
X139100000Y-58382012D03*
D10*
X149450000Y-65845197D03*
X149450000Y-73465197D03*
D13*
X126540000Y-61585197D03*
D12*
X126540000Y-69205197D03*
D11*
X146110000Y-55845197D03*
D12*
X146110000Y-58385197D03*
D11*
X131960000Y-55832012D03*
D12*
X131960000Y-58372012D03*
D14*
X149513185Y-82855197D03*
D15*
X149513185Y-84855197D03*
D16*
X119310000Y-55255197D03*
D17*
X119310000Y-56525197D03*
X119310000Y-57795197D03*
D10*
X113430000Y-67795197D03*
X121050000Y-67795197D03*
X146090000Y-65855197D03*
X146090000Y-73475197D03*
X121030000Y-63025197D03*
X113410000Y-63025197D03*
D16*
X119310000Y-87385197D03*
D17*
X119310000Y-88655197D03*
X119310000Y-89925197D03*
D18*
X134723185Y-97675197D03*
D19*
X137263185Y-97675197D03*
X139803185Y-97675197D03*
X142343185Y-97675197D03*
X144883185Y-97675197D03*
X147423185Y-97675197D03*
D18*
X111973185Y-97665197D03*
D19*
X114513185Y-97665197D03*
X117053185Y-97665197D03*
X119593185Y-97665197D03*
X122133185Y-97665197D03*
X124673185Y-97665197D03*
X127213185Y-97665197D03*
X129753185Y-97665197D03*
D18*
X102843185Y-49405197D03*
D19*
X105383185Y-49405197D03*
X107923185Y-49405197D03*
X110463185Y-49405197D03*
X113003185Y-49405197D03*
X115543185Y-49405197D03*
X118083185Y-49405197D03*
X120623185Y-49405197D03*
X123163185Y-49405197D03*
X125703185Y-49405197D03*
D18*
X129763185Y-49445197D03*
D19*
X132303185Y-49445197D03*
X134843185Y-49445197D03*
X137383185Y-49445197D03*
X139923185Y-49445197D03*
X142463185Y-49445197D03*
X145003185Y-49445197D03*
X147543185Y-49445197D03*
D20*
X118370000Y-93000000D02*
X120110000Y-93000000D01*
X115920000Y-88400000D02*
X115920000Y-90550000D01*
X132174803Y-87385197D02*
X134704803Y-84855197D01*
X120110000Y-93000000D02*
X122130000Y-95020000D01*
X134704803Y-84855197D02*
X149513185Y-84855197D01*
X115920000Y-90550000D02*
X118370000Y-93000000D01*
X119310000Y-87385197D02*
X132174803Y-87385197D01*
X122130000Y-95730000D02*
X122133185Y-95733185D01*
X116934803Y-87385197D02*
X115920000Y-88400000D01*
X119310000Y-87385197D02*
X116934803Y-87385197D01*
X122130000Y-95020000D02*
X122130000Y-95730000D01*
X122133185Y-95733185D02*
X122133185Y-97665197D01*
D21*
X149450000Y-63885197D02*
X146110000Y-60545197D01*
X146110000Y-60545197D02*
X146110000Y-58385197D01*
X149450000Y-65845197D02*
X149450000Y-63885197D01*
X136150000Y-52535197D02*
X134843185Y-51228382D01*
X134843185Y-51228382D02*
X134843185Y-49445197D01*
X144930000Y-52535197D02*
X136150000Y-52535197D01*
X146110000Y-53715197D02*
X144930000Y-52535197D01*
X146110000Y-55845197D02*
X146110000Y-53715197D01*
X140690000Y-61455197D02*
X139100000Y-59865197D01*
X146090000Y-65855197D02*
X146090000Y-63385197D01*
X146090000Y-63385197D02*
X144160000Y-61455197D01*
X144160000Y-61455197D02*
X140690000Y-61455197D01*
X139100000Y-59865197D02*
X139100000Y-58382012D01*
X134750000Y-53685197D02*
X132303185Y-51238382D01*
X138470000Y-53685197D02*
X134750000Y-53685197D01*
X139100000Y-55842012D02*
X139100000Y-54315197D01*
X132303185Y-51238382D02*
X132303185Y-49445197D01*
X139100000Y-54315197D02*
X138470000Y-53685197D01*
X129763185Y-51178382D02*
X129763185Y-49445197D01*
X131960000Y-53375197D02*
X129763185Y-51178382D01*
X131960000Y-55832012D02*
X131960000Y-53375197D01*
X141335197Y-62915197D02*
X134495197Y-62915197D01*
X131960000Y-60380000D02*
X131960000Y-58372012D01*
X134495197Y-62915197D02*
X131960000Y-60380000D01*
X142710000Y-65855197D02*
X142710000Y-64290000D01*
X142710000Y-64290000D02*
X141335197Y-62915197D01*
X134720000Y-82855197D02*
X149513185Y-82855197D01*
X126540000Y-74715197D02*
X134700000Y-82875197D01*
X126540000Y-69205197D02*
X126540000Y-74715197D01*
X134700000Y-82875197D02*
X134720000Y-82855197D01*
X118360000Y-56525197D02*
X117240000Y-57645197D01*
X124970000Y-61585197D02*
X126540000Y-61585197D01*
X121350000Y-65205197D02*
X124970000Y-61585197D01*
X118810000Y-65205197D02*
X121350000Y-65205197D01*
X117240000Y-57645197D02*
X117240000Y-63635197D01*
X117240000Y-63635197D02*
X118810000Y-65205197D01*
X119310000Y-56525197D02*
X118360000Y-56525197D01*
X123163185Y-60892012D02*
X123163185Y-49405197D01*
X121030000Y-63025197D02*
X123163185Y-60892012D01*
X134723185Y-94008382D02*
X134723185Y-97675197D01*
X123390000Y-88655197D02*
X125950000Y-91215197D01*
X131930000Y-91215197D02*
X134723185Y-94008382D01*
X125950000Y-91215197D02*
X131930000Y-91215197D01*
X119310000Y-88655197D02*
X123390000Y-88655197D01*
X113430000Y-63045197D02*
X113410000Y-63025197D01*
X115630000Y-58475197D02*
X115630000Y-56275197D01*
X113410000Y-60695197D02*
X115630000Y-58475197D01*
X115630000Y-56275197D02*
X116650000Y-55255197D01*
X116650000Y-55255197D02*
X119310000Y-55255197D01*
X113410000Y-63025197D02*
X113410000Y-60695197D01*
X113430000Y-67795197D02*
X113430000Y-63045197D01*
G04 #@! TA.AperFunction,Conductor*
G36*
X149252627Y-47035382D02*
G01*
X149273269Y-47052016D01*
X149906366Y-47685113D01*
X149939851Y-47746436D01*
X149942685Y-47772794D01*
X149942685Y-59555080D01*
X149957088Y-59589851D01*
X149973209Y-59628771D01*
X151211359Y-60866921D01*
X152446366Y-62101927D01*
X152479851Y-62163250D01*
X152482685Y-62189608D01*
X152482685Y-96210784D01*
X152463000Y-96277823D01*
X152446366Y-96298465D01*
X149973209Y-98771622D01*
X149942685Y-98845313D01*
X149942685Y-99258784D01*
X149923000Y-99325823D01*
X149906366Y-99346465D01*
X148899650Y-100353181D01*
X148838327Y-100386666D01*
X148811969Y-100389500D01*
X101109215Y-100389500D01*
X101042176Y-100369815D01*
X101021534Y-100353181D01*
X100023622Y-99355269D01*
X99990137Y-99293946D01*
X99987303Y-99267588D01*
X99987303Y-96766542D01*
X110614685Y-96766542D01*
X110614685Y-98563851D01*
X110621196Y-98624399D01*
X110621196Y-98624401D01*
X110672296Y-98761401D01*
X110759924Y-98878458D01*
X110876981Y-98966086D01*
X111013984Y-99017186D01*
X111041235Y-99020115D01*
X111074530Y-99023696D01*
X111074547Y-99023697D01*
X112871823Y-99023697D01*
X112871839Y-99023696D01*
X112898877Y-99020788D01*
X112932386Y-99017186D01*
X113069389Y-98966086D01*
X113186446Y-98878458D01*
X113274074Y-98761401D01*
X113319142Y-98640568D01*
X113361012Y-98584639D01*
X113426476Y-98560222D01*
X113494749Y-98575074D01*
X113523003Y-98596225D01*
X113628181Y-98701403D01*
X113801176Y-98827091D01*
X113836939Y-98845313D01*
X113991701Y-98924169D01*
X113991704Y-98924170D01*
X114022479Y-98934169D01*
X114195069Y-98990246D01*
X114406269Y-99023697D01*
X114406270Y-99023697D01*
X114620100Y-99023697D01*
X114620101Y-99023697D01*
X114831301Y-98990246D01*
X115034668Y-98924169D01*
X115225194Y-98827091D01*
X115398189Y-98701403D01*
X115549391Y-98550201D01*
X115675079Y-98377206D01*
X115675081Y-98377201D01*
X115677455Y-98373329D01*
X115729265Y-98326451D01*
X115798194Y-98315026D01*
X115862358Y-98342680D01*
X115888915Y-98373329D01*
X115891288Y-98377202D01*
X115898556Y-98387206D01*
X116016979Y-98550201D01*
X116168181Y-98701403D01*
X116341176Y-98827091D01*
X116376939Y-98845313D01*
X116531701Y-98924169D01*
X116531704Y-98924170D01*
X116562479Y-98934169D01*
X116735069Y-98990246D01*
X116946269Y-99023697D01*
X116946270Y-99023697D01*
X117160100Y-99023697D01*
X117160101Y-99023697D01*
X117371301Y-98990246D01*
X117574668Y-98924169D01*
X117765194Y-98827091D01*
X117938189Y-98701403D01*
X118089391Y-98550201D01*
X118215079Y-98377206D01*
X118215081Y-98377201D01*
X118217455Y-98373329D01*
X118269265Y-98326451D01*
X118338194Y-98315026D01*
X118402358Y-98342680D01*
X118428915Y-98373329D01*
X118431288Y-98377202D01*
X118438556Y-98387206D01*
X118556979Y-98550201D01*
X118708181Y-98701403D01*
X118881176Y-98827091D01*
X118916939Y-98845313D01*
X119071701Y-98924169D01*
X119071704Y-98924170D01*
X119102479Y-98934169D01*
X119275069Y-98990246D01*
X119486269Y-99023697D01*
X119486270Y-99023697D01*
X119700100Y-99023697D01*
X119700101Y-99023697D01*
X119911301Y-98990246D01*
X120114668Y-98924169D01*
X120305194Y-98827091D01*
X120478189Y-98701403D01*
X120629391Y-98550201D01*
X120755079Y-98377206D01*
X120755081Y-98377201D01*
X120757455Y-98373329D01*
X120809265Y-98326451D01*
X120878194Y-98315026D01*
X120942358Y-98342680D01*
X120968915Y-98373329D01*
X120971288Y-98377202D01*
X120978556Y-98387206D01*
X121096979Y-98550201D01*
X121248181Y-98701403D01*
X121421176Y-98827091D01*
X121456939Y-98845313D01*
X121611701Y-98924169D01*
X121611704Y-98924170D01*
X121642479Y-98934169D01*
X121815069Y-98990246D01*
X122026269Y-99023697D01*
X122026270Y-99023697D01*
X122240100Y-99023697D01*
X122240101Y-99023697D01*
X122451301Y-98990246D01*
X122654668Y-98924169D01*
X122845194Y-98827091D01*
X123018189Y-98701403D01*
X123169391Y-98550201D01*
X123295079Y-98377206D01*
X123297468Y-98372516D01*
X123345439Y-98321719D01*
X123413259Y-98304921D01*
X123479395Y-98327455D01*
X123515381Y-98368980D01*
X123516014Y-98368593D01*
X123518352Y-98372408D01*
X123518436Y-98372505D01*
X123518556Y-98372742D01*
X123518558Y-98372744D01*
X123557913Y-98426913D01*
X124190222Y-97794605D01*
X124207260Y-97858190D01*
X124273086Y-97972204D01*
X124366178Y-98065296D01*
X124480192Y-98131122D01*
X124543775Y-98148159D01*
X123911467Y-98780466D01*
X123911467Y-98780467D01*
X123965634Y-98819821D01*
X124154967Y-98916292D01*
X124357055Y-98981954D01*
X124566939Y-99015197D01*
X124779431Y-99015197D01*
X124989312Y-98981954D01*
X124989315Y-98981954D01*
X125191402Y-98916292D01*
X125380739Y-98819819D01*
X125434901Y-98780467D01*
X125434902Y-98780467D01*
X124802593Y-98148159D01*
X124866178Y-98131122D01*
X124980192Y-98065296D01*
X125073284Y-97972204D01*
X125139110Y-97858190D01*
X125156147Y-97794605D01*
X125788455Y-98426914D01*
X125788455Y-98426913D01*
X125827807Y-98372751D01*
X125832699Y-98363151D01*
X125880673Y-98312354D01*
X125948493Y-98295558D01*
X126014629Y-98318094D01*
X126053671Y-98363151D01*
X126058560Y-98372747D01*
X126097913Y-98426913D01*
X126730222Y-97794605D01*
X126747260Y-97858190D01*
X126813086Y-97972204D01*
X126906178Y-98065296D01*
X127020192Y-98131122D01*
X127083775Y-98148159D01*
X126451467Y-98780466D01*
X126451467Y-98780467D01*
X126505634Y-98819821D01*
X126694967Y-98916292D01*
X126897055Y-98981954D01*
X127106939Y-99015197D01*
X127319431Y-99015197D01*
X127529312Y-98981954D01*
X127529315Y-98981954D01*
X127731402Y-98916292D01*
X127920739Y-98819819D01*
X127974901Y-98780467D01*
X127974902Y-98780467D01*
X127342593Y-98148159D01*
X127406178Y-98131122D01*
X127520192Y-98065296D01*
X127613284Y-97972204D01*
X127679110Y-97858190D01*
X127696147Y-97794605D01*
X128328455Y-98426914D01*
X128328455Y-98426913D01*
X128367806Y-98372753D01*
X128367923Y-98372524D01*
X128367993Y-98372449D01*
X128370353Y-98368599D01*
X128371161Y-98369094D01*
X128415892Y-98321723D01*
X128483711Y-98304920D01*
X128549848Y-98327451D01*
X128588897Y-98372508D01*
X128591290Y-98377205D01*
X128598556Y-98387206D01*
X128716979Y-98550201D01*
X128868181Y-98701403D01*
X129041176Y-98827091D01*
X129076939Y-98845313D01*
X129231701Y-98924169D01*
X129231704Y-98924170D01*
X129262479Y-98934169D01*
X129435069Y-98990246D01*
X129646269Y-99023697D01*
X129646270Y-99023697D01*
X129860100Y-99023697D01*
X129860101Y-99023697D01*
X130071301Y-98990246D01*
X130274668Y-98924169D01*
X130465194Y-98827091D01*
X130638189Y-98701403D01*
X130789391Y-98550201D01*
X130915079Y-98377206D01*
X131012157Y-98186680D01*
X131078234Y-97983313D01*
X131111685Y-97772113D01*
X131111685Y-97558281D01*
X131078234Y-97347081D01*
X131012157Y-97143714D01*
X131012157Y-97143713D01*
X130956680Y-97034835D01*
X130915079Y-96953188D01*
X130789391Y-96780193D01*
X130638189Y-96628991D01*
X130465194Y-96503303D01*
X130407484Y-96473898D01*
X130274668Y-96406224D01*
X130274665Y-96406223D01*
X130071302Y-96340148D01*
X129923238Y-96316697D01*
X129860101Y-96306697D01*
X129646269Y-96306697D01*
X129583132Y-96316697D01*
X129435067Y-96340148D01*
X129231704Y-96406223D01*
X129231701Y-96406224D01*
X129041175Y-96503303D01*
X128868178Y-96628993D01*
X128716981Y-96780190D01*
X128591288Y-96953191D01*
X128588894Y-96957890D01*
X128540916Y-97008682D01*
X128473093Y-97025472D01*
X128406960Y-97002929D01*
X128370989Y-96961412D01*
X128370356Y-96961801D01*
X128368011Y-96957975D01*
X128367928Y-96957879D01*
X128367809Y-96957646D01*
X128328455Y-96903479D01*
X128328454Y-96903479D01*
X127696147Y-97535787D01*
X127679110Y-97472204D01*
X127613284Y-97358190D01*
X127520192Y-97265098D01*
X127406178Y-97199272D01*
X127342594Y-97182234D01*
X127974901Y-96549925D01*
X127920735Y-96510572D01*
X127731402Y-96414101D01*
X127529314Y-96348439D01*
X127319431Y-96315197D01*
X127106939Y-96315197D01*
X126897057Y-96348439D01*
X126897054Y-96348439D01*
X126694967Y-96414101D01*
X126505624Y-96510577D01*
X126451467Y-96549924D01*
X126451467Y-96549925D01*
X127083776Y-97182234D01*
X127020192Y-97199272D01*
X126906178Y-97265098D01*
X126813086Y-97358190D01*
X126747260Y-97472204D01*
X126730222Y-97535788D01*
X126097913Y-96903479D01*
X126097912Y-96903479D01*
X126058565Y-96957637D01*
X126053668Y-96967248D01*
X126005691Y-97018042D01*
X125937869Y-97034835D01*
X125871735Y-97012295D01*
X125832701Y-96967245D01*
X125827811Y-96957649D01*
X125788455Y-96903479D01*
X125788454Y-96903479D01*
X125156147Y-97535787D01*
X125139110Y-97472204D01*
X125073284Y-97358190D01*
X124980192Y-97265098D01*
X124866178Y-97199272D01*
X124802594Y-97182234D01*
X125434901Y-96549925D01*
X125380735Y-96510572D01*
X125191402Y-96414101D01*
X124989314Y-96348439D01*
X124779431Y-96315197D01*
X124566939Y-96315197D01*
X124357057Y-96348439D01*
X124357054Y-96348439D01*
X124154967Y-96414101D01*
X123965624Y-96510577D01*
X123911467Y-96549924D01*
X123911467Y-96549925D01*
X124543776Y-97182234D01*
X124480192Y-97199272D01*
X124366178Y-97265098D01*
X124273086Y-97358190D01*
X124207260Y-97472204D01*
X124190222Y-97535788D01*
X123557913Y-96903479D01*
X123557912Y-96903479D01*
X123518565Y-96957637D01*
X123518559Y-96957646D01*
X123518431Y-96957899D01*
X123518357Y-96957977D01*
X123516023Y-96961787D01*
X123515221Y-96961296D01*
X123470449Y-97008687D01*
X123402626Y-97025472D01*
X123336494Y-97002925D01*
X123297468Y-96957877D01*
X123295079Y-96953188D01*
X123169391Y-96780193D01*
X123018189Y-96628991D01*
X122939158Y-96571571D01*
X122935703Y-96568655D01*
X122918824Y-96543125D01*
X122900133Y-96518885D01*
X122899075Y-96513253D01*
X122897170Y-96510371D01*
X122897068Y-96502568D01*
X122891685Y-96473898D01*
X122891685Y-95658480D01*
X122890883Y-95654449D01*
X122888500Y-95630254D01*
X122888500Y-94945291D01*
X122859352Y-94798759D01*
X122859351Y-94798758D01*
X122859351Y-94798754D01*
X122859349Y-94798749D01*
X122802177Y-94660722D01*
X122802170Y-94660709D01*
X122719166Y-94536485D01*
X122719165Y-94536484D01*
X122613516Y-94430835D01*
X121666196Y-93483515D01*
X120593518Y-92410836D01*
X120593517Y-92410835D01*
X120531399Y-92369330D01*
X120469284Y-92327826D01*
X120331247Y-92270649D01*
X120331239Y-92270647D01*
X120257976Y-92256074D01*
X120184709Y-92241500D01*
X120184706Y-92241500D01*
X118735543Y-92241500D01*
X118668504Y-92221815D01*
X118647862Y-92205181D01*
X116714819Y-90272138D01*
X116700115Y-90245210D01*
X116683523Y-90219392D01*
X116682631Y-90213191D01*
X116681334Y-90210815D01*
X116678500Y-90184457D01*
X116678500Y-88765542D01*
X116698185Y-88698503D01*
X116714819Y-88677861D01*
X117212664Y-88180016D01*
X117273987Y-88146531D01*
X117300345Y-88143697D01*
X117992638Y-88143697D01*
X118059677Y-88163382D01*
X118105432Y-88216186D01*
X118115376Y-88285344D01*
X118107199Y-88315149D01*
X118091218Y-88353730D01*
X118091215Y-88353738D01*
X118051500Y-88553401D01*
X118051500Y-88756992D01*
X118091215Y-88956650D01*
X118091218Y-88956662D01*
X118169120Y-89144736D01*
X118169127Y-89144749D01*
X118225392Y-89228955D01*
X118246270Y-89295633D01*
X118227785Y-89363013D01*
X118225393Y-89366736D01*
X118176658Y-89439673D01*
X118176652Y-89439684D01*
X118099390Y-89626213D01*
X118099387Y-89626222D01*
X118089647Y-89675197D01*
X118903129Y-89675197D01*
X118927319Y-89677579D01*
X118941768Y-89680453D01*
X118983207Y-89688697D01*
X118983209Y-89688697D01*
X119016170Y-89688697D01*
X119009925Y-89694942D01*
X118960556Y-89780452D01*
X118935000Y-89875827D01*
X118935000Y-89974567D01*
X118960556Y-90069942D01*
X119009925Y-90155452D01*
X119029670Y-90175197D01*
X118089647Y-90175197D01*
X118099387Y-90224171D01*
X118099390Y-90224180D01*
X118176652Y-90410710D01*
X118176659Y-90410723D01*
X118288829Y-90578596D01*
X118288832Y-90578600D01*
X118431596Y-90721364D01*
X118431600Y-90721367D01*
X118599473Y-90833537D01*
X118599486Y-90833544D01*
X118786016Y-90910806D01*
X118786025Y-90910809D01*
X118984041Y-90950196D01*
X118984045Y-90950197D01*
X119060000Y-90950197D01*
X119060000Y-90205527D01*
X119079745Y-90225272D01*
X119165255Y-90274641D01*
X119260630Y-90300197D01*
X119359370Y-90300197D01*
X119454745Y-90274641D01*
X119540255Y-90225272D01*
X119560000Y-90205527D01*
X119560000Y-90950197D01*
X119635955Y-90950197D01*
X119635958Y-90950196D01*
X119833974Y-90910809D01*
X119833983Y-90910806D01*
X120020513Y-90833544D01*
X120020526Y-90833537D01*
X120188399Y-90721367D01*
X120188403Y-90721364D01*
X120331167Y-90578600D01*
X120331170Y-90578596D01*
X120443340Y-90410723D01*
X120443347Y-90410710D01*
X120520609Y-90224180D01*
X120520612Y-90224171D01*
X120530353Y-90175197D01*
X119590330Y-90175197D01*
X119610075Y-90155452D01*
X119659444Y-90069942D01*
X119685000Y-89974567D01*
X119685000Y-89875827D01*
X119659444Y-89780452D01*
X119610075Y-89694942D01*
X119603830Y-89688697D01*
X119636792Y-89688697D01*
X119669719Y-89682147D01*
X119692680Y-89677579D01*
X119716871Y-89675197D01*
X120530353Y-89675197D01*
X120520612Y-89626222D01*
X120520609Y-89626213D01*
X120441469Y-89435149D01*
X120434000Y-89365680D01*
X120465276Y-89303201D01*
X120525365Y-89267549D01*
X120556030Y-89263697D01*
X123086589Y-89263697D01*
X123153628Y-89283382D01*
X123174270Y-89300016D01*
X125576373Y-91702119D01*
X125715128Y-91782229D01*
X125869889Y-91823697D01*
X125869890Y-91823697D01*
X126030110Y-91823697D01*
X131626589Y-91823697D01*
X131693628Y-91843382D01*
X131714270Y-91860016D01*
X134078366Y-94224112D01*
X134111851Y-94285435D01*
X134114685Y-94311793D01*
X134114685Y-96192697D01*
X134095000Y-96259736D01*
X134042196Y-96305491D01*
X133990685Y-96316697D01*
X133824530Y-96316697D01*
X133763982Y-96323208D01*
X133763980Y-96323208D01*
X133626980Y-96374308D01*
X133509924Y-96461936D01*
X133422296Y-96578992D01*
X133371196Y-96715992D01*
X133371196Y-96715994D01*
X133364685Y-96776542D01*
X133364685Y-98573851D01*
X133371196Y-98634399D01*
X133371196Y-98634401D01*
X133418566Y-98761401D01*
X133422296Y-98771401D01*
X133509924Y-98888458D01*
X133626981Y-98976086D01*
X133763984Y-99027186D01*
X133791235Y-99030115D01*
X133824530Y-99033696D01*
X133824547Y-99033697D01*
X135621823Y-99033697D01*
X135621839Y-99033696D01*
X135648877Y-99030788D01*
X135682386Y-99027186D01*
X135819389Y-98976086D01*
X135936446Y-98888458D01*
X136024074Y-98771401D01*
X136069142Y-98650568D01*
X136111012Y-98594639D01*
X136176476Y-98570222D01*
X136244749Y-98585074D01*
X136273003Y-98606225D01*
X136378181Y-98711403D01*
X136551176Y-98837091D01*
X136632361Y-98878457D01*
X136741701Y-98934169D01*
X136741704Y-98934170D01*
X136839931Y-98966085D01*
X136945069Y-99000246D01*
X137156269Y-99033697D01*
X137156270Y-99033697D01*
X137370100Y-99033697D01*
X137370101Y-99033697D01*
X137581301Y-99000246D01*
X137784668Y-98934169D01*
X137975194Y-98837091D01*
X138148189Y-98711403D01*
X138299391Y-98560201D01*
X138425079Y-98387206D01*
X138425081Y-98387201D01*
X138427455Y-98383329D01*
X138479265Y-98336451D01*
X138548194Y-98325026D01*
X138612358Y-98352680D01*
X138638915Y-98383329D01*
X138641288Y-98387202D01*
X138641291Y-98387206D01*
X138766979Y-98560201D01*
X138918181Y-98711403D01*
X139091176Y-98837091D01*
X139172361Y-98878457D01*
X139281701Y-98934169D01*
X139281704Y-98934170D01*
X139379931Y-98966085D01*
X139485069Y-99000246D01*
X139696269Y-99033697D01*
X139696270Y-99033697D01*
X139910100Y-99033697D01*
X139910101Y-99033697D01*
X140121301Y-99000246D01*
X140324668Y-98934169D01*
X140515194Y-98837091D01*
X140688189Y-98711403D01*
X140839391Y-98560201D01*
X140965079Y-98387206D01*
X140965081Y-98387201D01*
X140967455Y-98383329D01*
X141019265Y-98336451D01*
X141088194Y-98325026D01*
X141152358Y-98352680D01*
X141178915Y-98383329D01*
X141181288Y-98387202D01*
X141181291Y-98387206D01*
X141306979Y-98560201D01*
X141458181Y-98711403D01*
X141631176Y-98837091D01*
X141712361Y-98878457D01*
X141821701Y-98934169D01*
X141821704Y-98934170D01*
X141919931Y-98966085D01*
X142025069Y-99000246D01*
X142236269Y-99033697D01*
X142236270Y-99033697D01*
X142450100Y-99033697D01*
X142450101Y-99033697D01*
X142661301Y-99000246D01*
X142864668Y-98934169D01*
X143055194Y-98837091D01*
X143228189Y-98711403D01*
X143379391Y-98560201D01*
X143505079Y-98387206D01*
X143505081Y-98387201D01*
X143507455Y-98383329D01*
X143559265Y-98336451D01*
X143628194Y-98325026D01*
X143692358Y-98352680D01*
X143718915Y-98383329D01*
X143721288Y-98387202D01*
X143721291Y-98387206D01*
X143846979Y-98560201D01*
X143998181Y-98711403D01*
X144171176Y-98837091D01*
X144252361Y-98878457D01*
X144361701Y-98934169D01*
X144361704Y-98934170D01*
X144459931Y-98966085D01*
X144565069Y-99000246D01*
X144776269Y-99033697D01*
X144776270Y-99033697D01*
X144990100Y-99033697D01*
X144990101Y-99033697D01*
X145201301Y-99000246D01*
X145404668Y-98934169D01*
X145595194Y-98837091D01*
X145768189Y-98711403D01*
X145919391Y-98560201D01*
X146045079Y-98387206D01*
X146045081Y-98387201D01*
X146047455Y-98383329D01*
X146099265Y-98336451D01*
X146168194Y-98325026D01*
X146232358Y-98352680D01*
X146258915Y-98383329D01*
X146261288Y-98387202D01*
X146261291Y-98387206D01*
X146386979Y-98560201D01*
X146538181Y-98711403D01*
X146711176Y-98837091D01*
X146792361Y-98878457D01*
X146901701Y-98934169D01*
X146901704Y-98934170D01*
X146999931Y-98966085D01*
X147105069Y-99000246D01*
X147316269Y-99033697D01*
X147316270Y-99033697D01*
X147530100Y-99033697D01*
X147530101Y-99033697D01*
X147741301Y-99000246D01*
X147944668Y-98934169D01*
X148135194Y-98837091D01*
X148308189Y-98711403D01*
X148459391Y-98560201D01*
X148585079Y-98387206D01*
X148682157Y-98196680D01*
X148748234Y-97993313D01*
X148781685Y-97782113D01*
X148781685Y-97568281D01*
X148748234Y-97357081D01*
X148715195Y-97255397D01*
X148682158Y-97153716D01*
X148682157Y-97153713D01*
X148616760Y-97025366D01*
X148585079Y-96963188D01*
X148459391Y-96790193D01*
X148308189Y-96638991D01*
X148135194Y-96513303D01*
X148115568Y-96503303D01*
X147944668Y-96416224D01*
X147944665Y-96416223D01*
X147741302Y-96350148D01*
X147635701Y-96333422D01*
X147530101Y-96316697D01*
X147316269Y-96316697D01*
X147245869Y-96327847D01*
X147105067Y-96350148D01*
X146901704Y-96416223D01*
X146901701Y-96416224D01*
X146711175Y-96513303D01*
X146538178Y-96638993D01*
X146386981Y-96790190D01*
X146261290Y-96963188D01*
X146258912Y-96967070D01*
X146207099Y-97013945D01*
X146138169Y-97025366D01*
X146074007Y-96997709D01*
X146047458Y-96967070D01*
X146045079Y-96963188D01*
X146041055Y-96957649D01*
X145919391Y-96790193D01*
X145768189Y-96638991D01*
X145595194Y-96513303D01*
X145575568Y-96503303D01*
X145404668Y-96416224D01*
X145404665Y-96416223D01*
X145201302Y-96350148D01*
X145095701Y-96333422D01*
X144990101Y-96316697D01*
X144776269Y-96316697D01*
X144705869Y-96327847D01*
X144565067Y-96350148D01*
X144361704Y-96416223D01*
X144361701Y-96416224D01*
X144171175Y-96513303D01*
X143998178Y-96638993D01*
X143846981Y-96790190D01*
X143721290Y-96963188D01*
X143718912Y-96967070D01*
X143667099Y-97013945D01*
X143598169Y-97025366D01*
X143534007Y-96997709D01*
X143507458Y-96967070D01*
X143505079Y-96963188D01*
X143501055Y-96957649D01*
X143379391Y-96790193D01*
X143228189Y-96638991D01*
X143055194Y-96513303D01*
X143035568Y-96503303D01*
X142864668Y-96416224D01*
X142864665Y-96416223D01*
X142661302Y-96350148D01*
X142555701Y-96333422D01*
X142450101Y-96316697D01*
X142236269Y-96316697D01*
X142165869Y-96327847D01*
X142025067Y-96350148D01*
X141821704Y-96416223D01*
X141821701Y-96416224D01*
X141631175Y-96513303D01*
X141458178Y-96638993D01*
X141306981Y-96790190D01*
X141181290Y-96963188D01*
X141178912Y-96967070D01*
X141127099Y-97013945D01*
X141058169Y-97025366D01*
X140994007Y-96997709D01*
X140967458Y-96967070D01*
X140965079Y-96963188D01*
X140961055Y-96957649D01*
X140839391Y-96790193D01*
X140688189Y-96638991D01*
X140515194Y-96513303D01*
X140495568Y-96503303D01*
X140324668Y-96416224D01*
X140324665Y-96416223D01*
X140121302Y-96350148D01*
X140015701Y-96333422D01*
X139910101Y-96316697D01*
X139696269Y-96316697D01*
X139625869Y-96327847D01*
X139485067Y-96350148D01*
X139281704Y-96416223D01*
X139281701Y-96416224D01*
X139091175Y-96513303D01*
X138918178Y-96638993D01*
X138766981Y-96790190D01*
X138641290Y-96963188D01*
X138638912Y-96967070D01*
X138587099Y-97013945D01*
X138518169Y-97025366D01*
X138454007Y-96997709D01*
X138427458Y-96967070D01*
X138425079Y-96963188D01*
X138421055Y-96957649D01*
X138299391Y-96790193D01*
X138148189Y-96638991D01*
X137975194Y-96513303D01*
X137955568Y-96503303D01*
X137784668Y-96416224D01*
X137784665Y-96416223D01*
X137581302Y-96350148D01*
X137475701Y-96333422D01*
X137370101Y-96316697D01*
X137156269Y-96316697D01*
X137085869Y-96327847D01*
X136945067Y-96350148D01*
X136741704Y-96416223D01*
X136741701Y-96416224D01*
X136551175Y-96513303D01*
X136378182Y-96638990D01*
X136273003Y-96744169D01*
X136211680Y-96777653D01*
X136141988Y-96772669D01*
X136086055Y-96730797D01*
X136069143Y-96699826D01*
X136024074Y-96578993D01*
X135936446Y-96461936D01*
X135819389Y-96374308D01*
X135682388Y-96323208D01*
X135621839Y-96316697D01*
X135621823Y-96316697D01*
X135455685Y-96316697D01*
X135388646Y-96297012D01*
X135342891Y-96244208D01*
X135331685Y-96192697D01*
X135331685Y-93928273D01*
X135331685Y-93928271D01*
X135290217Y-93773510D01*
X135290217Y-93773509D01*
X135210106Y-93634754D01*
X132303627Y-90728275D01*
X132164873Y-90648165D01*
X132077318Y-90624705D01*
X132077317Y-90624704D01*
X132028118Y-90611521D01*
X132010111Y-90606697D01*
X132010110Y-90606697D01*
X126253411Y-90606697D01*
X126186372Y-90587012D01*
X126165730Y-90570378D01*
X123950730Y-88355378D01*
X123917245Y-88294055D01*
X123922229Y-88224363D01*
X123964101Y-88168430D01*
X124029565Y-88144013D01*
X124038411Y-88143697D01*
X132249509Y-88143697D01*
X132322779Y-88129122D01*
X132322780Y-88129122D01*
X132341222Y-88125453D01*
X132396050Y-88114548D01*
X132534087Y-88057371D01*
X132658318Y-87974363D01*
X134982665Y-85650016D01*
X135043988Y-85616531D01*
X135070346Y-85613697D01*
X148546600Y-85613697D01*
X148613639Y-85633382D01*
X148634281Y-85650016D01*
X148742186Y-85757921D01*
X148892896Y-85867417D01*
X148974417Y-85908954D01*
X149058874Y-85951988D01*
X149058876Y-85951988D01*
X149058879Y-85951990D01*
X149153844Y-85982846D01*
X149236047Y-86009556D01*
X149420036Y-86038697D01*
X149420041Y-86038697D01*
X149606334Y-86038697D01*
X149790322Y-86009556D01*
X149967491Y-85951990D01*
X150133474Y-85867417D01*
X150284184Y-85757921D01*
X150415909Y-85626196D01*
X150525405Y-85475486D01*
X150609978Y-85309503D01*
X150667544Y-85132334D01*
X150696685Y-84948346D01*
X150696685Y-84762047D01*
X150667544Y-84578059D01*
X150609976Y-84400886D01*
X150566166Y-84314905D01*
X150525405Y-84234908D01*
X150445745Y-84125265D01*
X150422266Y-84059460D01*
X150438092Y-83991406D01*
X150471751Y-83953116D01*
X150551446Y-83893458D01*
X150639074Y-83776401D01*
X150690174Y-83639398D01*
X150693776Y-83605889D01*
X150696684Y-83578851D01*
X150696685Y-83578834D01*
X150696685Y-82131559D01*
X150696684Y-82131542D01*
X150693342Y-82100467D01*
X150690174Y-82070996D01*
X150639074Y-81933993D01*
X150551446Y-81816936D01*
X150434389Y-81729308D01*
X150297388Y-81678208D01*
X150236839Y-81671697D01*
X150236823Y-81671697D01*
X148789547Y-81671697D01*
X148789530Y-81671697D01*
X148728982Y-81678208D01*
X148728980Y-81678208D01*
X148591980Y-81729308D01*
X148474924Y-81816936D01*
X148387296Y-81933992D01*
X148336196Y-82070992D01*
X148336196Y-82070994D01*
X148329329Y-82134862D01*
X148327894Y-82134707D01*
X148306591Y-82195180D01*
X148251433Y-82238067D01*
X148205982Y-82246697D01*
X134983411Y-82246697D01*
X134916372Y-82227012D01*
X134895730Y-82210378D01*
X127184819Y-74499467D01*
X127151334Y-74438144D01*
X127148500Y-74411786D01*
X127148500Y-73372879D01*
X141410000Y-73372879D01*
X141410000Y-73577514D01*
X141442009Y-73779614D01*
X141505244Y-73974228D01*
X141598141Y-74156547D01*
X141598147Y-74156556D01*
X141630523Y-74201118D01*
X141630524Y-74201119D01*
X142310000Y-73521643D01*
X142310000Y-73527858D01*
X142337259Y-73629591D01*
X142389920Y-73720803D01*
X142464394Y-73795277D01*
X142555606Y-73847938D01*
X142657339Y-73875197D01*
X142663553Y-73875197D01*
X141984076Y-74554671D01*
X142028650Y-74587056D01*
X142210968Y-74679952D01*
X142405582Y-74743187D01*
X142607683Y-74775197D01*
X142812317Y-74775197D01*
X143014417Y-74743187D01*
X143209031Y-74679952D01*
X143391349Y-74587056D01*
X143435921Y-74554671D01*
X142756447Y-73875197D01*
X142762661Y-73875197D01*
X142864394Y-73847938D01*
X142955606Y-73795277D01*
X143030080Y-73720803D01*
X143082741Y-73629591D01*
X143110000Y-73527858D01*
X143110000Y-73521644D01*
X143789474Y-74201118D01*
X143821859Y-74156546D01*
X143914755Y-73974228D01*
X143977990Y-73779614D01*
X144010000Y-73577514D01*
X144010000Y-73372879D01*
X144790000Y-73372879D01*
X144790000Y-73577514D01*
X144822009Y-73779614D01*
X144885244Y-73974228D01*
X144978141Y-74156547D01*
X144978147Y-74156556D01*
X145010523Y-74201118D01*
X145010524Y-74201119D01*
X145690000Y-73521643D01*
X145690000Y-73527858D01*
X145717259Y-73629591D01*
X145769920Y-73720803D01*
X145844394Y-73795277D01*
X145935606Y-73847938D01*
X146037339Y-73875197D01*
X146043553Y-73875197D01*
X145364076Y-74554671D01*
X145408650Y-74587056D01*
X145590968Y-74679952D01*
X145785582Y-74743187D01*
X145987683Y-74775197D01*
X146192317Y-74775197D01*
X146394417Y-74743187D01*
X146589031Y-74679952D01*
X146771349Y-74587056D01*
X146815921Y-74554671D01*
X146136447Y-73875197D01*
X146142661Y-73875197D01*
X146244394Y-73847938D01*
X146335606Y-73795277D01*
X146410080Y-73720803D01*
X146462741Y-73629591D01*
X146490000Y-73527858D01*
X146490000Y-73521644D01*
X147169474Y-74201118D01*
X147201859Y-74156546D01*
X147294755Y-73974228D01*
X147357990Y-73779614D01*
X147390000Y-73577514D01*
X147390000Y-73372878D01*
X147389999Y-73372877D01*
X147388415Y-73362879D01*
X148150000Y-73362879D01*
X148150000Y-73567514D01*
X148182009Y-73769614D01*
X148245244Y-73964228D01*
X148338141Y-74146547D01*
X148338147Y-74146556D01*
X148370523Y-74191118D01*
X148370524Y-74191119D01*
X149050000Y-73511643D01*
X149050000Y-73517858D01*
X149077259Y-73619591D01*
X149129920Y-73710803D01*
X149204394Y-73785277D01*
X149295606Y-73837938D01*
X149397339Y-73865197D01*
X149403553Y-73865197D01*
X148724076Y-74544671D01*
X148768650Y-74577056D01*
X148950968Y-74669952D01*
X149145582Y-74733187D01*
X149347683Y-74765197D01*
X149552317Y-74765197D01*
X149754417Y-74733187D01*
X149949031Y-74669952D01*
X150131349Y-74577056D01*
X150175921Y-74544671D01*
X149496447Y-73865197D01*
X149502661Y-73865197D01*
X149604394Y-73837938D01*
X149695606Y-73785277D01*
X149770080Y-73710803D01*
X149822741Y-73619591D01*
X149850000Y-73517858D01*
X149850000Y-73511645D01*
X150529474Y-74191119D01*
X150529474Y-74191118D01*
X150561859Y-74146546D01*
X150654755Y-73964228D01*
X150717990Y-73769614D01*
X150750000Y-73567514D01*
X150750000Y-73362879D01*
X150717990Y-73160779D01*
X150654755Y-72966165D01*
X150561859Y-72783847D01*
X150529474Y-72739274D01*
X150529474Y-72739273D01*
X149850000Y-73418748D01*
X149850000Y-73412536D01*
X149822741Y-73310803D01*
X149770080Y-73219591D01*
X149695606Y-73145117D01*
X149604394Y-73092456D01*
X149502661Y-73065197D01*
X149496446Y-73065197D01*
X150175922Y-72385721D01*
X150175921Y-72385720D01*
X150131359Y-72353344D01*
X150131350Y-72353338D01*
X149949031Y-72260441D01*
X149754417Y-72197206D01*
X149552317Y-72165197D01*
X149347683Y-72165197D01*
X149145582Y-72197206D01*
X148950968Y-72260441D01*
X148768644Y-72353340D01*
X148724077Y-72385720D01*
X148724077Y-72385721D01*
X149403554Y-73065197D01*
X149397339Y-73065197D01*
X149295606Y-73092456D01*
X149204394Y-73145117D01*
X149129920Y-73219591D01*
X149077259Y-73310803D01*
X149050000Y-73412536D01*
X149050000Y-73418750D01*
X148370524Y-72739274D01*
X148370523Y-72739274D01*
X148338143Y-72783841D01*
X148245244Y-72966165D01*
X148182009Y-73160779D01*
X148150000Y-73362879D01*
X147388415Y-73362879D01*
X147357990Y-73170779D01*
X147294755Y-72976165D01*
X147201859Y-72793847D01*
X147169474Y-72749274D01*
X147169474Y-72749273D01*
X146490000Y-73428748D01*
X146490000Y-73422536D01*
X146462741Y-73320803D01*
X146410080Y-73229591D01*
X146335606Y-73155117D01*
X146244394Y-73102456D01*
X146142661Y-73075197D01*
X146136446Y-73075197D01*
X146815922Y-72395721D01*
X146815921Y-72395720D01*
X146771359Y-72363344D01*
X146771350Y-72363338D01*
X146589031Y-72270441D01*
X146394417Y-72207206D01*
X146192317Y-72175197D01*
X145987683Y-72175197D01*
X145785582Y-72207206D01*
X145590968Y-72270441D01*
X145408644Y-72363340D01*
X145364077Y-72395720D01*
X145364077Y-72395721D01*
X146043554Y-73075197D01*
X146037339Y-73075197D01*
X145935606Y-73102456D01*
X145844394Y-73155117D01*
X145769920Y-73229591D01*
X145717259Y-73320803D01*
X145690000Y-73422536D01*
X145690000Y-73428750D01*
X145010524Y-72749274D01*
X145010523Y-72749274D01*
X144978143Y-72793841D01*
X144885244Y-72976165D01*
X144822009Y-73170779D01*
X144790000Y-73372879D01*
X144010000Y-73372879D01*
X143977990Y-73170779D01*
X143914755Y-72976165D01*
X143821859Y-72793847D01*
X143789474Y-72749274D01*
X143789474Y-72749273D01*
X143110000Y-73428748D01*
X143110000Y-73422536D01*
X143082741Y-73320803D01*
X143030080Y-73229591D01*
X142955606Y-73155117D01*
X142864394Y-73102456D01*
X142762661Y-73075197D01*
X142756446Y-73075197D01*
X143435922Y-72395721D01*
X143435921Y-72395720D01*
X143391359Y-72363344D01*
X143391350Y-72363338D01*
X143209031Y-72270441D01*
X143014417Y-72207206D01*
X142812317Y-72175197D01*
X142607683Y-72175197D01*
X142405582Y-72207206D01*
X142210968Y-72270441D01*
X142028644Y-72363340D01*
X141984077Y-72395720D01*
X141984077Y-72395721D01*
X142663554Y-73075197D01*
X142657339Y-73075197D01*
X142555606Y-73102456D01*
X142464394Y-73155117D01*
X142389920Y-73229591D01*
X142337259Y-73320803D01*
X142310000Y-73422536D01*
X142310000Y-73428750D01*
X141630524Y-72749274D01*
X141630523Y-72749274D01*
X141598143Y-72793841D01*
X141505244Y-72976165D01*
X141442009Y-73170779D01*
X141410000Y-73372879D01*
X127148500Y-73372879D01*
X127148500Y-70551933D01*
X127168185Y-70484894D01*
X127216207Y-70441448D01*
X127278207Y-70409858D01*
X127278205Y-70409858D01*
X127278215Y-70409854D01*
X127457576Y-70279540D01*
X127614343Y-70122773D01*
X127744657Y-69943412D01*
X127845308Y-69745873D01*
X127913818Y-69535021D01*
X127948500Y-69316048D01*
X127948500Y-69094346D01*
X127913818Y-68875373D01*
X127845308Y-68664521D01*
X127845306Y-68664518D01*
X127845306Y-68664516D01*
X127772241Y-68521119D01*
X127744657Y-68466982D01*
X127614343Y-68287621D01*
X127457576Y-68130854D01*
X127278215Y-68000540D01*
X127080680Y-67899890D01*
X126869824Y-67831379D01*
X126650851Y-67796697D01*
X126429149Y-67796697D01*
X126319662Y-67814038D01*
X126210175Y-67831379D01*
X125999319Y-67899890D01*
X125801784Y-68000540D01*
X125746368Y-68040803D01*
X125622424Y-68130854D01*
X125622422Y-68130856D01*
X125622421Y-68130856D01*
X125465659Y-68287618D01*
X125465659Y-68287619D01*
X125465657Y-68287621D01*
X125460857Y-68294228D01*
X125335343Y-68466981D01*
X125234693Y-68664516D01*
X125166182Y-68875372D01*
X125131500Y-69094346D01*
X125131500Y-69316047D01*
X125166182Y-69535021D01*
X125234693Y-69745877D01*
X125335343Y-69943412D01*
X125465657Y-70122773D01*
X125622424Y-70279540D01*
X125723680Y-70353107D01*
X125801780Y-70409851D01*
X125801792Y-70409858D01*
X125863793Y-70441448D01*
X125914590Y-70489421D01*
X125931500Y-70551933D01*
X125931500Y-74795306D01*
X125972968Y-74950071D01*
X126013023Y-75019447D01*
X126053078Y-75088824D01*
X134213078Y-83248824D01*
X134326373Y-83362119D01*
X134465127Y-83442229D01*
X134619890Y-83483697D01*
X134619892Y-83483697D01*
X134780108Y-83483697D01*
X134780110Y-83483697D01*
X134821840Y-83472515D01*
X134838985Y-83467922D01*
X134871077Y-83463697D01*
X148205982Y-83463697D01*
X148273021Y-83483382D01*
X148318776Y-83536186D01*
X148328459Y-83575625D01*
X148329329Y-83575532D01*
X148336196Y-83639399D01*
X148336196Y-83639401D01*
X148387296Y-83776401D01*
X148474924Y-83893458D01*
X148474926Y-83893459D01*
X148478614Y-83898386D01*
X148503031Y-83963850D01*
X148488180Y-84032123D01*
X148438775Y-84081529D01*
X148379347Y-84096697D01*
X134630093Y-84096697D01*
X134562330Y-84110176D01*
X134562325Y-84110177D01*
X134556827Y-84111271D01*
X134483556Y-84125846D01*
X134426405Y-84149519D01*
X134420326Y-84152036D01*
X134420319Y-84152039D01*
X134345525Y-84183019D01*
X134345512Y-84183026D01*
X134221287Y-84266031D01*
X134221283Y-84266034D01*
X131896941Y-86590378D01*
X131835618Y-86623863D01*
X131809260Y-86626697D01*
X120582469Y-86626697D01*
X120515430Y-86607012D01*
X120483202Y-86577008D01*
X120423261Y-86496936D01*
X120306204Y-86409308D01*
X120169203Y-86358208D01*
X120108654Y-86351697D01*
X120108638Y-86351697D01*
X118511362Y-86351697D01*
X118511345Y-86351697D01*
X118450797Y-86358208D01*
X118450795Y-86358208D01*
X118313795Y-86409308D01*
X118196739Y-86496936D01*
X118136798Y-86577008D01*
X118080864Y-86618879D01*
X118037531Y-86626697D01*
X116860093Y-86626697D01*
X116786827Y-86641271D01*
X116713563Y-86655843D01*
X116713559Y-86655845D01*
X116713557Y-86655845D01*
X116713556Y-86655846D01*
X116656379Y-86679529D01*
X116656377Y-86679530D01*
X116575522Y-86713021D01*
X116575512Y-86713026D01*
X116451288Y-86796030D01*
X116398463Y-86848855D01*
X116345638Y-86901681D01*
X116345636Y-86901683D01*
X115330836Y-87916481D01*
X115330835Y-87916482D01*
X115247828Y-88040712D01*
X115247822Y-88040723D01*
X115194992Y-88168270D01*
X115194990Y-88168276D01*
X115190649Y-88178753D01*
X115190646Y-88178764D01*
X115161500Y-88325289D01*
X115161500Y-90624709D01*
X115190647Y-90771239D01*
X115190649Y-90771247D01*
X115247825Y-90909282D01*
X115330835Y-91033517D01*
X115330836Y-91033518D01*
X116567966Y-92270647D01*
X117780834Y-93483515D01*
X117780835Y-93483516D01*
X117886484Y-93589165D01*
X117886487Y-93589167D01*
X117886488Y-93589168D01*
X118010705Y-93672167D01*
X118010708Y-93672168D01*
X118010716Y-93672174D01*
X118091576Y-93705667D01*
X118148753Y-93729351D01*
X118222024Y-93743925D01*
X118295294Y-93758500D01*
X118295295Y-93758500D01*
X118444705Y-93758500D01*
X119744457Y-93758500D01*
X119811496Y-93778185D01*
X119832138Y-93794819D01*
X121335181Y-95297862D01*
X121368666Y-95359185D01*
X121371500Y-95385543D01*
X121371500Y-95804708D01*
X121372301Y-95808734D01*
X121374685Y-95832931D01*
X121374685Y-96473898D01*
X121355000Y-96540937D01*
X121323572Y-96574215D01*
X121248181Y-96628990D01*
X121096981Y-96780190D01*
X120971290Y-96953188D01*
X120968912Y-96957070D01*
X120917099Y-97003945D01*
X120848169Y-97015366D01*
X120784007Y-96987709D01*
X120757458Y-96957070D01*
X120755079Y-96953188D01*
X120636656Y-96790193D01*
X120629391Y-96780193D01*
X120478189Y-96628991D01*
X120305194Y-96503303D01*
X120247484Y-96473898D01*
X120114668Y-96406224D01*
X120114665Y-96406223D01*
X119911302Y-96340148D01*
X119763238Y-96316697D01*
X119700101Y-96306697D01*
X119486269Y-96306697D01*
X119423132Y-96316697D01*
X119275067Y-96340148D01*
X119071704Y-96406223D01*
X119071701Y-96406224D01*
X118881175Y-96503303D01*
X118708178Y-96628993D01*
X118556981Y-96780190D01*
X118431290Y-96953188D01*
X118428912Y-96957070D01*
X118377099Y-97003945D01*
X118308169Y-97015366D01*
X118244007Y-96987709D01*
X118217458Y-96957070D01*
X118215079Y-96953188D01*
X118096656Y-96790193D01*
X118089391Y-96780193D01*
X117938189Y-96628991D01*
X117765194Y-96503303D01*
X117707484Y-96473898D01*
X117574668Y-96406224D01*
X117574665Y-96406223D01*
X117371302Y-96340148D01*
X117223238Y-96316697D01*
X117160101Y-96306697D01*
X116946269Y-96306697D01*
X116883132Y-96316697D01*
X116735067Y-96340148D01*
X116531704Y-96406223D01*
X116531701Y-96406224D01*
X116341175Y-96503303D01*
X116168178Y-96628993D01*
X116016981Y-96780190D01*
X115891290Y-96953188D01*
X115888912Y-96957070D01*
X115837099Y-97003945D01*
X115768169Y-97015366D01*
X115704007Y-96987709D01*
X115677458Y-96957070D01*
X115675079Y-96953188D01*
X115556656Y-96790193D01*
X115549391Y-96780193D01*
X115398189Y-96628991D01*
X115225194Y-96503303D01*
X115167484Y-96473898D01*
X115034668Y-96406224D01*
X115034665Y-96406223D01*
X114831302Y-96340148D01*
X114683238Y-96316697D01*
X114620101Y-96306697D01*
X114406269Y-96306697D01*
X114343132Y-96316697D01*
X114195067Y-96340148D01*
X113991704Y-96406223D01*
X113991701Y-96406224D01*
X113801175Y-96503303D01*
X113628182Y-96628990D01*
X113523003Y-96734169D01*
X113461680Y-96767653D01*
X113391988Y-96762669D01*
X113336055Y-96720797D01*
X113319143Y-96689826D01*
X113274074Y-96568993D01*
X113186446Y-96451936D01*
X113069389Y-96364308D01*
X112932388Y-96313208D01*
X112871839Y-96306697D01*
X112871823Y-96306697D01*
X111074547Y-96306697D01*
X111074530Y-96306697D01*
X111013982Y-96313208D01*
X111013980Y-96313208D01*
X110876980Y-96364308D01*
X110759924Y-96451936D01*
X110672296Y-96568992D01*
X110621196Y-96705992D01*
X110621196Y-96705994D01*
X110614685Y-96766542D01*
X99987303Y-96766542D01*
X99987303Y-48506542D01*
X101484685Y-48506542D01*
X101484685Y-50303851D01*
X101491196Y-50364399D01*
X101491196Y-50364401D01*
X101534836Y-50481400D01*
X101542296Y-50501401D01*
X101629924Y-50618458D01*
X101746981Y-50706086D01*
X101883984Y-50757186D01*
X101911235Y-50760115D01*
X101944530Y-50763696D01*
X101944547Y-50763697D01*
X103741823Y-50763697D01*
X103741839Y-50763696D01*
X103768877Y-50760788D01*
X103802386Y-50757186D01*
X103939389Y-50706086D01*
X104056446Y-50618458D01*
X104144074Y-50501401D01*
X104189142Y-50380568D01*
X104231012Y-50324639D01*
X104296476Y-50300222D01*
X104364749Y-50315074D01*
X104393003Y-50336225D01*
X104498181Y-50441403D01*
X104671176Y-50567091D01*
X104749678Y-50607090D01*
X104861701Y-50664169D01*
X104861704Y-50664170D01*
X104959109Y-50695818D01*
X105065069Y-50730246D01*
X105276269Y-50763697D01*
X105276270Y-50763697D01*
X105490100Y-50763697D01*
X105490101Y-50763697D01*
X105701301Y-50730246D01*
X105904668Y-50664169D01*
X106095194Y-50567091D01*
X106268189Y-50441403D01*
X106419391Y-50290201D01*
X106545079Y-50117206D01*
X106545081Y-50117201D01*
X106547455Y-50113329D01*
X106599265Y-50066451D01*
X106668194Y-50055026D01*
X106732358Y-50082680D01*
X106758915Y-50113329D01*
X106761288Y-50117202D01*
X106761290Y-50117205D01*
X106761291Y-50117206D01*
X106886979Y-50290201D01*
X107038181Y-50441403D01*
X107211176Y-50567091D01*
X107289678Y-50607090D01*
X107401701Y-50664169D01*
X107401704Y-50664170D01*
X107499109Y-50695818D01*
X107605069Y-50730246D01*
X107816269Y-50763697D01*
X107816270Y-50763697D01*
X108030100Y-50763697D01*
X108030101Y-50763697D01*
X108241301Y-50730246D01*
X108444668Y-50664169D01*
X108635194Y-50567091D01*
X108808189Y-50441403D01*
X108959391Y-50290201D01*
X109085079Y-50117206D01*
X109087468Y-50112516D01*
X109135439Y-50061719D01*
X109203259Y-50044921D01*
X109269395Y-50067455D01*
X109305381Y-50108980D01*
X109306014Y-50108593D01*
X109308352Y-50112408D01*
X109308436Y-50112505D01*
X109308556Y-50112742D01*
X109308558Y-50112744D01*
X109347913Y-50166913D01*
X109980222Y-49534605D01*
X109997260Y-49598190D01*
X110063086Y-49712204D01*
X110156178Y-49805296D01*
X110270192Y-49871122D01*
X110333775Y-49888159D01*
X109701467Y-50520466D01*
X109701467Y-50520467D01*
X109755634Y-50559821D01*
X109944967Y-50656292D01*
X110147055Y-50721954D01*
X110356939Y-50755197D01*
X110569431Y-50755197D01*
X110779312Y-50721954D01*
X110779315Y-50721954D01*
X110981402Y-50656292D01*
X111170739Y-50559819D01*
X111224901Y-50520467D01*
X111224902Y-50520467D01*
X110592593Y-49888159D01*
X110656178Y-49871122D01*
X110770192Y-49805296D01*
X110863284Y-49712204D01*
X110929110Y-49598190D01*
X110946147Y-49534605D01*
X111578455Y-50166914D01*
X111578455Y-50166913D01*
X111617806Y-50112753D01*
X111617923Y-50112524D01*
X111617993Y-50112449D01*
X111620353Y-50108599D01*
X111621161Y-50109094D01*
X111665892Y-50061723D01*
X111733711Y-50044920D01*
X111799848Y-50067451D01*
X111838897Y-50112508D01*
X111841290Y-50117205D01*
X111842396Y-50118727D01*
X111966979Y-50290201D01*
X112118181Y-50441403D01*
X112291176Y-50567091D01*
X112369678Y-50607090D01*
X112481701Y-50664169D01*
X112481704Y-50664170D01*
X112579109Y-50695818D01*
X112685069Y-50730246D01*
X112896269Y-50763697D01*
X112896270Y-50763697D01*
X113110100Y-50763697D01*
X113110101Y-50763697D01*
X113321301Y-50730246D01*
X113524668Y-50664169D01*
X113715194Y-50567091D01*
X113888189Y-50441403D01*
X114039391Y-50290201D01*
X114165079Y-50117206D01*
X114165081Y-50117201D01*
X114167455Y-50113329D01*
X114219265Y-50066451D01*
X114288194Y-50055026D01*
X114352358Y-50082680D01*
X114378915Y-50113329D01*
X114381288Y-50117202D01*
X114381290Y-50117205D01*
X114381291Y-50117206D01*
X114506979Y-50290201D01*
X114658181Y-50441403D01*
X114831176Y-50567091D01*
X114909678Y-50607090D01*
X115021701Y-50664169D01*
X115021704Y-50664170D01*
X115119109Y-50695818D01*
X115225069Y-50730246D01*
X115436269Y-50763697D01*
X115436270Y-50763697D01*
X115650100Y-50763697D01*
X115650101Y-50763697D01*
X115861301Y-50730246D01*
X116064668Y-50664169D01*
X116255194Y-50567091D01*
X116428189Y-50441403D01*
X116579391Y-50290201D01*
X116705079Y-50117206D01*
X116705081Y-50117201D01*
X116707455Y-50113329D01*
X116759265Y-50066451D01*
X116828194Y-50055026D01*
X116892358Y-50082680D01*
X116918915Y-50113329D01*
X116921288Y-50117202D01*
X116921290Y-50117205D01*
X116921291Y-50117206D01*
X117046979Y-50290201D01*
X117198181Y-50441403D01*
X117371176Y-50567091D01*
X117449678Y-50607090D01*
X117561701Y-50664169D01*
X117561704Y-50664170D01*
X117659109Y-50695818D01*
X117765069Y-50730246D01*
X117976269Y-50763697D01*
X117976270Y-50763697D01*
X118190100Y-50763697D01*
X118190101Y-50763697D01*
X118401301Y-50730246D01*
X118604668Y-50664169D01*
X118795194Y-50567091D01*
X118968189Y-50441403D01*
X119119391Y-50290201D01*
X119245079Y-50117206D01*
X119245081Y-50117201D01*
X119247455Y-50113329D01*
X119299265Y-50066451D01*
X119368194Y-50055026D01*
X119432358Y-50082680D01*
X119458915Y-50113329D01*
X119461288Y-50117202D01*
X119461290Y-50117205D01*
X119461291Y-50117206D01*
X119586979Y-50290201D01*
X119738181Y-50441403D01*
X119911176Y-50567091D01*
X119989678Y-50607090D01*
X120101701Y-50664169D01*
X120101704Y-50664170D01*
X120199109Y-50695818D01*
X120305069Y-50730246D01*
X120516269Y-50763697D01*
X120516270Y-50763697D01*
X120730100Y-50763697D01*
X120730101Y-50763697D01*
X120941301Y-50730246D01*
X121144668Y-50664169D01*
X121335194Y-50567091D01*
X121508189Y-50441403D01*
X121659391Y-50290201D01*
X121785079Y-50117206D01*
X121785081Y-50117201D01*
X121787455Y-50113329D01*
X121839265Y-50066451D01*
X121908194Y-50055026D01*
X121972358Y-50082680D01*
X121998915Y-50113329D01*
X122001288Y-50117202D01*
X122001290Y-50117205D01*
X122001291Y-50117206D01*
X122126979Y-50290201D01*
X122278181Y-50441403D01*
X122451176Y-50567091D01*
X122486979Y-50585333D01*
X122537775Y-50633307D01*
X122554685Y-50695818D01*
X122554685Y-60588600D01*
X122535000Y-60655639D01*
X122518366Y-60676281D01*
X121472651Y-61721995D01*
X121411328Y-61755480D01*
X121346658Y-61752247D01*
X121336406Y-61748916D01*
X121166431Y-61721995D01*
X121132981Y-61716697D01*
X120927019Y-61716697D01*
X120902550Y-61720572D01*
X120723591Y-61748916D01*
X120527705Y-61812564D01*
X120344193Y-61906070D01*
X120177576Y-62027123D01*
X120177571Y-62027127D01*
X120031930Y-62172768D01*
X120031926Y-62172773D01*
X119910873Y-62339390D01*
X119817367Y-62522902D01*
X119753719Y-62718788D01*
X119721500Y-62922216D01*
X119721500Y-63128177D01*
X119753719Y-63331605D01*
X119817367Y-63527491D01*
X119910873Y-63711003D01*
X120031926Y-63877620D01*
X120031930Y-63877625D01*
X120177571Y-64023266D01*
X120177576Y-64023270D01*
X120284463Y-64100927D01*
X120344197Y-64144326D01*
X120431105Y-64188608D01*
X120527705Y-64237829D01*
X120527707Y-64237829D01*
X120527710Y-64237831D01*
X120561728Y-64248884D01*
X120723591Y-64301477D01*
X120825305Y-64317587D01*
X120927019Y-64333697D01*
X120927020Y-64333697D01*
X121061589Y-64333697D01*
X121082834Y-64339935D01*
X121104923Y-64341515D01*
X121115706Y-64349587D01*
X121128628Y-64353382D01*
X121143127Y-64370115D01*
X121160856Y-64383387D01*
X121165563Y-64396007D01*
X121174383Y-64406186D01*
X121177534Y-64428103D01*
X121185273Y-64448851D01*
X121182410Y-64462011D01*
X121184327Y-64475344D01*
X121175127Y-64495487D01*
X121170421Y-64517124D01*
X121157152Y-64534849D01*
X121155302Y-64538900D01*
X121149270Y-64545378D01*
X121134270Y-64560378D01*
X121072947Y-64593863D01*
X121046589Y-64596697D01*
X119113411Y-64596697D01*
X119046372Y-64577012D01*
X119025730Y-64560378D01*
X117884819Y-63419467D01*
X117851334Y-63358144D01*
X117848500Y-63331786D01*
X117848500Y-58091863D01*
X117868185Y-58024824D01*
X117920989Y-57979069D01*
X117990147Y-57969125D01*
X118053703Y-57998150D01*
X118091477Y-58056928D01*
X118094117Y-58067672D01*
X118099387Y-58094171D01*
X118099390Y-58094180D01*
X118176652Y-58280710D01*
X118176659Y-58280723D01*
X118288829Y-58448596D01*
X118288832Y-58448600D01*
X118431596Y-58591364D01*
X118431600Y-58591367D01*
X118599473Y-58703537D01*
X118599486Y-58703544D01*
X118786016Y-58780806D01*
X118786025Y-58780809D01*
X118984041Y-58820196D01*
X118984045Y-58820197D01*
X119060000Y-58820197D01*
X119060000Y-58075527D01*
X119079745Y-58095272D01*
X119165255Y-58144641D01*
X119260630Y-58170197D01*
X119359370Y-58170197D01*
X119454745Y-58144641D01*
X119540255Y-58095272D01*
X119560000Y-58075527D01*
X119560000Y-58820197D01*
X119635955Y-58820197D01*
X119635958Y-58820196D01*
X119833974Y-58780809D01*
X119833983Y-58780806D01*
X120020513Y-58703544D01*
X120020526Y-58703537D01*
X120188399Y-58591367D01*
X120188403Y-58591364D01*
X120331167Y-58448600D01*
X120331170Y-58448596D01*
X120443340Y-58280723D01*
X120443347Y-58280710D01*
X120520609Y-58094180D01*
X120520612Y-58094171D01*
X120530353Y-58045197D01*
X119590330Y-58045197D01*
X119610075Y-58025452D01*
X119659444Y-57939942D01*
X119685000Y-57844567D01*
X119685000Y-57745827D01*
X119659444Y-57650452D01*
X119610075Y-57564942D01*
X119603830Y-57558697D01*
X119636792Y-57558697D01*
X119669719Y-57552147D01*
X119692680Y-57547579D01*
X119716871Y-57545197D01*
X120530353Y-57545197D01*
X120520612Y-57496222D01*
X120520609Y-57496213D01*
X120443347Y-57309683D01*
X120443343Y-57309676D01*
X120394606Y-57236737D01*
X120373728Y-57170059D01*
X120392212Y-57102679D01*
X120394565Y-57099017D01*
X120450876Y-57014743D01*
X120528783Y-56826658D01*
X120568500Y-56626988D01*
X120568500Y-56423406D01*
X120568500Y-56423403D01*
X120568499Y-56423401D01*
X120528784Y-56223743D01*
X120528783Y-56223736D01*
X120496807Y-56146540D01*
X120489339Y-56077072D01*
X120507748Y-56034786D01*
X120506640Y-56034181D01*
X120510884Y-56026407D01*
X120510889Y-56026401D01*
X120561989Y-55889398D01*
X120565591Y-55855889D01*
X120568499Y-55828851D01*
X120568500Y-55828834D01*
X120568500Y-54681559D01*
X120568499Y-54681542D01*
X120564718Y-54646381D01*
X120561989Y-54620996D01*
X120510889Y-54483993D01*
X120423261Y-54366936D01*
X120306204Y-54279308D01*
X120289193Y-54272963D01*
X120169203Y-54228208D01*
X120108654Y-54221697D01*
X120108638Y-54221697D01*
X118511362Y-54221697D01*
X118511345Y-54221697D01*
X118450797Y-54228208D01*
X118450795Y-54228208D01*
X118313795Y-54279308D01*
X118196739Y-54366936D01*
X118109111Y-54483992D01*
X118078511Y-54566032D01*
X118036639Y-54621965D01*
X117971174Y-54646381D01*
X117962330Y-54646697D01*
X116569889Y-54646697D01*
X116415128Y-54688165D01*
X116415125Y-54688166D01*
X116276376Y-54768272D01*
X116276371Y-54768276D01*
X115143080Y-55901567D01*
X115143076Y-55901573D01*
X115062969Y-56040321D01*
X115062968Y-56040322D01*
X115053172Y-56076885D01*
X115021500Y-56195086D01*
X115021500Y-58171786D01*
X115001815Y-58238825D01*
X114985181Y-58259467D01*
X112923080Y-60321567D01*
X112923076Y-60321573D01*
X112842967Y-60460323D01*
X112842968Y-60460323D01*
X112842968Y-60460324D01*
X112801500Y-60615086D01*
X112801500Y-61790692D01*
X112781815Y-61857731D01*
X112733802Y-61901173D01*
X112724195Y-61906068D01*
X112724193Y-61906069D01*
X112557576Y-62027123D01*
X112557571Y-62027127D01*
X112411930Y-62172768D01*
X112411926Y-62172773D01*
X112290873Y-62339390D01*
X112197367Y-62522902D01*
X112133719Y-62718788D01*
X112101500Y-62922216D01*
X112101500Y-63128177D01*
X112133719Y-63331605D01*
X112197367Y-63527491D01*
X112290873Y-63711003D01*
X112411926Y-63877620D01*
X112411930Y-63877625D01*
X112557571Y-64023266D01*
X112557576Y-64023270D01*
X112664463Y-64100927D01*
X112724197Y-64144326D01*
X112753794Y-64159406D01*
X112804590Y-64207380D01*
X112821500Y-64269891D01*
X112821500Y-66560692D01*
X112801815Y-66627731D01*
X112753802Y-66671173D01*
X112744195Y-66676068D01*
X112744193Y-66676069D01*
X112577576Y-66797123D01*
X112577571Y-66797127D01*
X112431930Y-66942768D01*
X112431926Y-66942773D01*
X112310873Y-67109390D01*
X112217367Y-67292902D01*
X112153719Y-67488788D01*
X112121500Y-67692216D01*
X112121500Y-67898177D01*
X112153719Y-68101605D01*
X112217367Y-68297491D01*
X112281671Y-68423693D01*
X112308602Y-68476547D01*
X112310873Y-68481003D01*
X112431926Y-68647620D01*
X112431930Y-68647625D01*
X112577571Y-68793266D01*
X112577576Y-68793270D01*
X112722908Y-68898858D01*
X112744197Y-68914326D01*
X112861128Y-68973906D01*
X112927705Y-69007829D01*
X112927707Y-69007829D01*
X112927710Y-69007831D01*
X113032707Y-69041946D01*
X113123591Y-69071477D01*
X113225305Y-69087587D01*
X113327019Y-69103697D01*
X113327020Y-69103697D01*
X113532980Y-69103697D01*
X113532981Y-69103697D01*
X113736408Y-69071477D01*
X113932290Y-69007831D01*
X114115803Y-68914326D01*
X114282430Y-68793265D01*
X114428068Y-68647627D01*
X114549129Y-68481000D01*
X114642634Y-68297487D01*
X114706280Y-68101605D01*
X114738500Y-67898178D01*
X114738500Y-67692879D01*
X119750000Y-67692879D01*
X119750000Y-67897514D01*
X119782009Y-68099614D01*
X119845244Y-68294228D01*
X119938141Y-68476547D01*
X119938147Y-68476556D01*
X119970523Y-68521118D01*
X119970524Y-68521119D01*
X120650000Y-67841643D01*
X120650000Y-67847858D01*
X120677259Y-67949591D01*
X120729920Y-68040803D01*
X120804394Y-68115277D01*
X120895606Y-68167938D01*
X120997339Y-68195197D01*
X121003553Y-68195197D01*
X120324076Y-68874671D01*
X120368650Y-68907056D01*
X120550968Y-68999952D01*
X120745582Y-69063187D01*
X120947683Y-69095197D01*
X121152317Y-69095197D01*
X121354417Y-69063187D01*
X121549031Y-68999952D01*
X121731349Y-68907056D01*
X121775921Y-68874671D01*
X121096447Y-68195197D01*
X121102661Y-68195197D01*
X121204394Y-68167938D01*
X121295606Y-68115277D01*
X121370080Y-68040803D01*
X121422741Y-67949591D01*
X121450000Y-67847858D01*
X121450000Y-67841645D01*
X122129474Y-68521119D01*
X122129474Y-68521118D01*
X122161859Y-68476546D01*
X122254755Y-68294228D01*
X122317990Y-68099614D01*
X122350000Y-67897514D01*
X122350000Y-67692879D01*
X122317990Y-67490779D01*
X122254755Y-67296165D01*
X122161859Y-67113847D01*
X122129474Y-67069274D01*
X122129474Y-67069273D01*
X121450000Y-67748748D01*
X121450000Y-67742536D01*
X121422741Y-67640803D01*
X121370080Y-67549591D01*
X121295606Y-67475117D01*
X121204394Y-67422456D01*
X121102661Y-67395197D01*
X121096446Y-67395197D01*
X121775922Y-66715721D01*
X121775921Y-66715720D01*
X121731359Y-66683344D01*
X121731350Y-66683338D01*
X121549031Y-66590441D01*
X121354417Y-66527206D01*
X121152317Y-66495197D01*
X120947683Y-66495197D01*
X120745582Y-66527206D01*
X120550968Y-66590441D01*
X120368644Y-66683340D01*
X120324077Y-66715720D01*
X120324077Y-66715721D01*
X121003554Y-67395197D01*
X120997339Y-67395197D01*
X120895606Y-67422456D01*
X120804394Y-67475117D01*
X120729920Y-67549591D01*
X120677259Y-67640803D01*
X120650000Y-67742536D01*
X120650000Y-67748750D01*
X119970524Y-67069274D01*
X119970523Y-67069274D01*
X119938143Y-67113841D01*
X119845244Y-67296165D01*
X119782009Y-67490779D01*
X119750000Y-67692879D01*
X114738500Y-67692879D01*
X114738500Y-67692216D01*
X114706280Y-67488789D01*
X114642634Y-67292907D01*
X114642632Y-67292904D01*
X114642632Y-67292902D01*
X114608709Y-67226325D01*
X114549129Y-67109394D01*
X114518930Y-67067829D01*
X114428073Y-66942773D01*
X114428069Y-66942768D01*
X114282428Y-66797127D01*
X114282423Y-66797123D01*
X114115806Y-66676069D01*
X114115804Y-66676068D01*
X114106198Y-66671173D01*
X114055405Y-66623195D01*
X114038500Y-66560692D01*
X114038500Y-64248884D01*
X114058185Y-64181845D01*
X114092584Y-64148184D01*
X114091862Y-64147190D01*
X114262423Y-64023270D01*
X114262421Y-64023270D01*
X114262430Y-64023265D01*
X114408068Y-63877627D01*
X114529129Y-63711000D01*
X114622634Y-63527487D01*
X114686280Y-63331605D01*
X114718500Y-63128178D01*
X114718500Y-62922216D01*
X114704564Y-62834227D01*
X114686280Y-62718788D01*
X114622632Y-62522902D01*
X114565700Y-62411169D01*
X114529129Y-62339394D01*
X114505348Y-62306662D01*
X114408073Y-62172773D01*
X114408069Y-62172768D01*
X114262428Y-62027127D01*
X114262423Y-62027123D01*
X114095806Y-61906069D01*
X114095804Y-61906068D01*
X114086198Y-61901173D01*
X114035405Y-61853195D01*
X114018500Y-61790692D01*
X114018500Y-60998608D01*
X114038185Y-60931569D01*
X114054819Y-60910927D01*
X115020440Y-59945306D01*
X116116921Y-58848825D01*
X116197032Y-58710070D01*
X116238500Y-58555307D01*
X116238500Y-58395087D01*
X116238500Y-56578608D01*
X116258185Y-56511569D01*
X116274819Y-56490927D01*
X116865730Y-55900016D01*
X116927053Y-55866531D01*
X116953411Y-55863697D01*
X117861589Y-55863697D01*
X117928628Y-55883382D01*
X117974383Y-55936186D01*
X117984327Y-56005344D01*
X117955302Y-56068900D01*
X117949270Y-56075378D01*
X116753080Y-57271567D01*
X116753078Y-57271570D01*
X116719760Y-57329279D01*
X116672968Y-57410324D01*
X116658469Y-57464436D01*
X116631500Y-57565086D01*
X116631500Y-63715308D01*
X116635671Y-63730875D01*
X116672968Y-63870070D01*
X116753078Y-64008824D01*
X118436372Y-65692118D01*
X118575127Y-65772229D01*
X118652508Y-65792963D01*
X118729889Y-65813697D01*
X118729890Y-65813697D01*
X118729891Y-65813697D01*
X121430109Y-65813697D01*
X121430110Y-65813697D01*
X121430111Y-65813697D01*
X121507491Y-65792963D01*
X121584873Y-65772229D01*
X121723627Y-65692119D01*
X124971092Y-62444652D01*
X125032413Y-62411169D01*
X125102105Y-62416153D01*
X125158038Y-62458025D01*
X125176477Y-62493330D01*
X125197885Y-62557935D01*
X125290970Y-62708849D01*
X125416348Y-62834227D01*
X125567262Y-62927312D01*
X125735574Y-62983084D01*
X125839455Y-62993697D01*
X127240544Y-62993696D01*
X127344426Y-62983084D01*
X127512738Y-62927312D01*
X127663652Y-62834227D01*
X127789030Y-62708849D01*
X127882115Y-62557935D01*
X127937887Y-62389623D01*
X127948500Y-62285742D01*
X127948499Y-60884653D01*
X127937887Y-60780771D01*
X127882115Y-60612459D01*
X127789030Y-60461545D01*
X127663652Y-60336167D01*
X127512738Y-60243082D01*
X127499885Y-60238823D01*
X127344427Y-60187310D01*
X127240545Y-60176697D01*
X125839462Y-60176697D01*
X125839446Y-60176698D01*
X125735572Y-60187310D01*
X125567264Y-60243081D01*
X125567259Y-60243083D01*
X125416346Y-60336168D01*
X125290971Y-60461543D01*
X125197886Y-60612456D01*
X125197884Y-60612461D01*
X125142113Y-60780769D01*
X125133477Y-60865300D01*
X125107081Y-60929992D01*
X125049900Y-60970143D01*
X125010119Y-60976697D01*
X124889887Y-60976697D01*
X124845839Y-60988499D01*
X124845840Y-60988500D01*
X124735127Y-61018165D01*
X124735125Y-61018165D01*
X124735125Y-61018166D01*
X124596372Y-61098276D01*
X124596369Y-61098278D01*
X122550181Y-63144466D01*
X122488858Y-63177951D01*
X122419166Y-63172967D01*
X122363233Y-63131095D01*
X122338816Y-63065631D01*
X122338500Y-63056785D01*
X122338500Y-62922216D01*
X122306280Y-62718789D01*
X122302951Y-62708546D01*
X122300953Y-62638708D01*
X122333198Y-62582546D01*
X123650106Y-61265640D01*
X123730217Y-61126885D01*
X123771685Y-60972122D01*
X123771685Y-60811902D01*
X123771685Y-50695818D01*
X123791370Y-50628779D01*
X123839390Y-50585333D01*
X123875194Y-50567091D01*
X124048189Y-50441403D01*
X124199391Y-50290201D01*
X124325079Y-50117206D01*
X124325081Y-50117201D01*
X124327455Y-50113329D01*
X124379265Y-50066451D01*
X124448194Y-50055026D01*
X124512358Y-50082680D01*
X124538915Y-50113329D01*
X124541288Y-50117202D01*
X124541290Y-50117205D01*
X124541291Y-50117206D01*
X124666979Y-50290201D01*
X124818181Y-50441403D01*
X124991176Y-50567091D01*
X125069678Y-50607090D01*
X125181701Y-50664169D01*
X125181704Y-50664170D01*
X125279109Y-50695818D01*
X125385069Y-50730246D01*
X125596269Y-50763697D01*
X125596270Y-50763697D01*
X125810100Y-50763697D01*
X125810101Y-50763697D01*
X126021301Y-50730246D01*
X126224668Y-50664169D01*
X126415194Y-50567091D01*
X126588189Y-50441403D01*
X126739391Y-50290201D01*
X126865079Y-50117206D01*
X126962157Y-49926680D01*
X127028234Y-49723313D01*
X127061685Y-49512113D01*
X127061685Y-49298281D01*
X127028234Y-49087081D01*
X126962157Y-48883714D01*
X126962157Y-48883713D01*
X126903049Y-48767709D01*
X126865079Y-48693188D01*
X126758535Y-48546542D01*
X128404685Y-48546542D01*
X128404685Y-50343851D01*
X128411196Y-50404399D01*
X128411196Y-50404401D01*
X128454488Y-50520467D01*
X128462296Y-50541401D01*
X128549924Y-50658458D01*
X128666981Y-50746086D01*
X128803984Y-50797186D01*
X128831235Y-50800115D01*
X128864530Y-50803696D01*
X128864547Y-50803697D01*
X129030685Y-50803697D01*
X129097724Y-50823382D01*
X129143479Y-50876186D01*
X129154685Y-50927697D01*
X129154685Y-51258493D01*
X129170762Y-51318492D01*
X129196153Y-51413255D01*
X129276263Y-51552009D01*
X129276265Y-51552011D01*
X131315181Y-53590927D01*
X131348666Y-53652250D01*
X131351500Y-53678608D01*
X131351500Y-54299512D01*
X131331815Y-54366551D01*
X131279011Y-54412306D01*
X131227500Y-54423512D01*
X131011345Y-54423512D01*
X130950797Y-54430023D01*
X130950795Y-54430023D01*
X130813795Y-54481123D01*
X130696739Y-54568751D01*
X130609111Y-54685807D01*
X130558011Y-54822807D01*
X130558011Y-54822809D01*
X130551500Y-54883357D01*
X130551500Y-56780666D01*
X130558011Y-56841214D01*
X130558011Y-56841216D01*
X130609111Y-56978216D01*
X130696739Y-57095273D01*
X130813796Y-57182901D01*
X130883125Y-57208759D01*
X130939057Y-57250629D01*
X130963474Y-57316094D01*
X130948622Y-57384367D01*
X130927472Y-57412620D01*
X130885660Y-57454432D01*
X130885659Y-57454434D01*
X130885657Y-57454436D01*
X130856097Y-57495122D01*
X130755343Y-57633796D01*
X130654693Y-57831331D01*
X130586182Y-58042187D01*
X130551500Y-58261161D01*
X130551500Y-58482862D01*
X130586182Y-58701836D01*
X130654693Y-58912692D01*
X130755343Y-59110227D01*
X130885657Y-59289588D01*
X131042424Y-59446355D01*
X131143680Y-59519922D01*
X131221780Y-59576666D01*
X131221792Y-59576673D01*
X131283793Y-59608263D01*
X131334590Y-59656236D01*
X131351500Y-59718748D01*
X131351500Y-60460111D01*
X131372234Y-60537491D01*
X131392968Y-60614874D01*
X131392969Y-60614875D01*
X131398992Y-60625307D01*
X131473078Y-60753627D01*
X134121570Y-63402119D01*
X134260324Y-63482229D01*
X134337705Y-63502963D01*
X134415086Y-63523697D01*
X134415087Y-63523697D01*
X134575307Y-63523697D01*
X141031786Y-63523697D01*
X141098825Y-63543382D01*
X141119467Y-63560016D01*
X142065181Y-64505729D01*
X142079884Y-64532656D01*
X142096477Y-64558475D01*
X142097368Y-64564675D01*
X142098666Y-64567052D01*
X142101500Y-64593410D01*
X142101500Y-64620692D01*
X142081815Y-64687731D01*
X142033802Y-64731173D01*
X142024195Y-64736068D01*
X142024193Y-64736069D01*
X141857576Y-64857123D01*
X141857571Y-64857127D01*
X141711930Y-65002768D01*
X141711926Y-65002773D01*
X141590873Y-65169390D01*
X141497367Y-65352902D01*
X141433719Y-65548788D01*
X141401500Y-65752216D01*
X141401500Y-65958177D01*
X141433719Y-66161605D01*
X141497367Y-66357491D01*
X141561671Y-66483693D01*
X141585777Y-66531003D01*
X141590873Y-66541003D01*
X141711926Y-66707620D01*
X141711930Y-66707625D01*
X141857571Y-66853266D01*
X141857576Y-66853270D01*
X141980761Y-66942768D01*
X142024197Y-66974326D01*
X142141128Y-67033906D01*
X142207705Y-67067829D01*
X142207707Y-67067829D01*
X142207710Y-67067831D01*
X142312707Y-67101946D01*
X142403591Y-67131477D01*
X142505305Y-67147587D01*
X142607019Y-67163697D01*
X142607020Y-67163697D01*
X142812980Y-67163697D01*
X142812981Y-67163697D01*
X143016408Y-67131477D01*
X143212290Y-67067831D01*
X143395803Y-66974326D01*
X143562430Y-66853265D01*
X143708068Y-66707627D01*
X143829129Y-66541000D01*
X143922634Y-66357487D01*
X143986280Y-66161605D01*
X144018500Y-65958178D01*
X144018500Y-65752216D01*
X144008982Y-65692120D01*
X143986280Y-65548788D01*
X143922632Y-65352902D01*
X143888709Y-65286325D01*
X143829129Y-65169394D01*
X143813661Y-65148105D01*
X143708073Y-65002773D01*
X143708069Y-65002768D01*
X143562428Y-64857127D01*
X143562423Y-64857123D01*
X143395806Y-64736069D01*
X143395804Y-64736068D01*
X143386198Y-64731173D01*
X143335405Y-64683195D01*
X143318500Y-64620692D01*
X143318500Y-64209891D01*
X143318500Y-64209889D01*
X143277032Y-64055128D01*
X143277032Y-64055127D01*
X143250298Y-64008823D01*
X143223821Y-63962963D01*
X143223819Y-63962960D01*
X143217623Y-63952229D01*
X143196921Y-63916372D01*
X143083628Y-63803079D01*
X143083625Y-63803077D01*
X141708824Y-62428275D01*
X141639447Y-62388220D01*
X141570071Y-62348165D01*
X141463160Y-62319519D01*
X141418197Y-62307471D01*
X141371090Y-62278758D01*
X141358539Y-62271108D01*
X141358538Y-62271107D01*
X141328009Y-62208261D01*
X141336303Y-62138885D01*
X141380788Y-62085007D01*
X141447340Y-62063732D01*
X141450292Y-62063697D01*
X143856589Y-62063697D01*
X143923628Y-62083382D01*
X143944270Y-62100016D01*
X145445181Y-63600927D01*
X145478666Y-63662250D01*
X145481500Y-63688608D01*
X145481500Y-64620692D01*
X145461815Y-64687731D01*
X145413802Y-64731173D01*
X145404195Y-64736068D01*
X145404193Y-64736069D01*
X145237576Y-64857123D01*
X145237571Y-64857127D01*
X145091930Y-65002768D01*
X145091926Y-65002773D01*
X144970873Y-65169390D01*
X144877367Y-65352902D01*
X144813719Y-65548788D01*
X144781500Y-65752216D01*
X144781500Y-65958177D01*
X144813719Y-66161605D01*
X144877367Y-66357491D01*
X144941671Y-66483693D01*
X144965777Y-66531003D01*
X144970873Y-66541003D01*
X145091926Y-66707620D01*
X145091930Y-66707625D01*
X145237571Y-66853266D01*
X145237576Y-66853270D01*
X145360761Y-66942768D01*
X145404197Y-66974326D01*
X145521128Y-67033906D01*
X145587705Y-67067829D01*
X145587707Y-67067829D01*
X145587710Y-67067831D01*
X145692707Y-67101946D01*
X145783591Y-67131477D01*
X145885305Y-67147587D01*
X145987019Y-67163697D01*
X145987020Y-67163697D01*
X146192980Y-67163697D01*
X146192981Y-67163697D01*
X146396408Y-67131477D01*
X146592290Y-67067831D01*
X146775803Y-66974326D01*
X146942430Y-66853265D01*
X147088068Y-66707627D01*
X147209129Y-66541000D01*
X147302634Y-66357487D01*
X147366280Y-66161605D01*
X147398500Y-65958178D01*
X147398500Y-65752216D01*
X147388982Y-65692120D01*
X147366280Y-65548788D01*
X147302632Y-65352902D01*
X147268709Y-65286325D01*
X147209129Y-65169394D01*
X147193661Y-65148105D01*
X147088073Y-65002773D01*
X147088069Y-65002768D01*
X146942428Y-64857127D01*
X146942423Y-64857123D01*
X146775806Y-64736069D01*
X146775804Y-64736068D01*
X146766198Y-64731173D01*
X146715405Y-64683195D01*
X146698500Y-64620692D01*
X146698500Y-63305088D01*
X146698500Y-63305086D01*
X146657032Y-63150325D01*
X146657032Y-63150324D01*
X146576921Y-63011569D01*
X144533627Y-60968275D01*
X144394873Y-60888165D01*
X144315588Y-60866921D01*
X144315585Y-60866920D01*
X144283685Y-60858372D01*
X144240111Y-60846697D01*
X144240110Y-60846697D01*
X140993411Y-60846697D01*
X140926372Y-60827012D01*
X140905730Y-60810378D01*
X139850410Y-59755058D01*
X139816925Y-59693735D01*
X139821909Y-59624043D01*
X139863781Y-59568110D01*
X139865159Y-59567092D01*
X140017576Y-59456355D01*
X140174343Y-59299588D01*
X140304657Y-59120227D01*
X140405308Y-58922688D01*
X140473818Y-58711836D01*
X140508500Y-58492863D01*
X140508500Y-58271161D01*
X140473818Y-58052188D01*
X140405308Y-57841336D01*
X140405306Y-57841333D01*
X140405306Y-57841331D01*
X140352210Y-57737126D01*
X140304657Y-57643797D01*
X140174343Y-57464436D01*
X140132527Y-57422620D01*
X140099043Y-57361298D01*
X140104027Y-57291606D01*
X140145899Y-57235673D01*
X140176868Y-57218762D01*
X140246204Y-57192901D01*
X140363261Y-57105273D01*
X140450889Y-56988216D01*
X140501989Y-56851213D01*
X140505591Y-56817704D01*
X140508499Y-56790666D01*
X140508500Y-56790649D01*
X140508500Y-54893374D01*
X140508499Y-54893357D01*
X140502331Y-54835996D01*
X140501989Y-54832811D01*
X140498259Y-54822811D01*
X140477917Y-54768272D01*
X140450889Y-54695808D01*
X140363261Y-54578751D01*
X140246204Y-54491123D01*
X140227088Y-54483993D01*
X140109203Y-54440023D01*
X140048654Y-54433512D01*
X140048638Y-54433512D01*
X139832500Y-54433512D01*
X139765461Y-54413827D01*
X139719706Y-54361023D01*
X139708500Y-54309512D01*
X139708500Y-54235088D01*
X139708500Y-54235086D01*
X139667032Y-54080325D01*
X139586921Y-53941569D01*
X139473628Y-53828276D01*
X139000730Y-53355378D01*
X138967245Y-53294055D01*
X138972229Y-53224363D01*
X139014101Y-53168430D01*
X139079565Y-53144013D01*
X139088411Y-53143697D01*
X144626589Y-53143697D01*
X144693628Y-53163382D01*
X144714270Y-53180016D01*
X145465181Y-53930927D01*
X145498666Y-53992250D01*
X145501500Y-54018608D01*
X145501500Y-54312697D01*
X145481815Y-54379736D01*
X145429011Y-54425491D01*
X145377500Y-54436697D01*
X145161345Y-54436697D01*
X145100797Y-54443208D01*
X145100795Y-54443208D01*
X144963795Y-54494308D01*
X144846739Y-54581936D01*
X144759111Y-54698992D01*
X144708011Y-54835992D01*
X144708011Y-54835994D01*
X144701500Y-54896542D01*
X144701500Y-56793851D01*
X144708011Y-56854399D01*
X144708011Y-56854401D01*
X144754193Y-56978216D01*
X144759111Y-56991401D01*
X144846739Y-57108458D01*
X144963796Y-57196086D01*
X145033125Y-57221944D01*
X145089057Y-57263814D01*
X145113474Y-57329279D01*
X145098622Y-57397552D01*
X145077472Y-57425805D01*
X145035660Y-57467617D01*
X145035659Y-57467619D01*
X145035657Y-57467621D01*
X144979692Y-57544649D01*
X144905343Y-57646981D01*
X144804693Y-57844516D01*
X144736182Y-58055372D01*
X144722043Y-58144641D01*
X144701500Y-58274346D01*
X144701500Y-58496048D01*
X144710886Y-58555306D01*
X144736182Y-58715021D01*
X144804693Y-58925877D01*
X144898625Y-59110227D01*
X144905343Y-59123412D01*
X145035657Y-59302773D01*
X145192424Y-59459540D01*
X145293680Y-59533107D01*
X145371780Y-59589851D01*
X145371792Y-59589858D01*
X145433793Y-59621448D01*
X145484590Y-59669421D01*
X145501500Y-59731933D01*
X145501500Y-60625306D01*
X145542968Y-60780071D01*
X145560466Y-60810378D01*
X145623078Y-60918824D01*
X145623080Y-60918826D01*
X148805181Y-64100927D01*
X148838666Y-64162250D01*
X148841500Y-64188608D01*
X148841500Y-64610692D01*
X148821815Y-64677731D01*
X148773802Y-64721173D01*
X148764195Y-64726068D01*
X148764193Y-64726069D01*
X148597576Y-64847123D01*
X148597571Y-64847127D01*
X148451930Y-64992768D01*
X148451926Y-64992773D01*
X148330873Y-65159390D01*
X148237367Y-65342902D01*
X148173719Y-65538788D01*
X148141500Y-65742216D01*
X148141500Y-65948177D01*
X148173719Y-66151605D01*
X148237367Y-66347491D01*
X148301671Y-66473693D01*
X148312628Y-66495197D01*
X148330873Y-66531003D01*
X148451926Y-66697620D01*
X148451930Y-66697625D01*
X148597571Y-66843266D01*
X148597576Y-66843270D01*
X148734523Y-66942767D01*
X148764197Y-66964326D01*
X148881128Y-67023906D01*
X148947705Y-67057829D01*
X148947707Y-67057829D01*
X148947710Y-67057831D01*
X149052707Y-67091946D01*
X149143591Y-67121477D01*
X149245305Y-67137587D01*
X149347019Y-67153697D01*
X149347020Y-67153697D01*
X149552980Y-67153697D01*
X149552981Y-67153697D01*
X149756408Y-67121477D01*
X149952290Y-67057831D01*
X150135803Y-66964326D01*
X150302430Y-66843265D01*
X150448068Y-66697627D01*
X150569129Y-66531000D01*
X150662634Y-66347487D01*
X150726280Y-66151605D01*
X150758500Y-65948178D01*
X150758500Y-65742216D01*
X150726280Y-65538788D01*
X150665883Y-65352907D01*
X150662634Y-65342907D01*
X150662632Y-65342904D01*
X150662632Y-65342902D01*
X150628709Y-65276325D01*
X150569129Y-65159394D01*
X150455338Y-65002773D01*
X150448073Y-64992773D01*
X150448069Y-64992768D01*
X150302428Y-64847127D01*
X150302423Y-64847123D01*
X150135806Y-64726069D01*
X150135804Y-64726068D01*
X150126198Y-64721173D01*
X150075405Y-64673195D01*
X150058500Y-64610692D01*
X150058500Y-63805088D01*
X150058500Y-63805086D01*
X150017032Y-63650325D01*
X150017032Y-63650324D01*
X149936921Y-63511569D01*
X146754819Y-60329467D01*
X146721334Y-60268144D01*
X146718500Y-60241786D01*
X146718500Y-59731933D01*
X146738185Y-59664894D01*
X146786207Y-59621448D01*
X146812085Y-59608263D01*
X146848215Y-59589854D01*
X147027576Y-59459540D01*
X147184343Y-59302773D01*
X147314657Y-59123412D01*
X147415308Y-58925873D01*
X147483818Y-58715021D01*
X147518500Y-58496048D01*
X147518500Y-58274346D01*
X147483818Y-58055373D01*
X147415308Y-57844521D01*
X147415306Y-57844518D01*
X147415306Y-57844516D01*
X147362210Y-57740311D01*
X147314657Y-57646982D01*
X147184343Y-57467621D01*
X147142527Y-57425805D01*
X147109043Y-57364483D01*
X147114027Y-57294791D01*
X147155899Y-57238858D01*
X147186868Y-57221947D01*
X147256204Y-57196086D01*
X147373261Y-57108458D01*
X147460889Y-56991401D01*
X147511989Y-56854398D01*
X147515591Y-56820889D01*
X147518499Y-56793851D01*
X147518500Y-56793834D01*
X147518500Y-54896559D01*
X147518499Y-54896542D01*
X147515157Y-54865467D01*
X147511989Y-54835996D01*
X147510801Y-54832811D01*
X147486729Y-54768272D01*
X147460889Y-54698993D01*
X147373261Y-54581936D01*
X147256204Y-54494308D01*
X147228546Y-54483992D01*
X147119203Y-54443208D01*
X147058654Y-54436697D01*
X147058638Y-54436697D01*
X146842500Y-54436697D01*
X146775461Y-54417012D01*
X146729706Y-54364208D01*
X146718500Y-54312697D01*
X146718500Y-53635088D01*
X146718500Y-53635086D01*
X146677032Y-53480325D01*
X146677032Y-53480324D01*
X146677032Y-53480323D01*
X146641709Y-53419144D01*
X146596922Y-53341570D01*
X145303627Y-52048275D01*
X145164873Y-51968165D01*
X145087491Y-51947431D01*
X145087490Y-51947430D01*
X145030844Y-51932252D01*
X145010111Y-51926697D01*
X145010110Y-51926697D01*
X136453411Y-51926697D01*
X136386372Y-51907012D01*
X136365730Y-51890378D01*
X135488004Y-51012652D01*
X135473300Y-50985724D01*
X135456708Y-50959906D01*
X135455816Y-50953705D01*
X135454519Y-50951329D01*
X135451685Y-50924971D01*
X135451685Y-50735818D01*
X135471370Y-50668779D01*
X135519390Y-50625333D01*
X135555194Y-50607091D01*
X135728189Y-50481403D01*
X135879391Y-50330201D01*
X136005079Y-50157206D01*
X136005081Y-50157201D01*
X136007455Y-50153329D01*
X136059265Y-50106451D01*
X136128194Y-50095026D01*
X136192358Y-50122680D01*
X136218915Y-50153329D01*
X136221288Y-50157202D01*
X136228344Y-50166914D01*
X136346979Y-50330201D01*
X136498181Y-50481403D01*
X136671176Y-50607091D01*
X136722628Y-50633307D01*
X136861701Y-50704169D01*
X136861704Y-50704170D01*
X136916439Y-50721954D01*
X137065069Y-50770246D01*
X137276269Y-50803697D01*
X137276270Y-50803697D01*
X137490100Y-50803697D01*
X137490101Y-50803697D01*
X137701301Y-50770246D01*
X137904668Y-50704169D01*
X138095194Y-50607091D01*
X138268189Y-50481403D01*
X138419391Y-50330201D01*
X138545079Y-50157206D01*
X138545081Y-50157201D01*
X138547455Y-50153329D01*
X138599265Y-50106451D01*
X138668194Y-50095026D01*
X138732358Y-50122680D01*
X138758915Y-50153329D01*
X138761288Y-50157202D01*
X138768344Y-50166914D01*
X138886979Y-50330201D01*
X139038181Y-50481403D01*
X139211176Y-50607091D01*
X139262628Y-50633307D01*
X139401701Y-50704169D01*
X139401704Y-50704170D01*
X139456439Y-50721954D01*
X139605069Y-50770246D01*
X139816269Y-50803697D01*
X139816270Y-50803697D01*
X140030100Y-50803697D01*
X140030101Y-50803697D01*
X140241301Y-50770246D01*
X140444668Y-50704169D01*
X140635194Y-50607091D01*
X140808189Y-50481403D01*
X140959391Y-50330201D01*
X141085079Y-50157206D01*
X141085081Y-50157201D01*
X141087455Y-50153329D01*
X141139265Y-50106451D01*
X141208194Y-50095026D01*
X141272358Y-50122680D01*
X141298915Y-50153329D01*
X141301288Y-50157202D01*
X141308344Y-50166914D01*
X141426979Y-50330201D01*
X141578181Y-50481403D01*
X141751176Y-50607091D01*
X141802628Y-50633307D01*
X141941701Y-50704169D01*
X141941704Y-50704170D01*
X141996439Y-50721954D01*
X142145069Y-50770246D01*
X142356269Y-50803697D01*
X142356270Y-50803697D01*
X142570100Y-50803697D01*
X142570101Y-50803697D01*
X142781301Y-50770246D01*
X142984668Y-50704169D01*
X143175194Y-50607091D01*
X143348189Y-50481403D01*
X143499391Y-50330201D01*
X143625079Y-50157206D01*
X143625081Y-50157201D01*
X143627455Y-50153329D01*
X143679265Y-50106451D01*
X143748194Y-50095026D01*
X143812358Y-50122680D01*
X143838915Y-50153329D01*
X143841288Y-50157202D01*
X143848344Y-50166914D01*
X143966979Y-50330201D01*
X144118181Y-50481403D01*
X144291176Y-50607091D01*
X144342628Y-50633307D01*
X144481701Y-50704169D01*
X144481704Y-50704170D01*
X144536439Y-50721954D01*
X144685069Y-50770246D01*
X144896269Y-50803697D01*
X144896270Y-50803697D01*
X145110100Y-50803697D01*
X145110101Y-50803697D01*
X145321301Y-50770246D01*
X145524668Y-50704169D01*
X145715194Y-50607091D01*
X145888189Y-50481403D01*
X146039391Y-50330201D01*
X146165079Y-50157206D01*
X146165081Y-50157201D01*
X146167455Y-50153329D01*
X146219265Y-50106451D01*
X146288194Y-50095026D01*
X146352358Y-50122680D01*
X146378915Y-50153329D01*
X146381288Y-50157202D01*
X146388344Y-50166914D01*
X146506979Y-50330201D01*
X146658181Y-50481403D01*
X146831176Y-50607091D01*
X146882628Y-50633307D01*
X147021701Y-50704169D01*
X147021704Y-50704170D01*
X147076439Y-50721954D01*
X147225069Y-50770246D01*
X147436269Y-50803697D01*
X147436270Y-50803697D01*
X147650100Y-50803697D01*
X147650101Y-50803697D01*
X147861301Y-50770246D01*
X148064668Y-50704169D01*
X148255194Y-50607091D01*
X148428189Y-50481403D01*
X148579391Y-50330201D01*
X148705079Y-50157206D01*
X148802157Y-49966680D01*
X148868234Y-49763313D01*
X148901685Y-49552113D01*
X148901685Y-49338281D01*
X148868234Y-49127081D01*
X148802157Y-48923714D01*
X148802157Y-48923713D01*
X148730941Y-48783945D01*
X148705079Y-48733188D01*
X148579391Y-48560193D01*
X148428189Y-48408991D01*
X148255194Y-48283303D01*
X148190966Y-48250577D01*
X148064668Y-48186224D01*
X148064665Y-48186223D01*
X147861302Y-48120148D01*
X147755701Y-48103422D01*
X147650101Y-48086697D01*
X147436269Y-48086697D01*
X147365869Y-48097847D01*
X147225067Y-48120148D01*
X147021704Y-48186223D01*
X147021701Y-48186224D01*
X146831175Y-48283303D01*
X146658178Y-48408993D01*
X146506981Y-48560190D01*
X146381290Y-48733188D01*
X146378912Y-48737070D01*
X146327099Y-48783945D01*
X146258169Y-48795366D01*
X146194007Y-48767709D01*
X146167458Y-48737070D01*
X146165079Y-48733188D01*
X146139440Y-48697899D01*
X146039391Y-48560193D01*
X145888189Y-48408991D01*
X145715194Y-48283303D01*
X145650966Y-48250577D01*
X145524668Y-48186224D01*
X145524665Y-48186223D01*
X145321302Y-48120148D01*
X145215701Y-48103422D01*
X145110101Y-48086697D01*
X144896269Y-48086697D01*
X144825869Y-48097847D01*
X144685067Y-48120148D01*
X144481704Y-48186223D01*
X144481701Y-48186224D01*
X144291175Y-48283303D01*
X144118178Y-48408993D01*
X143966981Y-48560190D01*
X143841290Y-48733188D01*
X143838912Y-48737070D01*
X143787099Y-48783945D01*
X143718169Y-48795366D01*
X143654007Y-48767709D01*
X143627458Y-48737070D01*
X143625079Y-48733188D01*
X143599440Y-48697899D01*
X143499391Y-48560193D01*
X143348189Y-48408991D01*
X143175194Y-48283303D01*
X143110966Y-48250577D01*
X142984668Y-48186224D01*
X142984665Y-48186223D01*
X142781302Y-48120148D01*
X142675701Y-48103422D01*
X142570101Y-48086697D01*
X142356269Y-48086697D01*
X142285869Y-48097847D01*
X142145067Y-48120148D01*
X141941704Y-48186223D01*
X141941701Y-48186224D01*
X141751175Y-48283303D01*
X141578178Y-48408993D01*
X141426981Y-48560190D01*
X141301290Y-48733188D01*
X141298912Y-48737070D01*
X141247099Y-48783945D01*
X141178169Y-48795366D01*
X141114007Y-48767709D01*
X141087458Y-48737070D01*
X141085079Y-48733188D01*
X141059440Y-48697899D01*
X140959391Y-48560193D01*
X140808189Y-48408991D01*
X140635194Y-48283303D01*
X140570966Y-48250577D01*
X140444668Y-48186224D01*
X140444665Y-48186223D01*
X140241302Y-48120148D01*
X140135701Y-48103422D01*
X140030101Y-48086697D01*
X139816269Y-48086697D01*
X139745869Y-48097847D01*
X139605067Y-48120148D01*
X139401704Y-48186223D01*
X139401701Y-48186224D01*
X139211175Y-48283303D01*
X139038178Y-48408993D01*
X138886981Y-48560190D01*
X138761290Y-48733188D01*
X138758912Y-48737070D01*
X138707099Y-48783945D01*
X138638169Y-48795366D01*
X138574007Y-48767709D01*
X138547458Y-48737070D01*
X138545079Y-48733188D01*
X138519440Y-48697899D01*
X138419391Y-48560193D01*
X138268189Y-48408991D01*
X138095194Y-48283303D01*
X138030966Y-48250577D01*
X137904668Y-48186224D01*
X137904665Y-48186223D01*
X137701302Y-48120148D01*
X137595701Y-48103422D01*
X137490101Y-48086697D01*
X137276269Y-48086697D01*
X137205869Y-48097847D01*
X137065067Y-48120148D01*
X136861704Y-48186223D01*
X136861701Y-48186224D01*
X136671175Y-48283303D01*
X136498178Y-48408993D01*
X136346981Y-48560190D01*
X136221290Y-48733188D01*
X136218912Y-48737070D01*
X136167099Y-48783945D01*
X136098169Y-48795366D01*
X136034007Y-48767709D01*
X136007458Y-48737070D01*
X136005079Y-48733188D01*
X135979440Y-48697899D01*
X135879391Y-48560193D01*
X135728189Y-48408991D01*
X135555194Y-48283303D01*
X135490966Y-48250577D01*
X135364668Y-48186224D01*
X135364665Y-48186223D01*
X135161302Y-48120148D01*
X135055701Y-48103422D01*
X134950101Y-48086697D01*
X134736269Y-48086697D01*
X134665869Y-48097847D01*
X134525067Y-48120148D01*
X134321704Y-48186223D01*
X134321701Y-48186224D01*
X134131175Y-48283303D01*
X133958178Y-48408993D01*
X133806981Y-48560190D01*
X133681290Y-48733188D01*
X133678912Y-48737070D01*
X133627099Y-48783945D01*
X133558169Y-48795366D01*
X133494007Y-48767709D01*
X133467458Y-48737070D01*
X133465079Y-48733188D01*
X133439440Y-48697899D01*
X133339391Y-48560193D01*
X133188189Y-48408991D01*
X133015194Y-48283303D01*
X132950966Y-48250577D01*
X132824668Y-48186224D01*
X132824665Y-48186223D01*
X132621302Y-48120148D01*
X132515701Y-48103422D01*
X132410101Y-48086697D01*
X132196269Y-48086697D01*
X132125869Y-48097847D01*
X131985067Y-48120148D01*
X131781704Y-48186223D01*
X131781701Y-48186224D01*
X131591175Y-48283303D01*
X131418182Y-48408990D01*
X131313003Y-48514169D01*
X131251680Y-48547653D01*
X131181988Y-48542669D01*
X131126055Y-48500797D01*
X131109143Y-48469826D01*
X131064074Y-48348993D01*
X130976446Y-48231936D01*
X130859389Y-48144308D01*
X130722388Y-48093208D01*
X130661839Y-48086697D01*
X130661823Y-48086697D01*
X128864547Y-48086697D01*
X128864530Y-48086697D01*
X128803982Y-48093208D01*
X128803980Y-48093208D01*
X128666980Y-48144308D01*
X128549924Y-48231936D01*
X128462296Y-48348992D01*
X128411196Y-48485992D01*
X128411196Y-48485994D01*
X128404685Y-48546542D01*
X126758535Y-48546542D01*
X126739391Y-48520193D01*
X126588189Y-48368991D01*
X126415194Y-48243303D01*
X126392885Y-48231936D01*
X126224668Y-48146224D01*
X126224665Y-48146223D01*
X126021302Y-48080148D01*
X125915701Y-48063422D01*
X125810101Y-48046697D01*
X125596269Y-48046697D01*
X125525869Y-48057847D01*
X125385067Y-48080148D01*
X125181704Y-48146223D01*
X125181701Y-48146224D01*
X124991175Y-48243303D01*
X124818178Y-48368993D01*
X124666981Y-48520190D01*
X124541290Y-48693188D01*
X124538912Y-48697070D01*
X124487099Y-48743945D01*
X124418169Y-48755366D01*
X124354007Y-48727709D01*
X124327458Y-48697070D01*
X124325079Y-48693188D01*
X124288963Y-48643479D01*
X124199391Y-48520193D01*
X124048189Y-48368991D01*
X123875194Y-48243303D01*
X123852885Y-48231936D01*
X123684668Y-48146224D01*
X123684665Y-48146223D01*
X123481302Y-48080148D01*
X123375701Y-48063422D01*
X123270101Y-48046697D01*
X123056269Y-48046697D01*
X122985869Y-48057847D01*
X122845067Y-48080148D01*
X122641704Y-48146223D01*
X122641701Y-48146224D01*
X122451175Y-48243303D01*
X122278178Y-48368993D01*
X122126981Y-48520190D01*
X122001290Y-48693188D01*
X121998912Y-48697070D01*
X121947099Y-48743945D01*
X121878169Y-48755366D01*
X121814007Y-48727709D01*
X121787458Y-48697070D01*
X121785079Y-48693188D01*
X121748963Y-48643479D01*
X121659391Y-48520193D01*
X121508189Y-48368991D01*
X121335194Y-48243303D01*
X121312885Y-48231936D01*
X121144668Y-48146224D01*
X121144665Y-48146223D01*
X120941302Y-48080148D01*
X120835701Y-48063422D01*
X120730101Y-48046697D01*
X120516269Y-48046697D01*
X120445869Y-48057847D01*
X120305067Y-48080148D01*
X120101704Y-48146223D01*
X120101701Y-48146224D01*
X119911175Y-48243303D01*
X119738178Y-48368993D01*
X119586981Y-48520190D01*
X119461290Y-48693188D01*
X119458912Y-48697070D01*
X119407099Y-48743945D01*
X119338169Y-48755366D01*
X119274007Y-48727709D01*
X119247458Y-48697070D01*
X119245079Y-48693188D01*
X119208963Y-48643479D01*
X119119391Y-48520193D01*
X118968189Y-48368991D01*
X118795194Y-48243303D01*
X118772885Y-48231936D01*
X118604668Y-48146224D01*
X118604665Y-48146223D01*
X118401302Y-48080148D01*
X118295701Y-48063422D01*
X118190101Y-48046697D01*
X117976269Y-48046697D01*
X117905869Y-48057847D01*
X117765067Y-48080148D01*
X117561704Y-48146223D01*
X117561701Y-48146224D01*
X117371175Y-48243303D01*
X117198178Y-48368993D01*
X117046981Y-48520190D01*
X116921290Y-48693188D01*
X116918912Y-48697070D01*
X116867099Y-48743945D01*
X116798169Y-48755366D01*
X116734007Y-48727709D01*
X116707458Y-48697070D01*
X116705079Y-48693188D01*
X116668963Y-48643479D01*
X116579391Y-48520193D01*
X116428189Y-48368991D01*
X116255194Y-48243303D01*
X116232885Y-48231936D01*
X116064668Y-48146224D01*
X116064665Y-48146223D01*
X115861302Y-48080148D01*
X115755701Y-48063422D01*
X115650101Y-48046697D01*
X115436269Y-48046697D01*
X115365869Y-48057847D01*
X115225067Y-48080148D01*
X115021704Y-48146223D01*
X115021701Y-48146224D01*
X114831175Y-48243303D01*
X114658178Y-48368993D01*
X114506981Y-48520190D01*
X114381290Y-48693188D01*
X114378912Y-48697070D01*
X114327099Y-48743945D01*
X114258169Y-48755366D01*
X114194007Y-48727709D01*
X114167458Y-48697070D01*
X114165079Y-48693188D01*
X114128963Y-48643479D01*
X114039391Y-48520193D01*
X113888189Y-48368991D01*
X113715194Y-48243303D01*
X113692885Y-48231936D01*
X113524668Y-48146224D01*
X113524665Y-48146223D01*
X113321302Y-48080148D01*
X113215701Y-48063422D01*
X113110101Y-48046697D01*
X112896269Y-48046697D01*
X112825869Y-48057847D01*
X112685067Y-48080148D01*
X112481704Y-48146223D01*
X112481701Y-48146224D01*
X112291175Y-48243303D01*
X112118178Y-48368993D01*
X111966981Y-48520190D01*
X111841288Y-48693191D01*
X111838894Y-48697890D01*
X111790916Y-48748682D01*
X111723093Y-48765472D01*
X111656960Y-48742929D01*
X111620989Y-48701412D01*
X111620356Y-48701801D01*
X111618011Y-48697975D01*
X111617928Y-48697879D01*
X111617809Y-48697646D01*
X111578455Y-48643479D01*
X111578454Y-48643479D01*
X110946147Y-49275787D01*
X110929110Y-49212204D01*
X110863284Y-49098190D01*
X110770192Y-49005098D01*
X110656178Y-48939272D01*
X110592594Y-48922234D01*
X111224901Y-48289925D01*
X111170735Y-48250572D01*
X110981402Y-48154101D01*
X110779314Y-48088439D01*
X110569431Y-48055197D01*
X110356939Y-48055197D01*
X110147057Y-48088439D01*
X110147054Y-48088439D01*
X109944967Y-48154101D01*
X109755624Y-48250577D01*
X109701467Y-48289924D01*
X109701467Y-48289925D01*
X110333776Y-48922234D01*
X110270192Y-48939272D01*
X110156178Y-49005098D01*
X110063086Y-49098190D01*
X109997260Y-49212204D01*
X109980222Y-49275788D01*
X109347913Y-48643479D01*
X109347912Y-48643479D01*
X109308565Y-48697637D01*
X109308559Y-48697646D01*
X109308431Y-48697899D01*
X109308357Y-48697977D01*
X109306023Y-48701787D01*
X109305221Y-48701296D01*
X109260449Y-48748687D01*
X109192626Y-48765472D01*
X109126494Y-48742925D01*
X109087468Y-48697877D01*
X109085079Y-48693188D01*
X108959391Y-48520193D01*
X108808189Y-48368991D01*
X108635194Y-48243303D01*
X108612885Y-48231936D01*
X108444668Y-48146224D01*
X108444665Y-48146223D01*
X108241302Y-48080148D01*
X108135701Y-48063422D01*
X108030101Y-48046697D01*
X107816269Y-48046697D01*
X107745869Y-48057847D01*
X107605067Y-48080148D01*
X107401704Y-48146223D01*
X107401701Y-48146224D01*
X107211175Y-48243303D01*
X107038178Y-48368993D01*
X106886981Y-48520190D01*
X106761290Y-48693188D01*
X106758912Y-48697070D01*
X106707099Y-48743945D01*
X106638169Y-48755366D01*
X106574007Y-48727709D01*
X106547458Y-48697070D01*
X106545079Y-48693188D01*
X106508963Y-48643479D01*
X106419391Y-48520193D01*
X106268189Y-48368991D01*
X106095194Y-48243303D01*
X106072885Y-48231936D01*
X105904668Y-48146224D01*
X105904665Y-48146223D01*
X105701302Y-48080148D01*
X105595701Y-48063422D01*
X105490101Y-48046697D01*
X105276269Y-48046697D01*
X105205869Y-48057847D01*
X105065067Y-48080148D01*
X104861704Y-48146223D01*
X104861701Y-48146224D01*
X104671175Y-48243303D01*
X104498182Y-48368990D01*
X104393003Y-48474169D01*
X104331680Y-48507653D01*
X104261988Y-48502669D01*
X104206055Y-48460797D01*
X104189143Y-48429826D01*
X104144074Y-48308993D01*
X104056446Y-48191936D01*
X103939389Y-48104308D01*
X103909629Y-48093208D01*
X103802388Y-48053208D01*
X103741839Y-48046697D01*
X103741823Y-48046697D01*
X101944547Y-48046697D01*
X101944530Y-48046697D01*
X101883982Y-48053208D01*
X101883980Y-48053208D01*
X101746980Y-48104308D01*
X101629924Y-48191936D01*
X101542296Y-48308992D01*
X101491196Y-48445992D01*
X101491196Y-48445994D01*
X101484685Y-48506542D01*
X99987303Y-48506542D01*
X99987303Y-47714805D01*
X100006988Y-47647766D01*
X100023622Y-47627124D01*
X100598730Y-47052016D01*
X100660053Y-47018531D01*
X100686411Y-47015697D01*
X147563303Y-47015697D01*
X149185588Y-47015697D01*
X149252627Y-47035382D01*
G37*
G04 #@! TD.AperFunction*
M02*
