%TF.GenerationSoftware,KiCad,Pcbnew,9.0.6*%
%TF.CreationDate,2026-04-18T18:03:18+05:30*%
%TF.ProjectId,Embedded Systems,456d6265-6464-4656-9420-53797374656d,1.0*%
%TF.SameCoordinates,Original*%
%TF.FileFunction,Drillmap*%
%TF.FilePolarity,Positive*%
%FSLAX45Y45*%
G04 Gerber Fmt 4.5, Leading zero omitted, Abs format (unit mm)*
G04 Created by KiCad (PCBNEW 9.0.6) date 2026-04-18 18:03:18*
%MOMM*%
%LPD*%
G01*
G04 APERTURE LIST*
%ADD10C,0.050000*%
%ADD11C,0.200000*%
G04 APERTURE END LIST*
D10*
X15014318Y-5951520D02*
X15014318Y-4935520D01*
X15014318Y-9939320D02*
X14937118Y-10016520D01*
X9978680Y-9940200D02*
X9978680Y-4758040D01*
X14973480Y-4723000D02*
X15014000Y-4763520D01*
X10055200Y-4681520D02*
X9978680Y-4758040D01*
X14760318Y-4681520D02*
X10055200Y-4681520D01*
X15014318Y-4935520D02*
X15014318Y-4763520D01*
X15268318Y-6205520D02*
X15268318Y-9634520D01*
X15268318Y-6205520D02*
X15014318Y-5951520D01*
X10097480Y-10059000D02*
X14894638Y-10059000D01*
X15014318Y-9888520D02*
X15014318Y-9939320D01*
X14932000Y-4681520D02*
X14973480Y-4723000D01*
X14760318Y-4681520D02*
X14932000Y-4681520D01*
X15014318Y-9888520D02*
X15268318Y-9634520D01*
X9978680Y-9940200D02*
X10097480Y-10059000D01*
X14937118Y-10016520D02*
X14894638Y-10059000D01*
D11*
X10236957Y-10372984D02*
X10236957Y-10172984D01*
X10236957Y-10172984D02*
X10284576Y-10172984D01*
X10284576Y-10172984D02*
X10313147Y-10182508D01*
X10313147Y-10182508D02*
X10332195Y-10201555D01*
X10332195Y-10201555D02*
X10341718Y-10220603D01*
X10341718Y-10220603D02*
X10351242Y-10258698D01*
X10351242Y-10258698D02*
X10351242Y-10287270D01*
X10351242Y-10287270D02*
X10341718Y-10325365D01*
X10341718Y-10325365D02*
X10332195Y-10344412D01*
X10332195Y-10344412D02*
X10313147Y-10363460D01*
X10313147Y-10363460D02*
X10284576Y-10372984D01*
X10284576Y-10372984D02*
X10236957Y-10372984D01*
X10436957Y-10372984D02*
X10436957Y-10239650D01*
X10436957Y-10277746D02*
X10446480Y-10258698D01*
X10446480Y-10258698D02*
X10456004Y-10249174D01*
X10456004Y-10249174D02*
X10475052Y-10239650D01*
X10475052Y-10239650D02*
X10494099Y-10239650D01*
X10560766Y-10372984D02*
X10560766Y-10239650D01*
X10560766Y-10172984D02*
X10551242Y-10182508D01*
X10551242Y-10182508D02*
X10560766Y-10192031D01*
X10560766Y-10192031D02*
X10570290Y-10182508D01*
X10570290Y-10182508D02*
X10560766Y-10172984D01*
X10560766Y-10172984D02*
X10560766Y-10192031D01*
X10684576Y-10372984D02*
X10665528Y-10363460D01*
X10665528Y-10363460D02*
X10656004Y-10344412D01*
X10656004Y-10344412D02*
X10656004Y-10172984D01*
X10789337Y-10372984D02*
X10770290Y-10363460D01*
X10770290Y-10363460D02*
X10760766Y-10344412D01*
X10760766Y-10344412D02*
X10760766Y-10172984D01*
X11017909Y-10372984D02*
X11017909Y-10172984D01*
X11017909Y-10172984D02*
X11084576Y-10315841D01*
X11084576Y-10315841D02*
X11151242Y-10172984D01*
X11151242Y-10172984D02*
X11151242Y-10372984D01*
X11332195Y-10372984D02*
X11332195Y-10268222D01*
X11332195Y-10268222D02*
X11322671Y-10249174D01*
X11322671Y-10249174D02*
X11303623Y-10239650D01*
X11303623Y-10239650D02*
X11265528Y-10239650D01*
X11265528Y-10239650D02*
X11246480Y-10249174D01*
X11332195Y-10363460D02*
X11313147Y-10372984D01*
X11313147Y-10372984D02*
X11265528Y-10372984D01*
X11265528Y-10372984D02*
X11246480Y-10363460D01*
X11246480Y-10363460D02*
X11236956Y-10344412D01*
X11236956Y-10344412D02*
X11236956Y-10325365D01*
X11236956Y-10325365D02*
X11246480Y-10306317D01*
X11246480Y-10306317D02*
X11265528Y-10296793D01*
X11265528Y-10296793D02*
X11313147Y-10296793D01*
X11313147Y-10296793D02*
X11332195Y-10287270D01*
X11427433Y-10239650D02*
X11427433Y-10439650D01*
X11427433Y-10249174D02*
X11446480Y-10239650D01*
X11446480Y-10239650D02*
X11484576Y-10239650D01*
X11484576Y-10239650D02*
X11503623Y-10249174D01*
X11503623Y-10249174D02*
X11513147Y-10258698D01*
X11513147Y-10258698D02*
X11522671Y-10277746D01*
X11522671Y-10277746D02*
X11522671Y-10334889D01*
X11522671Y-10334889D02*
X11513147Y-10353936D01*
X11513147Y-10353936D02*
X11503623Y-10363460D01*
X11503623Y-10363460D02*
X11484576Y-10372984D01*
X11484576Y-10372984D02*
X11446480Y-10372984D01*
X11446480Y-10372984D02*
X11427433Y-10363460D01*
X11608385Y-10353936D02*
X11617909Y-10363460D01*
X11617909Y-10363460D02*
X11608385Y-10372984D01*
X11608385Y-10372984D02*
X11598861Y-10363460D01*
X11598861Y-10363460D02*
X11608385Y-10353936D01*
X11608385Y-10353936D02*
X11608385Y-10372984D01*
X11608385Y-10249174D02*
X11617909Y-10258698D01*
X11617909Y-10258698D02*
X11608385Y-10268222D01*
X11608385Y-10268222D02*
X11598861Y-10258698D01*
X11598861Y-10258698D02*
X11608385Y-10249174D01*
X11608385Y-10249174D02*
X11608385Y-10268222D01*
M02*
