G04 #@! TF.GenerationSoftware,KiCad,Pcbnew,9.0.6*
G04 #@! TF.CreationDate,2026-04-18T18:03:36+05:30*
G04 #@! TF.ProjectId,Embedded Systems,456d6265-6464-4656-9420-53797374656d,1.0*
G04 #@! TF.SameCoordinates,Original*
G04 #@! TF.FileFunction,Legend,Top*
G04 #@! TF.FilePolarity,Positive*
%FSLAX46Y46*%
G04 Gerber Fmt 4.6, Leading zero omitted, Abs format (unit mm)*
G04 Created by KiCad (PCBNEW 9.0.6) date 2026-04-18 18:03:36*
%MOMM*%
%LPD*%
G01*
G04 APERTURE LIST*
G04 Aperture macros list*
%AMRoundRect*
0 Rectangle with rounded corners*
0 $1 Rounding radius*
0 $2 $3 $4 $5 $6 $7 $8 $9 X,Y pos of 4 corners*
0 Add a 4 corners polygon primitive as box body*
4,1,4,$2,$3,$4,$5,$6,$7,$8,$9,$2,$3,0*
0 Add four circle primitives for the rounded corners*
1,1,$1+$1,$2,$3*
1,1,$1+$1,$4,$5*
1,1,$1+$1,$6,$7*
1,1,$1+$1,$8,$9*
0 Add four rect primitives between the rounded corners*
20,1,$1+$1,$2,$3,$4,$5,0*
20,1,$1+$1,$4,$5,$6,$7,0*
20,1,$1+$1,$6,$7,$8,$9,0*
20,1,$1+$1,$8,$9,$2,$3,0*%
G04 Aperture macros list end*
%ADD10C,0.100000*%
%ADD11C,0.200000*%
%ADD12C,0.150000*%
%ADD13C,0.120000*%
%ADD14C,0.000000*%
%ADD15C,0.010000*%
%ADD16C,1.600000*%
%ADD17R,1.800000X1.800000*%
%ADD18C,1.800000*%
%ADD19RoundRect,0.250000X-0.650000X0.650000X-0.650000X-0.650000X0.650000X-0.650000X0.650000X0.650000X0*%
%ADD20R,1.350000X1.350000*%
%ADD21C,1.350000*%
%ADD22R,1.500000X1.050000*%
%ADD23O,1.500000X1.050000*%
%ADD24R,1.700000X1.700000*%
%ADD25C,1.700000*%
G04 APERTURE END LIST*
D10*
X144769133Y-53939122D02*
X144769133Y-53539122D01*
X145469133Y-53739122D02*
X144769133Y-53739122D01*
X144769133Y-53372456D02*
X145469133Y-52905789D01*
X144769133Y-52905789D02*
X145469133Y-53372456D01*
X144735800Y-52139122D02*
X145635800Y-52739122D01*
X145469133Y-51539122D02*
X145469133Y-51939122D01*
X145469133Y-51739122D02*
X144769133Y-51739122D01*
X144769133Y-51739122D02*
X144869133Y-51805789D01*
X144869133Y-51805789D02*
X144935800Y-51872456D01*
X144935800Y-51872456D02*
X144969133Y-51939122D01*
X135032466Y-52365789D02*
X134999133Y-52332456D01*
X134999133Y-52332456D02*
X134965800Y-52265789D01*
X134965800Y-52265789D02*
X135032466Y-52132456D01*
X135032466Y-52132456D02*
X134999133Y-52065789D01*
X134999133Y-52065789D02*
X134965800Y-52032456D01*
X134599133Y-51432456D02*
X134599133Y-51765789D01*
X134599133Y-51765789D02*
X134932466Y-51799122D01*
X134932466Y-51799122D02*
X134899133Y-51765789D01*
X134899133Y-51765789D02*
X134865800Y-51699122D01*
X134865800Y-51699122D02*
X134865800Y-51532456D01*
X134865800Y-51532456D02*
X134899133Y-51465789D01*
X134899133Y-51465789D02*
X134932466Y-51432456D01*
X134932466Y-51432456D02*
X134999133Y-51399122D01*
X134999133Y-51399122D02*
X135165800Y-51399122D01*
X135165800Y-51399122D02*
X135232466Y-51432456D01*
X135232466Y-51432456D02*
X135265800Y-51465789D01*
X135265800Y-51465789D02*
X135299133Y-51532456D01*
X135299133Y-51532456D02*
X135299133Y-51699122D01*
X135299133Y-51699122D02*
X135265800Y-51765789D01*
X135265800Y-51765789D02*
X135232466Y-51799122D01*
X140122466Y-52495789D02*
X140089133Y-52462456D01*
X140089133Y-52462456D02*
X140055800Y-52395789D01*
X140055800Y-52395789D02*
X140122466Y-52262456D01*
X140122466Y-52262456D02*
X140089133Y-52195789D01*
X140089133Y-52195789D02*
X140055800Y-52162456D01*
X139689133Y-51962456D02*
X139689133Y-51529122D01*
X139689133Y-51529122D02*
X139955800Y-51762456D01*
X139955800Y-51762456D02*
X139955800Y-51662456D01*
X139955800Y-51662456D02*
X139989133Y-51595789D01*
X139989133Y-51595789D02*
X140022466Y-51562456D01*
X140022466Y-51562456D02*
X140089133Y-51529122D01*
X140089133Y-51529122D02*
X140255800Y-51529122D01*
X140255800Y-51529122D02*
X140322466Y-51562456D01*
X140322466Y-51562456D02*
X140355800Y-51595789D01*
X140355800Y-51595789D02*
X140389133Y-51662456D01*
X140389133Y-51662456D02*
X140389133Y-51862456D01*
X140389133Y-51862456D02*
X140355800Y-51929122D01*
X140355800Y-51929122D02*
X140322466Y-51962456D01*
X127002466Y-95330877D02*
X126969133Y-95397544D01*
X126969133Y-95397544D02*
X126969133Y-95497544D01*
X126969133Y-95497544D02*
X127002466Y-95597544D01*
X127002466Y-95597544D02*
X127069133Y-95664211D01*
X127069133Y-95664211D02*
X127135800Y-95697544D01*
X127135800Y-95697544D02*
X127269133Y-95730877D01*
X127269133Y-95730877D02*
X127369133Y-95730877D01*
X127369133Y-95730877D02*
X127502466Y-95697544D01*
X127502466Y-95697544D02*
X127569133Y-95664211D01*
X127569133Y-95664211D02*
X127635800Y-95597544D01*
X127635800Y-95597544D02*
X127669133Y-95497544D01*
X127669133Y-95497544D02*
X127669133Y-95430877D01*
X127669133Y-95430877D02*
X127635800Y-95330877D01*
X127635800Y-95330877D02*
X127602466Y-95297544D01*
X127602466Y-95297544D02*
X127369133Y-95297544D01*
X127369133Y-95297544D02*
X127369133Y-95430877D01*
X127669133Y-94997544D02*
X126969133Y-94997544D01*
X126969133Y-94997544D02*
X127669133Y-94597544D01*
X127669133Y-94597544D02*
X126969133Y-94597544D01*
X127669133Y-94264211D02*
X126969133Y-94264211D01*
X126969133Y-94264211D02*
X126969133Y-94097544D01*
X126969133Y-94097544D02*
X127002466Y-93997544D01*
X127002466Y-93997544D02*
X127069133Y-93930878D01*
X127069133Y-93930878D02*
X127135800Y-93897544D01*
X127135800Y-93897544D02*
X127269133Y-93864211D01*
X127269133Y-93864211D02*
X127369133Y-93864211D01*
X127369133Y-93864211D02*
X127502466Y-93897544D01*
X127502466Y-93897544D02*
X127569133Y-93930878D01*
X127569133Y-93930878D02*
X127635800Y-93997544D01*
X127635800Y-93997544D02*
X127669133Y-94097544D01*
X127669133Y-94097544D02*
X127669133Y-94264211D01*
X142639133Y-95570877D02*
X142639133Y-95237544D01*
X142839133Y-95637544D02*
X142139133Y-95404211D01*
X142139133Y-95404211D02*
X142839133Y-95170877D01*
X142139133Y-95004211D02*
X142139133Y-94570877D01*
X142139133Y-94570877D02*
X142405800Y-94804211D01*
X142405800Y-94804211D02*
X142405800Y-94704211D01*
X142405800Y-94704211D02*
X142439133Y-94637544D01*
X142439133Y-94637544D02*
X142472466Y-94604211D01*
X142472466Y-94604211D02*
X142539133Y-94570877D01*
X142539133Y-94570877D02*
X142705800Y-94570877D01*
X142705800Y-94570877D02*
X142772466Y-94604211D01*
X142772466Y-94604211D02*
X142805800Y-94637544D01*
X142805800Y-94637544D02*
X142839133Y-94704211D01*
X142839133Y-94704211D02*
X142839133Y-94904211D01*
X142839133Y-94904211D02*
X142805800Y-94970877D01*
X142805800Y-94970877D02*
X142772466Y-95004211D01*
X103295800Y-53075789D02*
X103329133Y-52975789D01*
X103329133Y-52975789D02*
X103329133Y-52809123D01*
X103329133Y-52809123D02*
X103295800Y-52742456D01*
X103295800Y-52742456D02*
X103262466Y-52709123D01*
X103262466Y-52709123D02*
X103195800Y-52675789D01*
X103195800Y-52675789D02*
X103129133Y-52675789D01*
X103129133Y-52675789D02*
X103062466Y-52709123D01*
X103062466Y-52709123D02*
X103029133Y-52742456D01*
X103029133Y-52742456D02*
X102995800Y-52809123D01*
X102995800Y-52809123D02*
X102962466Y-52942456D01*
X102962466Y-52942456D02*
X102929133Y-53009123D01*
X102929133Y-53009123D02*
X102895800Y-53042456D01*
X102895800Y-53042456D02*
X102829133Y-53075789D01*
X102829133Y-53075789D02*
X102762466Y-53075789D01*
X102762466Y-53075789D02*
X102695800Y-53042456D01*
X102695800Y-53042456D02*
X102662466Y-53009123D01*
X102662466Y-53009123D02*
X102629133Y-52942456D01*
X102629133Y-52942456D02*
X102629133Y-52775789D01*
X102629133Y-52775789D02*
X102662466Y-52675789D01*
X103262466Y-51975789D02*
X103295800Y-52009122D01*
X103295800Y-52009122D02*
X103329133Y-52109122D01*
X103329133Y-52109122D02*
X103329133Y-52175789D01*
X103329133Y-52175789D02*
X103295800Y-52275789D01*
X103295800Y-52275789D02*
X103229133Y-52342456D01*
X103229133Y-52342456D02*
X103162466Y-52375789D01*
X103162466Y-52375789D02*
X103029133Y-52409122D01*
X103029133Y-52409122D02*
X102929133Y-52409122D01*
X102929133Y-52409122D02*
X102795800Y-52375789D01*
X102795800Y-52375789D02*
X102729133Y-52342456D01*
X102729133Y-52342456D02*
X102662466Y-52275789D01*
X102662466Y-52275789D02*
X102629133Y-52175789D01*
X102629133Y-52175789D02*
X102629133Y-52109122D01*
X102629133Y-52109122D02*
X102662466Y-52009122D01*
X102662466Y-52009122D02*
X102695800Y-51975789D01*
X103329133Y-51342456D02*
X103329133Y-51675789D01*
X103329133Y-51675789D02*
X102629133Y-51675789D01*
X125759133Y-51765789D02*
X125725800Y-51832456D01*
X125725800Y-51832456D02*
X125692466Y-51865789D01*
X125692466Y-51865789D02*
X125625800Y-51899122D01*
X125625800Y-51899122D02*
X125592466Y-51899122D01*
X125592466Y-51899122D02*
X125525800Y-51865789D01*
X125525800Y-51865789D02*
X125492466Y-51832456D01*
X125492466Y-51832456D02*
X125459133Y-51765789D01*
X125459133Y-51765789D02*
X125459133Y-51632456D01*
X125459133Y-51632456D02*
X125492466Y-51565789D01*
X125492466Y-51565789D02*
X125525800Y-51532456D01*
X125525800Y-51532456D02*
X125592466Y-51499122D01*
X125592466Y-51499122D02*
X125625800Y-51499122D01*
X125625800Y-51499122D02*
X125692466Y-51532456D01*
X125692466Y-51532456D02*
X125725800Y-51565789D01*
X125725800Y-51565789D02*
X125759133Y-51632456D01*
X125759133Y-51632456D02*
X125759133Y-51765789D01*
X125759133Y-51765789D02*
X125792466Y-51832456D01*
X125792466Y-51832456D02*
X125825800Y-51865789D01*
X125825800Y-51865789D02*
X125892466Y-51899122D01*
X125892466Y-51899122D02*
X126025800Y-51899122D01*
X126025800Y-51899122D02*
X126092466Y-51865789D01*
X126092466Y-51865789D02*
X126125800Y-51832456D01*
X126125800Y-51832456D02*
X126159133Y-51765789D01*
X126159133Y-51765789D02*
X126159133Y-51632456D01*
X126159133Y-51632456D02*
X126125800Y-51565789D01*
X126125800Y-51565789D02*
X126092466Y-51532456D01*
X126092466Y-51532456D02*
X126025800Y-51499122D01*
X126025800Y-51499122D02*
X125892466Y-51499122D01*
X125892466Y-51499122D02*
X125825800Y-51532456D01*
X125825800Y-51532456D02*
X125792466Y-51565789D01*
X125792466Y-51565789D02*
X125759133Y-51632456D01*
X120832466Y-53182456D02*
X120799133Y-53149123D01*
X120799133Y-53149123D02*
X120765800Y-53082456D01*
X120765800Y-53082456D02*
X120832466Y-52949123D01*
X120832466Y-52949123D02*
X120799133Y-52882456D01*
X120799133Y-52882456D02*
X120765800Y-52849123D01*
X121099133Y-52215789D02*
X121099133Y-52615789D01*
X121099133Y-52415789D02*
X120399133Y-52415789D01*
X120399133Y-52415789D02*
X120499133Y-52482456D01*
X120499133Y-52482456D02*
X120565800Y-52549123D01*
X120565800Y-52549123D02*
X120599133Y-52615789D01*
X120399133Y-51782456D02*
X120399133Y-51715789D01*
X120399133Y-51715789D02*
X120432466Y-51649122D01*
X120432466Y-51649122D02*
X120465800Y-51615789D01*
X120465800Y-51615789D02*
X120532466Y-51582456D01*
X120532466Y-51582456D02*
X120665800Y-51549122D01*
X120665800Y-51549122D02*
X120832466Y-51549122D01*
X120832466Y-51549122D02*
X120965800Y-51582456D01*
X120965800Y-51582456D02*
X121032466Y-51615789D01*
X121032466Y-51615789D02*
X121065800Y-51649122D01*
X121065800Y-51649122D02*
X121099133Y-51715789D01*
X121099133Y-51715789D02*
X121099133Y-51782456D01*
X121099133Y-51782456D02*
X121065800Y-51849122D01*
X121065800Y-51849122D02*
X121032466Y-51882456D01*
X121032466Y-51882456D02*
X120965800Y-51915789D01*
X120965800Y-51915789D02*
X120832466Y-51949122D01*
X120832466Y-51949122D02*
X120665800Y-51949122D01*
X120665800Y-51949122D02*
X120532466Y-51915789D01*
X120532466Y-51915789D02*
X120465800Y-51882456D01*
X120465800Y-51882456D02*
X120432466Y-51849122D01*
X120432466Y-51849122D02*
X120399133Y-51782456D01*
X137382466Y-51465789D02*
X137849133Y-51465789D01*
X137115800Y-51632456D02*
X137615800Y-51799122D01*
X137615800Y-51799122D02*
X137615800Y-51365789D01*
X132502466Y-52365789D02*
X132469133Y-52332456D01*
X132469133Y-52332456D02*
X132435800Y-52265789D01*
X132435800Y-52265789D02*
X132502466Y-52132456D01*
X132502466Y-52132456D02*
X132469133Y-52065789D01*
X132469133Y-52065789D02*
X132435800Y-52032456D01*
X132069133Y-51465789D02*
X132069133Y-51599122D01*
X132069133Y-51599122D02*
X132102466Y-51665789D01*
X132102466Y-51665789D02*
X132135800Y-51699122D01*
X132135800Y-51699122D02*
X132235800Y-51765789D01*
X132235800Y-51765789D02*
X132369133Y-51799122D01*
X132369133Y-51799122D02*
X132635800Y-51799122D01*
X132635800Y-51799122D02*
X132702466Y-51765789D01*
X132702466Y-51765789D02*
X132735800Y-51732456D01*
X132735800Y-51732456D02*
X132769133Y-51665789D01*
X132769133Y-51665789D02*
X132769133Y-51532456D01*
X132769133Y-51532456D02*
X132735800Y-51465789D01*
X132735800Y-51465789D02*
X132702466Y-51432456D01*
X132702466Y-51432456D02*
X132635800Y-51399122D01*
X132635800Y-51399122D02*
X132469133Y-51399122D01*
X132469133Y-51399122D02*
X132402466Y-51432456D01*
X132402466Y-51432456D02*
X132369133Y-51465789D01*
X132369133Y-51465789D02*
X132335800Y-51532456D01*
X132335800Y-51532456D02*
X132335800Y-51665789D01*
X132335800Y-51665789D02*
X132369133Y-51732456D01*
X132369133Y-51732456D02*
X132402466Y-51765789D01*
X132402466Y-51765789D02*
X132469133Y-51799122D01*
X135019133Y-95570877D02*
X135019133Y-95237544D01*
X135219133Y-95637544D02*
X134519133Y-95404211D01*
X134519133Y-95404211D02*
X135219133Y-95170877D01*
X134519133Y-94804211D02*
X134519133Y-94737544D01*
X134519133Y-94737544D02*
X134552466Y-94670877D01*
X134552466Y-94670877D02*
X134585800Y-94637544D01*
X134585800Y-94637544D02*
X134652466Y-94604211D01*
X134652466Y-94604211D02*
X134785800Y-94570877D01*
X134785800Y-94570877D02*
X134952466Y-94570877D01*
X134952466Y-94570877D02*
X135085800Y-94604211D01*
X135085800Y-94604211D02*
X135152466Y-94637544D01*
X135152466Y-94637544D02*
X135185800Y-94670877D01*
X135185800Y-94670877D02*
X135219133Y-94737544D01*
X135219133Y-94737544D02*
X135219133Y-94804211D01*
X135219133Y-94804211D02*
X135185800Y-94870877D01*
X135185800Y-94870877D02*
X135152466Y-94904211D01*
X135152466Y-94904211D02*
X135085800Y-94937544D01*
X135085800Y-94937544D02*
X134952466Y-94970877D01*
X134952466Y-94970877D02*
X134785800Y-94970877D01*
X134785800Y-94970877D02*
X134652466Y-94937544D01*
X134652466Y-94937544D02*
X134585800Y-94904211D01*
X134585800Y-94904211D02*
X134552466Y-94870877D01*
X134552466Y-94870877D02*
X134519133Y-94804211D01*
X108199133Y-53675788D02*
X108199133Y-53342455D01*
X108399133Y-53742455D02*
X107699133Y-53509122D01*
X107699133Y-53509122D02*
X108399133Y-53275788D01*
X108399133Y-52642455D02*
X108065800Y-52875788D01*
X108399133Y-53042455D02*
X107699133Y-53042455D01*
X107699133Y-53042455D02*
X107699133Y-52775788D01*
X107699133Y-52775788D02*
X107732466Y-52709122D01*
X107732466Y-52709122D02*
X107765800Y-52675788D01*
X107765800Y-52675788D02*
X107832466Y-52642455D01*
X107832466Y-52642455D02*
X107932466Y-52642455D01*
X107932466Y-52642455D02*
X107999133Y-52675788D01*
X107999133Y-52675788D02*
X108032466Y-52709122D01*
X108032466Y-52709122D02*
X108065800Y-52775788D01*
X108065800Y-52775788D02*
X108065800Y-53042455D01*
X108032466Y-52342455D02*
X108032466Y-52109122D01*
X108399133Y-52009122D02*
X108399133Y-52342455D01*
X108399133Y-52342455D02*
X107699133Y-52342455D01*
X107699133Y-52342455D02*
X107699133Y-52009122D01*
X108032466Y-51475789D02*
X108032466Y-51709122D01*
X108399133Y-51709122D02*
X107699133Y-51709122D01*
X107699133Y-51709122D02*
X107699133Y-51375789D01*
X122322466Y-95687544D02*
X122322466Y-95154211D01*
X122589133Y-95420877D02*
X122055800Y-95420877D01*
X121889133Y-94487544D02*
X121889133Y-94820877D01*
X121889133Y-94820877D02*
X122222466Y-94854210D01*
X122222466Y-94854210D02*
X122189133Y-94820877D01*
X122189133Y-94820877D02*
X122155800Y-94754210D01*
X122155800Y-94754210D02*
X122155800Y-94587544D01*
X122155800Y-94587544D02*
X122189133Y-94520877D01*
X122189133Y-94520877D02*
X122222466Y-94487544D01*
X122222466Y-94487544D02*
X122289133Y-94454210D01*
X122289133Y-94454210D02*
X122455800Y-94454210D01*
X122455800Y-94454210D02*
X122522466Y-94487544D01*
X122522466Y-94487544D02*
X122555800Y-94520877D01*
X122555800Y-94520877D02*
X122589133Y-94587544D01*
X122589133Y-94587544D02*
X122589133Y-94754210D01*
X122589133Y-94754210D02*
X122555800Y-94820877D01*
X122555800Y-94820877D02*
X122522466Y-94854210D01*
X121889133Y-94254210D02*
X122589133Y-94020877D01*
X122589133Y-94020877D02*
X121889133Y-93787543D01*
X119782466Y-95557544D02*
X119782466Y-95024211D01*
X120049133Y-95290877D02*
X119515800Y-95290877D01*
X119349133Y-94757544D02*
X119349133Y-94324210D01*
X119349133Y-94324210D02*
X119615800Y-94557544D01*
X119615800Y-94557544D02*
X119615800Y-94457544D01*
X119615800Y-94457544D02*
X119649133Y-94390877D01*
X119649133Y-94390877D02*
X119682466Y-94357544D01*
X119682466Y-94357544D02*
X119749133Y-94324210D01*
X119749133Y-94324210D02*
X119915800Y-94324210D01*
X119915800Y-94324210D02*
X119982466Y-94357544D01*
X119982466Y-94357544D02*
X120015800Y-94390877D01*
X120015800Y-94390877D02*
X120049133Y-94457544D01*
X120049133Y-94457544D02*
X120049133Y-94657544D01*
X120049133Y-94657544D02*
X120015800Y-94724210D01*
X120015800Y-94724210D02*
X119982466Y-94757544D01*
X119349133Y-94124210D02*
X120049133Y-93890877D01*
X120049133Y-93890877D02*
X119349133Y-93657543D01*
X105835800Y-53109122D02*
X105869133Y-53009122D01*
X105869133Y-53009122D02*
X105869133Y-52842456D01*
X105869133Y-52842456D02*
X105835800Y-52775789D01*
X105835800Y-52775789D02*
X105802466Y-52742456D01*
X105802466Y-52742456D02*
X105735800Y-52709122D01*
X105735800Y-52709122D02*
X105669133Y-52709122D01*
X105669133Y-52709122D02*
X105602466Y-52742456D01*
X105602466Y-52742456D02*
X105569133Y-52775789D01*
X105569133Y-52775789D02*
X105535800Y-52842456D01*
X105535800Y-52842456D02*
X105502466Y-52975789D01*
X105502466Y-52975789D02*
X105469133Y-53042456D01*
X105469133Y-53042456D02*
X105435800Y-53075789D01*
X105435800Y-53075789D02*
X105369133Y-53109122D01*
X105369133Y-53109122D02*
X105302466Y-53109122D01*
X105302466Y-53109122D02*
X105235800Y-53075789D01*
X105235800Y-53075789D02*
X105202466Y-53042456D01*
X105202466Y-53042456D02*
X105169133Y-52975789D01*
X105169133Y-52975789D02*
X105169133Y-52809122D01*
X105169133Y-52809122D02*
X105202466Y-52709122D01*
X105869133Y-52409122D02*
X105169133Y-52409122D01*
X105169133Y-52409122D02*
X105169133Y-52242455D01*
X105169133Y-52242455D02*
X105202466Y-52142455D01*
X105202466Y-52142455D02*
X105269133Y-52075789D01*
X105269133Y-52075789D02*
X105335800Y-52042455D01*
X105335800Y-52042455D02*
X105469133Y-52009122D01*
X105469133Y-52009122D02*
X105569133Y-52009122D01*
X105569133Y-52009122D02*
X105702466Y-52042455D01*
X105702466Y-52042455D02*
X105769133Y-52075789D01*
X105769133Y-52075789D02*
X105835800Y-52142455D01*
X105835800Y-52142455D02*
X105869133Y-52242455D01*
X105869133Y-52242455D02*
X105869133Y-52409122D01*
X105669133Y-51742455D02*
X105669133Y-51409122D01*
X105869133Y-51809122D02*
X105169133Y-51575789D01*
X105169133Y-51575789D02*
X105869133Y-51342455D01*
X118302466Y-53182456D02*
X118269133Y-53149123D01*
X118269133Y-53149123D02*
X118235800Y-53082456D01*
X118235800Y-53082456D02*
X118302466Y-52949123D01*
X118302466Y-52949123D02*
X118269133Y-52882456D01*
X118269133Y-52882456D02*
X118235800Y-52849123D01*
X118569133Y-52215789D02*
X118569133Y-52615789D01*
X118569133Y-52415789D02*
X117869133Y-52415789D01*
X117869133Y-52415789D02*
X117969133Y-52482456D01*
X117969133Y-52482456D02*
X118035800Y-52549123D01*
X118035800Y-52549123D02*
X118069133Y-52615789D01*
X118569133Y-51549122D02*
X118569133Y-51949122D01*
X118569133Y-51749122D02*
X117869133Y-51749122D01*
X117869133Y-51749122D02*
X117969133Y-51815789D01*
X117969133Y-51815789D02*
X118035800Y-51882456D01*
X118035800Y-51882456D02*
X118069133Y-51949122D01*
X113489133Y-52205789D02*
X113489133Y-52605789D01*
X113489133Y-52405789D02*
X112789133Y-52405789D01*
X112789133Y-52405789D02*
X112889133Y-52472456D01*
X112889133Y-52472456D02*
X112955800Y-52539123D01*
X112955800Y-52539123D02*
X112989133Y-52605789D01*
X112789133Y-51972456D02*
X112789133Y-51539122D01*
X112789133Y-51539122D02*
X113055800Y-51772456D01*
X113055800Y-51772456D02*
X113055800Y-51672456D01*
X113055800Y-51672456D02*
X113089133Y-51605789D01*
X113089133Y-51605789D02*
X113122466Y-51572456D01*
X113122466Y-51572456D02*
X113189133Y-51539122D01*
X113189133Y-51539122D02*
X113355800Y-51539122D01*
X113355800Y-51539122D02*
X113422466Y-51572456D01*
X113422466Y-51572456D02*
X113455800Y-51605789D01*
X113455800Y-51605789D02*
X113489133Y-51672456D01*
X113489133Y-51672456D02*
X113489133Y-51872456D01*
X113489133Y-51872456D02*
X113455800Y-51939122D01*
X113455800Y-51939122D02*
X113422466Y-51972456D01*
X114969133Y-95557544D02*
X114269133Y-95557544D01*
X114269133Y-95090878D02*
X114269133Y-94957544D01*
X114269133Y-94957544D02*
X114302466Y-94890878D01*
X114302466Y-94890878D02*
X114369133Y-94824211D01*
X114369133Y-94824211D02*
X114502466Y-94790878D01*
X114502466Y-94790878D02*
X114735800Y-94790878D01*
X114735800Y-94790878D02*
X114869133Y-94824211D01*
X114869133Y-94824211D02*
X114935800Y-94890878D01*
X114935800Y-94890878D02*
X114969133Y-94957544D01*
X114969133Y-94957544D02*
X114969133Y-95090878D01*
X114969133Y-95090878D02*
X114935800Y-95157544D01*
X114935800Y-95157544D02*
X114869133Y-95224211D01*
X114869133Y-95224211D02*
X114735800Y-95257544D01*
X114735800Y-95257544D02*
X114502466Y-95257544D01*
X114502466Y-95257544D02*
X114369133Y-95224211D01*
X114369133Y-95224211D02*
X114302466Y-95157544D01*
X114302466Y-95157544D02*
X114269133Y-95090878D01*
X114969133Y-94090878D02*
X114635800Y-94324211D01*
X114969133Y-94490878D02*
X114269133Y-94490878D01*
X114269133Y-94490878D02*
X114269133Y-94224211D01*
X114269133Y-94224211D02*
X114302466Y-94157545D01*
X114302466Y-94157545D02*
X114335800Y-94124211D01*
X114335800Y-94124211D02*
X114402466Y-94090878D01*
X114402466Y-94090878D02*
X114502466Y-94090878D01*
X114502466Y-94090878D02*
X114569133Y-94124211D01*
X114569133Y-94124211D02*
X114602466Y-94157545D01*
X114602466Y-94157545D02*
X114635800Y-94224211D01*
X114635800Y-94224211D02*
X114635800Y-94490878D01*
X114602466Y-93790878D02*
X114602466Y-93557545D01*
X114969133Y-93457545D02*
X114969133Y-93790878D01*
X114969133Y-93790878D02*
X114269133Y-93790878D01*
X114269133Y-93790878D02*
X114269133Y-93457545D01*
X114602466Y-92924212D02*
X114602466Y-93157545D01*
X114969133Y-93157545D02*
X114269133Y-93157545D01*
X114269133Y-93157545D02*
X114269133Y-92824212D01*
X116029133Y-52205789D02*
X116029133Y-52605789D01*
X116029133Y-52405789D02*
X115329133Y-52405789D01*
X115329133Y-52405789D02*
X115429133Y-52472456D01*
X115429133Y-52472456D02*
X115495800Y-52539123D01*
X115495800Y-52539123D02*
X115529133Y-52605789D01*
X115395800Y-51939122D02*
X115362466Y-51905789D01*
X115362466Y-51905789D02*
X115329133Y-51839122D01*
X115329133Y-51839122D02*
X115329133Y-51672456D01*
X115329133Y-51672456D02*
X115362466Y-51605789D01*
X115362466Y-51605789D02*
X115395800Y-51572456D01*
X115395800Y-51572456D02*
X115462466Y-51539122D01*
X115462466Y-51539122D02*
X115529133Y-51539122D01*
X115529133Y-51539122D02*
X115629133Y-51572456D01*
X115629133Y-51572456D02*
X116029133Y-51972456D01*
X116029133Y-51972456D02*
X116029133Y-51539122D01*
X129499133Y-95797544D02*
X130199133Y-95564211D01*
X130199133Y-95564211D02*
X129499133Y-95330877D01*
X130199133Y-95097544D02*
X129732466Y-95097544D01*
X129499133Y-95097544D02*
X129532466Y-95130877D01*
X129532466Y-95130877D02*
X129565800Y-95097544D01*
X129565800Y-95097544D02*
X129532466Y-95064211D01*
X129532466Y-95064211D02*
X129499133Y-95097544D01*
X129499133Y-95097544D02*
X129565800Y-95097544D01*
X129732466Y-94764211D02*
X130199133Y-94764211D01*
X129799133Y-94764211D02*
X129765800Y-94730878D01*
X129765800Y-94730878D02*
X129732466Y-94664211D01*
X129732466Y-94664211D02*
X129732466Y-94564211D01*
X129732466Y-94564211D02*
X129765800Y-94497544D01*
X129765800Y-94497544D02*
X129832466Y-94464211D01*
X129832466Y-94464211D02*
X130199133Y-94464211D01*
X137559133Y-95570877D02*
X137559133Y-95237544D01*
X137759133Y-95637544D02*
X137059133Y-95404211D01*
X137059133Y-95404211D02*
X137759133Y-95170877D01*
X137759133Y-94570877D02*
X137759133Y-94970877D01*
X137759133Y-94770877D02*
X137059133Y-94770877D01*
X137059133Y-94770877D02*
X137159133Y-94837544D01*
X137159133Y-94837544D02*
X137225800Y-94904211D01*
X137225800Y-94904211D02*
X137259133Y-94970877D01*
X129529133Y-51832456D02*
X129529133Y-51365789D01*
X129529133Y-51365789D02*
X130229133Y-51665789D01*
D11*
G36*
X102375000Y-97473563D02*
G01*
X101999293Y-97524671D01*
X101999293Y-98089971D01*
X102375000Y-98292387D01*
X102375000Y-98552964D01*
X100903681Y-97708860D01*
X100903681Y-97623681D01*
X101120568Y-97623681D01*
X101120568Y-97627619D01*
X101213075Y-97666912D01*
X101800540Y-97986473D01*
X101800540Y-97546561D01*
X101213075Y-97623864D01*
X101120568Y-97623681D01*
X100903681Y-97623681D01*
X100903681Y-97440224D01*
X102375000Y-97211887D01*
X102375000Y-97473563D01*
G37*
G36*
X101554344Y-96242854D02*
G01*
X101536044Y-96268449D01*
X101523817Y-96305172D01*
X101519173Y-96356885D01*
X101529037Y-96421801D01*
X101559525Y-96485159D01*
X101614427Y-96549043D01*
X101682391Y-96600404D01*
X101767561Y-96641687D01*
X101873355Y-96672049D01*
X102375000Y-96776372D01*
X102375000Y-97008921D01*
X101325732Y-96790751D01*
X101325732Y-96558202D01*
X101542803Y-96603356D01*
X101542803Y-96599326D01*
X101472440Y-96556938D01*
X101415439Y-96510082D01*
X101370154Y-96458734D01*
X101334782Y-96400678D01*
X101314681Y-96344149D01*
X101308147Y-96287916D01*
X101313854Y-96229686D01*
X101327747Y-96195776D01*
X101554344Y-96242854D01*
G37*
G36*
X102375000Y-95299099D02*
G01*
X102375000Y-95531649D01*
X102195481Y-95494371D01*
X102195481Y-95498310D01*
X102270866Y-95565689D01*
X102327162Y-95637254D01*
X102366597Y-95713669D01*
X102390347Y-95796131D01*
X102398447Y-95886290D01*
X102388825Y-95978177D01*
X102361906Y-96052113D01*
X102318745Y-96112029D01*
X102257855Y-96160239D01*
X102187157Y-96192198D01*
X102102208Y-96210015D01*
X101999503Y-96211842D01*
X101874912Y-96194402D01*
X101746989Y-96159313D01*
X101636380Y-96111935D01*
X101540872Y-96052873D01*
X101458722Y-95982094D01*
X101389041Y-95897903D01*
X101340783Y-95809513D01*
X101312020Y-95715592D01*
X101302285Y-95614264D01*
X101303871Y-95597503D01*
X101491878Y-95597503D01*
X101502820Y-95680252D01*
X101535252Y-95754639D01*
X101590980Y-95823183D01*
X101661988Y-95878005D01*
X101752221Y-95922263D01*
X101865662Y-95954983D01*
X101971764Y-95967757D01*
X102053723Y-95959964D01*
X102117445Y-95935657D01*
X102157570Y-95905420D01*
X102185902Y-95867543D01*
X102203548Y-95820547D01*
X102209861Y-95761817D01*
X102200088Y-95685826D01*
X102170904Y-95615876D01*
X102120560Y-95549876D01*
X102056443Y-95495671D01*
X101981986Y-95455427D01*
X101895337Y-95428884D01*
X101758408Y-95400399D01*
X101685477Y-95393778D01*
X101623558Y-95404828D01*
X101569548Y-95432364D01*
X101527003Y-95474286D01*
X101501123Y-95528049D01*
X101491878Y-95597503D01*
X101303871Y-95597503D01*
X101310012Y-95532598D01*
X101331347Y-95468174D01*
X101364883Y-95417270D01*
X101411135Y-95377458D01*
X101472461Y-95347917D01*
X101472461Y-95343979D01*
X100821615Y-95208699D01*
X100821615Y-94976149D01*
X102375000Y-95299099D01*
G37*
G36*
X102375000Y-94072420D02*
G01*
X102375000Y-94305061D01*
X102207846Y-94270348D01*
X102207846Y-94274287D01*
X102278886Y-94335992D01*
X102331758Y-94401432D01*
X102368689Y-94471197D01*
X102390884Y-94546392D01*
X102398447Y-94628561D01*
X102388673Y-94726233D01*
X102362330Y-94798591D01*
X102321608Y-94851852D01*
X102265440Y-94889693D01*
X102189721Y-94912610D01*
X102087994Y-94917801D01*
X101952124Y-94899579D01*
X101325732Y-94769337D01*
X101325732Y-94536878D01*
X101927394Y-94661992D01*
X102026994Y-94674542D01*
X102097390Y-94668256D01*
X102146597Y-94648315D01*
X102180496Y-94616580D01*
X102201898Y-94571222D01*
X102209861Y-94507203D01*
X102201411Y-94441368D01*
X102176044Y-94379944D01*
X102132100Y-94321181D01*
X102075994Y-94273009D01*
X102008813Y-94236670D01*
X101928493Y-94212188D01*
X101325732Y-94086892D01*
X101325732Y-93854250D01*
X102375000Y-94072420D01*
G37*
G36*
X101102983Y-93359109D02*
G01*
X101093177Y-93410866D01*
X101065064Y-93448960D01*
X101038194Y-93465496D01*
X101006734Y-93472530D01*
X100968710Y-93469476D01*
X100915416Y-93448345D01*
X100871349Y-93408660D01*
X100841937Y-93357254D01*
X100832423Y-93302872D01*
X100842536Y-93249337D01*
X100871349Y-93210640D01*
X100898872Y-93193862D01*
X100930695Y-93186738D01*
X100968710Y-93189757D01*
X101019392Y-93210253D01*
X101063507Y-93250573D01*
X101093278Y-93302845D01*
X101102983Y-93359109D01*
G37*
G36*
X102375000Y-93509868D02*
G01*
X102375000Y-93742418D01*
X101325732Y-93524248D01*
X101325732Y-93291698D01*
X102375000Y-93509868D01*
G37*
G36*
X102375000Y-92280258D02*
G01*
X102375000Y-92512716D01*
X101784512Y-92389984D01*
X101679172Y-92376145D01*
X101605390Y-92381414D01*
X101554541Y-92400249D01*
X101520135Y-92430283D01*
X101498758Y-92472808D01*
X101490871Y-92532408D01*
X101499670Y-92600121D01*
X101526159Y-92663631D01*
X101572204Y-92724749D01*
X101630662Y-92775053D01*
X101698484Y-92812195D01*
X101777368Y-92836490D01*
X102375000Y-92960779D01*
X102375000Y-93194337D01*
X101325732Y-92976167D01*
X101325732Y-92742609D01*
X101501129Y-92779063D01*
X101501129Y-92775033D01*
X101426474Y-92706698D01*
X101371189Y-92635939D01*
X101332846Y-92562159D01*
X101310002Y-92484312D01*
X101302285Y-92400975D01*
X101310258Y-92318656D01*
X101332109Y-92255014D01*
X101366277Y-92205853D01*
X101413385Y-92168517D01*
X101468823Y-92144574D01*
X101538247Y-92131458D01*
X101625296Y-92131210D01*
X101734228Y-92147084D01*
X102375000Y-92280258D01*
G37*
G36*
X101846244Y-90870030D02*
G01*
X101968155Y-90904900D01*
X102074393Y-90954596D01*
X102167068Y-91018873D01*
X102247688Y-91098367D01*
X102313513Y-91190482D01*
X102360244Y-91290175D01*
X102388684Y-91399012D01*
X102398447Y-91519044D01*
X102388054Y-91636526D01*
X102359215Y-91730933D01*
X102313867Y-91806973D01*
X102251718Y-91867915D01*
X102176350Y-91911775D01*
X102088709Y-91937521D01*
X101985501Y-91944207D01*
X101862639Y-91928823D01*
X101733818Y-91892129D01*
X101623835Y-91840801D01*
X101530059Y-91775357D01*
X101450571Y-91695357D01*
X101386084Y-91602202D01*
X101340077Y-91500762D01*
X101311963Y-91389416D01*
X101306475Y-91319467D01*
X101491878Y-91319467D01*
X101502713Y-91406416D01*
X101534644Y-91484155D01*
X101588965Y-91555223D01*
X101658965Y-91612534D01*
X101746926Y-91657717D01*
X101856502Y-91690045D01*
X101965550Y-91702369D01*
X102049752Y-91692197D01*
X102115430Y-91663667D01*
X102156028Y-91629576D01*
X102185076Y-91587058D01*
X102203318Y-91534380D01*
X102209861Y-91468761D01*
X102199266Y-91381074D01*
X102168510Y-91305275D01*
X102116987Y-91238501D01*
X102049904Y-91185123D01*
X101963134Y-91141884D01*
X101852381Y-91109815D01*
X101737216Y-91095608D01*
X101650796Y-91103328D01*
X101585851Y-91128042D01*
X101545807Y-91159179D01*
X101516931Y-91199861D01*
X101498559Y-91252168D01*
X101491878Y-91319467D01*
X101306475Y-91319467D01*
X101302285Y-91266070D01*
X101312702Y-91146602D01*
X101341331Y-91052613D01*
X101385885Y-90978736D01*
X101446449Y-90921229D01*
X101519941Y-90881060D01*
X101608298Y-90857685D01*
X101715463Y-90852781D01*
X101846244Y-90870030D01*
G37*
G36*
X101779200Y-88884885D02*
G01*
X101935286Y-88927795D01*
X102062710Y-88983659D01*
X102165865Y-89051161D01*
X102248230Y-89129990D01*
X102312193Y-89220862D01*
X102358896Y-89325476D01*
X102388150Y-89446387D01*
X102398447Y-89586839D01*
X102389840Y-89709168D01*
X102366343Y-89805601D01*
X102330428Y-89881207D01*
X102283050Y-89939968D01*
X102223550Y-89984474D01*
X102149727Y-90015649D01*
X102058099Y-90032629D01*
X101944203Y-90032854D01*
X101802830Y-90012280D01*
X100903681Y-89825342D01*
X100903681Y-89586748D01*
X101752638Y-89763244D01*
X101886332Y-89781679D01*
X101985828Y-89777857D01*
X102059217Y-89757390D01*
X102113008Y-89723292D01*
X102151523Y-89675546D01*
X102176202Y-89611126D01*
X102185314Y-89524557D01*
X102177155Y-89440479D01*
X102153703Y-89367633D01*
X102115321Y-89303704D01*
X102060807Y-89247169D01*
X101987511Y-89197454D01*
X101891549Y-89154980D01*
X101768025Y-89121099D01*
X100903681Y-88941397D01*
X100903681Y-88702802D01*
X101779200Y-88884885D01*
G37*
G36*
X102375000Y-87419795D02*
G01*
X102375000Y-87680371D01*
X101293584Y-88142082D01*
X101208404Y-88167452D01*
X101208404Y-88173497D01*
X101268488Y-88180629D01*
X101410546Y-88207569D01*
X102375000Y-88408062D01*
X102375000Y-88638505D01*
X100903681Y-88332591D01*
X100903681Y-88054979D01*
X101959451Y-87611037D01*
X102049760Y-87575683D01*
X102049760Y-87571653D01*
X101981473Y-87564421D01*
X101851740Y-87540512D01*
X100903681Y-87343408D01*
X100903681Y-87113880D01*
X102375000Y-87419795D01*
G37*
G36*
X101484183Y-85563462D02*
G01*
X101620930Y-85583302D01*
X101764052Y-85621283D01*
X101890810Y-85671377D01*
X102003027Y-85733020D01*
X102102214Y-85806100D01*
X102189528Y-85890956D01*
X102265281Y-85988253D01*
X102323313Y-86090804D01*
X102364714Y-86199514D01*
X102389869Y-86315593D01*
X102398447Y-86440503D01*
X102389117Y-86565222D01*
X102362873Y-86670008D01*
X102321378Y-86758324D01*
X102264954Y-86832860D01*
X102192550Y-86895344D01*
X102109611Y-86942517D01*
X102016749Y-86974494D01*
X101911981Y-86990956D01*
X101792891Y-86990541D01*
X101656742Y-86970907D01*
X101516046Y-86933470D01*
X101390685Y-86883687D01*
X101278972Y-86822043D01*
X101179513Y-86748578D01*
X101091259Y-86662886D01*
X101015057Y-86565120D01*
X100956485Y-86461258D01*
X100914551Y-86350326D01*
X100888980Y-86231029D01*
X100884064Y-86158402D01*
X101094373Y-86158402D01*
X101103631Y-86253689D01*
X101131138Y-86343154D01*
X101177564Y-86428495D01*
X101244949Y-86510936D01*
X101324218Y-86580505D01*
X101415607Y-86638057D01*
X101520655Y-86683749D01*
X101641355Y-86717108D01*
X101766640Y-86734357D01*
X101871731Y-86731959D01*
X101960373Y-86712919D01*
X102035746Y-86678823D01*
X102100905Y-86627926D01*
X102146783Y-86565443D01*
X102175206Y-86489153D01*
X102185314Y-86395165D01*
X102176248Y-86294624D01*
X102149709Y-86203065D01*
X102105712Y-86118606D01*
X102042982Y-86039883D01*
X101968053Y-85973936D01*
X101878199Y-85918060D01*
X101771245Y-85872416D01*
X101644469Y-85837834D01*
X101508304Y-85818317D01*
X101398391Y-85819364D01*
X101309662Y-85837041D01*
X101237805Y-85868975D01*
X101176273Y-85917982D01*
X101132197Y-85980396D01*
X101104399Y-86059011D01*
X101094373Y-86158402D01*
X100884064Y-86158402D01*
X100880233Y-86101799D01*
X100889451Y-85980603D01*
X100915434Y-85878427D01*
X100956624Y-85791957D01*
X101012806Y-85718636D01*
X101085122Y-85656850D01*
X101167541Y-85610380D01*
X101260104Y-85578901D01*
X101364834Y-85562789D01*
X101484183Y-85563462D01*
G37*
G36*
X102315465Y-84918717D02*
G01*
X102064323Y-84866510D01*
X102093036Y-84837037D01*
X102119735Y-84799374D01*
X102161226Y-84711263D01*
X102187421Y-84614452D01*
X102196580Y-84522219D01*
X102189981Y-84422758D01*
X102172180Y-84346089D01*
X102145381Y-84287563D01*
X102105908Y-84238293D01*
X102057054Y-84203877D01*
X101996912Y-84183058D01*
X101946753Y-84179123D01*
X101906328Y-84188736D01*
X101870237Y-84210017D01*
X101836078Y-84242867D01*
X101805825Y-84283068D01*
X101775170Y-84333908D01*
X101714170Y-84448947D01*
X101633295Y-84568381D01*
X101589518Y-84619051D01*
X101542620Y-84659331D01*
X101489960Y-84689808D01*
X101430421Y-84709157D01*
X101365274Y-84715013D01*
X101283875Y-84705218D01*
X101216988Y-84686095D01*
X101157375Y-84658437D01*
X101104082Y-84622237D01*
X101034486Y-84554936D01*
X100978144Y-84475783D01*
X100935024Y-84387493D01*
X100904322Y-84290586D01*
X100886202Y-84190167D01*
X100880233Y-84091100D01*
X100887733Y-83939427D01*
X100906621Y-83837989D01*
X100932532Y-83773371D01*
X101173325Y-83823380D01*
X101135820Y-83877127D01*
X101107701Y-83942678D01*
X101089615Y-84022443D01*
X101083107Y-84119402D01*
X101093366Y-84227205D01*
X101107077Y-84280244D01*
X101127163Y-84328413D01*
X101154200Y-84371941D01*
X101187613Y-84408647D01*
X101227993Y-84436450D01*
X101276731Y-84453160D01*
X101324112Y-84457668D01*
X101361819Y-84450870D01*
X101395507Y-84433711D01*
X101427307Y-84405899D01*
X101455610Y-84370569D01*
X101485192Y-84323742D01*
X101546100Y-84207513D01*
X101630181Y-84083224D01*
X101677069Y-84029674D01*
X101727542Y-83986137D01*
X101783639Y-83952488D01*
X101845786Y-83930541D01*
X101913089Y-83922836D01*
X101993797Y-83931823D01*
X102066221Y-83952036D01*
X102128605Y-83979891D01*
X102182292Y-84015080D01*
X102251976Y-84081331D01*
X102307314Y-84159885D01*
X102348482Y-84248036D01*
X102376923Y-84346181D01*
X102393013Y-84448980D01*
X102398447Y-84556108D01*
X102392768Y-84643669D01*
X102376373Y-84747991D01*
X102350270Y-84846818D01*
X102332951Y-84889626D01*
X102315465Y-84918717D01*
G37*
G36*
X102375000Y-82835936D02*
G01*
X102375000Y-83068486D01*
X101801914Y-82949326D01*
X101689083Y-82934147D01*
X101610514Y-82938879D01*
X101556861Y-82957567D01*
X101520994Y-82987439D01*
X101498954Y-83029468D01*
X101490871Y-83088087D01*
X101500261Y-83152723D01*
X101529182Y-83215790D01*
X101580905Y-83279237D01*
X101645249Y-83331017D01*
X101721307Y-83370374D01*
X101811165Y-83397206D01*
X102375000Y-83514443D01*
X102375000Y-83748000D01*
X100821615Y-83425050D01*
X100821615Y-83191493D01*
X101501129Y-83332726D01*
X101501129Y-83328696D01*
X101426380Y-83259896D01*
X101371077Y-83188896D01*
X101332768Y-83115104D01*
X101309974Y-83037486D01*
X101302285Y-82954638D01*
X101311540Y-82863330D01*
X101336516Y-82795611D01*
X101375215Y-82745679D01*
X101428762Y-82710157D01*
X101501167Y-82688690D01*
X101598669Y-82684037D01*
X101729099Y-82701664D01*
X102375000Y-82835936D01*
G37*
G36*
X101102983Y-82142500D02*
G01*
X101093177Y-82194257D01*
X101065064Y-82232351D01*
X101038194Y-82248887D01*
X101006734Y-82255922D01*
X100968710Y-82252868D01*
X100915416Y-82231737D01*
X100871349Y-82192051D01*
X100841937Y-82140646D01*
X100832423Y-82086263D01*
X100842536Y-82032729D01*
X100871349Y-81994031D01*
X100898872Y-81977254D01*
X100930695Y-81970130D01*
X100968710Y-81973148D01*
X101019392Y-81993644D01*
X101063507Y-82033965D01*
X101093278Y-82086236D01*
X101102983Y-82142500D01*
G37*
G36*
X102375000Y-82293259D02*
G01*
X102375000Y-82525809D01*
X101325732Y-82307639D01*
X101325732Y-82075089D01*
X102375000Y-82293259D01*
G37*
G36*
X101824720Y-80994315D02*
G01*
X101915853Y-81013274D01*
X101915853Y-81712847D01*
X102010580Y-81719527D01*
X102082842Y-81704686D01*
X102138786Y-81671539D01*
X102180364Y-81621223D01*
X102207153Y-81552089D01*
X102217096Y-81457857D01*
X102206394Y-81350963D01*
X102173727Y-81244036D01*
X102117079Y-81135273D01*
X102308413Y-81175024D01*
X102346447Y-81255474D01*
X102374589Y-81346170D01*
X102392261Y-81448621D01*
X102398447Y-81564561D01*
X102388267Y-81676551D01*
X102360175Y-81765145D01*
X102316164Y-81835294D01*
X102255840Y-81890350D01*
X102183441Y-81928080D01*
X102095328Y-81949822D01*
X101987349Y-81953616D01*
X101854487Y-81935596D01*
X101735703Y-81901713D01*
X101630858Y-81853051D01*
X101538113Y-81789719D01*
X101456158Y-81711015D01*
X101387294Y-81619343D01*
X101339795Y-81525607D01*
X101311701Y-81428592D01*
X101305933Y-81366174D01*
X101477499Y-81366174D01*
X101485538Y-81430283D01*
X101509865Y-81491549D01*
X101552237Y-81551555D01*
X101606152Y-81602638D01*
X101670807Y-81644720D01*
X101747784Y-81677859D01*
X101747784Y-81202776D01*
X101662668Y-81193313D01*
X101598012Y-81200405D01*
X101548665Y-81220636D01*
X101509988Y-81254933D01*
X101486175Y-81301975D01*
X101477499Y-81366174D01*
X101305933Y-81366174D01*
X101302285Y-81326699D01*
X101312158Y-81223081D01*
X101339324Y-81142066D01*
X101381908Y-81078694D01*
X101440587Y-81029760D01*
X101510226Y-80997117D01*
X101594819Y-80978755D01*
X101698154Y-80976647D01*
X101824720Y-80994315D01*
G37*
G36*
X102375000Y-80628958D02*
G01*
X102375000Y-80862515D01*
X100821615Y-80539565D01*
X100821615Y-80306008D01*
X102375000Y-80628958D01*
G37*
G36*
X102375000Y-79381304D02*
G01*
X102375000Y-79613854D01*
X102195481Y-79576577D01*
X102195481Y-79580515D01*
X102270866Y-79647895D01*
X102327162Y-79719460D01*
X102366597Y-79795874D01*
X102390347Y-79878337D01*
X102398447Y-79968495D01*
X102388825Y-80060382D01*
X102361906Y-80134318D01*
X102318745Y-80194234D01*
X102257855Y-80242444D01*
X102187157Y-80274403D01*
X102102208Y-80292220D01*
X101999503Y-80294048D01*
X101874912Y-80276607D01*
X101746989Y-80241518D01*
X101636380Y-80194140D01*
X101540872Y-80135078D01*
X101458722Y-80064299D01*
X101389041Y-79980108D01*
X101340783Y-79891718D01*
X101312020Y-79797798D01*
X101302285Y-79696469D01*
X101303871Y-79679708D01*
X101491878Y-79679708D01*
X101502820Y-79762457D01*
X101535252Y-79836844D01*
X101590980Y-79905389D01*
X101661988Y-79960210D01*
X101752221Y-80004468D01*
X101865662Y-80037188D01*
X101971764Y-80049962D01*
X102053723Y-80042169D01*
X102117445Y-80017862D01*
X102157570Y-79987625D01*
X102185902Y-79949749D01*
X102203548Y-79902752D01*
X102209861Y-79844023D01*
X102200088Y-79768031D01*
X102170904Y-79698081D01*
X102120560Y-79632081D01*
X102056443Y-79577876D01*
X101981986Y-79537633D01*
X101895337Y-79511089D01*
X101758408Y-79482604D01*
X101685477Y-79475984D01*
X101623558Y-79487033D01*
X101569548Y-79514569D01*
X101527003Y-79556491D01*
X101501123Y-79610255D01*
X101491878Y-79679708D01*
X101303871Y-79679708D01*
X101310012Y-79614803D01*
X101331347Y-79550379D01*
X101364883Y-79499475D01*
X101411135Y-79459663D01*
X101472461Y-79430122D01*
X101472461Y-79426184D01*
X100821615Y-79290904D01*
X100821615Y-79058354D01*
X102375000Y-79381304D01*
G37*
D10*
X140089133Y-95570877D02*
X140089133Y-95237544D01*
X140289133Y-95637544D02*
X139589133Y-95404211D01*
X139589133Y-95404211D02*
X140289133Y-95170877D01*
X139655800Y-94970877D02*
X139622466Y-94937544D01*
X139622466Y-94937544D02*
X139589133Y-94870877D01*
X139589133Y-94870877D02*
X139589133Y-94704211D01*
X139589133Y-94704211D02*
X139622466Y-94637544D01*
X139622466Y-94637544D02*
X139655800Y-94604211D01*
X139655800Y-94604211D02*
X139722466Y-94570877D01*
X139722466Y-94570877D02*
X139789133Y-94570877D01*
X139789133Y-94570877D02*
X139889133Y-94604211D01*
X139889133Y-94604211D02*
X140289133Y-95004211D01*
X140289133Y-95004211D02*
X140289133Y-94570877D01*
X123362466Y-52465789D02*
X123329133Y-52432456D01*
X123329133Y-52432456D02*
X123295800Y-52365789D01*
X123295800Y-52365789D02*
X123362466Y-52232456D01*
X123362466Y-52232456D02*
X123329133Y-52165789D01*
X123329133Y-52165789D02*
X123295800Y-52132456D01*
X123629133Y-51832456D02*
X123629133Y-51699122D01*
X123629133Y-51699122D02*
X123595800Y-51632456D01*
X123595800Y-51632456D02*
X123562466Y-51599122D01*
X123562466Y-51599122D02*
X123462466Y-51532456D01*
X123462466Y-51532456D02*
X123329133Y-51499122D01*
X123329133Y-51499122D02*
X123062466Y-51499122D01*
X123062466Y-51499122D02*
X122995800Y-51532456D01*
X122995800Y-51532456D02*
X122962466Y-51565789D01*
X122962466Y-51565789D02*
X122929133Y-51632456D01*
X122929133Y-51632456D02*
X122929133Y-51765789D01*
X122929133Y-51765789D02*
X122962466Y-51832456D01*
X122962466Y-51832456D02*
X122995800Y-51865789D01*
X122995800Y-51865789D02*
X123062466Y-51899122D01*
X123062466Y-51899122D02*
X123229133Y-51899122D01*
X123229133Y-51899122D02*
X123295800Y-51865789D01*
X123295800Y-51865789D02*
X123329133Y-51832456D01*
X123329133Y-51832456D02*
X123362466Y-51765789D01*
X123362466Y-51765789D02*
X123362466Y-51632456D01*
X123362466Y-51632456D02*
X123329133Y-51565789D01*
X123329133Y-51565789D02*
X123295800Y-51532456D01*
X123295800Y-51532456D02*
X123229133Y-51499122D01*
X124462466Y-95320877D02*
X124429133Y-95387544D01*
X124429133Y-95387544D02*
X124429133Y-95487544D01*
X124429133Y-95487544D02*
X124462466Y-95587544D01*
X124462466Y-95587544D02*
X124529133Y-95654211D01*
X124529133Y-95654211D02*
X124595800Y-95687544D01*
X124595800Y-95687544D02*
X124729133Y-95720877D01*
X124729133Y-95720877D02*
X124829133Y-95720877D01*
X124829133Y-95720877D02*
X124962466Y-95687544D01*
X124962466Y-95687544D02*
X125029133Y-95654211D01*
X125029133Y-95654211D02*
X125095800Y-95587544D01*
X125095800Y-95587544D02*
X125129133Y-95487544D01*
X125129133Y-95487544D02*
X125129133Y-95420877D01*
X125129133Y-95420877D02*
X125095800Y-95320877D01*
X125095800Y-95320877D02*
X125062466Y-95287544D01*
X125062466Y-95287544D02*
X124829133Y-95287544D01*
X124829133Y-95287544D02*
X124829133Y-95420877D01*
X125129133Y-94987544D02*
X124429133Y-94987544D01*
X124429133Y-94987544D02*
X125129133Y-94587544D01*
X125129133Y-94587544D02*
X124429133Y-94587544D01*
X125129133Y-94254211D02*
X124429133Y-94254211D01*
X124429133Y-94254211D02*
X124429133Y-94087544D01*
X124429133Y-94087544D02*
X124462466Y-93987544D01*
X124462466Y-93987544D02*
X124529133Y-93920878D01*
X124529133Y-93920878D02*
X124595800Y-93887544D01*
X124595800Y-93887544D02*
X124729133Y-93854211D01*
X124729133Y-93854211D02*
X124829133Y-93854211D01*
X124829133Y-93854211D02*
X124962466Y-93887544D01*
X124962466Y-93887544D02*
X125029133Y-93920878D01*
X125029133Y-93920878D02*
X125095800Y-93987544D01*
X125095800Y-93987544D02*
X125129133Y-94087544D01*
X125129133Y-94087544D02*
X125129133Y-94254211D01*
X142295800Y-51929122D02*
X142262466Y-51895789D01*
X142262466Y-51895789D02*
X142229133Y-51829122D01*
X142229133Y-51829122D02*
X142229133Y-51662456D01*
X142229133Y-51662456D02*
X142262466Y-51595789D01*
X142262466Y-51595789D02*
X142295800Y-51562456D01*
X142295800Y-51562456D02*
X142362466Y-51529122D01*
X142362466Y-51529122D02*
X142429133Y-51529122D01*
X142429133Y-51529122D02*
X142529133Y-51562456D01*
X142529133Y-51562456D02*
X142929133Y-51962456D01*
X142929133Y-51962456D02*
X142929133Y-51529122D01*
X145179133Y-95700877D02*
X145179133Y-95367544D01*
X145379133Y-95767544D02*
X144679133Y-95534211D01*
X144679133Y-95534211D02*
X145379133Y-95300877D01*
X144912466Y-94767544D02*
X145379133Y-94767544D01*
X144645800Y-94934211D02*
X145145800Y-95100877D01*
X145145800Y-95100877D02*
X145145800Y-94667544D01*
X147999133Y-53605789D02*
X147665800Y-53839122D01*
X147999133Y-54005789D02*
X147299133Y-54005789D01*
X147299133Y-54005789D02*
X147299133Y-53739122D01*
X147299133Y-53739122D02*
X147332466Y-53672456D01*
X147332466Y-53672456D02*
X147365800Y-53639122D01*
X147365800Y-53639122D02*
X147432466Y-53605789D01*
X147432466Y-53605789D02*
X147532466Y-53605789D01*
X147532466Y-53605789D02*
X147599133Y-53639122D01*
X147599133Y-53639122D02*
X147632466Y-53672456D01*
X147632466Y-53672456D02*
X147665800Y-53739122D01*
X147665800Y-53739122D02*
X147665800Y-54005789D01*
X147299133Y-53372456D02*
X147999133Y-52905789D01*
X147299133Y-52905789D02*
X147999133Y-53372456D01*
X147265800Y-52139122D02*
X148165800Y-52739122D01*
X147299133Y-51772456D02*
X147299133Y-51705789D01*
X147299133Y-51705789D02*
X147332466Y-51639122D01*
X147332466Y-51639122D02*
X147365800Y-51605789D01*
X147365800Y-51605789D02*
X147432466Y-51572456D01*
X147432466Y-51572456D02*
X147565800Y-51539122D01*
X147565800Y-51539122D02*
X147732466Y-51539122D01*
X147732466Y-51539122D02*
X147865800Y-51572456D01*
X147865800Y-51572456D02*
X147932466Y-51605789D01*
X147932466Y-51605789D02*
X147965800Y-51639122D01*
X147965800Y-51639122D02*
X147999133Y-51705789D01*
X147999133Y-51705789D02*
X147999133Y-51772456D01*
X147999133Y-51772456D02*
X147965800Y-51839122D01*
X147965800Y-51839122D02*
X147932466Y-51872456D01*
X147932466Y-51872456D02*
X147865800Y-51905789D01*
X147865800Y-51905789D02*
X147732466Y-51939122D01*
X147732466Y-51939122D02*
X147565800Y-51939122D01*
X147565800Y-51939122D02*
X147432466Y-51905789D01*
X147432466Y-51905789D02*
X147365800Y-51872456D01*
X147365800Y-51872456D02*
X147332466Y-51839122D01*
X147332466Y-51839122D02*
X147299133Y-51772456D01*
X147719133Y-95700877D02*
X147719133Y-95367544D01*
X147919133Y-95767544D02*
X147219133Y-95534211D01*
X147219133Y-95534211D02*
X147919133Y-95300877D01*
X147219133Y-94734211D02*
X147219133Y-95067544D01*
X147219133Y-95067544D02*
X147552466Y-95100877D01*
X147552466Y-95100877D02*
X147519133Y-95067544D01*
X147519133Y-95067544D02*
X147485800Y-95000877D01*
X147485800Y-95000877D02*
X147485800Y-94834211D01*
X147485800Y-94834211D02*
X147519133Y-94767544D01*
X147519133Y-94767544D02*
X147552466Y-94734211D01*
X147552466Y-94734211D02*
X147619133Y-94700877D01*
X147619133Y-94700877D02*
X147785800Y-94700877D01*
X147785800Y-94700877D02*
X147852466Y-94734211D01*
X147852466Y-94734211D02*
X147885800Y-94767544D01*
X147885800Y-94767544D02*
X147919133Y-94834211D01*
X147919133Y-94834211D02*
X147919133Y-95000877D01*
X147919133Y-95000877D02*
X147885800Y-95067544D01*
X147885800Y-95067544D02*
X147852466Y-95100877D01*
X110282466Y-52875788D02*
X110249133Y-52942455D01*
X110249133Y-52942455D02*
X110249133Y-53042455D01*
X110249133Y-53042455D02*
X110282466Y-53142455D01*
X110282466Y-53142455D02*
X110349133Y-53209122D01*
X110349133Y-53209122D02*
X110415800Y-53242455D01*
X110415800Y-53242455D02*
X110549133Y-53275788D01*
X110549133Y-53275788D02*
X110649133Y-53275788D01*
X110649133Y-53275788D02*
X110782466Y-53242455D01*
X110782466Y-53242455D02*
X110849133Y-53209122D01*
X110849133Y-53209122D02*
X110915800Y-53142455D01*
X110915800Y-53142455D02*
X110949133Y-53042455D01*
X110949133Y-53042455D02*
X110949133Y-52975788D01*
X110949133Y-52975788D02*
X110915800Y-52875788D01*
X110915800Y-52875788D02*
X110882466Y-52842455D01*
X110882466Y-52842455D02*
X110649133Y-52842455D01*
X110649133Y-52842455D02*
X110649133Y-52975788D01*
X110949133Y-52542455D02*
X110249133Y-52542455D01*
X110249133Y-52542455D02*
X110949133Y-52142455D01*
X110949133Y-52142455D02*
X110249133Y-52142455D01*
X110949133Y-51809122D02*
X110249133Y-51809122D01*
X110249133Y-51809122D02*
X110249133Y-51642455D01*
X110249133Y-51642455D02*
X110282466Y-51542455D01*
X110282466Y-51542455D02*
X110349133Y-51475789D01*
X110349133Y-51475789D02*
X110415800Y-51442455D01*
X110415800Y-51442455D02*
X110549133Y-51409122D01*
X110549133Y-51409122D02*
X110649133Y-51409122D01*
X110649133Y-51409122D02*
X110782466Y-51442455D01*
X110782466Y-51442455D02*
X110849133Y-51475789D01*
X110849133Y-51475789D02*
X110915800Y-51542455D01*
X110915800Y-51542455D02*
X110949133Y-51642455D01*
X110949133Y-51642455D02*
X110949133Y-51809122D01*
X117499133Y-95157544D02*
X117165800Y-95390877D01*
X117499133Y-95557544D02*
X116799133Y-95557544D01*
X116799133Y-95557544D02*
X116799133Y-95290877D01*
X116799133Y-95290877D02*
X116832466Y-95224211D01*
X116832466Y-95224211D02*
X116865800Y-95190877D01*
X116865800Y-95190877D02*
X116932466Y-95157544D01*
X116932466Y-95157544D02*
X117032466Y-95157544D01*
X117032466Y-95157544D02*
X117099133Y-95190877D01*
X117099133Y-95190877D02*
X117132466Y-95224211D01*
X117132466Y-95224211D02*
X117165800Y-95290877D01*
X117165800Y-95290877D02*
X117165800Y-95557544D01*
X117132466Y-94857544D02*
X117132466Y-94624211D01*
X117499133Y-94524211D02*
X117499133Y-94857544D01*
X117499133Y-94857544D02*
X116799133Y-94857544D01*
X116799133Y-94857544D02*
X116799133Y-94524211D01*
X117465800Y-94257544D02*
X117499133Y-94157544D01*
X117499133Y-94157544D02*
X117499133Y-93990878D01*
X117499133Y-93990878D02*
X117465800Y-93924211D01*
X117465800Y-93924211D02*
X117432466Y-93890878D01*
X117432466Y-93890878D02*
X117365800Y-93857544D01*
X117365800Y-93857544D02*
X117299133Y-93857544D01*
X117299133Y-93857544D02*
X117232466Y-93890878D01*
X117232466Y-93890878D02*
X117199133Y-93924211D01*
X117199133Y-93924211D02*
X117165800Y-93990878D01*
X117165800Y-93990878D02*
X117132466Y-94124211D01*
X117132466Y-94124211D02*
X117099133Y-94190878D01*
X117099133Y-94190878D02*
X117065800Y-94224211D01*
X117065800Y-94224211D02*
X116999133Y-94257544D01*
X116999133Y-94257544D02*
X116932466Y-94257544D01*
X116932466Y-94257544D02*
X116865800Y-94224211D01*
X116865800Y-94224211D02*
X116832466Y-94190878D01*
X116832466Y-94190878D02*
X116799133Y-94124211D01*
X116799133Y-94124211D02*
X116799133Y-93957544D01*
X116799133Y-93957544D02*
X116832466Y-93857544D01*
X117132466Y-93557544D02*
X117132466Y-93324211D01*
X117499133Y-93224211D02*
X117499133Y-93557544D01*
X117499133Y-93557544D02*
X116799133Y-93557544D01*
X116799133Y-93557544D02*
X116799133Y-93224211D01*
X116799133Y-93024211D02*
X116799133Y-92624211D01*
X117499133Y-92824211D02*
X116799133Y-92824211D01*
D12*
X143174819Y-75631863D02*
X142698628Y-75965196D01*
X143174819Y-76203291D02*
X142174819Y-76203291D01*
X142174819Y-76203291D02*
X142174819Y-75822339D01*
X142174819Y-75822339D02*
X142222438Y-75727101D01*
X142222438Y-75727101D02*
X142270057Y-75679482D01*
X142270057Y-75679482D02*
X142365295Y-75631863D01*
X142365295Y-75631863D02*
X142508152Y-75631863D01*
X142508152Y-75631863D02*
X142603390Y-75679482D01*
X142603390Y-75679482D02*
X142651009Y-75727101D01*
X142651009Y-75727101D02*
X142698628Y-75822339D01*
X142698628Y-75822339D02*
X142698628Y-76203291D01*
X142174819Y-75298529D02*
X142174819Y-74679482D01*
X142174819Y-74679482D02*
X142555771Y-75012815D01*
X142555771Y-75012815D02*
X142555771Y-74869958D01*
X142555771Y-74869958D02*
X142603390Y-74774720D01*
X142603390Y-74774720D02*
X142651009Y-74727101D01*
X142651009Y-74727101D02*
X142746247Y-74679482D01*
X142746247Y-74679482D02*
X142984342Y-74679482D01*
X142984342Y-74679482D02*
X143079580Y-74727101D01*
X143079580Y-74727101D02*
X143127200Y-74774720D01*
X143127200Y-74774720D02*
X143174819Y-74869958D01*
X143174819Y-74869958D02*
X143174819Y-75155672D01*
X143174819Y-75155672D02*
X143127200Y-75250910D01*
X143127200Y-75250910D02*
X143079580Y-75298529D01*
X138494819Y-61368094D02*
X137494819Y-61368094D01*
X137494819Y-61368094D02*
X137494819Y-61129999D01*
X137494819Y-61129999D02*
X137542438Y-60987142D01*
X137542438Y-60987142D02*
X137637676Y-60891904D01*
X137637676Y-60891904D02*
X137732914Y-60844285D01*
X137732914Y-60844285D02*
X137923390Y-60796666D01*
X137923390Y-60796666D02*
X138066247Y-60796666D01*
X138066247Y-60796666D02*
X138256723Y-60844285D01*
X138256723Y-60844285D02*
X138351961Y-60891904D01*
X138351961Y-60891904D02*
X138447200Y-60987142D01*
X138447200Y-60987142D02*
X138494819Y-61129999D01*
X138494819Y-61129999D02*
X138494819Y-61368094D01*
X137590057Y-60415713D02*
X137542438Y-60368094D01*
X137542438Y-60368094D02*
X137494819Y-60272856D01*
X137494819Y-60272856D02*
X137494819Y-60034761D01*
X137494819Y-60034761D02*
X137542438Y-59939523D01*
X137542438Y-59939523D02*
X137590057Y-59891904D01*
X137590057Y-59891904D02*
X137685295Y-59844285D01*
X137685295Y-59844285D02*
X137780533Y-59844285D01*
X137780533Y-59844285D02*
X137923390Y-59891904D01*
X137923390Y-59891904D02*
X138494819Y-60463332D01*
X138494819Y-60463332D02*
X138494819Y-59844285D01*
X149914819Y-75746666D02*
X149438628Y-76079999D01*
X149914819Y-76318094D02*
X148914819Y-76318094D01*
X148914819Y-76318094D02*
X148914819Y-75937142D01*
X148914819Y-75937142D02*
X148962438Y-75841904D01*
X148962438Y-75841904D02*
X149010057Y-75794285D01*
X149010057Y-75794285D02*
X149105295Y-75746666D01*
X149105295Y-75746666D02*
X149248152Y-75746666D01*
X149248152Y-75746666D02*
X149343390Y-75794285D01*
X149343390Y-75794285D02*
X149391009Y-75841904D01*
X149391009Y-75841904D02*
X149438628Y-75937142D01*
X149438628Y-75937142D02*
X149438628Y-76318094D01*
X149914819Y-74794285D02*
X149914819Y-75365713D01*
X149914819Y-75079999D02*
X148914819Y-75079999D01*
X148914819Y-75079999D02*
X149057676Y-75175237D01*
X149057676Y-75175237D02*
X149152914Y-75270475D01*
X149152914Y-75270475D02*
X149200533Y-75365713D01*
X129484819Y-66408094D02*
X128484819Y-66408094D01*
X128484819Y-66408094D02*
X128484819Y-66169999D01*
X128484819Y-66169999D02*
X128532438Y-66027142D01*
X128532438Y-66027142D02*
X128627676Y-65931904D01*
X128627676Y-65931904D02*
X128722914Y-65884285D01*
X128722914Y-65884285D02*
X128913390Y-65836666D01*
X128913390Y-65836666D02*
X129056247Y-65836666D01*
X129056247Y-65836666D02*
X129246723Y-65884285D01*
X129246723Y-65884285D02*
X129341961Y-65931904D01*
X129341961Y-65931904D02*
X129437200Y-66027142D01*
X129437200Y-66027142D02*
X129484819Y-66169999D01*
X129484819Y-66169999D02*
X129484819Y-66408094D01*
X128818152Y-64979523D02*
X129484819Y-64979523D01*
X128437200Y-65217618D02*
X129151485Y-65455713D01*
X129151485Y-65455713D02*
X129151485Y-64836666D01*
X145524819Y-61418094D02*
X144524819Y-61418094D01*
X144524819Y-61418094D02*
X144524819Y-61179999D01*
X144524819Y-61179999D02*
X144572438Y-61037142D01*
X144572438Y-61037142D02*
X144667676Y-60941904D01*
X144667676Y-60941904D02*
X144762914Y-60894285D01*
X144762914Y-60894285D02*
X144953390Y-60846666D01*
X144953390Y-60846666D02*
X145096247Y-60846666D01*
X145096247Y-60846666D02*
X145286723Y-60894285D01*
X145286723Y-60894285D02*
X145381961Y-60941904D01*
X145381961Y-60941904D02*
X145477200Y-61037142D01*
X145477200Y-61037142D02*
X145524819Y-61179999D01*
X145524819Y-61179999D02*
X145524819Y-61418094D01*
X145524819Y-59894285D02*
X145524819Y-60465713D01*
X145524819Y-60179999D02*
X144524819Y-60179999D01*
X144524819Y-60179999D02*
X144667676Y-60275237D01*
X144667676Y-60275237D02*
X144762914Y-60370475D01*
X144762914Y-60370475D02*
X144810533Y-60465713D01*
X131354819Y-61458094D02*
X130354819Y-61458094D01*
X130354819Y-61458094D02*
X130354819Y-61219999D01*
X130354819Y-61219999D02*
X130402438Y-61077142D01*
X130402438Y-61077142D02*
X130497676Y-60981904D01*
X130497676Y-60981904D02*
X130592914Y-60934285D01*
X130592914Y-60934285D02*
X130783390Y-60886666D01*
X130783390Y-60886666D02*
X130926247Y-60886666D01*
X130926247Y-60886666D02*
X131116723Y-60934285D01*
X131116723Y-60934285D02*
X131211961Y-60981904D01*
X131211961Y-60981904D02*
X131307200Y-61077142D01*
X131307200Y-61077142D02*
X131354819Y-61219999D01*
X131354819Y-61219999D02*
X131354819Y-61458094D01*
X130354819Y-60553332D02*
X130354819Y-59934285D01*
X130354819Y-59934285D02*
X130735771Y-60267618D01*
X130735771Y-60267618D02*
X130735771Y-60124761D01*
X130735771Y-60124761D02*
X130783390Y-60029523D01*
X130783390Y-60029523D02*
X130831009Y-59981904D01*
X130831009Y-59981904D02*
X130926247Y-59934285D01*
X130926247Y-59934285D02*
X131164342Y-59934285D01*
X131164342Y-59934285D02*
X131259580Y-59981904D01*
X131259580Y-59981904D02*
X131307200Y-60029523D01*
X131307200Y-60029523D02*
X131354819Y-60124761D01*
X131354819Y-60124761D02*
X131354819Y-60410475D01*
X131354819Y-60410475D02*
X131307200Y-60505713D01*
X131307200Y-60505713D02*
X131259580Y-60553332D01*
X147638004Y-87279958D02*
X146638004Y-87279958D01*
X146638004Y-87279958D02*
X147352289Y-86946625D01*
X147352289Y-86946625D02*
X146638004Y-86613292D01*
X146638004Y-86613292D02*
X147638004Y-86613292D01*
X147638004Y-85994244D02*
X147590385Y-86089482D01*
X147590385Y-86089482D02*
X147542765Y-86137101D01*
X147542765Y-86137101D02*
X147447527Y-86184720D01*
X147447527Y-86184720D02*
X147161813Y-86184720D01*
X147161813Y-86184720D02*
X147066575Y-86137101D01*
X147066575Y-86137101D02*
X147018956Y-86089482D01*
X147018956Y-86089482D02*
X146971337Y-85994244D01*
X146971337Y-85994244D02*
X146971337Y-85851387D01*
X146971337Y-85851387D02*
X147018956Y-85756149D01*
X147018956Y-85756149D02*
X147066575Y-85708530D01*
X147066575Y-85708530D02*
X147161813Y-85660911D01*
X147161813Y-85660911D02*
X147447527Y-85660911D01*
X147447527Y-85660911D02*
X147542765Y-85708530D01*
X147542765Y-85708530D02*
X147590385Y-85756149D01*
X147590385Y-85756149D02*
X147638004Y-85851387D01*
X147638004Y-85851387D02*
X147638004Y-85994244D01*
X146971337Y-85375196D02*
X146971337Y-84994244D01*
X146638004Y-85232339D02*
X147495146Y-85232339D01*
X147495146Y-85232339D02*
X147590385Y-85184720D01*
X147590385Y-85184720D02*
X147638004Y-85089482D01*
X147638004Y-85089482D02*
X147638004Y-84994244D01*
X147638004Y-84518053D02*
X147590385Y-84613291D01*
X147590385Y-84613291D02*
X147542765Y-84660910D01*
X147542765Y-84660910D02*
X147447527Y-84708529D01*
X147447527Y-84708529D02*
X147161813Y-84708529D01*
X147161813Y-84708529D02*
X147066575Y-84660910D01*
X147066575Y-84660910D02*
X147018956Y-84613291D01*
X147018956Y-84613291D02*
X146971337Y-84518053D01*
X146971337Y-84518053D02*
X146971337Y-84375196D01*
X146971337Y-84375196D02*
X147018956Y-84279958D01*
X147018956Y-84279958D02*
X147066575Y-84232339D01*
X147066575Y-84232339D02*
X147161813Y-84184720D01*
X147161813Y-84184720D02*
X147447527Y-84184720D01*
X147447527Y-84184720D02*
X147542765Y-84232339D01*
X147542765Y-84232339D02*
X147590385Y-84279958D01*
X147590385Y-84279958D02*
X147638004Y-84375196D01*
X147638004Y-84375196D02*
X147638004Y-84518053D01*
X147638004Y-83756148D02*
X146971337Y-83756148D01*
X147161813Y-83756148D02*
X147066575Y-83708529D01*
X147066575Y-83708529D02*
X147018956Y-83660910D01*
X147018956Y-83660910D02*
X146971337Y-83565672D01*
X146971337Y-83565672D02*
X146971337Y-83470434D01*
X147638004Y-82375195D02*
X146638004Y-82375195D01*
X146638004Y-82375195D02*
X146638004Y-81994243D01*
X146638004Y-81994243D02*
X146685623Y-81899005D01*
X146685623Y-81899005D02*
X146733242Y-81851386D01*
X146733242Y-81851386D02*
X146828480Y-81803767D01*
X146828480Y-81803767D02*
X146971337Y-81803767D01*
X146971337Y-81803767D02*
X147066575Y-81851386D01*
X147066575Y-81851386D02*
X147114194Y-81899005D01*
X147114194Y-81899005D02*
X147161813Y-81994243D01*
X147161813Y-81994243D02*
X147161813Y-82375195D01*
X147638004Y-81375195D02*
X146971337Y-81375195D01*
X146638004Y-81375195D02*
X146685623Y-81422814D01*
X146685623Y-81422814D02*
X146733242Y-81375195D01*
X146733242Y-81375195D02*
X146685623Y-81327576D01*
X146685623Y-81327576D02*
X146638004Y-81375195D01*
X146638004Y-81375195D02*
X146733242Y-81375195D01*
X146971337Y-80899005D02*
X147638004Y-80899005D01*
X147066575Y-80899005D02*
X147018956Y-80851386D01*
X147018956Y-80851386D02*
X146971337Y-80756148D01*
X146971337Y-80756148D02*
X146971337Y-80613291D01*
X146971337Y-80613291D02*
X147018956Y-80518053D01*
X147018956Y-80518053D02*
X147114194Y-80470434D01*
X147114194Y-80470434D02*
X147638004Y-80470434D01*
X121584819Y-58457142D02*
X120584819Y-58457142D01*
X120584819Y-58457142D02*
X121584819Y-57885714D01*
X121584819Y-57885714D02*
X120584819Y-57885714D01*
X121584819Y-57409523D02*
X120584819Y-57409523D01*
X120584819Y-57409523D02*
X121299104Y-57076190D01*
X121299104Y-57076190D02*
X120584819Y-56742857D01*
X120584819Y-56742857D02*
X121584819Y-56742857D01*
X120584819Y-56076190D02*
X120584819Y-55885714D01*
X120584819Y-55885714D02*
X120632438Y-55790476D01*
X120632438Y-55790476D02*
X120727676Y-55695238D01*
X120727676Y-55695238D02*
X120918152Y-55647619D01*
X120918152Y-55647619D02*
X121251485Y-55647619D01*
X121251485Y-55647619D02*
X121441961Y-55695238D01*
X121441961Y-55695238D02*
X121537200Y-55790476D01*
X121537200Y-55790476D02*
X121584819Y-55885714D01*
X121584819Y-55885714D02*
X121584819Y-56076190D01*
X121584819Y-56076190D02*
X121537200Y-56171428D01*
X121537200Y-56171428D02*
X121441961Y-56266666D01*
X121441961Y-56266666D02*
X121251485Y-56314285D01*
X121251485Y-56314285D02*
X120918152Y-56314285D01*
X120918152Y-56314285D02*
X120727676Y-56266666D01*
X120727676Y-56266666D02*
X120632438Y-56171428D01*
X120632438Y-56171428D02*
X120584819Y-56076190D01*
X121537200Y-55266666D02*
X121584819Y-55123809D01*
X121584819Y-55123809D02*
X121584819Y-54885714D01*
X121584819Y-54885714D02*
X121537200Y-54790476D01*
X121537200Y-54790476D02*
X121489580Y-54742857D01*
X121489580Y-54742857D02*
X121394342Y-54695238D01*
X121394342Y-54695238D02*
X121299104Y-54695238D01*
X121299104Y-54695238D02*
X121203866Y-54742857D01*
X121203866Y-54742857D02*
X121156247Y-54790476D01*
X121156247Y-54790476D02*
X121108628Y-54885714D01*
X121108628Y-54885714D02*
X121061009Y-55076190D01*
X121061009Y-55076190D02*
X121013390Y-55171428D01*
X121013390Y-55171428D02*
X120965771Y-55219047D01*
X120965771Y-55219047D02*
X120870533Y-55266666D01*
X120870533Y-55266666D02*
X120775295Y-55266666D01*
X120775295Y-55266666D02*
X120680057Y-55219047D01*
X120680057Y-55219047D02*
X120632438Y-55171428D01*
X120632438Y-55171428D02*
X120584819Y-55076190D01*
X120584819Y-55076190D02*
X120584819Y-54838095D01*
X120584819Y-54838095D02*
X120632438Y-54695238D01*
X111764819Y-67951863D02*
X111288628Y-68285196D01*
X111764819Y-68523291D02*
X110764819Y-68523291D01*
X110764819Y-68523291D02*
X110764819Y-68142339D01*
X110764819Y-68142339D02*
X110812438Y-68047101D01*
X110812438Y-68047101D02*
X110860057Y-67999482D01*
X110860057Y-67999482D02*
X110955295Y-67951863D01*
X110955295Y-67951863D02*
X111098152Y-67951863D01*
X111098152Y-67951863D02*
X111193390Y-67999482D01*
X111193390Y-67999482D02*
X111241009Y-68047101D01*
X111241009Y-68047101D02*
X111288628Y-68142339D01*
X111288628Y-68142339D02*
X111288628Y-68523291D01*
X111098152Y-67094720D02*
X111764819Y-67094720D01*
X110717200Y-67332815D02*
X111431485Y-67570910D01*
X111431485Y-67570910D02*
X111431485Y-66951863D01*
X146524819Y-75721863D02*
X146048628Y-76055196D01*
X146524819Y-76293291D02*
X145524819Y-76293291D01*
X145524819Y-76293291D02*
X145524819Y-75912339D01*
X145524819Y-75912339D02*
X145572438Y-75817101D01*
X145572438Y-75817101D02*
X145620057Y-75769482D01*
X145620057Y-75769482D02*
X145715295Y-75721863D01*
X145715295Y-75721863D02*
X145858152Y-75721863D01*
X145858152Y-75721863D02*
X145953390Y-75769482D01*
X145953390Y-75769482D02*
X146001009Y-75817101D01*
X146001009Y-75817101D02*
X146048628Y-75912339D01*
X146048628Y-75912339D02*
X146048628Y-76293291D01*
X145620057Y-75340910D02*
X145572438Y-75293291D01*
X145572438Y-75293291D02*
X145524819Y-75198053D01*
X145524819Y-75198053D02*
X145524819Y-74959958D01*
X145524819Y-74959958D02*
X145572438Y-74864720D01*
X145572438Y-74864720D02*
X145620057Y-74817101D01*
X145620057Y-74817101D02*
X145715295Y-74769482D01*
X145715295Y-74769482D02*
X145810533Y-74769482D01*
X145810533Y-74769482D02*
X145953390Y-74817101D01*
X145953390Y-74817101D02*
X146524819Y-75388529D01*
X146524819Y-75388529D02*
X146524819Y-74769482D01*
X111804819Y-63261863D02*
X111328628Y-63595196D01*
X111804819Y-63833291D02*
X110804819Y-63833291D01*
X110804819Y-63833291D02*
X110804819Y-63452339D01*
X110804819Y-63452339D02*
X110852438Y-63357101D01*
X110852438Y-63357101D02*
X110900057Y-63309482D01*
X110900057Y-63309482D02*
X110995295Y-63261863D01*
X110995295Y-63261863D02*
X111138152Y-63261863D01*
X111138152Y-63261863D02*
X111233390Y-63309482D01*
X111233390Y-63309482D02*
X111281009Y-63357101D01*
X111281009Y-63357101D02*
X111328628Y-63452339D01*
X111328628Y-63452339D02*
X111328628Y-63833291D01*
X110804819Y-62357101D02*
X110804819Y-62833291D01*
X110804819Y-62833291D02*
X111281009Y-62880910D01*
X111281009Y-62880910D02*
X111233390Y-62833291D01*
X111233390Y-62833291D02*
X111185771Y-62738053D01*
X111185771Y-62738053D02*
X111185771Y-62499958D01*
X111185771Y-62499958D02*
X111233390Y-62404720D01*
X111233390Y-62404720D02*
X111281009Y-62357101D01*
X111281009Y-62357101D02*
X111376247Y-62309482D01*
X111376247Y-62309482D02*
X111614342Y-62309482D01*
X111614342Y-62309482D02*
X111709580Y-62357101D01*
X111709580Y-62357101D02*
X111757200Y-62404720D01*
X111757200Y-62404720D02*
X111804819Y-62499958D01*
X111804819Y-62499958D02*
X111804819Y-62738053D01*
X111804819Y-62738053D02*
X111757200Y-62833291D01*
X111757200Y-62833291D02*
X111709580Y-62880910D01*
X108714819Y-90488529D02*
X108714819Y-89917101D01*
X109714819Y-90202815D02*
X108714819Y-90202815D01*
X109667200Y-89202815D02*
X109714819Y-89298053D01*
X109714819Y-89298053D02*
X109714819Y-89488529D01*
X109714819Y-89488529D02*
X109667200Y-89583767D01*
X109667200Y-89583767D02*
X109571961Y-89631386D01*
X109571961Y-89631386D02*
X109191009Y-89631386D01*
X109191009Y-89631386D02*
X109095771Y-89583767D01*
X109095771Y-89583767D02*
X109048152Y-89488529D01*
X109048152Y-89488529D02*
X109048152Y-89298053D01*
X109048152Y-89298053D02*
X109095771Y-89202815D01*
X109095771Y-89202815D02*
X109191009Y-89155196D01*
X109191009Y-89155196D02*
X109286247Y-89155196D01*
X109286247Y-89155196D02*
X109381485Y-89631386D01*
X109714819Y-88726624D02*
X109048152Y-88726624D01*
X109143390Y-88726624D02*
X109095771Y-88679005D01*
X109095771Y-88679005D02*
X109048152Y-88583767D01*
X109048152Y-88583767D02*
X109048152Y-88440910D01*
X109048152Y-88440910D02*
X109095771Y-88345672D01*
X109095771Y-88345672D02*
X109191009Y-88298053D01*
X109191009Y-88298053D02*
X109714819Y-88298053D01*
X109191009Y-88298053D02*
X109095771Y-88250434D01*
X109095771Y-88250434D02*
X109048152Y-88155196D01*
X109048152Y-88155196D02*
X109048152Y-88012339D01*
X109048152Y-88012339D02*
X109095771Y-87917100D01*
X109095771Y-87917100D02*
X109191009Y-87869481D01*
X109191009Y-87869481D02*
X109714819Y-87869481D01*
X109048152Y-87393291D02*
X110048152Y-87393291D01*
X109095771Y-87393291D02*
X109048152Y-87298053D01*
X109048152Y-87298053D02*
X109048152Y-87107577D01*
X109048152Y-87107577D02*
X109095771Y-87012339D01*
X109095771Y-87012339D02*
X109143390Y-86964720D01*
X109143390Y-86964720D02*
X109238628Y-86917101D01*
X109238628Y-86917101D02*
X109524342Y-86917101D01*
X109524342Y-86917101D02*
X109619580Y-86964720D01*
X109619580Y-86964720D02*
X109667200Y-87012339D01*
X109667200Y-87012339D02*
X109714819Y-87107577D01*
X109714819Y-87107577D02*
X109714819Y-87298053D01*
X109714819Y-87298053D02*
X109667200Y-87393291D01*
D13*
X141340000Y-66395197D02*
X141340000Y-72935197D01*
X141340000Y-72935197D02*
X141670000Y-72935197D01*
X141670000Y-66395197D02*
X141340000Y-66395197D01*
X143750000Y-66395197D02*
X144080000Y-66395197D01*
X144080000Y-66395197D02*
X144080000Y-72935197D01*
X144080000Y-72935197D02*
X143750000Y-72935197D01*
X138020000Y-55552012D02*
X137864000Y-55552012D01*
X140336000Y-55552012D02*
X140180000Y-55552012D01*
X138020000Y-58152973D02*
G75*
G02*
X138020000Y-56071051I1080000J1040961D01*
G01*
X138020000Y-58783449D02*
G75*
G02*
X137864484Y-55552012I1080000J1671437D01*
G01*
X140180000Y-56071051D02*
G75*
G02*
X140180000Y-58152973I-1080000J-1040961D01*
G01*
X140335516Y-55552012D02*
G75*
G02*
X140180000Y-58783449I-1235516J-1560000D01*
G01*
X148080000Y-66385197D02*
X148080000Y-72925197D01*
X148080000Y-72925197D02*
X148410000Y-72925197D01*
X148410000Y-66385197D02*
X148080000Y-66385197D01*
X150490000Y-66385197D02*
X150820000Y-66385197D01*
X150820000Y-66385197D02*
X150820000Y-72925197D01*
X150820000Y-72925197D02*
X150490000Y-72925197D01*
D14*
G36*
X120755841Y-80145613D02*
G01*
X120755841Y-80577705D01*
X120654696Y-80641555D01*
X120593241Y-80679111D01*
X120499026Y-80735206D01*
X120384500Y-80802486D01*
X120262115Y-80873595D01*
X120252599Y-80879089D01*
X119951646Y-81052774D01*
X119669897Y-80813845D01*
X119568170Y-80726591D01*
X119481674Y-80650527D01*
X119417792Y-80592292D01*
X119383911Y-80558524D01*
X119380508Y-80553718D01*
X119399984Y-80535424D01*
X119458780Y-80494541D01*
X119551187Y-80434690D01*
X119671496Y-80359492D01*
X119813998Y-80272570D01*
X119972984Y-80177546D01*
X119979688Y-80173579D01*
X120144909Y-80075831D01*
X120299409Y-79984394D01*
X120436292Y-79903350D01*
X120548664Y-79836783D01*
X120629630Y-79788775D01*
X120671174Y-79764079D01*
X120755841Y-79713520D01*
X120755841Y-80145613D01*
G37*
G36*
X120750021Y-72456381D02*
G01*
X120757228Y-72840146D01*
X120170350Y-72847150D01*
X120001774Y-72849988D01*
X119852127Y-72854091D01*
X119728757Y-72859125D01*
X119639010Y-72864758D01*
X119590235Y-72870659D01*
X119583502Y-72873692D01*
X119583509Y-72903408D01*
X119583516Y-72979207D01*
X119583522Y-73095068D01*
X119583526Y-73244973D01*
X119583530Y-73422902D01*
X119583532Y-73622834D01*
X119583533Y-73818051D01*
X119583533Y-74742872D01*
X120169687Y-74742872D01*
X120755841Y-74742872D01*
X120755841Y-75133641D01*
X120755841Y-75524410D01*
X119283943Y-75524410D01*
X117812046Y-75524410D01*
X117812046Y-75133641D01*
X117812046Y-74742872D01*
X118372473Y-74742872D01*
X118932901Y-74742872D01*
X118926063Y-73798513D01*
X118919225Y-72854154D01*
X118364942Y-72847121D01*
X117810659Y-72840088D01*
X117817865Y-72456352D01*
X117825071Y-72072615D01*
X119283943Y-72072615D01*
X120742815Y-72072615D01*
X120750021Y-72456381D01*
G37*
G36*
X115189400Y-74950721D02*
G01*
X115195842Y-75024969D01*
X115200919Y-75144643D01*
X115204517Y-75306413D01*
X115206522Y-75506945D01*
X115206918Y-75661456D01*
X115206918Y-76397682D01*
X115005020Y-76517768D01*
X114880625Y-76590473D01*
X114741486Y-76669850D01*
X114615870Y-76739790D01*
X114605560Y-76745416D01*
X114407997Y-76852977D01*
X113894680Y-76445639D01*
X113754900Y-76333460D01*
X113630292Y-76231038D01*
X113526239Y-76142997D01*
X113448119Y-76073958D01*
X113401313Y-76028543D01*
X113390069Y-76012186D01*
X113413447Y-75993659D01*
X113475804Y-75952094D01*
X113571305Y-75891031D01*
X113694117Y-75814011D01*
X113838403Y-75724572D01*
X113998330Y-75626255D01*
X114168063Y-75522600D01*
X114341766Y-75417147D01*
X114513605Y-75313434D01*
X114677746Y-75215003D01*
X114828353Y-75125393D01*
X114959592Y-75048144D01*
X115065627Y-74986796D01*
X115140625Y-74944888D01*
X115178750Y-74925961D01*
X115181708Y-74925231D01*
X115189400Y-74950721D01*
G37*
G36*
X114374432Y-74640604D02*
G01*
X114548213Y-74641573D01*
X114692917Y-74642978D01*
X114802709Y-74644763D01*
X114871758Y-74646872D01*
X114894302Y-74649119D01*
X114874353Y-74667937D01*
X114824889Y-74701494D01*
X114809636Y-74710915D01*
X114753101Y-74745393D01*
X114665094Y-74799290D01*
X114558505Y-74864702D01*
X114465454Y-74921898D01*
X114205939Y-75081538D01*
X113612275Y-75081538D01*
X113442699Y-75080721D01*
X113292026Y-75078430D01*
X113167556Y-75074905D01*
X113076592Y-75070386D01*
X113026435Y-75065115D01*
X113018887Y-75062000D01*
X113034145Y-75032956D01*
X113073674Y-74976513D01*
X113123163Y-74912205D01*
X113180202Y-74838117D01*
X113203158Y-74789373D01*
X113189392Y-74751218D01*
X113136263Y-74708895D01*
X113080314Y-74672763D01*
X113077418Y-74664318D01*
X113100317Y-74657403D01*
X113152826Y-74651877D01*
X113238762Y-74647599D01*
X113361942Y-74644428D01*
X113526182Y-74642224D01*
X113735298Y-74640846D01*
X113962969Y-74640199D01*
X114177406Y-74640127D01*
X114374432Y-74640604D01*
G37*
G36*
X121522109Y-77218331D02*
G01*
X121584419Y-77288482D01*
X121531997Y-77394437D01*
X121494944Y-77519782D01*
X121508793Y-77638828D01*
X121572778Y-77746640D01*
X121589394Y-77764305D01*
X121681851Y-77823598D01*
X121787417Y-77840516D01*
X121891709Y-77816943D01*
X121980343Y-77754762D01*
X122015022Y-77708556D01*
X122053681Y-77594526D01*
X122046001Y-77471679D01*
X122004204Y-77372209D01*
X121950198Y-77283623D01*
X122015835Y-77217986D01*
X122063223Y-77176387D01*
X122095893Y-77170185D01*
X122126076Y-77189342D01*
X122179872Y-77262438D01*
X122218008Y-77370040D01*
X122238645Y-77496420D01*
X122239941Y-77625845D01*
X122220056Y-77742587D01*
X122197476Y-77799462D01*
X122104682Y-77935432D01*
X121993086Y-78023942D01*
X121859032Y-78067385D01*
X121779647Y-78072960D01*
X121626276Y-78049681D01*
X121497857Y-77982935D01*
X121398946Y-77877200D01*
X121334098Y-77736954D01*
X121310564Y-77611903D01*
X121312434Y-77441590D01*
X121353166Y-77300825D01*
X121407950Y-77213309D01*
X121459799Y-77148180D01*
X121522109Y-77218331D01*
G37*
G36*
X121686825Y-79250927D02*
G01*
X121804070Y-79286295D01*
X121891244Y-79362965D01*
X121948726Y-79481553D01*
X121976890Y-79642678D01*
X121980106Y-79732256D01*
X121980251Y-79869025D01*
X122110507Y-79869025D01*
X122240764Y-79869025D01*
X122240764Y-79986256D01*
X122240764Y-80103487D01*
X121784866Y-80103487D01*
X121655790Y-80103487D01*
X121328969Y-80103487D01*
X121329066Y-79797384D01*
X121329328Y-79770817D01*
X121495964Y-79770817D01*
X121497910Y-79784359D01*
X121509570Y-79832948D01*
X121530686Y-79858127D01*
X121575600Y-79867589D01*
X121655790Y-79869025D01*
X121797892Y-79869025D01*
X121797892Y-79731540D01*
X121788444Y-79624512D01*
X121762825Y-79545240D01*
X121756312Y-79534691D01*
X121706808Y-79490479D01*
X121635613Y-79483023D01*
X121632569Y-79483305D01*
X121576473Y-79496227D01*
X121542139Y-79531177D01*
X121516268Y-79595487D01*
X121497781Y-79684629D01*
X121495964Y-79770817D01*
X121329328Y-79770817D01*
X121330432Y-79658826D01*
X121335420Y-79560905D01*
X121345522Y-79492201D01*
X121362230Y-79441291D01*
X121379925Y-79408031D01*
X121458616Y-79309803D01*
X121550838Y-79258486D01*
X121666487Y-79249012D01*
X121686825Y-79250927D01*
G37*
G36*
X122058137Y-75035851D02*
G01*
X122118340Y-75062667D01*
X122162954Y-75103487D01*
X122194505Y-75165845D01*
X122215523Y-75257273D01*
X122228536Y-75385306D01*
X122236073Y-75557476D01*
X122236336Y-75566796D01*
X122245876Y-75911976D01*
X122058405Y-75911976D01*
X121787422Y-75911976D01*
X121528991Y-75911976D01*
X121328969Y-75911976D01*
X121329066Y-75579822D01*
X121329335Y-75546286D01*
X121485120Y-75546286D01*
X121486038Y-75623120D01*
X121493237Y-75673138D01*
X121497506Y-75681060D01*
X121528991Y-75686455D01*
X121590366Y-75683774D01*
X121601711Y-75682552D01*
X121656861Y-75673568D01*
X121683889Y-75653639D01*
X121692824Y-75607885D01*
X121693687Y-75546104D01*
X121689262Y-75470615D01*
X121854251Y-75470615D01*
X121855425Y-75504611D01*
X121863020Y-75690540D01*
X121960712Y-75698625D01*
X122058405Y-75706711D01*
X122058405Y-75511614D01*
X122054532Y-75394731D01*
X122041780Y-75319654D01*
X122018450Y-75276582D01*
X122017467Y-75275580D01*
X121967559Y-75239164D01*
X121923199Y-75248038D01*
X121889850Y-75276662D01*
X121866669Y-75313915D01*
X121855430Y-75374416D01*
X121854251Y-75470615D01*
X121689262Y-75470615D01*
X121688369Y-75455378D01*
X121674993Y-75375705D01*
X121668280Y-75353569D01*
X121628065Y-75300647D01*
X121574249Y-75288562D01*
X121524113Y-75319133D01*
X121512244Y-75337135D01*
X121499004Y-75385071D01*
X121489702Y-75460862D01*
X121485120Y-75546286D01*
X121329335Y-75546286D01*
X121330223Y-75435824D01*
X121334461Y-75333196D01*
X121343079Y-75261236D01*
X121357376Y-75209243D01*
X121378651Y-75166514D01*
X121379371Y-75165327D01*
X121451449Y-75088520D01*
X121539606Y-75056439D01*
X121632211Y-75070613D01*
X121707739Y-75122160D01*
X121742555Y-75150147D01*
X121769595Y-75139935D01*
X121794228Y-75110433D01*
X121876181Y-75042083D01*
X121977489Y-75021172D01*
X122058137Y-75035851D01*
G37*
G36*
X120206184Y-76034502D02*
G01*
X120384320Y-76102098D01*
X120523905Y-76202988D01*
X120612319Y-76316216D01*
X120641994Y-76370840D01*
X120667263Y-76428513D01*
X120688477Y-76493720D01*
X120705988Y-76570947D01*
X120720147Y-76664682D01*
X120731306Y-76779410D01*
X120739816Y-76919617D01*
X120746030Y-77089790D01*
X120750298Y-77294416D01*
X120752973Y-77537980D01*
X120754405Y-77824969D01*
X120754932Y-78136051D01*
X120755841Y-79432103D01*
X120430200Y-79432103D01*
X120104559Y-79432103D01*
X120104559Y-78211580D01*
X120103948Y-77873602D01*
X120102107Y-77587084D01*
X120099021Y-77351397D01*
X120094677Y-77165912D01*
X120089060Y-77030000D01*
X120082158Y-76943032D01*
X120075767Y-76908466D01*
X120039254Y-76837852D01*
X119982716Y-76796247D01*
X119894527Y-76777583D01*
X119819707Y-76774872D01*
X119699640Y-76791613D01*
X119618168Y-76842542D01*
X119573673Y-76928717D01*
X119571692Y-76937030D01*
X119568345Y-76976440D01*
X119564813Y-77061480D01*
X119561243Y-77185680D01*
X119557783Y-77342568D01*
X119554579Y-77525672D01*
X119551777Y-77728522D01*
X119549976Y-77895077D01*
X119547519Y-78137093D01*
X119544968Y-78333223D01*
X119541935Y-78489683D01*
X119538029Y-78612689D01*
X119532862Y-78708457D01*
X119526043Y-78783203D01*
X119517185Y-78843143D01*
X119505897Y-78894493D01*
X119491789Y-78943469D01*
X119482505Y-78972199D01*
X119408859Y-79134350D01*
X119307938Y-79266939D01*
X119187128Y-79361737D01*
X119098389Y-79400116D01*
X118943767Y-79432626D01*
X118762465Y-79449613D01*
X118577888Y-79449907D01*
X118422178Y-79433894D01*
X118236043Y-79385152D01*
X118091402Y-79309184D01*
X117983816Y-79203358D01*
X117951979Y-79155200D01*
X117922303Y-79102525D01*
X117897167Y-79050849D01*
X117876195Y-78995513D01*
X117859009Y-78931855D01*
X117845231Y-78855216D01*
X117834485Y-78760935D01*
X117826392Y-78644352D01*
X117820574Y-78500807D01*
X117816656Y-78325640D01*
X117814259Y-78114190D01*
X117813005Y-77861797D01*
X117812517Y-77563801D01*
X117812453Y-77432667D01*
X117812046Y-76123590D01*
X118124661Y-76123590D01*
X118437277Y-76123590D01*
X118437422Y-77276359D01*
X118438094Y-77572229D01*
X118439986Y-77834298D01*
X118443031Y-78059464D01*
X118447162Y-78244621D01*
X118452310Y-78386666D01*
X118458409Y-78482495D01*
X118464613Y-78526514D01*
X118499107Y-78606618D01*
X118555014Y-78653539D01*
X118643427Y-78674088D01*
X118709102Y-78676615D01*
X118823614Y-78657676D01*
X118902924Y-78601933D01*
X118943963Y-78514458D01*
X118947291Y-78475048D01*
X118950825Y-78390007D01*
X118954416Y-78265808D01*
X118957918Y-78108921D01*
X118961180Y-77925817D01*
X118964055Y-77722967D01*
X118965922Y-77556410D01*
X118968542Y-77312922D01*
X118971311Y-77115415D01*
X118974592Y-76957765D01*
X118978747Y-76833852D01*
X118984138Y-76737554D01*
X118991126Y-76662747D01*
X119000074Y-76603311D01*
X119011343Y-76553123D01*
X119025295Y-76506062D01*
X119028618Y-76495949D01*
X119101241Y-76326534D01*
X119196147Y-76196871D01*
X119319079Y-76102957D01*
X119475784Y-76040787D01*
X119672007Y-76006356D01*
X119738913Y-76000871D01*
X119990661Y-76000620D01*
X120206184Y-76034502D01*
G37*
G36*
X111754212Y-77164938D02*
G01*
X111896804Y-77276137D01*
X112039943Y-77389897D01*
X112177792Y-77501362D01*
X112304516Y-77605673D01*
X112414280Y-77697971D01*
X112501246Y-77773397D01*
X112559581Y-77827095D01*
X112583448Y-77854204D01*
X112583714Y-77855518D01*
X112561652Y-77878803D01*
X112504560Y-77918987D01*
X112423425Y-77968539D01*
X112396485Y-77983857D01*
X112310883Y-78033407D01*
X112246313Y-78073974D01*
X112213516Y-78098696D01*
X112211480Y-78102048D01*
X112233224Y-78118672D01*
X112293649Y-78156707D01*
X112385978Y-78212099D01*
X112503434Y-78280797D01*
X112639240Y-78358750D01*
X112671413Y-78377026D01*
X112814237Y-78458557D01*
X112943895Y-78533614D01*
X113052637Y-78597626D01*
X113132713Y-78646023D01*
X113176372Y-78674235D01*
X113179515Y-78676615D01*
X113202775Y-78713437D01*
X113239980Y-78795822D01*
X113289510Y-78919613D01*
X113349742Y-79080651D01*
X113419054Y-79274778D01*
X113468556Y-79417751D01*
X113708969Y-80119810D01*
X114685892Y-80713451D01*
X114929171Y-80860385D01*
X115144000Y-80988304D01*
X115327807Y-81095744D01*
X115478017Y-81181241D01*
X115592056Y-81243332D01*
X115667350Y-81280551D01*
X115701325Y-81291436D01*
X115701892Y-81291264D01*
X115750579Y-81278989D01*
X115827341Y-81266653D01*
X115861785Y-81262530D01*
X115939892Y-81258487D01*
X115995267Y-81272865D01*
X116052431Y-81314136D01*
X116078316Y-81337341D01*
X116159865Y-81441349D01*
X116191714Y-81555473D01*
X116172888Y-81674503D01*
X116150414Y-81723300D01*
X116073148Y-81817208D01*
X115970115Y-81878345D01*
X115856448Y-81899002D01*
X115850924Y-81898443D01*
X115813974Y-81894702D01*
X115714793Y-81856192D01*
X115628360Y-81787593D01*
X115567624Y-81702322D01*
X115545510Y-81616503D01*
X115543068Y-81578793D01*
X115540771Y-81572769D01*
X115727943Y-81572769D01*
X115747644Y-81621259D01*
X115792671Y-81670043D01*
X115841907Y-81697522D01*
X115850924Y-81698564D01*
X115926891Y-81678112D01*
X115974481Y-81626719D01*
X115987122Y-81559326D01*
X115958239Y-81490876D01*
X115947518Y-81478989D01*
X115898648Y-81445717D01*
X115869364Y-81438051D01*
X115822233Y-81456953D01*
X115770404Y-81500848D01*
X115734045Y-81550525D01*
X115727943Y-81572769D01*
X115540771Y-81572769D01*
X115530934Y-81546965D01*
X115501781Y-81514323D01*
X115448284Y-81474171D01*
X115363118Y-81419812D01*
X115265459Y-81360511D01*
X115183100Y-81310746D01*
X115062486Y-81237682D01*
X114909866Y-81145109D01*
X114731486Y-81036824D01*
X114533597Y-80916619D01*
X114322444Y-80788288D01*
X114104278Y-80655625D01*
X113982507Y-80581547D01*
X113715464Y-80419213D01*
X113433319Y-80247963D01*
X113140059Y-80070202D01*
X112839674Y-79888332D01*
X112536151Y-79704758D01*
X112233479Y-79521883D01*
X111935646Y-79342110D01*
X111646640Y-79167844D01*
X111370450Y-79001489D01*
X111111065Y-78845446D01*
X110872472Y-78702122D01*
X110658659Y-78573918D01*
X110473616Y-78463239D01*
X110321330Y-78372489D01*
X110205790Y-78304071D01*
X110133430Y-78261795D01*
X110034894Y-78203341D01*
X109955830Y-78153153D01*
X109905599Y-78117385D01*
X109892456Y-78103441D01*
X109914071Y-78086182D01*
X109975688Y-78045400D01*
X110072460Y-77984095D01*
X110199543Y-77905268D01*
X110352091Y-77811919D01*
X110525260Y-77707050D01*
X110714204Y-77593659D01*
X110753278Y-77570331D01*
X111614100Y-77056843D01*
X111754212Y-77164938D01*
G37*
G36*
X118575782Y-79884325D02*
G01*
X118671656Y-79943480D01*
X118727972Y-80028318D01*
X118749584Y-80146901D01*
X118750168Y-80173848D01*
X118750444Y-80304821D01*
X119290732Y-80779365D01*
X119436239Y-80907315D01*
X119572211Y-81027161D01*
X119692734Y-81133666D01*
X119791889Y-81221594D01*
X119863763Y-81285709D01*
X119902438Y-81320775D01*
X119902661Y-81320984D01*
X119938960Y-81359117D01*
X119960385Y-81399002D01*
X119970810Y-81455342D01*
X119974109Y-81542837D01*
X119974302Y-81592808D01*
X119975394Y-81696551D01*
X119982016Y-81764092D01*
X119999186Y-81811330D01*
X120031921Y-81854164D01*
X120068734Y-81891991D01*
X120124358Y-81951921D01*
X120150263Y-82000854D01*
X120154826Y-82062325D01*
X120150235Y-82120997D01*
X120117927Y-82249070D01*
X120050319Y-82339477D01*
X119949204Y-82390520D01*
X119875276Y-82399400D01*
X119854055Y-82401949D01*
X119770439Y-82395336D01*
X119708345Y-82367962D01*
X119646056Y-82313374D01*
X119587839Y-82245144D01*
X119562152Y-82180252D01*
X119557482Y-82116277D01*
X119559443Y-82102359D01*
X119739841Y-82102359D01*
X119760003Y-82173121D01*
X119810262Y-82212340D01*
X119875276Y-82213967D01*
X119933364Y-82178652D01*
X119969147Y-82128575D01*
X119965843Y-82075560D01*
X119947334Y-82035518D01*
X119900742Y-81991686D01*
X119840751Y-81985291D01*
X119783781Y-82011046D01*
X119746249Y-82063662D01*
X119739841Y-82102359D01*
X119559443Y-82102359D01*
X119575992Y-81984899D01*
X119631844Y-81889210D01*
X119665821Y-81859907D01*
X119692788Y-81829890D01*
X119707640Y-81779385D01*
X119713376Y-81695284D01*
X119713789Y-81650095D01*
X119711968Y-81554106D01*
X119702290Y-81492052D01*
X119678437Y-81445785D01*
X119634089Y-81397161D01*
X119621393Y-81384769D01*
X119528996Y-81295214D01*
X119445546Y-81344123D01*
X119395739Y-81372971D01*
X119309957Y-81422297D01*
X119197487Y-81486776D01*
X119067618Y-81561079D01*
X118958302Y-81623523D01*
X118824740Y-81699799D01*
X118704545Y-81768511D01*
X118606007Y-81824913D01*
X118537418Y-81864260D01*
X118508918Y-81880716D01*
X118471456Y-81917010D01*
X118463873Y-81939759D01*
X118485908Y-81958696D01*
X118548942Y-82000837D01*
X118648700Y-82063600D01*
X118780909Y-82144402D01*
X118941293Y-82240664D01*
X119125576Y-82349803D01*
X119329484Y-82469237D01*
X119548742Y-82596386D01*
X119603617Y-82628018D01*
X120742815Y-83283934D01*
X120749958Y-83715659D01*
X120751620Y-83859028D01*
X120751695Y-83982257D01*
X120750287Y-84076783D01*
X120747502Y-84134040D01*
X120744657Y-84147385D01*
X120718683Y-84134794D01*
X120657532Y-84100597D01*
X120570604Y-84050160D01*
X120477001Y-83994656D01*
X120401795Y-83949936D01*
X120287440Y-83882319D01*
X120139753Y-83795228D01*
X119964551Y-83692086D01*
X119767651Y-83576316D01*
X119554870Y-83451340D01*
X119332025Y-83320581D01*
X119140661Y-83208395D01*
X118921885Y-83079984D01*
X118714966Y-82958127D01*
X118524641Y-82845644D01*
X118355648Y-82745352D01*
X118212724Y-82660071D01*
X118100607Y-82592619D01*
X118024034Y-82545813D01*
X117987818Y-82522529D01*
X117898769Y-82425741D01*
X117835656Y-82285064D01*
X117799140Y-82102173D01*
X117792822Y-82029393D01*
X117793064Y-81804499D01*
X117824103Y-81619667D01*
X117885735Y-81475871D01*
X117916779Y-81432622D01*
X117971408Y-81382120D01*
X118067565Y-81311072D01*
X118200441Y-81222752D01*
X118365225Y-81120433D01*
X118450008Y-81069807D01*
X118587817Y-80987610D01*
X118708921Y-80913790D01*
X118806622Y-80852562D01*
X118874222Y-80808139D01*
X118905024Y-80784737D01*
X118906200Y-80782772D01*
X118888181Y-80758273D01*
X118840281Y-80708748D01*
X118771733Y-80643591D01*
X118748929Y-80622768D01*
X118665968Y-80550408D01*
X118603728Y-80506526D01*
X118545975Y-80482868D01*
X118481192Y-80471978D01*
X118476472Y-80471185D01*
X118444963Y-80468281D01*
X118351882Y-80455907D01*
X118289594Y-80431867D01*
X118236853Y-80387029D01*
X118224490Y-80373544D01*
X118164005Y-80273380D01*
X118149835Y-80182848D01*
X118342112Y-80182848D01*
X118364731Y-80245953D01*
X118411574Y-80278880D01*
X118481192Y-80279799D01*
X118535596Y-80245076D01*
X118565394Y-80189041D01*
X118561194Y-80126026D01*
X118536271Y-80088595D01*
X118476655Y-80059688D01*
X118409918Y-80066966D01*
X118360261Y-80107456D01*
X118358596Y-80110420D01*
X118342112Y-80182848D01*
X118149835Y-80182848D01*
X118147496Y-80167907D01*
X118168742Y-80065786D01*
X118221525Y-79975680D01*
X118299625Y-79906248D01*
X118396822Y-79866154D01*
X118506898Y-79864058D01*
X118575782Y-79884325D01*
G37*
G36*
X110139320Y-76069109D02*
G01*
X110161303Y-76132246D01*
X110189788Y-76224819D01*
X110212940Y-76305815D01*
X110246134Y-76431913D01*
X110263896Y-76518805D01*
X110267604Y-76576601D01*
X110258637Y-76615411D01*
X110255930Y-76620889D01*
X110235472Y-76656092D01*
X110191391Y-76729891D01*
X110127232Y-76836422D01*
X110046537Y-76969823D01*
X109952850Y-77124230D01*
X109849714Y-77293779D01*
X109799044Y-77376931D01*
X109694148Y-77550053D01*
X109598695Y-77709665D01*
X109515939Y-77850161D01*
X109449134Y-77965934D01*
X109401534Y-78051378D01*
X109376395Y-78100887D01*
X109373265Y-78110421D01*
X109387293Y-78147477D01*
X109422314Y-78213782D01*
X109470760Y-78295006D01*
X109470957Y-78295320D01*
X109566815Y-78448077D01*
X110313542Y-78838268D01*
X111060269Y-79228459D01*
X111121132Y-79401922D01*
X111181994Y-79575385D01*
X111414414Y-79695931D01*
X111520630Y-79750332D01*
X111592573Y-79783476D01*
X111642087Y-79798354D01*
X111681016Y-79797956D01*
X111721205Y-79785273D01*
X111739123Y-79777916D01*
X111869578Y-79747772D01*
X111989800Y-79765769D01*
X112091703Y-79827990D01*
X112167204Y-79930516D01*
X112193202Y-79997960D01*
X112226010Y-80110477D01*
X112954464Y-80503480D01*
X113170909Y-80620672D01*
X113392294Y-80741306D01*
X113613907Y-80862752D01*
X113831033Y-80982375D01*
X114038958Y-81097546D01*
X114232969Y-81205629D01*
X114408353Y-81303995D01*
X114560394Y-81390009D01*
X114684380Y-81461041D01*
X114775597Y-81514456D01*
X114829331Y-81547624D01*
X114842200Y-81557669D01*
X114816824Y-81559390D01*
X114743404Y-81561026D01*
X114625994Y-81562552D01*
X114468651Y-81563947D01*
X114275433Y-81565189D01*
X114050396Y-81566254D01*
X113797597Y-81567121D01*
X113521093Y-81567767D01*
X113224940Y-81568170D01*
X112916573Y-81568308D01*
X110990946Y-81568308D01*
X110593369Y-80923538D01*
X110464672Y-80714883D01*
X110320378Y-80481041D01*
X110169881Y-80237228D01*
X110022575Y-79998660D01*
X109887852Y-79780554D01*
X109820256Y-79671167D01*
X109722339Y-79511827D01*
X109634657Y-79367386D01*
X109560624Y-79243611D01*
X109503654Y-79146270D01*
X109467162Y-79081129D01*
X109454562Y-79053958D01*
X109454691Y-79053594D01*
X109480038Y-79061393D01*
X109543064Y-79089561D01*
X109635384Y-79134117D01*
X109748614Y-79191079D01*
X109801510Y-79218325D01*
X110138359Y-79393026D01*
X110671787Y-80259231D01*
X111205216Y-81125436D01*
X112364610Y-81125436D01*
X112625967Y-81124932D01*
X112860661Y-81123474D01*
X113064758Y-81121143D01*
X113234320Y-81118019D01*
X113365412Y-81114183D01*
X113454098Y-81109716D01*
X113496441Y-81104697D01*
X113499256Y-81102210D01*
X113469297Y-81082927D01*
X113399852Y-81042589D01*
X113297364Y-80984744D01*
X113168273Y-80912941D01*
X113019023Y-80830726D01*
X112856055Y-80741649D01*
X112685811Y-80649257D01*
X112514734Y-80557099D01*
X112349265Y-80468722D01*
X112344154Y-80466007D01*
X112233386Y-80408224D01*
X112156990Y-80372497D01*
X112103867Y-80355436D01*
X112062920Y-80353655D01*
X112023052Y-80363764D01*
X112016663Y-80366030D01*
X111877221Y-80394896D01*
X111874031Y-80394429D01*
X111756005Y-80377152D01*
X111658194Y-80315565D01*
X111588965Y-80212905D01*
X111561138Y-80122462D01*
X111549312Y-80086595D01*
X111525084Y-80054654D01*
X111749512Y-80054654D01*
X111756726Y-80106834D01*
X111763456Y-80122567D01*
X111810183Y-80174930D01*
X111874031Y-80191210D01*
X111938390Y-80175033D01*
X111986648Y-80130025D01*
X112002610Y-80070359D01*
X111988502Y-80010576D01*
X111971348Y-79984390D01*
X111909607Y-79955345D01*
X111837061Y-79965872D01*
X111781078Y-80005337D01*
X111749512Y-80054654D01*
X111525084Y-80054654D01*
X111524193Y-80053479D01*
X111477821Y-80017121D01*
X111402235Y-79971529D01*
X111289474Y-79910710D01*
X111257710Y-79894077D01*
X110969886Y-79743846D01*
X110910668Y-79576103D01*
X110851449Y-79408360D01*
X110065850Y-79006382D01*
X109875889Y-78908920D01*
X109697878Y-78817088D01*
X109537882Y-78734054D01*
X109401967Y-78662987D01*
X109296200Y-78607053D01*
X109226646Y-78569420D01*
X109203041Y-78555843D01*
X109154448Y-78511761D01*
X109091241Y-78435934D01*
X109024406Y-78341996D01*
X108999978Y-78303798D01*
X108874124Y-78100314D01*
X109222850Y-77522260D01*
X109337441Y-77332335D01*
X109461738Y-77126363D01*
X109587381Y-76918194D01*
X109706010Y-76721678D01*
X109809267Y-76550666D01*
X109842734Y-76495250D01*
X109925645Y-76359005D01*
X109999649Y-76239348D01*
X110060510Y-76142973D01*
X110103991Y-76076569D01*
X110125856Y-76046827D01*
X110127285Y-76045866D01*
X110139320Y-76069109D01*
G37*
G36*
X111332445Y-75153286D02*
G01*
X111430662Y-75211353D01*
X111493492Y-75307351D01*
X111519468Y-75439864D01*
X111519590Y-75442614D01*
X111528071Y-75519433D01*
X111553617Y-75572723D01*
X111608524Y-75624907D01*
X111627870Y-75640092D01*
X111682587Y-75683393D01*
X111768257Y-75752498D01*
X111875722Y-75839961D01*
X111995822Y-75938335D01*
X112083847Y-76010808D01*
X112436507Y-76301822D01*
X112595822Y-76287376D01*
X112685926Y-76281116D01*
X112743022Y-76286206D01*
X112785830Y-76307753D01*
X112833070Y-76350864D01*
X112834771Y-76352563D01*
X112893802Y-76431326D01*
X112918284Y-76523325D01*
X112916330Y-76621753D01*
X112935186Y-76650684D01*
X112992512Y-76709049D01*
X113085568Y-76794397D01*
X113211617Y-76904278D01*
X113367919Y-77036241D01*
X113519651Y-77161593D01*
X114127046Y-77659168D01*
X114399956Y-78455931D01*
X114466501Y-78649692D01*
X114527978Y-78827712D01*
X114582287Y-78983980D01*
X114627323Y-79112484D01*
X114660985Y-79207213D01*
X114681170Y-79262157D01*
X114685892Y-79273455D01*
X114713337Y-79293861D01*
X114778005Y-79333253D01*
X114870862Y-79386731D01*
X114982873Y-79449392D01*
X115105003Y-79516335D01*
X115228218Y-79582658D01*
X115343482Y-79643460D01*
X115441762Y-79693838D01*
X115514023Y-79728893D01*
X115551229Y-79743721D01*
X115553040Y-79743907D01*
X115573209Y-79722122D01*
X115616722Y-79660468D01*
X115680404Y-79563923D01*
X115761079Y-79437466D01*
X115855571Y-79286076D01*
X115960704Y-79114731D01*
X116073304Y-78928411D01*
X116074988Y-78925604D01*
X116565314Y-78108112D01*
X116523837Y-78027906D01*
X116500711Y-77986795D01*
X116454128Y-77906966D01*
X116387581Y-77794297D01*
X116304561Y-77654663D01*
X116208557Y-77493940D01*
X116103061Y-77318005D01*
X116026998Y-77191542D01*
X115571636Y-76435385D01*
X115571883Y-76012462D01*
X115572130Y-75589538D01*
X115679705Y-75758872D01*
X115726207Y-75833303D01*
X115792281Y-75940810D01*
X115874904Y-76076350D01*
X115971054Y-76234880D01*
X116077709Y-76411355D01*
X116191847Y-76600733D01*
X116310447Y-76797970D01*
X116430486Y-76998022D01*
X116548942Y-77195846D01*
X116662794Y-77386398D01*
X116769019Y-77564635D01*
X116864595Y-77725514D01*
X116946502Y-77863989D01*
X117011715Y-77975019D01*
X117057215Y-78053560D01*
X117079978Y-78094567D01*
X117082041Y-78099325D01*
X117068887Y-78124531D01*
X117031490Y-78189714D01*
X116972577Y-78290274D01*
X116894877Y-78421608D01*
X116801118Y-78579118D01*
X116694030Y-78758201D01*
X116576339Y-78954258D01*
X116489374Y-79098693D01*
X116363949Y-79306295D01*
X116245219Y-79501942D01*
X116136211Y-79680712D01*
X116039950Y-79837681D01*
X115959463Y-79967926D01*
X115897774Y-80066523D01*
X115857910Y-80128550D01*
X115845174Y-80146875D01*
X115793071Y-80212878D01*
X115144481Y-79842029D01*
X114976827Y-79745263D01*
X114823767Y-79655188D01*
X114691241Y-79575439D01*
X114585191Y-79509651D01*
X114511557Y-79461458D01*
X114476282Y-79434495D01*
X114474423Y-79432103D01*
X114460244Y-79397172D01*
X114432052Y-79320261D01*
X114392461Y-79208772D01*
X114344080Y-79070103D01*
X114289522Y-78911655D01*
X114253788Y-78806872D01*
X114192323Y-78626566D01*
X114131452Y-78449063D01*
X114074809Y-78284876D01*
X114026026Y-78144525D01*
X113988737Y-78038523D01*
X113977204Y-78006296D01*
X113899789Y-77791875D01*
X113316095Y-77316197D01*
X113141530Y-77174610D01*
X113002179Y-77063379D01*
X112893459Y-76979234D01*
X112810784Y-76918904D01*
X112749570Y-76879119D01*
X112705234Y-76856608D01*
X112673190Y-76848102D01*
X112659924Y-76848122D01*
X112571357Y-76834349D01*
X112482803Y-76784060D01*
X112411697Y-76709843D01*
X112380353Y-76646226D01*
X112369156Y-76615634D01*
X112351153Y-76583783D01*
X112322080Y-76546696D01*
X112277674Y-76500392D01*
X112213668Y-76440893D01*
X112125800Y-76364218D01*
X112009804Y-76266389D01*
X111861417Y-76143425D01*
X111694674Y-76006359D01*
X111574855Y-75908438D01*
X111487079Y-75838943D01*
X111423131Y-75793226D01*
X111374800Y-75766636D01*
X111333870Y-75754522D01*
X111292130Y-75752233D01*
X111249913Y-75754538D01*
X111217498Y-75752302D01*
X111110741Y-75744936D01*
X111004280Y-75694822D01*
X110930390Y-75604128D01*
X110924995Y-75593262D01*
X110886511Y-75465562D01*
X110887793Y-75453002D01*
X111090239Y-75453002D01*
X111113251Y-75515711D01*
X111161568Y-75562046D01*
X111217498Y-75576513D01*
X111263435Y-75555099D01*
X111305383Y-75505486D01*
X111325188Y-75449612D01*
X111325277Y-75446256D01*
X111307657Y-75388931D01*
X111284339Y-75356938D01*
X111234262Y-75321156D01*
X111181247Y-75324459D01*
X111141205Y-75342968D01*
X111097801Y-75390044D01*
X111090239Y-75453002D01*
X110887793Y-75453002D01*
X110898388Y-75349219D01*
X110933110Y-75278680D01*
X111017885Y-75187601D01*
X111125439Y-75141879D01*
X111200307Y-75134564D01*
X111332445Y-75153286D01*
G37*
G36*
X110073955Y-74491367D02*
G01*
X110094003Y-74495741D01*
X110133550Y-74501269D01*
X110219540Y-74512466D01*
X110346699Y-74528671D01*
X110509751Y-74549222D01*
X110703424Y-74573456D01*
X110922444Y-74600713D01*
X111161535Y-74630330D01*
X111415425Y-74661646D01*
X111455439Y-74666570D01*
X111708639Y-74697899D01*
X111945798Y-74727600D01*
X112161959Y-74755025D01*
X112352164Y-74779530D01*
X112511454Y-74800468D01*
X112634870Y-74817193D01*
X112717456Y-74829059D01*
X112754251Y-74835421D01*
X112755672Y-74835969D01*
X112749521Y-74861241D01*
X112727206Y-74892507D01*
X112604833Y-75037423D01*
X112498365Y-75168018D01*
X112411614Y-75279272D01*
X112348393Y-75366162D01*
X112312515Y-75423666D01*
X112306795Y-75446181D01*
X112330597Y-75465660D01*
X112391330Y-75514703D01*
X112485255Y-75590306D01*
X112608631Y-75689466D01*
X112757719Y-75809179D01*
X112928780Y-75946443D01*
X113118074Y-76098254D01*
X113321861Y-76261610D01*
X113461482Y-76373487D01*
X113684335Y-76552134D01*
X113904393Y-76728735D01*
X114116539Y-76899168D01*
X114315653Y-77059314D01*
X114496616Y-77205051D01*
X114654309Y-77332259D01*
X114783613Y-77436817D01*
X114879410Y-77514603D01*
X114907328Y-77537404D01*
X115026326Y-77634390D01*
X115113140Y-77702776D01*
X115175770Y-77747130D01*
X115222215Y-77772017D01*
X115260473Y-77782004D01*
X115298544Y-77781660D01*
X115328466Y-77777846D01*
X115461721Y-77780500D01*
X115574970Y-77824273D01*
X115660573Y-77902352D01*
X115710892Y-78007927D01*
X115719188Y-78126195D01*
X115683254Y-78248358D01*
X115607157Y-78340623D01*
X115497159Y-78396743D01*
X115435839Y-78408821D01*
X115405833Y-78407280D01*
X115302572Y-78401978D01*
X115195291Y-78352203D01*
X115119483Y-78264463D01*
X115080636Y-78143726D01*
X115077802Y-78100884D01*
X115276917Y-78100884D01*
X115296823Y-78170077D01*
X115342175Y-78210369D01*
X115405833Y-78220736D01*
X115462934Y-78192764D01*
X115503780Y-78140123D01*
X115518669Y-78076482D01*
X115497902Y-78015510D01*
X115488271Y-78004492D01*
X115426998Y-77975448D01*
X115356836Y-77984584D01*
X115302454Y-78027019D01*
X115276917Y-78100884D01*
X115077802Y-78100884D01*
X115076661Y-78083629D01*
X115068171Y-78008444D01*
X115033748Y-77955194D01*
X114991994Y-77920760D01*
X114950300Y-77888636D01*
X114874094Y-77828465D01*
X114769338Y-77745011D01*
X114641992Y-77643040D01*
X114498017Y-77527316D01*
X114343376Y-77402604D01*
X114308148Y-77374138D01*
X114149149Y-77245609D01*
X113958486Y-77091485D01*
X113745018Y-76918925D01*
X113517602Y-76735091D01*
X113285094Y-76547141D01*
X113056352Y-76362234D01*
X112840232Y-76187531D01*
X112829738Y-76179048D01*
X112645178Y-76029422D01*
X112473777Y-75889623D01*
X112319665Y-75763083D01*
X112186977Y-75653234D01*
X112079844Y-75563509D01*
X112002398Y-75497339D01*
X111958772Y-75458157D01*
X111950507Y-75448806D01*
X111966454Y-75421970D01*
X112009430Y-75365293D01*
X112072136Y-75288134D01*
X112120642Y-75230699D01*
X112290777Y-75032098D01*
X112205309Y-75018236D01*
X112159004Y-75011609D01*
X112067963Y-74999347D01*
X111939139Y-74982358D01*
X111779484Y-74961551D01*
X111595953Y-74937833D01*
X111395499Y-74912114D01*
X111286200Y-74898163D01*
X111082328Y-74872188D01*
X110894093Y-74848204D01*
X110727972Y-74827036D01*
X110590443Y-74809510D01*
X110487985Y-74796452D01*
X110427075Y-74788686D01*
X110413482Y-74786951D01*
X110381452Y-74796054D01*
X110378588Y-74808000D01*
X110388032Y-74846798D01*
X110409897Y-74926832D01*
X110442098Y-75041009D01*
X110482550Y-75182236D01*
X110529170Y-75343418D01*
X110579873Y-75517462D01*
X110632574Y-75697276D01*
X110685191Y-75875764D01*
X110735637Y-76045833D01*
X110781830Y-76200391D01*
X110821684Y-76332342D01*
X110853115Y-76434595D01*
X110874039Y-76500054D01*
X110882080Y-76521561D01*
X110904337Y-76511088D01*
X110950814Y-76466866D01*
X111014056Y-76396518D01*
X111066756Y-76332759D01*
X111139296Y-76246846D01*
X111202577Y-76180484D01*
X111248407Y-76141789D01*
X111265848Y-76135556D01*
X111292099Y-76154135D01*
X111353927Y-76202213D01*
X111446779Y-76276059D01*
X111566100Y-76371942D01*
X111707336Y-76486133D01*
X111865935Y-76614899D01*
X112037341Y-76754512D01*
X112217001Y-76901240D01*
X112400361Y-77051352D01*
X112582868Y-77201119D01*
X112759967Y-77346809D01*
X112927105Y-77484692D01*
X113079728Y-77611037D01*
X113213281Y-77722115D01*
X113323211Y-77814194D01*
X113404965Y-77883543D01*
X113453988Y-77926433D01*
X113465386Y-77937434D01*
X113484888Y-77974201D01*
X113518388Y-78053500D01*
X113563278Y-78168474D01*
X113616952Y-78312268D01*
X113676806Y-78478026D01*
X113740234Y-78658893D01*
X113746352Y-78676615D01*
X113812159Y-78867168D01*
X113875965Y-79051289D01*
X113934765Y-79220355D01*
X113985553Y-79365739D01*
X114025323Y-79478816D01*
X114050478Y-79549333D01*
X114116620Y-79731692D01*
X114469336Y-79933590D01*
X114593850Y-80003272D01*
X114705068Y-80062546D01*
X114794064Y-80106882D01*
X114851915Y-80131749D01*
X114867062Y-80135487D01*
X114918206Y-80128221D01*
X114995269Y-80109863D01*
X115032053Y-80099379D01*
X115152033Y-80063270D01*
X115616093Y-80319302D01*
X116080154Y-80575334D01*
X116201216Y-80535479D01*
X116277901Y-80513235D01*
X116333951Y-80510514D01*
X116395581Y-80528778D01*
X116442811Y-80548941D01*
X116550699Y-80621393D01*
X116616586Y-80719870D01*
X116637355Y-80835718D01*
X116609889Y-80960282D01*
X116599321Y-80983491D01*
X116527859Y-81073858D01*
X116426628Y-81131054D01*
X116321129Y-81149227D01*
X116308849Y-81151342D01*
X116187747Y-81130983D01*
X116144242Y-81112141D01*
X116059488Y-81044008D01*
X116005347Y-80939913D01*
X115990047Y-80881224D01*
X115979464Y-80851545D01*
X115972683Y-80842710D01*
X116186224Y-80842710D01*
X116204832Y-80905207D01*
X116253466Y-80948360D01*
X116321129Y-80961043D01*
X116378241Y-80943604D01*
X116420879Y-80895182D01*
X116428735Y-80827432D01*
X116400520Y-80760935D01*
X116390390Y-80749553D01*
X116323919Y-80712098D01*
X116257172Y-80724147D01*
X116208641Y-80771997D01*
X116186224Y-80842710D01*
X115972683Y-80842710D01*
X115956236Y-80821283D01*
X115914089Y-80786020D01*
X115846747Y-80741335D01*
X115747935Y-80682808D01*
X115611379Y-80606019D01*
X115555307Y-80575004D01*
X115135980Y-80343663D01*
X115024891Y-80382857D01*
X114942728Y-80407287D01*
X114871588Y-80420983D01*
X114854921Y-80422051D01*
X114815134Y-80409125D01*
X114738745Y-80373090D01*
X114633578Y-80318059D01*
X114507456Y-80248149D01*
X114368202Y-80167472D01*
X114347218Y-80155026D01*
X113898395Y-79888000D01*
X113735623Y-79428118D01*
X113669006Y-79238596D01*
X113594443Y-79024339D01*
X113519308Y-78806658D01*
X113450971Y-78606863D01*
X113423726Y-78526465D01*
X113274600Y-78084695D01*
X112749323Y-77658765D01*
X112573497Y-77515842D01*
X112380107Y-77358046D01*
X112182569Y-77196364D01*
X111994302Y-77041783D01*
X111828722Y-76905292D01*
X111781174Y-76865949D01*
X111650538Y-76758017D01*
X111532363Y-76660932D01*
X111432892Y-76579776D01*
X111358364Y-76519631D01*
X111315022Y-76485581D01*
X111307605Y-76480276D01*
X111278934Y-76492613D01*
X111223049Y-76545586D01*
X111142167Y-76636838D01*
X111038506Y-76764011D01*
X111027878Y-76777465D01*
X110934038Y-76893434D01*
X110857216Y-76982146D01*
X110801470Y-77039243D01*
X110770862Y-77060366D01*
X110766610Y-77057900D01*
X110755914Y-77022930D01*
X110733191Y-76946041D01*
X110700824Y-76835383D01*
X110661194Y-76699106D01*
X110616685Y-76545361D01*
X110607732Y-76514359D01*
X110557761Y-76341694D01*
X110497296Y-76133488D01*
X110430546Y-75904188D01*
X110361718Y-75668239D01*
X110295019Y-75440087D01*
X110258668Y-75316000D01*
X110191943Y-75088804D01*
X110138559Y-74906812D01*
X110097535Y-74765134D01*
X110067888Y-74658880D01*
X110048637Y-74583158D01*
X110038799Y-74533078D01*
X110037395Y-74503750D01*
X110043440Y-74490282D01*
X110055954Y-74487785D01*
X110073955Y-74491367D01*
G37*
D13*
X125070000Y-62675197D02*
X125070000Y-68115197D01*
X125070000Y-68115197D02*
X125400000Y-68115197D01*
X125400000Y-62675197D02*
X125070000Y-62675197D01*
X127680000Y-62675197D02*
X128010000Y-62675197D01*
X128010000Y-62675197D02*
X128010000Y-68115197D01*
X128010000Y-63455197D02*
X125070000Y-63455197D01*
X128010000Y-63575197D02*
X125070000Y-63575197D01*
X128010000Y-63695197D02*
X125070000Y-63695197D01*
X128010000Y-68115197D02*
X127680000Y-68115197D01*
X145030000Y-55555197D02*
X144874000Y-55555197D01*
X147346000Y-55555197D02*
X147190000Y-55555197D01*
X145030000Y-58156158D02*
G75*
G02*
X145030000Y-56074236I1080000J1040961D01*
G01*
X145030000Y-58786634D02*
G75*
G02*
X144874484Y-55555197I1080000J1671437D01*
G01*
X147190000Y-56074236D02*
G75*
G02*
X147190000Y-58156158I-1080000J-1040961D01*
G01*
X147345516Y-55555197D02*
G75*
G02*
X147190000Y-58786634I-1235516J-1560000D01*
G01*
X130880000Y-55542012D02*
X130724000Y-55542012D01*
X133196000Y-55542012D02*
X133040000Y-55542012D01*
X130880000Y-58142973D02*
G75*
G02*
X130880000Y-56061051I1080000J1040961D01*
G01*
X130880000Y-58773449D02*
G75*
G02*
X130724484Y-55542012I1080000J1671437D01*
G01*
X133040000Y-56061051D02*
G75*
G02*
X133040000Y-58142973I-1080000J-1040961D01*
G01*
X133195516Y-55542012D02*
G75*
G02*
X133040000Y-58773449I-1235516J-1560000D01*
G01*
D15*
X133363552Y-68342099D02*
X133388140Y-68358300D01*
X133405555Y-68371999D01*
X133437038Y-68400239D01*
X133450284Y-68421456D01*
X133449419Y-68439543D01*
X133435765Y-68493196D01*
X133436385Y-68532601D01*
X133451859Y-68564599D01*
X133460916Y-68575341D01*
X133492782Y-68609726D01*
X133908934Y-68609726D01*
X133908934Y-68748043D01*
X133305369Y-68748043D01*
X133305369Y-68678884D01*
X133307011Y-68637362D01*
X133312842Y-68615940D01*
X133324216Y-68609729D01*
X133324553Y-68609726D01*
X133336468Y-68606792D01*
X133334914Y-68593527D01*
X133326318Y-68575147D01*
X133310323Y-68537185D01*
X133300700Y-68506359D01*
X133298233Y-68466695D01*
X133304785Y-68419771D01*
X133318000Y-68376520D01*
X133334696Y-68348673D01*
X133347900Y-68339602D01*
X133363552Y-68342099D01*
G36*
X133363552Y-68342099D02*
G01*
X133388140Y-68358300D01*
X133405555Y-68371999D01*
X133437038Y-68400239D01*
X133450284Y-68421456D01*
X133449419Y-68439543D01*
X133435765Y-68493196D01*
X133436385Y-68532601D01*
X133451859Y-68564599D01*
X133460916Y-68575341D01*
X133492782Y-68609726D01*
X133908934Y-68609726D01*
X133908934Y-68748043D01*
X133305369Y-68748043D01*
X133305369Y-68678884D01*
X133307011Y-68637362D01*
X133312842Y-68615940D01*
X133324216Y-68609729D01*
X133324553Y-68609726D01*
X133336468Y-68606792D01*
X133334914Y-68593527D01*
X133326318Y-68575147D01*
X133310323Y-68537185D01*
X133300700Y-68506359D01*
X133298233Y-68466695D01*
X133304785Y-68419771D01*
X133318000Y-68376520D01*
X133334696Y-68348673D01*
X133347900Y-68339602D01*
X133363552Y-68342099D01*
G37*
X134347326Y-68520355D02*
X134378819Y-68545749D01*
X134394183Y-68562993D01*
X134396531Y-68580129D01*
X134388972Y-68605204D01*
X134384696Y-68616974D01*
X134378386Y-68664961D01*
X134391911Y-68708907D01*
X134422465Y-68741171D01*
X134432207Y-68746412D01*
X134458013Y-68752119D01*
X134505572Y-68756525D01*
X134571513Y-68759420D01*
X134652465Y-68760600D01*
X134663981Y-68760617D01*
X134864577Y-68760617D01*
X134864577Y-68898934D01*
X134248438Y-68898934D01*
X134248438Y-68829775D01*
X134249480Y-68789898D01*
X134254113Y-68769124D01*
X134264604Y-68761442D01*
X134274500Y-68760617D01*
X134300561Y-68760617D01*
X134274500Y-68727486D01*
X134256720Y-68689496D01*
X134247929Y-68638461D01*
X134248241Y-68583976D01*
X134257770Y-68535636D01*
X134271880Y-68508117D01*
X134295323Y-68479167D01*
X134347326Y-68520355D01*
G36*
X134347326Y-68520355D02*
G01*
X134378819Y-68545749D01*
X134394183Y-68562993D01*
X134396531Y-68580129D01*
X134388972Y-68605204D01*
X134384696Y-68616974D01*
X134378386Y-68664961D01*
X134391911Y-68708907D01*
X134422465Y-68741171D01*
X134432207Y-68746412D01*
X134458013Y-68752119D01*
X134505572Y-68756525D01*
X134571513Y-68759420D01*
X134652465Y-68760600D01*
X134663981Y-68760617D01*
X134864577Y-68760617D01*
X134864577Y-68898934D01*
X134248438Y-68898934D01*
X134248438Y-68829775D01*
X134249480Y-68789898D01*
X134254113Y-68769124D01*
X134264604Y-68761442D01*
X134274500Y-68760617D01*
X134300561Y-68760617D01*
X134274500Y-68727486D01*
X134256720Y-68689496D01*
X134247929Y-68638461D01*
X134248241Y-68583976D01*
X134257770Y-68535636D01*
X134271880Y-68508117D01*
X134295323Y-68479167D01*
X134347326Y-68520355D01*
G37*
X134308598Y-70909522D02*
X134331381Y-70926251D01*
X134359402Y-70952194D01*
X134363932Y-70956886D01*
X134384760Y-70981614D01*
X134391490Y-71002949D01*
X134386793Y-71032786D01*
X134383672Y-71044739D01*
X134376176Y-71081936D01*
X134379547Y-71108090D01*
X134391436Y-71130177D01*
X134407390Y-71150409D01*
X134427455Y-71165310D01*
X134455457Y-71175665D01*
X134495222Y-71182260D01*
X134550578Y-71185880D01*
X134625349Y-71187309D01*
X134670495Y-71187449D01*
X134864577Y-71187449D01*
X134864577Y-71313191D01*
X134248438Y-71313191D01*
X134248438Y-71250320D01*
X134249775Y-71212587D01*
X134255415Y-71193770D01*
X134267808Y-71187704D01*
X134273402Y-71187449D01*
X134288985Y-71186360D01*
X134291431Y-71178863D01*
X134280748Y-71158612D01*
X134273449Y-71146582D01*
X134257818Y-71108631D01*
X134250089Y-71063303D01*
X134249495Y-71015775D01*
X134255268Y-70971226D01*
X134266639Y-70934833D01*
X134282843Y-70911774D01*
X134303110Y-70907227D01*
X134308598Y-70909522D01*
G36*
X134308598Y-70909522D02*
G01*
X134331381Y-70926251D01*
X134359402Y-70952194D01*
X134363932Y-70956886D01*
X134384760Y-70981614D01*
X134391490Y-71002949D01*
X134386793Y-71032786D01*
X134383672Y-71044739D01*
X134376176Y-71081936D01*
X134379547Y-71108090D01*
X134391436Y-71130177D01*
X134407390Y-71150409D01*
X134427455Y-71165310D01*
X134455457Y-71175665D01*
X134495222Y-71182260D01*
X134550578Y-71185880D01*
X134625349Y-71187309D01*
X134670495Y-71187449D01*
X134864577Y-71187449D01*
X134864577Y-71313191D01*
X134248438Y-71313191D01*
X134248438Y-71250320D01*
X134249775Y-71212587D01*
X134255415Y-71193770D01*
X134267808Y-71187704D01*
X134273402Y-71187449D01*
X134288985Y-71186360D01*
X134291431Y-71178863D01*
X134280748Y-71158612D01*
X134273449Y-71146582D01*
X134257818Y-71108631D01*
X134250089Y-71063303D01*
X134249495Y-71015775D01*
X134255268Y-70971226D01*
X134266639Y-70934833D01*
X134282843Y-70911774D01*
X134303110Y-70907227D01*
X134308598Y-70909522D01*
G37*
X133908934Y-68930369D02*
X133907244Y-68972061D01*
X133901311Y-68993530D01*
X133890048Y-68999528D01*
X133880016Y-69003140D01*
X133882138Y-69017517D01*
X133896335Y-69046495D01*
X133918235Y-69112912D01*
X133916683Y-69183356D01*
X133892902Y-69250854D01*
X133874117Y-69282998D01*
X133853777Y-69307516D01*
X133828328Y-69325427D01*
X133794213Y-69337752D01*
X133747876Y-69345508D01*
X133685762Y-69349715D01*
X133604316Y-69351391D01*
X133541333Y-69351607D01*
X133305369Y-69351607D01*
X133305369Y-69225864D01*
X133501097Y-69225864D01*
X133593318Y-69224676D01*
X133663365Y-69220334D01*
X133714136Y-69211673D01*
X133748527Y-69197527D01*
X133769434Y-69176731D01*
X133779755Y-69148121D01*
X133782391Y-69112696D01*
X133779437Y-69075595D01*
X133768644Y-69047413D01*
X133747115Y-69026988D01*
X133711954Y-69013152D01*
X133660265Y-69004740D01*
X133589149Y-69000588D01*
X133501097Y-68999528D01*
X133305369Y-68999528D01*
X133305369Y-68861211D01*
X133908934Y-68861211D01*
X133908934Y-68930369D01*
G36*
X133908934Y-68930369D02*
G01*
X133907244Y-68972061D01*
X133901311Y-68993530D01*
X133890048Y-68999528D01*
X133880016Y-69003140D01*
X133882138Y-69017517D01*
X133896335Y-69046495D01*
X133918235Y-69112912D01*
X133916683Y-69183356D01*
X133892902Y-69250854D01*
X133874117Y-69282998D01*
X133853777Y-69307516D01*
X133828328Y-69325427D01*
X133794213Y-69337752D01*
X133747876Y-69345508D01*
X133685762Y-69349715D01*
X133604316Y-69351391D01*
X133541333Y-69351607D01*
X133305369Y-69351607D01*
X133305369Y-69225864D01*
X133501097Y-69225864D01*
X133593318Y-69224676D01*
X133663365Y-69220334D01*
X133714136Y-69211673D01*
X133748527Y-69197527D01*
X133769434Y-69176731D01*
X133779755Y-69148121D01*
X133782391Y-69112696D01*
X133779437Y-69075595D01*
X133768644Y-69047413D01*
X133747115Y-69026988D01*
X133711954Y-69013152D01*
X133660265Y-69004740D01*
X133589149Y-69000588D01*
X133501097Y-68999528D01*
X133305369Y-68999528D01*
X133305369Y-68861211D01*
X133908934Y-68861211D01*
X133908934Y-68930369D01*
G37*
X133908934Y-70986261D02*
X133703173Y-70986261D01*
X133626944Y-70986359D01*
X133571694Y-70987040D01*
X133533256Y-70988882D01*
X133507461Y-70992464D01*
X133490139Y-70998363D01*
X133477123Y-71007158D01*
X133464262Y-71019411D01*
X133436628Y-71062278D01*
X133431500Y-71109074D01*
X133448972Y-71153655D01*
X133461976Y-71169159D01*
X133474202Y-71180541D01*
X133487295Y-71188712D01*
X133505370Y-71194205D01*
X133532542Y-71197551D01*
X133572925Y-71199282D01*
X133630634Y-71199928D01*
X133700887Y-71200023D01*
X133908934Y-71200023D01*
X133908934Y-71338340D01*
X133305369Y-71338340D01*
X133305369Y-71269181D01*
X133307011Y-71227659D01*
X133312842Y-71206237D01*
X133324216Y-71200026D01*
X133324553Y-71200023D01*
X133335693Y-71197141D01*
X133334429Y-71184430D01*
X133322189Y-71159157D01*
X133304179Y-71101836D01*
X133302176Y-71036268D01*
X133315757Y-70973243D01*
X133330705Y-70941948D01*
X133352296Y-70911640D01*
X133377146Y-70888549D01*
X133408842Y-70871731D01*
X133450969Y-70860237D01*
X133507113Y-70853122D01*
X133580861Y-70849438D01*
X133675799Y-70848239D01*
X133685740Y-70848220D01*
X133908934Y-70847944D01*
X133908934Y-70986261D01*
G36*
X133908934Y-70986261D02*
G01*
X133703173Y-70986261D01*
X133626944Y-70986359D01*
X133571694Y-70987040D01*
X133533256Y-70988882D01*
X133507461Y-70992464D01*
X133490139Y-70998363D01*
X133477123Y-71007158D01*
X133464262Y-71019411D01*
X133436628Y-71062278D01*
X133431500Y-71109074D01*
X133448972Y-71153655D01*
X133461976Y-71169159D01*
X133474202Y-71180541D01*
X133487295Y-71188712D01*
X133505370Y-71194205D01*
X133532542Y-71197551D01*
X133572925Y-71199282D01*
X133630634Y-71199928D01*
X133700887Y-71200023D01*
X133908934Y-71200023D01*
X133908934Y-71338340D01*
X133305369Y-71338340D01*
X133305369Y-71269181D01*
X133307011Y-71227659D01*
X133312842Y-71206237D01*
X133324216Y-71200026D01*
X133324553Y-71200023D01*
X133335693Y-71197141D01*
X133334429Y-71184430D01*
X133322189Y-71159157D01*
X133304179Y-71101836D01*
X133302176Y-71036268D01*
X133315757Y-70973243D01*
X133330705Y-70941948D01*
X133352296Y-70911640D01*
X133377146Y-70888549D01*
X133408842Y-70871731D01*
X133450969Y-70860237D01*
X133507113Y-70853122D01*
X133580861Y-70849438D01*
X133675799Y-70848239D01*
X133685740Y-70848220D01*
X133908934Y-70847944D01*
X133908934Y-70986261D01*
G37*
X133855219Y-67899110D02*
X133897637Y-67969557D01*
X133918540Y-68048998D01*
X133917027Y-68132016D01*
X133903166Y-68186537D01*
X133868890Y-68250261D01*
X133814967Y-68301226D01*
X133776904Y-68324380D01*
X133722291Y-68343132D01*
X133653124Y-68352516D01*
X133578162Y-68352588D01*
X133506164Y-68343407D01*
X133445892Y-68325032D01*
X133439713Y-68322138D01*
X133379106Y-68279279D01*
X133334979Y-68221252D01*
X133308248Y-68152640D01*
X133299828Y-68078030D01*
X133310635Y-68002005D01*
X133341585Y-67929151D01*
X133356650Y-67906204D01*
X133379803Y-67876877D01*
X133398008Y-67858467D01*
X133403938Y-67855270D01*
X133417095Y-67864296D01*
X133439422Y-67887394D01*
X133455005Y-67905887D01*
X133495681Y-67956503D01*
X133462050Y-67996471D01*
X133440339Y-68027357D01*
X133432845Y-68057472D01*
X133434675Y-68091939D01*
X133448283Y-68146670D01*
X133476527Y-68184345D01*
X133522188Y-68207240D01*
X133588044Y-68217634D01*
X133588086Y-68217636D01*
X133661694Y-68216737D01*
X133715701Y-68202768D01*
X133752471Y-68174903D01*
X133764923Y-68155906D01*
X133780428Y-68105455D01*
X133780438Y-68051568D01*
X133765393Y-68004685D01*
X133758042Y-67993587D01*
X133739266Y-67965755D01*
X133736189Y-67943995D01*
X133750164Y-67920527D01*
X133775265Y-67894582D01*
X133817635Y-67853515D01*
X133855219Y-67899110D01*
G36*
X133855219Y-67899110D02*
G01*
X133897637Y-67969557D01*
X133918540Y-68048998D01*
X133917027Y-68132016D01*
X133903166Y-68186537D01*
X133868890Y-68250261D01*
X133814967Y-68301226D01*
X133776904Y-68324380D01*
X133722291Y-68343132D01*
X133653124Y-68352516D01*
X133578162Y-68352588D01*
X133506164Y-68343407D01*
X133445892Y-68325032D01*
X133439713Y-68322138D01*
X133379106Y-68279279D01*
X133334979Y-68221252D01*
X133308248Y-68152640D01*
X133299828Y-68078030D01*
X133310635Y-68002005D01*
X133341585Y-67929151D01*
X133356650Y-67906204D01*
X133379803Y-67876877D01*
X133398008Y-67858467D01*
X133403938Y-67855270D01*
X133417095Y-67864296D01*
X133439422Y-67887394D01*
X133455005Y-67905887D01*
X133495681Y-67956503D01*
X133462050Y-67996471D01*
X133440339Y-68027357D01*
X133432845Y-68057472D01*
X133434675Y-68091939D01*
X133448283Y-68146670D01*
X133476527Y-68184345D01*
X133522188Y-68207240D01*
X133588044Y-68217634D01*
X133588086Y-68217636D01*
X133661694Y-68216737D01*
X133715701Y-68202768D01*
X133752471Y-68174903D01*
X133764923Y-68155906D01*
X133780428Y-68105455D01*
X133780438Y-68051568D01*
X133765393Y-68004685D01*
X133758042Y-67993587D01*
X133739266Y-67965755D01*
X133736189Y-67943995D01*
X133750164Y-67920527D01*
X133775265Y-67894582D01*
X133817635Y-67853515D01*
X133855219Y-67899110D01*
G37*
X133671184Y-69453395D02*
X133728089Y-69458605D01*
X133758482Y-69464690D01*
X133800061Y-69485217D01*
X133844223Y-69520768D01*
X133882842Y-69563612D01*
X133907789Y-69606020D01*
X133908185Y-69607054D01*
X133919086Y-69659678D01*
X133919356Y-69722043D01*
X133909431Y-69781307D01*
X133901477Y-69804191D01*
X133868055Y-69863129D01*
X133824266Y-69905341D01*
X133766293Y-69933075D01*
X133690320Y-69948580D01*
X133650526Y-69952088D01*
X133600521Y-69951641D01*
X133544335Y-69951137D01*
X133457256Y-69933843D01*
X133389285Y-69900202D01*
X133340419Y-69850213D01*
X133310654Y-69783875D01*
X133307203Y-69769630D01*
X133300377Y-69697511D01*
X133432328Y-69697511D01*
X133442642Y-69744220D01*
X133467867Y-69780099D01*
X133488680Y-69798954D01*
X133509194Y-69809959D01*
X133536958Y-69815205D01*
X133579517Y-69816782D01*
X133600521Y-69816855D01*
X133673487Y-69812314D01*
X133729089Y-69799245D01*
X133764616Y-69778475D01*
X133774775Y-69763679D01*
X133781859Y-69725767D01*
X133779762Y-69680704D01*
X133769567Y-69641744D01*
X133763959Y-69631527D01*
X133731293Y-69604572D01*
X133681300Y-69586780D01*
X133620460Y-69579207D01*
X133555252Y-69582906D01*
X133516008Y-69591174D01*
X133470560Y-69614911D01*
X133442151Y-69652382D01*
X133432328Y-69697511D01*
X133300377Y-69697511D01*
X133299100Y-69684021D01*
X133312810Y-69608469D01*
X133347447Y-69544868D01*
X133402127Y-69495108D01*
X133446597Y-69471663D01*
X133485876Y-69461597D01*
X133541871Y-69455075D01*
X133606376Y-69452280D01*
X133671184Y-69453395D01*
G36*
X133671184Y-69453395D02*
G01*
X133728089Y-69458605D01*
X133758482Y-69464690D01*
X133800061Y-69485217D01*
X133844223Y-69520768D01*
X133882842Y-69563612D01*
X133907789Y-69606020D01*
X133908185Y-69607054D01*
X133919086Y-69659678D01*
X133919356Y-69722043D01*
X133909431Y-69781307D01*
X133901477Y-69804191D01*
X133868055Y-69863129D01*
X133824266Y-69905341D01*
X133766293Y-69933075D01*
X133690320Y-69948580D01*
X133650526Y-69952088D01*
X133600521Y-69951641D01*
X133544335Y-69951137D01*
X133457256Y-69933843D01*
X133389285Y-69900202D01*
X133340419Y-69850213D01*
X133310654Y-69783875D01*
X133307203Y-69769630D01*
X133300377Y-69697511D01*
X133432328Y-69697511D01*
X133442642Y-69744220D01*
X133467867Y-69780099D01*
X133488680Y-69798954D01*
X133509194Y-69809959D01*
X133536958Y-69815205D01*
X133579517Y-69816782D01*
X133600521Y-69816855D01*
X133673487Y-69812314D01*
X133729089Y-69799245D01*
X133764616Y-69778475D01*
X133774775Y-69763679D01*
X133781859Y-69725767D01*
X133779762Y-69680704D01*
X133769567Y-69641744D01*
X133763959Y-69631527D01*
X133731293Y-69604572D01*
X133681300Y-69586780D01*
X133620460Y-69579207D01*
X133555252Y-69582906D01*
X133516008Y-69591174D01*
X133470560Y-69614911D01*
X133442151Y-69652382D01*
X133432328Y-69697511D01*
X133300377Y-69697511D01*
X133299100Y-69684021D01*
X133312810Y-69608469D01*
X133347447Y-69544868D01*
X133402127Y-69495108D01*
X133446597Y-69471663D01*
X133485876Y-69461597D01*
X133541871Y-69455075D01*
X133606376Y-69452280D01*
X133671184Y-69453395D01*
G37*
X134383612Y-69547585D02*
X134450097Y-69568635D01*
X134530294Y-69594064D01*
X134613948Y-69620621D01*
X134688537Y-69644329D01*
X134858290Y-69698329D01*
X134862083Y-69756633D01*
X134865877Y-69814936D01*
X134761489Y-69846552D01*
X134696644Y-69866049D01*
X134625155Y-69887327D01*
X134562018Y-69905923D01*
X134559505Y-69906657D01*
X134516724Y-69920547D01*
X134487534Y-69932802D01*
X134476496Y-69941385D01*
X134477773Y-69943149D01*
X134494885Y-69949340D01*
X134531542Y-69961103D01*
X134583133Y-69977006D01*
X134645049Y-69995617D01*
X134679107Y-70005688D01*
X134864577Y-70060224D01*
X134864577Y-70175967D01*
X134572226Y-70268494D01*
X134490217Y-70294487D01*
X134415742Y-70318165D01*
X134352299Y-70338411D01*
X134303387Y-70354105D01*
X134272504Y-70364129D01*
X134263481Y-70367176D01*
X134254242Y-70364764D01*
X134250196Y-70345823D01*
X134250601Y-70306408D01*
X134250907Y-70300238D01*
X134254726Y-70227145D01*
X134430765Y-70179274D01*
X134494966Y-70161678D01*
X134551404Y-70145954D01*
X134595177Y-70133485D01*
X134621385Y-70125657D01*
X134625658Y-70124211D01*
X134620745Y-70118217D01*
X134595287Y-70106130D01*
X134552752Y-70089338D01*
X134496605Y-70069228D01*
X134445885Y-70052228D01*
X134247259Y-69987437D01*
X134250992Y-69937707D01*
X134254726Y-69887976D01*
X134644528Y-69757940D01*
X134575369Y-69737553D01*
X134532629Y-69725285D01*
X134474870Y-69709146D01*
X134411380Y-69691719D01*
X134377325Y-69682505D01*
X134248438Y-69647843D01*
X134248438Y-69504840D01*
X134383612Y-69547585D01*
G36*
X134383612Y-69547585D02*
G01*
X134450097Y-69568635D01*
X134530294Y-69594064D01*
X134613948Y-69620621D01*
X134688537Y-69644329D01*
X134858290Y-69698329D01*
X134862083Y-69756633D01*
X134865877Y-69814936D01*
X134761489Y-69846552D01*
X134696644Y-69866049D01*
X134625155Y-69887327D01*
X134562018Y-69905923D01*
X134559505Y-69906657D01*
X134516724Y-69920547D01*
X134487534Y-69932802D01*
X134476496Y-69941385D01*
X134477773Y-69943149D01*
X134494885Y-69949340D01*
X134531542Y-69961103D01*
X134583133Y-69977006D01*
X134645049Y-69995617D01*
X134679107Y-70005688D01*
X134864577Y-70060224D01*
X134864577Y-70175967D01*
X134572226Y-70268494D01*
X134490217Y-70294487D01*
X134415742Y-70318165D01*
X134352299Y-70338411D01*
X134303387Y-70354105D01*
X134272504Y-70364129D01*
X134263481Y-70367176D01*
X134254242Y-70364764D01*
X134250196Y-70345823D01*
X134250601Y-70306408D01*
X134250907Y-70300238D01*
X134254726Y-70227145D01*
X134430765Y-70179274D01*
X134494966Y-70161678D01*
X134551404Y-70145954D01*
X134595177Y-70133485D01*
X134621385Y-70125657D01*
X134625658Y-70124211D01*
X134620745Y-70118217D01*
X134595287Y-70106130D01*
X134552752Y-70089338D01*
X134496605Y-70069228D01*
X134445885Y-70052228D01*
X134247259Y-69987437D01*
X134250992Y-69937707D01*
X134254726Y-69887976D01*
X134644528Y-69757940D01*
X134575369Y-69737553D01*
X134532629Y-69725285D01*
X134474870Y-69709146D01*
X134411380Y-69691719D01*
X134377325Y-69682505D01*
X134248438Y-69647843D01*
X134248438Y-69504840D01*
X134383612Y-69547585D01*
G37*
X133740357Y-72600224D02*
X133808976Y-72627339D01*
X133831049Y-72641858D01*
X133877766Y-72692432D01*
X133908023Y-72756840D01*
X133920579Y-72828897D01*
X133914194Y-72902416D01*
X133894527Y-72958303D01*
X133861384Y-73006363D01*
X133817930Y-73045643D01*
X133816913Y-73046323D01*
X133790093Y-73062275D01*
X133763123Y-73072641D01*
X133729087Y-73078919D01*
X133681065Y-73082604D01*
X133641686Y-73084228D01*
X133605974Y-73084903D01*
X133563376Y-73085710D01*
X133504811Y-73083179D01*
X133460762Y-73075593D01*
X133426003Y-73061912D01*
X133395306Y-73041096D01*
X133386191Y-73033378D01*
X133340776Y-72985120D01*
X133314248Y-72933359D01*
X133303134Y-72870059D01*
X133302735Y-72856480D01*
X133434602Y-72856480D01*
X133449754Y-72897125D01*
X133481397Y-72931798D01*
X133533375Y-72952455D01*
X133605974Y-72959186D01*
X133641525Y-72957957D01*
X133688849Y-72953497D01*
X133719220Y-72945628D01*
X133740827Y-72931438D01*
X133753449Y-72918148D01*
X133779877Y-72871033D01*
X133783408Y-72821736D01*
X133764394Y-72775824D01*
X133743086Y-72752869D01*
X133721614Y-72736327D01*
X133701068Y-72726652D01*
X133674329Y-72722405D01*
X133634278Y-72722151D01*
X133597393Y-72723459D01*
X133544702Y-72726274D01*
X133510527Y-72730736D01*
X133488235Y-72738779D01*
X133471197Y-72752334D01*
X133461458Y-72763076D01*
X133435878Y-72808008D01*
X133434602Y-72856480D01*
X133302735Y-72856480D01*
X133302226Y-72839192D01*
X133311903Y-72757492D01*
X133340986Y-72691710D01*
X133389548Y-72641771D01*
X133457663Y-72607605D01*
X133545406Y-72589138D01*
X133559106Y-72587814D01*
X133655694Y-72586777D01*
X133740357Y-72600224D01*
G36*
X133740357Y-72600224D02*
G01*
X133808976Y-72627339D01*
X133831049Y-72641858D01*
X133877766Y-72692432D01*
X133908023Y-72756840D01*
X133920579Y-72828897D01*
X133914194Y-72902416D01*
X133894527Y-72958303D01*
X133861384Y-73006363D01*
X133817930Y-73045643D01*
X133816913Y-73046323D01*
X133790093Y-73062275D01*
X133763123Y-73072641D01*
X133729087Y-73078919D01*
X133681065Y-73082604D01*
X133641686Y-73084228D01*
X133605974Y-73084903D01*
X133563376Y-73085710D01*
X133504811Y-73083179D01*
X133460762Y-73075593D01*
X133426003Y-73061912D01*
X133395306Y-73041096D01*
X133386191Y-73033378D01*
X133340776Y-72985120D01*
X133314248Y-72933359D01*
X133303134Y-72870059D01*
X133302735Y-72856480D01*
X133434602Y-72856480D01*
X133449754Y-72897125D01*
X133481397Y-72931798D01*
X133533375Y-72952455D01*
X133605974Y-72959186D01*
X133641525Y-72957957D01*
X133688849Y-72953497D01*
X133719220Y-72945628D01*
X133740827Y-72931438D01*
X133753449Y-72918148D01*
X133779877Y-72871033D01*
X133783408Y-72821736D01*
X133764394Y-72775824D01*
X133743086Y-72752869D01*
X133721614Y-72736327D01*
X133701068Y-72726652D01*
X133674329Y-72722405D01*
X133634278Y-72722151D01*
X133597393Y-72723459D01*
X133544702Y-72726274D01*
X133510527Y-72730736D01*
X133488235Y-72738779D01*
X133471197Y-72752334D01*
X133461458Y-72763076D01*
X133435878Y-72808008D01*
X133434602Y-72856480D01*
X133302735Y-72856480D01*
X133302226Y-72839192D01*
X133311903Y-72757492D01*
X133340986Y-72691710D01*
X133389548Y-72641771D01*
X133457663Y-72607605D01*
X133545406Y-72589138D01*
X133559106Y-72587814D01*
X133655694Y-72586777D01*
X133740357Y-72600224D01*
G37*
X134864577Y-70489577D02*
X134863400Y-70529719D01*
X134858527Y-70550625D01*
X134847941Y-70558153D01*
X134840784Y-70558736D01*
X134826431Y-70560005D01*
X134823678Y-70568010D01*
X134832526Y-70589046D01*
X134840784Y-70605404D01*
X134860352Y-70668208D01*
X134861484Y-70736479D01*
X134846890Y-70791983D01*
X134811632Y-70843669D01*
X134759590Y-70883069D01*
X134698205Y-70904644D01*
X134694773Y-70905193D01*
X134657326Y-70908398D01*
X134603568Y-70909992D01*
X134562910Y-70909864D01*
X134542295Y-70909799D01*
X134509318Y-70908895D01*
X134427736Y-70902745D01*
X134366485Y-70889964D01*
X134321204Y-70868702D01*
X134287534Y-70837109D01*
X134267769Y-70806438D01*
X134253875Y-70763585D01*
X134249109Y-70710287D01*
X134251082Y-70682546D01*
X134379061Y-70682546D01*
X134391429Y-70723269D01*
X134419348Y-70753318D01*
X134424903Y-70756435D01*
X134458777Y-70766192D01*
X134507483Y-70771508D01*
X134562910Y-70772510D01*
X134616949Y-70769328D01*
X134661490Y-70762090D01*
X134686643Y-70752291D01*
X134721015Y-70715220D01*
X134733337Y-70671205D01*
X134723373Y-70625815D01*
X134693650Y-70587028D01*
X134673660Y-70572339D01*
X134649805Y-70563750D01*
X134614985Y-70559727D01*
X134562685Y-70558736D01*
X134510894Y-70560509D01*
X134465389Y-70565194D01*
X134434936Y-70571834D01*
X134432207Y-70572941D01*
X134399755Y-70599722D01*
X134381938Y-70638810D01*
X134379061Y-70682546D01*
X134251082Y-70682546D01*
X134252991Y-70655711D01*
X134265037Y-70609023D01*
X134279448Y-70584355D01*
X134302633Y-70558736D01*
X134009528Y-70558736D01*
X134009528Y-70420419D01*
X134864577Y-70420419D01*
X134864577Y-70489577D01*
G36*
X134864577Y-70489577D02*
G01*
X134863400Y-70529719D01*
X134858527Y-70550625D01*
X134847941Y-70558153D01*
X134840784Y-70558736D01*
X134826431Y-70560005D01*
X134823678Y-70568010D01*
X134832526Y-70589046D01*
X134840784Y-70605404D01*
X134860352Y-70668208D01*
X134861484Y-70736479D01*
X134846890Y-70791983D01*
X134811632Y-70843669D01*
X134759590Y-70883069D01*
X134698205Y-70904644D01*
X134694773Y-70905193D01*
X134657326Y-70908398D01*
X134603568Y-70909992D01*
X134562910Y-70909864D01*
X134542295Y-70909799D01*
X134509318Y-70908895D01*
X134427736Y-70902745D01*
X134366485Y-70889964D01*
X134321204Y-70868702D01*
X134287534Y-70837109D01*
X134267769Y-70806438D01*
X134253875Y-70763585D01*
X134249109Y-70710287D01*
X134251082Y-70682546D01*
X134379061Y-70682546D01*
X134391429Y-70723269D01*
X134419348Y-70753318D01*
X134424903Y-70756435D01*
X134458777Y-70766192D01*
X134507483Y-70771508D01*
X134562910Y-70772510D01*
X134616949Y-70769328D01*
X134661490Y-70762090D01*
X134686643Y-70752291D01*
X134721015Y-70715220D01*
X134733337Y-70671205D01*
X134723373Y-70625815D01*
X134693650Y-70587028D01*
X134673660Y-70572339D01*
X134649805Y-70563750D01*
X134614985Y-70559727D01*
X134562685Y-70558736D01*
X134510894Y-70560509D01*
X134465389Y-70565194D01*
X134434936Y-70571834D01*
X134432207Y-70572941D01*
X134399755Y-70599722D01*
X134381938Y-70638810D01*
X134379061Y-70682546D01*
X134251082Y-70682546D01*
X134252991Y-70655711D01*
X134265037Y-70609023D01*
X134279448Y-70584355D01*
X134302633Y-70558736D01*
X134009528Y-70558736D01*
X134009528Y-70420419D01*
X134864577Y-70420419D01*
X134864577Y-70489577D01*
G37*
X133854574Y-67382135D02*
X133892318Y-67439857D01*
X133915075Y-67510845D01*
X133921443Y-67587202D01*
X133910023Y-67661032D01*
X133906148Y-67672944D01*
X133872261Y-67737832D01*
X133821741Y-67786101D01*
X133753080Y-67818766D01*
X133664769Y-67836846D01*
X133662876Y-67837056D01*
X133566633Y-67838675D01*
X133532297Y-67832131D01*
X133481984Y-67822541D01*
X133410946Y-67790533D01*
X133355534Y-67744530D01*
X133317764Y-67686410D01*
X133299651Y-67618051D01*
X133302278Y-67561451D01*
X133425528Y-67561451D01*
X133426423Y-67602930D01*
X133444919Y-67644962D01*
X133475541Y-67680219D01*
X133512817Y-67701377D01*
X133532297Y-67704379D01*
X133537577Y-67692647D01*
X133541622Y-67660793D01*
X133543931Y-67613834D01*
X133544280Y-67584077D01*
X133544061Y-67528583D01*
X133542671Y-67493885D01*
X133539006Y-67475630D01*
X133531965Y-67469465D01*
X133520445Y-67471036D01*
X133515988Y-67472353D01*
X133474110Y-67494849D01*
X133440359Y-67530228D01*
X133425528Y-67561451D01*
X133302278Y-67561451D01*
X133303212Y-67541333D01*
X133311034Y-67509135D01*
X133339676Y-67447406D01*
X133383422Y-67394621D01*
X133435872Y-67358090D01*
X133447648Y-67353071D01*
X133478495Y-67346186D01*
X133524126Y-67341367D01*
X133570247Y-67339726D01*
X133657448Y-67339726D01*
X133657448Y-67522053D01*
X133657733Y-67597252D01*
X133659459Y-67650228D01*
X133663936Y-67683906D01*
X133672475Y-67701211D01*
X133686385Y-67705068D01*
X133706977Y-67698402D01*
X133731070Y-67686461D01*
X133771280Y-67653151D01*
X133791313Y-67606863D01*
X133790660Y-67550287D01*
X133768856Y-67486200D01*
X133741948Y-67430814D01*
X133778287Y-67384856D01*
X133814627Y-67338898D01*
X133854574Y-67382135D01*
G36*
X133854574Y-67382135D02*
G01*
X133892318Y-67439857D01*
X133915075Y-67510845D01*
X133921443Y-67587202D01*
X133910023Y-67661032D01*
X133906148Y-67672944D01*
X133872261Y-67737832D01*
X133821741Y-67786101D01*
X133753080Y-67818766D01*
X133664769Y-67836846D01*
X133662876Y-67837056D01*
X133566633Y-67838675D01*
X133532297Y-67832131D01*
X133481984Y-67822541D01*
X133410946Y-67790533D01*
X133355534Y-67744530D01*
X133317764Y-67686410D01*
X133299651Y-67618051D01*
X133302278Y-67561451D01*
X133425528Y-67561451D01*
X133426423Y-67602930D01*
X133444919Y-67644962D01*
X133475541Y-67680219D01*
X133512817Y-67701377D01*
X133532297Y-67704379D01*
X133537577Y-67692647D01*
X133541622Y-67660793D01*
X133543931Y-67613834D01*
X133544280Y-67584077D01*
X133544061Y-67528583D01*
X133542671Y-67493885D01*
X133539006Y-67475630D01*
X133531965Y-67469465D01*
X133520445Y-67471036D01*
X133515988Y-67472353D01*
X133474110Y-67494849D01*
X133440359Y-67530228D01*
X133425528Y-67561451D01*
X133302278Y-67561451D01*
X133303212Y-67541333D01*
X133311034Y-67509135D01*
X133339676Y-67447406D01*
X133383422Y-67394621D01*
X133435872Y-67358090D01*
X133447648Y-67353071D01*
X133478495Y-67346186D01*
X133524126Y-67341367D01*
X133570247Y-67339726D01*
X133657448Y-67339726D01*
X133657448Y-67522053D01*
X133657733Y-67597252D01*
X133659459Y-67650228D01*
X133663936Y-67683906D01*
X133672475Y-67701211D01*
X133686385Y-67705068D01*
X133706977Y-67698402D01*
X133731070Y-67686461D01*
X133771280Y-67653151D01*
X133791313Y-67606863D01*
X133790660Y-67550287D01*
X133768856Y-67486200D01*
X133741948Y-67430814D01*
X133778287Y-67384856D01*
X133814627Y-67338898D01*
X133854574Y-67382135D01*
G37*
X133791953Y-70022654D02*
X133844943Y-70052067D01*
X133883538Y-70101953D01*
X133907836Y-70172431D01*
X133917422Y-70250666D01*
X133917307Y-70314465D01*
X133908600Y-70366215D01*
X133896580Y-70401558D01*
X133875635Y-70446214D01*
X133851329Y-70487484D01*
X133840631Y-70502152D01*
X133809839Y-70539874D01*
X133763804Y-70494379D01*
X133717768Y-70448884D01*
X133751998Y-70397159D01*
X133777707Y-70345279D01*
X133791154Y-70289880D01*
X133792573Y-70236626D01*
X133782198Y-70191182D01*
X133760262Y-70159215D01*
X133741753Y-70148893D01*
X133712069Y-70150442D01*
X133689370Y-70176091D01*
X133673695Y-70225771D01*
X133666450Y-70280200D01*
X133652628Y-70363967D01*
X133626551Y-70426198D01*
X133587454Y-70467724D01*
X133534575Y-70489378D01*
X133471881Y-70492378D01*
X133406397Y-70477560D01*
X133356899Y-70443777D01*
X133323163Y-70390726D01*
X133304962Y-70318105D01*
X133301394Y-70264303D01*
X133303207Y-70205214D01*
X133312237Y-70157597D01*
X133331125Y-70108197D01*
X133333532Y-70102919D01*
X133353231Y-70065457D01*
X133371536Y-70039514D01*
X133383263Y-70031128D01*
X133402387Y-70039114D01*
X133430605Y-70058511D01*
X133441139Y-70067121D01*
X133482602Y-70102603D01*
X133455613Y-70148346D01*
X133437633Y-70191881D01*
X133428022Y-70242181D01*
X133427415Y-70290419D01*
X133436446Y-70327764D01*
X133442082Y-70336726D01*
X133467926Y-70353794D01*
X133497696Y-70355868D01*
X133520952Y-70343097D01*
X133525463Y-70335543D01*
X133531064Y-70312906D01*
X133537647Y-70273116D01*
X133543938Y-70224065D01*
X133544925Y-70215016D01*
X133558553Y-70136235D01*
X133581701Y-70079095D01*
X133616507Y-70041201D01*
X133665109Y-70020152D01*
X133724473Y-70013596D01*
X133791953Y-70022654D01*
G36*
X133791953Y-70022654D02*
G01*
X133844943Y-70052067D01*
X133883538Y-70101953D01*
X133907836Y-70172431D01*
X133917422Y-70250666D01*
X133917307Y-70314465D01*
X133908600Y-70366215D01*
X133896580Y-70401558D01*
X133875635Y-70446214D01*
X133851329Y-70487484D01*
X133840631Y-70502152D01*
X133809839Y-70539874D01*
X133763804Y-70494379D01*
X133717768Y-70448884D01*
X133751998Y-70397159D01*
X133777707Y-70345279D01*
X133791154Y-70289880D01*
X133792573Y-70236626D01*
X133782198Y-70191182D01*
X133760262Y-70159215D01*
X133741753Y-70148893D01*
X133712069Y-70150442D01*
X133689370Y-70176091D01*
X133673695Y-70225771D01*
X133666450Y-70280200D01*
X133652628Y-70363967D01*
X133626551Y-70426198D01*
X133587454Y-70467724D01*
X133534575Y-70489378D01*
X133471881Y-70492378D01*
X133406397Y-70477560D01*
X133356899Y-70443777D01*
X133323163Y-70390726D01*
X133304962Y-70318105D01*
X133301394Y-70264303D01*
X133303207Y-70205214D01*
X133312237Y-70157597D01*
X133331125Y-70108197D01*
X133333532Y-70102919D01*
X133353231Y-70065457D01*
X133371536Y-70039514D01*
X133383263Y-70031128D01*
X133402387Y-70039114D01*
X133430605Y-70058511D01*
X133441139Y-70067121D01*
X133482602Y-70102603D01*
X133455613Y-70148346D01*
X133437633Y-70191881D01*
X133428022Y-70242181D01*
X133427415Y-70290419D01*
X133436446Y-70327764D01*
X133442082Y-70336726D01*
X133467926Y-70353794D01*
X133497696Y-70355868D01*
X133520952Y-70343097D01*
X133525463Y-70335543D01*
X133531064Y-70312906D01*
X133537647Y-70273116D01*
X133543938Y-70224065D01*
X133544925Y-70215016D01*
X133558553Y-70136235D01*
X133581701Y-70079095D01*
X133616507Y-70041201D01*
X133665109Y-70020152D01*
X133724473Y-70013596D01*
X133791953Y-70022654D01*
G37*
X134600518Y-68360967D02*
X134635097Y-68352868D01*
X134666414Y-68338244D01*
X134699046Y-68312650D01*
X134704255Y-68307296D01*
X134732449Y-68261288D01*
X134737230Y-68208821D01*
X134718681Y-68148428D01*
X134713686Y-68138191D01*
X134698500Y-68106792D01*
X134689849Y-68085761D01*
X134689048Y-68082092D01*
X134696818Y-68069283D01*
X134715827Y-68044853D01*
X134726215Y-68032452D01*
X134750076Y-68006755D01*
X134765832Y-67998316D01*
X134780326Y-68004173D01*
X134784289Y-68007303D01*
X134801634Y-68028506D01*
X134822714Y-68063493D01*
X134835020Y-68087894D01*
X134856701Y-68157159D01*
X134863726Y-68233843D01*
X134855402Y-68306466D01*
X134849441Y-68326805D01*
X134815707Y-68389755D01*
X134763800Y-68436416D01*
X134693214Y-68467058D01*
X134603447Y-68481949D01*
X134556508Y-68483584D01*
X134488168Y-68478810D01*
X134456991Y-68476632D01*
X134377704Y-68455176D01*
X134318018Y-68418761D01*
X134277304Y-68366934D01*
X134254934Y-68299241D01*
X134250626Y-68262569D01*
X134251117Y-68228671D01*
X134371527Y-68228671D01*
X134380841Y-68277183D01*
X134407768Y-68319178D01*
X134446582Y-68348295D01*
X134488168Y-68358241D01*
X134493220Y-68346579D01*
X134497184Y-68315233D01*
X134499523Y-68269660D01*
X134499924Y-68238785D01*
X134499538Y-68183250D01*
X134497730Y-68148198D01*
X134493528Y-68128969D01*
X134485958Y-68120901D01*
X134474973Y-68119330D01*
X134441136Y-68130110D01*
X134407695Y-68157251D01*
X134382027Y-68192954D01*
X134371527Y-68228671D01*
X134251117Y-68228671D01*
X134251725Y-68186650D01*
X134267352Y-68126546D01*
X134299603Y-68076210D01*
X134323695Y-68051838D01*
X134380650Y-68011886D01*
X134446720Y-67988989D01*
X134527937Y-67981123D01*
X134534503Y-67981083D01*
X134600518Y-67981013D01*
X134600518Y-68360967D01*
G36*
X134600518Y-68360967D02*
G01*
X134635097Y-68352868D01*
X134666414Y-68338244D01*
X134699046Y-68312650D01*
X134704255Y-68307296D01*
X134732449Y-68261288D01*
X134737230Y-68208821D01*
X134718681Y-68148428D01*
X134713686Y-68138191D01*
X134698500Y-68106792D01*
X134689849Y-68085761D01*
X134689048Y-68082092D01*
X134696818Y-68069283D01*
X134715827Y-68044853D01*
X134726215Y-68032452D01*
X134750076Y-68006755D01*
X134765832Y-67998316D01*
X134780326Y-68004173D01*
X134784289Y-68007303D01*
X134801634Y-68028506D01*
X134822714Y-68063493D01*
X134835020Y-68087894D01*
X134856701Y-68157159D01*
X134863726Y-68233843D01*
X134855402Y-68306466D01*
X134849441Y-68326805D01*
X134815707Y-68389755D01*
X134763800Y-68436416D01*
X134693214Y-68467058D01*
X134603447Y-68481949D01*
X134556508Y-68483584D01*
X134488168Y-68478810D01*
X134456991Y-68476632D01*
X134377704Y-68455176D01*
X134318018Y-68418761D01*
X134277304Y-68366934D01*
X134254934Y-68299241D01*
X134250626Y-68262569D01*
X134251117Y-68228671D01*
X134371527Y-68228671D01*
X134380841Y-68277183D01*
X134407768Y-68319178D01*
X134446582Y-68348295D01*
X134488168Y-68358241D01*
X134493220Y-68346579D01*
X134497184Y-68315233D01*
X134499523Y-68269660D01*
X134499924Y-68238785D01*
X134499538Y-68183250D01*
X134497730Y-68148198D01*
X134493528Y-68128969D01*
X134485958Y-68120901D01*
X134474973Y-68119330D01*
X134441136Y-68130110D01*
X134407695Y-68157251D01*
X134382027Y-68192954D01*
X134371527Y-68228671D01*
X134251117Y-68228671D01*
X134251725Y-68186650D01*
X134267352Y-68126546D01*
X134299603Y-68076210D01*
X134323695Y-68051838D01*
X134380650Y-68011886D01*
X134446720Y-67988989D01*
X134527937Y-67981123D01*
X134534503Y-67981083D01*
X134600518Y-67981013D01*
X134600518Y-68360967D01*
G37*
X133657448Y-71806314D02*
X133692028Y-71798214D01*
X133732925Y-71778335D01*
X133768269Y-71743578D01*
X133791037Y-71702229D01*
X133795765Y-71675880D01*
X133790028Y-71640147D01*
X133775637Y-71597513D01*
X133769017Y-71583030D01*
X133742268Y-71529471D01*
X133777131Y-71483764D01*
X133800710Y-71457389D01*
X133820172Y-71443355D01*
X133825884Y-71442645D01*
X133839728Y-71455182D01*
X133860767Y-71482659D01*
X133877180Y-71507597D01*
X133906685Y-71574895D01*
X133920039Y-71650341D01*
X133916567Y-71725119D01*
X133898418Y-71784726D01*
X133859539Y-71846172D01*
X133808350Y-71889839D01*
X133742122Y-71917157D01*
X133658126Y-71929553D01*
X133619691Y-71930652D01*
X133531616Y-71926253D01*
X133529054Y-71925713D01*
X133462265Y-71911623D01*
X133406780Y-71885269D01*
X133367394Y-71853038D01*
X133324686Y-71793448D01*
X133301864Y-71723399D01*
X133300742Y-71682882D01*
X133426082Y-71682882D01*
X133437736Y-71730770D01*
X133469040Y-71770930D01*
X133514507Y-71796404D01*
X133515988Y-71796856D01*
X133529054Y-71799813D01*
X133537313Y-71796346D01*
X133541868Y-71782094D01*
X133543820Y-71752701D01*
X133544272Y-71703806D01*
X133544280Y-71684979D01*
X133543598Y-71627698D01*
X133541119Y-71591372D01*
X133536198Y-71571835D01*
X133528189Y-71564921D01*
X133525617Y-71564676D01*
X133505178Y-71572567D01*
X133476544Y-71592316D01*
X133466518Y-71600806D01*
X133438163Y-71632325D01*
X133427014Y-71665180D01*
X133426082Y-71682882D01*
X133300742Y-71682882D01*
X133299801Y-71648892D01*
X133319369Y-71575930D01*
X133325269Y-71563399D01*
X133357038Y-71520030D01*
X133403401Y-71479021D01*
X133454451Y-71448399D01*
X133477921Y-71439690D01*
X133519846Y-71431743D01*
X133570512Y-71427005D01*
X133591434Y-71426430D01*
X133657448Y-71426360D01*
X133657448Y-71806314D01*
G36*
X133657448Y-71806314D02*
G01*
X133692028Y-71798214D01*
X133732925Y-71778335D01*
X133768269Y-71743578D01*
X133791037Y-71702229D01*
X133795765Y-71675880D01*
X133790028Y-71640147D01*
X133775637Y-71597513D01*
X133769017Y-71583030D01*
X133742268Y-71529471D01*
X133777131Y-71483764D01*
X133800710Y-71457389D01*
X133820172Y-71443355D01*
X133825884Y-71442645D01*
X133839728Y-71455182D01*
X133860767Y-71482659D01*
X133877180Y-71507597D01*
X133906685Y-71574895D01*
X133920039Y-71650341D01*
X133916567Y-71725119D01*
X133898418Y-71784726D01*
X133859539Y-71846172D01*
X133808350Y-71889839D01*
X133742122Y-71917157D01*
X133658126Y-71929553D01*
X133619691Y-71930652D01*
X133531616Y-71926253D01*
X133529054Y-71925713D01*
X133462265Y-71911623D01*
X133406780Y-71885269D01*
X133367394Y-71853038D01*
X133324686Y-71793448D01*
X133301864Y-71723399D01*
X133300742Y-71682882D01*
X133426082Y-71682882D01*
X133437736Y-71730770D01*
X133469040Y-71770930D01*
X133514507Y-71796404D01*
X133515988Y-71796856D01*
X133529054Y-71799813D01*
X133537313Y-71796346D01*
X133541868Y-71782094D01*
X133543820Y-71752701D01*
X133544272Y-71703806D01*
X133544280Y-71684979D01*
X133543598Y-71627698D01*
X133541119Y-71591372D01*
X133536198Y-71571835D01*
X133528189Y-71564921D01*
X133525617Y-71564676D01*
X133505178Y-71572567D01*
X133476544Y-71592316D01*
X133466518Y-71600806D01*
X133438163Y-71632325D01*
X133427014Y-71665180D01*
X133426082Y-71682882D01*
X133300742Y-71682882D01*
X133299801Y-71648892D01*
X133319369Y-71575930D01*
X133325269Y-71563399D01*
X133357038Y-71520030D01*
X133403401Y-71479021D01*
X133454451Y-71448399D01*
X133477921Y-71439690D01*
X133519846Y-71431743D01*
X133570512Y-71427005D01*
X133591434Y-71426430D01*
X133657448Y-71426360D01*
X133657448Y-71806314D01*
G37*
X134864577Y-69080299D02*
X134862793Y-69122838D01*
X134856697Y-69144755D01*
X134846461Y-69150419D01*
X134835392Y-69153410D01*
X134837509Y-69166780D01*
X134846384Y-69184998D01*
X134859988Y-69230607D01*
X134863654Y-69289224D01*
X134857658Y-69350877D01*
X134842276Y-69405593D01*
X134840141Y-69410501D01*
X134805010Y-69460508D01*
X134756174Y-69493475D01*
X134699088Y-69508644D01*
X134678579Y-69507485D01*
X134639211Y-69505260D01*
X134581999Y-69482568D01*
X134543335Y-69451607D01*
X134526619Y-69432855D01*
X134515633Y-69414498D01*
X134508935Y-69390612D01*
X134505081Y-69355274D01*
X134502628Y-69302562D01*
X134501923Y-69281654D01*
X134499637Y-69211718D01*
X134600518Y-69211718D01*
X134604150Y-69282975D01*
X134615573Y-69332955D01*
X134635579Y-69364535D01*
X134644498Y-69371605D01*
X134678579Y-69383723D01*
X134706180Y-69372818D01*
X134725959Y-69340486D01*
X134736574Y-69288321D01*
X134737983Y-69260444D01*
X134734375Y-69213984D01*
X134720352Y-69183102D01*
X134713686Y-69175567D01*
X134677421Y-69155155D01*
X134644528Y-69150419D01*
X134600518Y-69150419D01*
X134600518Y-69211718D01*
X134499637Y-69211718D01*
X134497634Y-69150419D01*
X134457913Y-69150611D01*
X134416160Y-69155694D01*
X134390913Y-69174069D01*
X134374785Y-69211192D01*
X134374497Y-69212188D01*
X134368155Y-69264821D01*
X134376439Y-69316325D01*
X134396582Y-69354601D01*
X134406528Y-69369959D01*
X134405152Y-69386501D01*
X134390742Y-69411956D01*
X134380572Y-69426903D01*
X134358843Y-69456140D01*
X134342555Y-69474251D01*
X134337892Y-69477157D01*
X134313760Y-69465191D01*
X134284940Y-69429835D01*
X134275216Y-69414478D01*
X134258469Y-69370330D01*
X134248982Y-69310833D01*
X134246850Y-69244744D01*
X134252172Y-69180820D01*
X134265045Y-69127820D01*
X134271865Y-69112500D01*
X134289729Y-69082803D01*
X134309848Y-69060011D01*
X134335717Y-69043148D01*
X134370828Y-69031233D01*
X134418675Y-69023289D01*
X134482751Y-69018337D01*
X134566549Y-69015400D01*
X134622523Y-69014284D01*
X134864577Y-69010179D01*
X134864577Y-69080299D01*
G36*
X134864577Y-69080299D02*
G01*
X134862793Y-69122838D01*
X134856697Y-69144755D01*
X134846461Y-69150419D01*
X134835392Y-69153410D01*
X134837509Y-69166780D01*
X134846384Y-69184998D01*
X134859988Y-69230607D01*
X134863654Y-69289224D01*
X134857658Y-69350877D01*
X134842276Y-69405593D01*
X134840141Y-69410501D01*
X134805010Y-69460508D01*
X134756174Y-69493475D01*
X134699088Y-69508644D01*
X134678579Y-69507485D01*
X134639211Y-69505260D01*
X134581999Y-69482568D01*
X134543335Y-69451607D01*
X134526619Y-69432855D01*
X134515633Y-69414498D01*
X134508935Y-69390612D01*
X134505081Y-69355274D01*
X134502628Y-69302562D01*
X134501923Y-69281654D01*
X134499637Y-69211718D01*
X134600518Y-69211718D01*
X134604150Y-69282975D01*
X134615573Y-69332955D01*
X134635579Y-69364535D01*
X134644498Y-69371605D01*
X134678579Y-69383723D01*
X134706180Y-69372818D01*
X134725959Y-69340486D01*
X134736574Y-69288321D01*
X134737983Y-69260444D01*
X134734375Y-69213984D01*
X134720352Y-69183102D01*
X134713686Y-69175567D01*
X134677421Y-69155155D01*
X134644528Y-69150419D01*
X134600518Y-69150419D01*
X134600518Y-69211718D01*
X134499637Y-69211718D01*
X134497634Y-69150419D01*
X134457913Y-69150611D01*
X134416160Y-69155694D01*
X134390913Y-69174069D01*
X134374785Y-69211192D01*
X134374497Y-69212188D01*
X134368155Y-69264821D01*
X134376439Y-69316325D01*
X134396582Y-69354601D01*
X134406528Y-69369959D01*
X134405152Y-69386501D01*
X134390742Y-69411956D01*
X134380572Y-69426903D01*
X134358843Y-69456140D01*
X134342555Y-69474251D01*
X134337892Y-69477157D01*
X134313760Y-69465191D01*
X134284940Y-69429835D01*
X134275216Y-69414478D01*
X134258469Y-69370330D01*
X134248982Y-69310833D01*
X134246850Y-69244744D01*
X134252172Y-69180820D01*
X134265045Y-69127820D01*
X134271865Y-69112500D01*
X134289729Y-69082803D01*
X134309848Y-69060011D01*
X134335717Y-69043148D01*
X134370828Y-69031233D01*
X134418675Y-69023289D01*
X134482751Y-69018337D01*
X134566549Y-69015400D01*
X134622523Y-69014284D01*
X134864577Y-69010179D01*
X134864577Y-69080299D01*
G37*
X134864577Y-71499290D02*
X134861881Y-71537788D01*
X134855050Y-71566254D01*
X134850838Y-71573386D01*
X134843568Y-71592883D01*
X134850838Y-71612797D01*
X134859915Y-71645584D01*
X134863568Y-71693209D01*
X134861983Y-71745995D01*
X134855344Y-71794267D01*
X134846827Y-71822449D01*
X134811818Y-71876984D01*
X134763234Y-71911066D01*
X134698637Y-71926388D01*
X134696978Y-71926530D01*
X134668321Y-71925186D01*
X134626402Y-71923218D01*
X134570600Y-71899941D01*
X134528402Y-71856179D01*
X134524563Y-71850130D01*
X134512064Y-71824138D01*
X134504495Y-71791966D01*
X134500816Y-71746991D01*
X134499971Y-71693562D01*
X134499952Y-71646813D01*
X134600518Y-71646813D01*
X134605605Y-71712898D01*
X134620018Y-71762995D01*
X134642484Y-71794160D01*
X134668321Y-71803587D01*
X134700916Y-71792957D01*
X134719260Y-71775641D01*
X134733134Y-71740883D01*
X134738672Y-71695004D01*
X134735946Y-71648219D01*
X134725029Y-71610745D01*
X134718024Y-71600246D01*
X134685659Y-71581899D01*
X134648866Y-71577251D01*
X134600518Y-71577251D01*
X134600518Y-71646813D01*
X134499952Y-71646813D01*
X134499924Y-71577251D01*
X134451166Y-71577251D01*
X134413336Y-71582184D01*
X134387991Y-71594774D01*
X134386642Y-71596248D01*
X134375555Y-71624265D01*
X134371258Y-71666557D01*
X134373370Y-71713295D01*
X134381511Y-71754649D01*
X134393720Y-71779188D01*
X134403501Y-71792484D01*
X134405368Y-71806525D01*
X134397355Y-71825902D01*
X134377494Y-71855207D01*
X134343818Y-71899034D01*
X134340664Y-71903056D01*
X134328991Y-71900995D01*
X134309577Y-71883799D01*
X134288003Y-71857664D01*
X134269851Y-71828783D01*
X134265564Y-71819709D01*
X134257011Y-71786611D01*
X134250910Y-71738111D01*
X134248463Y-71683926D01*
X134248458Y-71681392D01*
X134253310Y-71603441D01*
X134269094Y-71544286D01*
X134297703Y-71499254D01*
X134335174Y-71467477D01*
X134351166Y-71457597D01*
X134367918Y-71450304D01*
X134389347Y-71445205D01*
X134419371Y-71441910D01*
X134461909Y-71440028D01*
X134520877Y-71439168D01*
X134600195Y-71438938D01*
X134621239Y-71438934D01*
X134864577Y-71438934D01*
X134864577Y-71499290D01*
G36*
X134864577Y-71499290D02*
G01*
X134861881Y-71537788D01*
X134855050Y-71566254D01*
X134850838Y-71573386D01*
X134843568Y-71592883D01*
X134850838Y-71612797D01*
X134859915Y-71645584D01*
X134863568Y-71693209D01*
X134861983Y-71745995D01*
X134855344Y-71794267D01*
X134846827Y-71822449D01*
X134811818Y-71876984D01*
X134763234Y-71911066D01*
X134698637Y-71926388D01*
X134696978Y-71926530D01*
X134668321Y-71925186D01*
X134626402Y-71923218D01*
X134570600Y-71899941D01*
X134528402Y-71856179D01*
X134524563Y-71850130D01*
X134512064Y-71824138D01*
X134504495Y-71791966D01*
X134500816Y-71746991D01*
X134499971Y-71693562D01*
X134499952Y-71646813D01*
X134600518Y-71646813D01*
X134605605Y-71712898D01*
X134620018Y-71762995D01*
X134642484Y-71794160D01*
X134668321Y-71803587D01*
X134700916Y-71792957D01*
X134719260Y-71775641D01*
X134733134Y-71740883D01*
X134738672Y-71695004D01*
X134735946Y-71648219D01*
X134725029Y-71610745D01*
X134718024Y-71600246D01*
X134685659Y-71581899D01*
X134648866Y-71577251D01*
X134600518Y-71577251D01*
X134600518Y-71646813D01*
X134499952Y-71646813D01*
X134499924Y-71577251D01*
X134451166Y-71577251D01*
X134413336Y-71582184D01*
X134387991Y-71594774D01*
X134386642Y-71596248D01*
X134375555Y-71624265D01*
X134371258Y-71666557D01*
X134373370Y-71713295D01*
X134381511Y-71754649D01*
X134393720Y-71779188D01*
X134403501Y-71792484D01*
X134405368Y-71806525D01*
X134397355Y-71825902D01*
X134377494Y-71855207D01*
X134343818Y-71899034D01*
X134340664Y-71903056D01*
X134328991Y-71900995D01*
X134309577Y-71883799D01*
X134288003Y-71857664D01*
X134269851Y-71828783D01*
X134265564Y-71819709D01*
X134257011Y-71786611D01*
X134250910Y-71738111D01*
X134248463Y-71683926D01*
X134248458Y-71681392D01*
X134253310Y-71603441D01*
X134269094Y-71544286D01*
X134297703Y-71499254D01*
X134335174Y-71467477D01*
X134351166Y-71457597D01*
X134367918Y-71450304D01*
X134389347Y-71445205D01*
X134419371Y-71441910D01*
X134461909Y-71440028D01*
X134520877Y-71439168D01*
X134600195Y-71438938D01*
X134621239Y-71438934D01*
X134864577Y-71438934D01*
X134864577Y-71499290D01*
G37*
X134864577Y-72143092D02*
X134439288Y-72143092D01*
X134406734Y-72181780D01*
X134380695Y-72221969D01*
X134375960Y-72260028D01*
X134388144Y-72298297D01*
X134400075Y-72318693D01*
X134417068Y-72333873D01*
X134442750Y-72344669D01*
X134480746Y-72351914D01*
X134534681Y-72356439D01*
X134608180Y-72359075D01*
X134657102Y-72360003D01*
X134858290Y-72363142D01*
X134862091Y-72429157D01*
X134865891Y-72495171D01*
X133617405Y-72495171D01*
X133305369Y-72495171D01*
X133305369Y-72426013D01*
X133307011Y-72384491D01*
X133312842Y-72363069D01*
X133324216Y-72356857D01*
X133324553Y-72356855D01*
X133335693Y-72353973D01*
X133334428Y-72341261D01*
X133322188Y-72315988D01*
X133307905Y-72271071D01*
X133432087Y-72271071D01*
X133438923Y-72299707D01*
X133463219Y-72328059D01*
X133510483Y-72346840D01*
X133580379Y-72355943D01*
X133617405Y-72356855D01*
X133687009Y-72353328D01*
X133735324Y-72341446D01*
X133765386Y-72319251D01*
X133780226Y-72284790D01*
X133783191Y-72249973D01*
X133779783Y-72210560D01*
X133766372Y-72184402D01*
X133748651Y-72168045D01*
X133729590Y-72155168D01*
X133708356Y-72147503D01*
X133678604Y-72144092D01*
X133633991Y-72143980D01*
X133596635Y-72145128D01*
X133540359Y-72147763D01*
X133503413Y-72151687D01*
X133479978Y-72158294D01*
X133464235Y-72168980D01*
X133455135Y-72179064D01*
X133435292Y-72221201D01*
X133432087Y-72271071D01*
X133307905Y-72271071D01*
X133303462Y-72257100D01*
X133301494Y-72190846D01*
X133315939Y-72127990D01*
X133329037Y-72101478D01*
X133351861Y-72068784D01*
X133376751Y-72044956D01*
X133408004Y-72028637D01*
X133449921Y-72018471D01*
X133506799Y-72013103D01*
X133582939Y-72011175D01*
X133615672Y-72011062D01*
X133687411Y-72011392D01*
X133738682Y-72012758D01*
X133774159Y-72015731D01*
X133798518Y-72020880D01*
X133816435Y-72028774D01*
X133828657Y-72036988D01*
X133880660Y-72089418D01*
X133911939Y-72151161D01*
X133921347Y-72217767D01*
X133907735Y-72284789D01*
X133898109Y-72306023D01*
X133871614Y-72356855D01*
X134286807Y-72356855D01*
X134267623Y-72319756D01*
X134252780Y-72270874D01*
X134248977Y-72210792D01*
X134255998Y-72150795D01*
X134271768Y-72105487D01*
X134301802Y-72067906D01*
X134344779Y-72035795D01*
X134349191Y-72033381D01*
X134369976Y-72023198D01*
X134390925Y-72015761D01*
X134416303Y-72010642D01*
X134450373Y-72007412D01*
X134497396Y-72005644D01*
X134561637Y-72004908D01*
X134633931Y-72004775D01*
X134864577Y-72004775D01*
X134864577Y-72143092D01*
G36*
X134864577Y-72143092D02*
G01*
X134439288Y-72143092D01*
X134406734Y-72181780D01*
X134380695Y-72221969D01*
X134375960Y-72260028D01*
X134388144Y-72298297D01*
X134400075Y-72318693D01*
X134417068Y-72333873D01*
X134442750Y-72344669D01*
X134480746Y-72351914D01*
X134534681Y-72356439D01*
X134608180Y-72359075D01*
X134657102Y-72360003D01*
X134858290Y-72363142D01*
X134862091Y-72429157D01*
X134865891Y-72495171D01*
X133617405Y-72495171D01*
X133305369Y-72495171D01*
X133305369Y-72426013D01*
X133307011Y-72384491D01*
X133312842Y-72363069D01*
X133324216Y-72356857D01*
X133324553Y-72356855D01*
X133335693Y-72353973D01*
X133334428Y-72341261D01*
X133322188Y-72315988D01*
X133307905Y-72271071D01*
X133432087Y-72271071D01*
X133438923Y-72299707D01*
X133463219Y-72328059D01*
X133510483Y-72346840D01*
X133580379Y-72355943D01*
X133617405Y-72356855D01*
X133687009Y-72353328D01*
X133735324Y-72341446D01*
X133765386Y-72319251D01*
X133780226Y-72284790D01*
X133783191Y-72249973D01*
X133779783Y-72210560D01*
X133766372Y-72184402D01*
X133748651Y-72168045D01*
X133729590Y-72155168D01*
X133708356Y-72147503D01*
X133678604Y-72144092D01*
X133633991Y-72143980D01*
X133596635Y-72145128D01*
X133540359Y-72147763D01*
X133503413Y-72151687D01*
X133479978Y-72158294D01*
X133464235Y-72168980D01*
X133455135Y-72179064D01*
X133435292Y-72221201D01*
X133432087Y-72271071D01*
X133307905Y-72271071D01*
X133303462Y-72257100D01*
X133301494Y-72190846D01*
X133315939Y-72127990D01*
X133329037Y-72101478D01*
X133351861Y-72068784D01*
X133376751Y-72044956D01*
X133408004Y-72028637D01*
X133449921Y-72018471D01*
X133506799Y-72013103D01*
X133582939Y-72011175D01*
X133615672Y-72011062D01*
X133687411Y-72011392D01*
X133738682Y-72012758D01*
X133774159Y-72015731D01*
X133798518Y-72020880D01*
X133816435Y-72028774D01*
X133828657Y-72036988D01*
X133880660Y-72089418D01*
X133911939Y-72151161D01*
X133921347Y-72217767D01*
X133907735Y-72284789D01*
X133898109Y-72306023D01*
X133871614Y-72356855D01*
X134286807Y-72356855D01*
X134267623Y-72319756D01*
X134252780Y-72270874D01*
X134248977Y-72210792D01*
X134255998Y-72150795D01*
X134271768Y-72105487D01*
X134301802Y-72067906D01*
X134344779Y-72035795D01*
X134349191Y-72033381D01*
X134369976Y-72023198D01*
X134390925Y-72015761D01*
X134416303Y-72010642D01*
X134450373Y-72007412D01*
X134497396Y-72005644D01*
X134561637Y-72004908D01*
X134633931Y-72004775D01*
X134864577Y-72004775D01*
X134864577Y-72143092D01*
G37*
X134078532Y-73748773D02*
X134148886Y-73750629D01*
X134209500Y-73753518D01*
X134256016Y-73757435D01*
X134284075Y-73762378D01*
X134289916Y-73765343D01*
X134296917Y-73783066D01*
X134306927Y-73820619D01*
X134318769Y-73873036D01*
X134331267Y-73935348D01*
X134335310Y-73957100D01*
X134354520Y-74061976D01*
X134369991Y-74144820D01*
X134382337Y-74208370D01*
X134392173Y-74255363D01*
X134400114Y-74288537D01*
X134406776Y-74310629D01*
X134412773Y-74324376D01*
X134418719Y-74332516D01*
X134419894Y-74333655D01*
X134438826Y-74345023D01*
X134475669Y-74362365D01*
X134525913Y-74383950D01*
X134585046Y-74408046D01*
X134648556Y-74432921D01*
X134711932Y-74456843D01*
X134770662Y-74478081D01*
X134820235Y-74494903D01*
X134856139Y-74505578D01*
X134873862Y-74508373D01*
X134874483Y-74508140D01*
X134888970Y-74498669D01*
X134920844Y-74477182D01*
X134966789Y-74445937D01*
X135023485Y-74407193D01*
X135087617Y-74363207D01*
X135105842Y-74350681D01*
X135171914Y-74306016D01*
X135232200Y-74266712D01*
X135283235Y-74234912D01*
X135321560Y-74212755D01*
X135343711Y-74202383D01*
X135346432Y-74201881D01*
X135360736Y-74210595D01*
X135389072Y-74234675D01*
X135428396Y-74271024D01*
X135475661Y-74316547D01*
X135527823Y-74368148D01*
X135581835Y-74422733D01*
X135634653Y-74477206D01*
X135683231Y-74528471D01*
X135724523Y-74573433D01*
X135755485Y-74608996D01*
X135773070Y-74632065D01*
X135775941Y-74638446D01*
X135769178Y-74653301D01*
X135750939Y-74683714D01*
X135724297Y-74724732D01*
X135702852Y-74756291D01*
X135663503Y-74813475D01*
X135617171Y-74881194D01*
X135570913Y-74949120D01*
X135546155Y-74985639D01*
X135462547Y-75109248D01*
X135518650Y-75213009D01*
X135543228Y-75260280D01*
X135562331Y-75300477D01*
X135573227Y-75327674D01*
X135574743Y-75334598D01*
X135563549Y-75342923D01*
X135531917Y-75359346D01*
X135482765Y-75382643D01*
X135419010Y-75411586D01*
X135343571Y-75444950D01*
X135259364Y-75481509D01*
X135169308Y-75520036D01*
X135076321Y-75559306D01*
X134983320Y-75598092D01*
X134893223Y-75635170D01*
X134808948Y-75669311D01*
X134733413Y-75699292D01*
X134669534Y-75723884D01*
X134620231Y-75741864D01*
X134588421Y-75752003D01*
X134577496Y-75753634D01*
X134563561Y-75740709D01*
X134540940Y-75712411D01*
X134514333Y-75674654D01*
X134512228Y-75671485D01*
X134434114Y-75573900D01*
X134342982Y-75495214D01*
X134241745Y-75436109D01*
X134133318Y-75397268D01*
X134020614Y-75379372D01*
X133906548Y-75383103D01*
X133794034Y-75409143D01*
X133685985Y-75458175D01*
X133662345Y-75472600D01*
X133566887Y-75547631D01*
X133490232Y-75636270D01*
X133432780Y-75735451D01*
X133394929Y-75842105D01*
X133377078Y-75953164D01*
X133379625Y-76065561D01*
X133402970Y-76176227D01*
X133447510Y-76282094D01*
X133513645Y-76380095D01*
X133540487Y-76410410D01*
X133624512Y-76487562D01*
X133712966Y-76543782D01*
X133812115Y-76582347D01*
X133910303Y-76603826D01*
X134020697Y-76609128D01*
X134131640Y-76591448D01*
X134239381Y-76552581D01*
X134340169Y-76494323D01*
X134430256Y-76418469D01*
X134505892Y-76326817D01*
X134513864Y-76314772D01*
X134539974Y-76276611D01*
X134562595Y-76247601D01*
X134577039Y-76233732D01*
X134577496Y-76233531D01*
X134593121Y-76236508D01*
X134628582Y-76248311D01*
X134680962Y-76267714D01*
X134747345Y-76293488D01*
X134824814Y-76324409D01*
X134910450Y-76359249D01*
X135001337Y-76396783D01*
X135094559Y-76435783D01*
X135187197Y-76475023D01*
X135276335Y-76513276D01*
X135359055Y-76549317D01*
X135432441Y-76581917D01*
X135493575Y-76609852D01*
X135539541Y-76631895D01*
X135567421Y-76646818D01*
X135574743Y-76652828D01*
X135569041Y-76671191D01*
X135553749Y-76705552D01*
X135531599Y-76749984D01*
X135518650Y-76774417D01*
X135462547Y-76878178D01*
X135546155Y-77001787D01*
X135588987Y-77064886D01*
X135636122Y-77133970D01*
X135680503Y-77198707D01*
X135702852Y-77231134D01*
X135733477Y-77276741D01*
X135757747Y-77315360D01*
X135772587Y-77341952D01*
X135775724Y-77350590D01*
X135767261Y-77363161D01*
X135743636Y-77390984D01*
X135707302Y-77431361D01*
X135660711Y-77481595D01*
X135606317Y-77538988D01*
X135571392Y-77575286D01*
X135508996Y-77638790D01*
X135453188Y-77693673D01*
X135406354Y-77737714D01*
X135370882Y-77768695D01*
X135349161Y-77784398D01*
X135344752Y-77785905D01*
X135327985Y-77778914D01*
X135294082Y-77759594D01*
X135246476Y-77730091D01*
X135188599Y-77692545D01*
X135123884Y-77649100D01*
X135105842Y-77636745D01*
X135040267Y-77591727D01*
X134981228Y-77551340D01*
X134932042Y-77517840D01*
X134896028Y-77493486D01*
X134876502Y-77480536D01*
X134874483Y-77479285D01*
X134858922Y-77481156D01*
X134824709Y-77491087D01*
X134776355Y-77507347D01*
X134718371Y-77528205D01*
X134655270Y-77551927D01*
X134591563Y-77576784D01*
X134531761Y-77601042D01*
X134480376Y-77622971D01*
X134441919Y-77640838D01*
X134420902Y-77652913D01*
X134419894Y-77653771D01*
X134413888Y-77661154D01*
X134407948Y-77673625D01*
X134401460Y-77693920D01*
X134393809Y-77724778D01*
X134384380Y-77768934D01*
X134372559Y-77829126D01*
X134357729Y-77908093D01*
X134339277Y-78008570D01*
X134335310Y-78030325D01*
X134322853Y-78094802D01*
X134310666Y-78151011D01*
X134299926Y-78193987D01*
X134291809Y-78218760D01*
X134289916Y-78222082D01*
X134273138Y-78227556D01*
X134235645Y-78232006D01*
X134181794Y-78235428D01*
X134115944Y-78237819D01*
X134042453Y-78239177D01*
X133965680Y-78239499D01*
X133889983Y-78238781D01*
X133819720Y-78237021D01*
X133759250Y-78234216D01*
X133712930Y-78230362D01*
X133685119Y-78225457D01*
X133679427Y-78222500D01*
X133673686Y-78206037D01*
X133664345Y-78168551D01*
X133652215Y-78113775D01*
X133638107Y-78045445D01*
X133622830Y-77967294D01*
X133614823Y-77924716D01*
X133599721Y-77843929D01*
X133586040Y-77771887D01*
X133574467Y-77712111D01*
X133565687Y-77668121D01*
X133560387Y-77643439D01*
X133559212Y-77639377D01*
X133545965Y-77632511D01*
X133514057Y-77617998D01*
X133468047Y-77597771D01*
X133412492Y-77573766D01*
X133351953Y-77547918D01*
X133290986Y-77522160D01*
X133234151Y-77498427D01*
X133186006Y-77478654D01*
X133151110Y-77464776D01*
X133134021Y-77458726D01*
X133133274Y-77458614D01*
X133119793Y-77465472D01*
X133088770Y-77484698D01*
X133043289Y-77514272D01*
X132986432Y-77552173D01*
X132921283Y-77596380D01*
X132883862Y-77622079D01*
X132815247Y-77668907D01*
X132752952Y-77710499D01*
X132700129Y-77744825D01*
X132659927Y-77769857D01*
X132635500Y-77783565D01*
X132630024Y-77785544D01*
X132617278Y-77777034D01*
X132590063Y-77753507D01*
X132551428Y-77717968D01*
X132504423Y-77673423D01*
X132452095Y-77622877D01*
X132397495Y-77569336D01*
X132343670Y-77515805D01*
X132293670Y-77465289D01*
X132250543Y-77420794D01*
X132217339Y-77385325D01*
X132197106Y-77361887D01*
X132192278Y-77354046D01*
X132199067Y-77341280D01*
X132218142Y-77310744D01*
X132247561Y-77265410D01*
X132285381Y-77208244D01*
X132329661Y-77142216D01*
X132363395Y-77092410D01*
X132534512Y-76840764D01*
X132448041Y-76631001D01*
X132361570Y-76421237D01*
X132060018Y-76364389D01*
X131758466Y-76307540D01*
X131758466Y-75679885D01*
X132060018Y-75623036D01*
X132361570Y-75566188D01*
X132534512Y-75146662D01*
X132363395Y-74895016D01*
X132315750Y-74824542D01*
X132273210Y-74760837D01*
X132237715Y-74706874D01*
X132211210Y-74665627D01*
X132195636Y-74640066D01*
X132192278Y-74633105D01*
X132200914Y-74620565D01*
X132224792Y-74593769D01*
X132260859Y-74555720D01*
X132306067Y-74509421D01*
X132357364Y-74457877D01*
X132411701Y-74404091D01*
X132466028Y-74351065D01*
X132517295Y-74301805D01*
X132562451Y-74259313D01*
X132598446Y-74226593D01*
X132622230Y-74206649D01*
X132630190Y-74201881D01*
X132644865Y-74208743D01*
X132677014Y-74227980D01*
X132723492Y-74257570D01*
X132781156Y-74295490D01*
X132846860Y-74339718D01*
X132884336Y-74365346D01*
X132952768Y-74412059D01*
X133014520Y-74453568D01*
X133066519Y-74487860D01*
X133105692Y-74512920D01*
X133128965Y-74526736D01*
X133133855Y-74528812D01*
X133147755Y-74524105D01*
X133180150Y-74511277D01*
X133226485Y-74492262D01*
X133282206Y-74468997D01*
X133342758Y-74443416D01*
X133403586Y-74417455D01*
X133460136Y-74393050D01*
X133507852Y-74372137D01*
X133542181Y-74356651D01*
X133558568Y-74348528D01*
X133559212Y-74348048D01*
X133562341Y-74335293D01*
X133569321Y-74301323D01*
X133579467Y-74249660D01*
X133592092Y-74183824D01*
X133606509Y-74107336D01*
X133614823Y-74062710D01*
X133630384Y-73980979D01*
X133645192Y-73907157D01*
X133658436Y-73844979D01*
X133669305Y-73798178D01*
X133676989Y-73770491D01*
X133679427Y-73764926D01*
X133695930Y-73759474D01*
X133733200Y-73755076D01*
X133786880Y-73751728D01*
X133852612Y-73749426D01*
X133926037Y-73748168D01*
X134002796Y-73747952D01*
X134078532Y-73748773D01*
G36*
X134078532Y-73748773D02*
G01*
X134148886Y-73750629D01*
X134209500Y-73753518D01*
X134256016Y-73757435D01*
X134284075Y-73762378D01*
X134289916Y-73765343D01*
X134296917Y-73783066D01*
X134306927Y-73820619D01*
X134318769Y-73873036D01*
X134331267Y-73935348D01*
X134335310Y-73957100D01*
X134354520Y-74061976D01*
X134369991Y-74144820D01*
X134382337Y-74208370D01*
X134392173Y-74255363D01*
X134400114Y-74288537D01*
X134406776Y-74310629D01*
X134412773Y-74324376D01*
X134418719Y-74332516D01*
X134419894Y-74333655D01*
X134438826Y-74345023D01*
X134475669Y-74362365D01*
X134525913Y-74383950D01*
X134585046Y-74408046D01*
X134648556Y-74432921D01*
X134711932Y-74456843D01*
X134770662Y-74478081D01*
X134820235Y-74494903D01*
X134856139Y-74505578D01*
X134873862Y-74508373D01*
X134874483Y-74508140D01*
X134888970Y-74498669D01*
X134920844Y-74477182D01*
X134966789Y-74445937D01*
X135023485Y-74407193D01*
X135087617Y-74363207D01*
X135105842Y-74350681D01*
X135171914Y-74306016D01*
X135232200Y-74266712D01*
X135283235Y-74234912D01*
X135321560Y-74212755D01*
X135343711Y-74202383D01*
X135346432Y-74201881D01*
X135360736Y-74210595D01*
X135389072Y-74234675D01*
X135428396Y-74271024D01*
X135475661Y-74316547D01*
X135527823Y-74368148D01*
X135581835Y-74422733D01*
X135634653Y-74477206D01*
X135683231Y-74528471D01*
X135724523Y-74573433D01*
X135755485Y-74608996D01*
X135773070Y-74632065D01*
X135775941Y-74638446D01*
X135769178Y-74653301D01*
X135750939Y-74683714D01*
X135724297Y-74724732D01*
X135702852Y-74756291D01*
X135663503Y-74813475D01*
X135617171Y-74881194D01*
X135570913Y-74949120D01*
X135546155Y-74985639D01*
X135462547Y-75109248D01*
X135518650Y-75213009D01*
X135543228Y-75260280D01*
X135562331Y-75300477D01*
X135573227Y-75327674D01*
X135574743Y-75334598D01*
X135563549Y-75342923D01*
X135531917Y-75359346D01*
X135482765Y-75382643D01*
X135419010Y-75411586D01*
X135343571Y-75444950D01*
X135259364Y-75481509D01*
X135169308Y-75520036D01*
X135076321Y-75559306D01*
X134983320Y-75598092D01*
X134893223Y-75635170D01*
X134808948Y-75669311D01*
X134733413Y-75699292D01*
X134669534Y-75723884D01*
X134620231Y-75741864D01*
X134588421Y-75752003D01*
X134577496Y-75753634D01*
X134563561Y-75740709D01*
X134540940Y-75712411D01*
X134514333Y-75674654D01*
X134512228Y-75671485D01*
X134434114Y-75573900D01*
X134342982Y-75495214D01*
X134241745Y-75436109D01*
X134133318Y-75397268D01*
X134020614Y-75379372D01*
X133906548Y-75383103D01*
X133794034Y-75409143D01*
X133685985Y-75458175D01*
X133662345Y-75472600D01*
X133566887Y-75547631D01*
X133490232Y-75636270D01*
X133432780Y-75735451D01*
X133394929Y-75842105D01*
X133377078Y-75953164D01*
X133379625Y-76065561D01*
X133402970Y-76176227D01*
X133447510Y-76282094D01*
X133513645Y-76380095D01*
X133540487Y-76410410D01*
X133624512Y-76487562D01*
X133712966Y-76543782D01*
X133812115Y-76582347D01*
X133910303Y-76603826D01*
X134020697Y-76609128D01*
X134131640Y-76591448D01*
X134239381Y-76552581D01*
X134340169Y-76494323D01*
X134430256Y-76418469D01*
X134505892Y-76326817D01*
X134513864Y-76314772D01*
X134539974Y-76276611D01*
X134562595Y-76247601D01*
X134577039Y-76233732D01*
X134577496Y-76233531D01*
X134593121Y-76236508D01*
X134628582Y-76248311D01*
X134680962Y-76267714D01*
X134747345Y-76293488D01*
X134824814Y-76324409D01*
X134910450Y-76359249D01*
X135001337Y-76396783D01*
X135094559Y-76435783D01*
X135187197Y-76475023D01*
X135276335Y-76513276D01*
X135359055Y-76549317D01*
X135432441Y-76581917D01*
X135493575Y-76609852D01*
X135539541Y-76631895D01*
X135567421Y-76646818D01*
X135574743Y-76652828D01*
X135569041Y-76671191D01*
X135553749Y-76705552D01*
X135531599Y-76749984D01*
X135518650Y-76774417D01*
X135462547Y-76878178D01*
X135546155Y-77001787D01*
X135588987Y-77064886D01*
X135636122Y-77133970D01*
X135680503Y-77198707D01*
X135702852Y-77231134D01*
X135733477Y-77276741D01*
X135757747Y-77315360D01*
X135772587Y-77341952D01*
X135775724Y-77350590D01*
X135767261Y-77363161D01*
X135743636Y-77390984D01*
X135707302Y-77431361D01*
X135660711Y-77481595D01*
X135606317Y-77538988D01*
X135571392Y-77575286D01*
X135508996Y-77638790D01*
X135453188Y-77693673D01*
X135406354Y-77737714D01*
X135370882Y-77768695D01*
X135349161Y-77784398D01*
X135344752Y-77785905D01*
X135327985Y-77778914D01*
X135294082Y-77759594D01*
X135246476Y-77730091D01*
X135188599Y-77692545D01*
X135123884Y-77649100D01*
X135105842Y-77636745D01*
X135040267Y-77591727D01*
X134981228Y-77551340D01*
X134932042Y-77517840D01*
X134896028Y-77493486D01*
X134876502Y-77480536D01*
X134874483Y-77479285D01*
X134858922Y-77481156D01*
X134824709Y-77491087D01*
X134776355Y-77507347D01*
X134718371Y-77528205D01*
X134655270Y-77551927D01*
X134591563Y-77576784D01*
X134531761Y-77601042D01*
X134480376Y-77622971D01*
X134441919Y-77640838D01*
X134420902Y-77652913D01*
X134419894Y-77653771D01*
X134413888Y-77661154D01*
X134407948Y-77673625D01*
X134401460Y-77693920D01*
X134393809Y-77724778D01*
X134384380Y-77768934D01*
X134372559Y-77829126D01*
X134357729Y-77908093D01*
X134339277Y-78008570D01*
X134335310Y-78030325D01*
X134322853Y-78094802D01*
X134310666Y-78151011D01*
X134299926Y-78193987D01*
X134291809Y-78218760D01*
X134289916Y-78222082D01*
X134273138Y-78227556D01*
X134235645Y-78232006D01*
X134181794Y-78235428D01*
X134115944Y-78237819D01*
X134042453Y-78239177D01*
X133965680Y-78239499D01*
X133889983Y-78238781D01*
X133819720Y-78237021D01*
X133759250Y-78234216D01*
X133712930Y-78230362D01*
X133685119Y-78225457D01*
X133679427Y-78222500D01*
X133673686Y-78206037D01*
X133664345Y-78168551D01*
X133652215Y-78113775D01*
X133638107Y-78045445D01*
X133622830Y-77967294D01*
X133614823Y-77924716D01*
X133599721Y-77843929D01*
X133586040Y-77771887D01*
X133574467Y-77712111D01*
X133565687Y-77668121D01*
X133560387Y-77643439D01*
X133559212Y-77639377D01*
X133545965Y-77632511D01*
X133514057Y-77617998D01*
X133468047Y-77597771D01*
X133412492Y-77573766D01*
X133351953Y-77547918D01*
X133290986Y-77522160D01*
X133234151Y-77498427D01*
X133186006Y-77478654D01*
X133151110Y-77464776D01*
X133134021Y-77458726D01*
X133133274Y-77458614D01*
X133119793Y-77465472D01*
X133088770Y-77484698D01*
X133043289Y-77514272D01*
X132986432Y-77552173D01*
X132921283Y-77596380D01*
X132883862Y-77622079D01*
X132815247Y-77668907D01*
X132752952Y-77710499D01*
X132700129Y-77744825D01*
X132659927Y-77769857D01*
X132635500Y-77783565D01*
X132630024Y-77785544D01*
X132617278Y-77777034D01*
X132590063Y-77753507D01*
X132551428Y-77717968D01*
X132504423Y-77673423D01*
X132452095Y-77622877D01*
X132397495Y-77569336D01*
X132343670Y-77515805D01*
X132293670Y-77465289D01*
X132250543Y-77420794D01*
X132217339Y-77385325D01*
X132197106Y-77361887D01*
X132192278Y-77354046D01*
X132199067Y-77341280D01*
X132218142Y-77310744D01*
X132247561Y-77265410D01*
X132285381Y-77208244D01*
X132329661Y-77142216D01*
X132363395Y-77092410D01*
X132534512Y-76840764D01*
X132448041Y-76631001D01*
X132361570Y-76421237D01*
X132060018Y-76364389D01*
X131758466Y-76307540D01*
X131758466Y-75679885D01*
X132060018Y-75623036D01*
X132361570Y-75566188D01*
X132534512Y-75146662D01*
X132363395Y-74895016D01*
X132315750Y-74824542D01*
X132273210Y-74760837D01*
X132237715Y-74706874D01*
X132211210Y-74665627D01*
X132195636Y-74640066D01*
X132192278Y-74633105D01*
X132200914Y-74620565D01*
X132224792Y-74593769D01*
X132260859Y-74555720D01*
X132306067Y-74509421D01*
X132357364Y-74457877D01*
X132411701Y-74404091D01*
X132466028Y-74351065D01*
X132517295Y-74301805D01*
X132562451Y-74259313D01*
X132598446Y-74226593D01*
X132622230Y-74206649D01*
X132630190Y-74201881D01*
X132644865Y-74208743D01*
X132677014Y-74227980D01*
X132723492Y-74257570D01*
X132781156Y-74295490D01*
X132846860Y-74339718D01*
X132884336Y-74365346D01*
X132952768Y-74412059D01*
X133014520Y-74453568D01*
X133066519Y-74487860D01*
X133105692Y-74512920D01*
X133128965Y-74526736D01*
X133133855Y-74528812D01*
X133147755Y-74524105D01*
X133180150Y-74511277D01*
X133226485Y-74492262D01*
X133282206Y-74468997D01*
X133342758Y-74443416D01*
X133403586Y-74417455D01*
X133460136Y-74393050D01*
X133507852Y-74372137D01*
X133542181Y-74356651D01*
X133558568Y-74348528D01*
X133559212Y-74348048D01*
X133562341Y-74335293D01*
X133569321Y-74301323D01*
X133579467Y-74249660D01*
X133592092Y-74183824D01*
X133606509Y-74107336D01*
X133614823Y-74062710D01*
X133630384Y-73980979D01*
X133645192Y-73907157D01*
X133658436Y-73844979D01*
X133669305Y-73798178D01*
X133676989Y-73770491D01*
X133679427Y-73764926D01*
X133695930Y-73759474D01*
X133733200Y-73755076D01*
X133786880Y-73751728D01*
X133852612Y-73749426D01*
X133926037Y-73748168D01*
X134002796Y-73747952D01*
X134078532Y-73748773D01*
G37*
D13*
X148513185Y-81855197D02*
X149513185Y-81855197D01*
X148513185Y-82855197D02*
X148513185Y-81855197D01*
X150430041Y-84495197D02*
X150903185Y-84495197D01*
X150430041Y-85215197D02*
X150903185Y-85215197D01*
X150498185Y-82495197D02*
X150903185Y-82495197D01*
X150498185Y-83215197D02*
X150903185Y-83215197D01*
X150903185Y-81745197D02*
X150903185Y-85965197D01*
X150903185Y-83855197D02*
X152623185Y-83855197D01*
X150903185Y-85965197D02*
X152623185Y-85965197D01*
X152623185Y-81745197D02*
X150903185Y-81745197D01*
X152623185Y-85965197D02*
X152623185Y-81745197D01*
X110310000Y-54125197D02*
X115500000Y-54125197D01*
X110310000Y-58925197D02*
X110310000Y-54125197D01*
X115500000Y-54125197D02*
X115500000Y-58925197D01*
X115500000Y-58925197D02*
X110310000Y-58925197D01*
X118290000Y-55255197D02*
X115500000Y-55255197D01*
X118290000Y-56525197D02*
X115500000Y-56525197D01*
X118290000Y-57795197D02*
X115500000Y-57795197D01*
X113970000Y-66425197D02*
X120510000Y-66425197D01*
X113970000Y-66755197D02*
X113970000Y-66425197D01*
X113970000Y-68835197D02*
X113970000Y-69165197D01*
X113970000Y-69165197D02*
X120510000Y-69165197D01*
X120510000Y-66425197D02*
X120510000Y-66755197D01*
X120510000Y-69165197D02*
X120510000Y-68835197D01*
X144720000Y-66395197D02*
X144720000Y-72935197D01*
X144720000Y-72935197D02*
X145050000Y-72935197D01*
X145050000Y-66395197D02*
X144720000Y-66395197D01*
X147130000Y-66395197D02*
X147460000Y-66395197D01*
X147460000Y-66395197D02*
X147460000Y-72935197D01*
X147460000Y-72935197D02*
X147130000Y-72935197D01*
X113950000Y-61655197D02*
X113950000Y-61985197D01*
X113950000Y-64395197D02*
X113950000Y-64065197D01*
X120490000Y-61655197D02*
X113950000Y-61655197D01*
X120490000Y-61985197D02*
X120490000Y-61655197D01*
X120490000Y-64065197D02*
X120490000Y-64395197D01*
X120490000Y-64395197D02*
X113950000Y-64395197D01*
X110310000Y-86255197D02*
X115500000Y-86255197D01*
X110310000Y-91055197D02*
X110310000Y-86255197D01*
X115500000Y-86255197D02*
X115500000Y-91055197D01*
X115500000Y-91055197D02*
X110310000Y-91055197D01*
X118290000Y-87385197D02*
X115500000Y-87385197D01*
X118290000Y-88655197D02*
X115500000Y-88655197D01*
X118290000Y-89925197D02*
X115500000Y-89925197D01*
%LPC*%
D16*
X142710000Y-65855197D03*
X142710000Y-73475197D03*
D17*
X139100000Y-55842012D03*
D18*
X139100000Y-58382012D03*
D16*
X149450000Y-65845197D03*
X149450000Y-73465197D03*
D19*
X126540000Y-61585197D03*
D18*
X126540000Y-69205197D03*
D17*
X146110000Y-55845197D03*
D18*
X146110000Y-58385197D03*
D17*
X131960000Y-55832012D03*
D18*
X131960000Y-58372012D03*
D20*
X149513185Y-82855197D03*
D21*
X149513185Y-84855197D03*
D22*
X119310000Y-55255197D03*
D23*
X119310000Y-56525197D03*
X119310000Y-57795197D03*
D16*
X113430000Y-67795197D03*
X121050000Y-67795197D03*
X146090000Y-65855197D03*
X146090000Y-73475197D03*
X121030000Y-63025197D03*
X113410000Y-63025197D03*
D22*
X119310000Y-87385197D03*
D23*
X119310000Y-88655197D03*
X119310000Y-89925197D03*
D24*
X134723185Y-97675197D03*
D25*
X137263185Y-97675197D03*
X139803185Y-97675197D03*
X142343185Y-97675197D03*
X144883185Y-97675197D03*
X147423185Y-97675197D03*
D24*
X111973185Y-97665197D03*
D25*
X114513185Y-97665197D03*
X117053185Y-97665197D03*
X119593185Y-97665197D03*
X122133185Y-97665197D03*
X124673185Y-97665197D03*
X127213185Y-97665197D03*
X129753185Y-97665197D03*
D24*
X102843185Y-49405197D03*
D25*
X105383185Y-49405197D03*
X107923185Y-49405197D03*
X110463185Y-49405197D03*
X113003185Y-49405197D03*
X115543185Y-49405197D03*
X118083185Y-49405197D03*
X120623185Y-49405197D03*
X123163185Y-49405197D03*
X125703185Y-49405197D03*
D24*
X129763185Y-49445197D03*
D25*
X132303185Y-49445197D03*
X134843185Y-49445197D03*
X137383185Y-49445197D03*
X139923185Y-49445197D03*
X142463185Y-49445197D03*
X145003185Y-49445197D03*
X147543185Y-49445197D03*
%LPD*%
M02*
